<svg width="16" height="12" viewBox="0 0 16 12" fill="none" xmlns="http://www.w3.org/2000/svg">
<path d="M8.32138 11.0095L5.05179 10.9497C3.99318 10.9288 2.93193 10.9704 1.89407 10.7546C0.315248 10.432 0.203399 8.8506 0.0863603 7.52403C-0.0749067 5.65908 -0.0124753 3.76028 0.291857 1.9109C0.463662 0.873202 1.13979 0.253998 2.18539 0.186617C5.71506 -0.0579183 9.26821 -0.0289384 12.79 0.0851461C13.162 0.0956042 13.5365 0.152766 13.9033 0.217832C15.7137 0.535177 15.7579 2.32732 15.8752 3.83597C15.9923 5.36018 15.9428 6.89222 15.7191 8.40605C15.5397 9.65948 15.1963 10.7106 13.7472 10.812C11.9316 10.9448 10.1576 11.0516 8.33692 11.0176C8.337 11.0095 8.32658 11.0095 8.32138 11.0095ZM6.39917 7.83617C7.76743 7.05061 9.10951 6.27812 10.4699 5.49781C9.0991 4.71224 7.75954 3.93975 6.39917 3.15944V7.83617Z" fill="#FF0000"/>
</svg>
