<svg width="22" height="22" viewBox="0 0 22 22" fill="none" xmlns="http://www.w3.org/2000/svg">
  <path d="M14.889 7.11091C17.0369 9.2588 17.0369 12.7412 14.889 14.8891M7.11083 14.8891C4.96295 12.7412 4.96295 9.25876 7.11083 7.11088M4.51811 17.4818C0.9383 13.902 0.9383 8.09799 4.51811 4.51819M17.4817 4.51823C21.0615 8.09804 21.0615 13.902 17.4817 17.4819M12.8333 11C12.8333 12.0125 12.0124 12.8333 10.9999 12.8333C9.9874 12.8333 9.16658 12.0125 9.16658 11C9.16658 9.98748 9.9874 9.16667 10.9999 9.16667C12.0124 9.16667 12.8333 9.98748 12.8333 11Z" stroke="#FFFFFF" stroke-width="2" stroke-linecap="round" stroke-linejoin="round"/>
</svg>
