<svg width="20" height="20" viewBox="0 0 20 20" fill="none" xmlns="http://www.w3.org/2000/svg">
<path d="M10.5654 10.5654L19.4346 10.5654C19.7469 10.5654 20 10.3122 20 9.99999C20 9.68775 19.7469 9.43459 19.4346 9.43461L10.5654 9.43462L10.5654 0.565377C10.5654 0.253115 10.3123 -2.03794e-05 10 1.22984e-09C9.68777 2.03819e-05 9.43461 0.253136 9.43463 0.565378L9.43462 9.4346L0.565378 9.43463C0.253116 9.43463 -1.95925e-05 9.68777 1.13581e-09 10C-1.95598e-07 10.1561 0.0633036 10.2975 0.165625 10.3998C0.267947 10.5021 0.409266 10.5654 0.565397 10.5654L9.4346 10.5654L9.43459 19.4346C9.43459 19.5907 9.49789 19.7321 9.60021 19.8344C9.70254 19.9367 9.84386 20 9.99999 20C10.3122 20 10.5654 19.7469 10.5654 19.4346L10.5654 10.5654Z" fill="white"/>
</svg>
