<svg xmlns="http://www.w3.org/2000/svg" width="24" height="24" fill="none">
<path stroke="#fff" stroke-linecap="round" stroke-linejoin="round" stroke-width="2" d="m9 11.5 2 2L15.5 9m4.5 3c0 4.9-5.35 8.48-7.3 9.61-.22.13-.33.2-.49.23-.12.03-.3.03-.42 0-.16-.03-.27-.1-.49-.23C9.35 20.48 4 16.91 4 12V7.22c0-.8 0-1.2.13-1.55a2 2 0 0 1 .55-.79c.27-.24.65-.38 1.4-.66l5.36-2.01c.2-.08.31-.12.42-.13a1 1 0 0 1 .28 0c.11.01.21.05.42.13l5.36 2.01c.75.28 1.13.42 1.4.66a2 2 0 0 1 .55.8c.13.34.13.74.13 1.54V12Z"/>
</svg>
