<?xml version="1.0" standalone="no"?>
<!DOCTYPE svg PUBLIC "-//W3C//DTD SVG 1.1//EN" "http://www.w3.org/Graphics/SVG/1.1/DTD/svg11.dtd" >
<svg xmlns="http://www.w3.org/2000/svg" xmlns:xlink="http://www.w3.org/1999/xlink" version="1.1">
<metadata>
Created by FontForge 20170731 at Thu May  5 05:15:24 2022
 By Aleksey,,,
(c) TipoType 2019, all rights reserved.
</metadata>
<defs>
<font id="Rotunda-BoldItalic" horiz-adv-x="1331" >
  <font-face 
    font-family="Rotunda Reg-Bold"
    font-weight="700"
    font-style="italic"
    font-stretch="normal"
    units-per-em="2048"
    panose-1="0 0 0 0 0 0 0 0 0 0"
    ascent="1638"
    descent="-410"
    x-height="1051"
    cap-height="1460"
    bbox="-461 -561 2386.15 2402"
    underline-thickness="102"
    underline-position="-307"
    unicode-range="U+0020-FB00"
  />
<missing-glyph horiz-adv-x="1304" 
d="M74 0l258 1460h1157l-258 -1460h-1157zM918 729l153 -346l123 694zM811 899l260 334h-403zM492 227h403l-143 332zM369 383l276 346l-153 348z" />
    <glyph glyph-name="f_j" unicode="fj" horiz-adv-x="1292" 
d="M338 805h-145l43 246h145l10 53q31 174 156.5 277.5t312.5 103.5q103 0 156 -33l-45 -254q-44 23 -101 23q-67 0 -112.5 -30.5t-55.5 -92.5l-10 -47h211l-43 -246h-211l-141 -805h-311zM545 -408l45 258q44 -16 98 -16q60 0 102.5 33t55.5 104l188 1080h312l-193 -1100
q-15 -84 -48 -150.5t-76.5 -110t-98.5 -72t-111.5 -40.5t-118.5 -12q-102 0 -155 26zM1212 1182q-72 0 -113.5 48t-29.5 120q13 71 71.5 118.5t131.5 47.5t114.5 -47.5t28.5 -118.5q-12 -71 -71 -119.5t-132 -48.5z" />
    <glyph glyph-name=".notdef" horiz-adv-x="1304" 
d="M74 0l258 1460h1157l-258 -1460h-1157zM918 729l153 -346l123 694zM811 899l260 334h-403zM492 227h403l-143 332zM369 383l276 346l-153 348z" />
    <glyph glyph-name="uni0000" horiz-adv-x="0" 
 />
    <glyph glyph-name="uni0000" horiz-adv-x="0" 
 />
    <glyph glyph-name="uni000D" horiz-adv-x="624" 
 />
    <glyph glyph-name="space" unicode=" " horiz-adv-x="491" 
 />
    <glyph glyph-name="exclam" unicode="!" horiz-adv-x="622" 
d="M518 436h-260l150 1024h319zM307 -23q-74 0 -115 48.5t-28 121.5q12 72 70.5 120t132.5 48q73 0 115.5 -48.5t29.5 -119.5q-12 -72 -72 -121t-133 -49z" />
    <glyph glyph-name="quotedbl" unicode="&#x22;" horiz-adv-x="749" 
d="M618 903l68 557h229l-131 -557h-166zM449 903h-166l67 557h230z" />
    <glyph glyph-name="numbersign" unicode="#" horiz-adv-x="1452" 
d="M109 397l86 238h274l63 178h-278l84 238h278l127 362h256l-127 -362h195l127 362h256l-127 -362h276l-81 -238h-279l-63 -178h280l-84 -238h-278l-129 -364h-256l129 364h-195l-127 -364h-258l129 364h-278zM788 813l-61 -178h193l63 178h-195z" />
    <glyph glyph-name="dollar" unicode="$" horiz-adv-x="1138" 
d="M82 268l260 183q34 -86 105.5 -138.5t168.5 -52.5q92 0 156.5 38t75.5 97q11 63 -29.5 97.5t-155.5 85.5q-60 27 -94 43l-55 27.5t-52 28t-49.5 30.5t-44 32.5t-39 37.5t-31.5 41.5t-24.5 47.5t-14 53.5t-4.5 61.5t7 70q29 163 160.5 280t314.5 146l45 249h201l-45 -247
q122 -19 211 -86t131 -174l-262 -175q-69 156 -227 156q-80 0 -140.5 -38t-72.5 -103q-3 -21 0.5 -38.5t17 -33.5t27 -27.5t41 -26.5t46 -24t55.5 -26t58 -27q38 -18 64 -30.5t59.5 -30.5t55.5 -32.5t48.5 -34.5t43 -39t33.5 -42.5t25.5 -49t14.5 -55t5.5 -64t-7.5 -72.5
q-29 -161 -164.5 -281t-338.5 -145l-44 -250h-200l43 252q-133 22 -234 95.5t-145 190.5z" />
    <glyph glyph-name="percent" unicode="%" horiz-adv-x="1576" 
d="M526 774q-148 0 -233.5 99t-59.5 247q26 147 146.5 247.5t267.5 100.5q146 0 230.5 -100.5t58.5 -247.5q-26 -148 -145 -247t-265 -99zM1186 -25q-147 0 -232 99.5t-59 247.5q26 147 146.5 247.5t267.5 100.5q146 0 230 -100.5t58 -247.5q-26 -148 -145.5 -247.5
t-265.5 -99.5zM164 0l1325 1460h192l-1325 -1460h-192zM1106 322q-11 -61 22 -100.5t95 -39.5q61 0 105.5 39.5t55.5 100.5q11 63 -20 101t-92 38q-63 0 -109.5 -38t-56.5 -101zM444 1120q-9 -61 23 -100t94 -39q61 0 107 39.5t55 99.5q12 63 -19.5 101.5t-93.5 38.5
q-63 0 -108.5 -38.5t-57.5 -101.5z" />
    <glyph glyph-name="ampersand" unicode="&#x26;" horiz-adv-x="1423" 
d="M608 -25q-148 0 -264.5 48t-177.5 141.5t-39 214.5q21 122 111 219t251 188q-71 94 -99.5 167t-12.5 159q17 95 84 179.5t178.5 139t241.5 54.5q125 0 216 -53t129 -136.5t21 -177.5q-20 -113 -103.5 -199t-258.5 -184l198 -262q99 145 111 313h268q-10 -140 -70 -272
t-157 -240l207 -274h-352l-74 96q-199 -121 -408 -121zM430 408q-8 -43 8 -77t49 -54t74.5 -30.5t87.5 -10.5q119 0 221 51l-245 323q-88 -49 -136 -95.5t-59 -106.5zM666 1114q-8 -48 12.5 -90.5t71.5 -108.5q107 60 157 104.5t58 96.5q9 54 -28 89.5t-99 35.5
q-65 0 -114 -37t-58 -90z" />
    <glyph glyph-name="quotesingle" unicode="'" horiz-adv-x="413" 
d="M449 903h-166l67 557h230z" />
    <glyph glyph-name="parenleft" unicode="(" horiz-adv-x="657" 
d="M276 -266q-79 208 -102 443t19 491q42 242 151 485t262 451h299q-154 -228 -256 -470.5t-141 -465.5q-40 -217 -23 -460.5t90 -473.5h-299z" />
    <glyph glyph-name="parenright" unicode=")" horiz-adv-x="657" 
d="M-12 -268q154 228 256.5 470t142.5 466q39 217 21 460.5t-91 473.5h299q79 -208 102.5 -443t-16.5 -491q-43 -242 -152.5 -485.5t-262.5 -450.5h-299z" />
    <glyph glyph-name="asterisk" unicode="*" horiz-adv-x="733" 
d="M262 1104l35 199l213 -54l-125 164l180 96l31 -213l104 213l148 -96l-180 -164l227 54l-35 -199l-211 53l125 -164l-182 -96l-29 215l-106 -215l-146 96l181 164z" />
    <glyph glyph-name="plus" unicode="+" horiz-adv-x="1126" 
d="M143 596l50 270h389l67 389h273l-68 -389h387l-49 -270h-387l-68 -387h-272l67 387h-389z" />
    <glyph glyph-name="comma" unicode="," horiz-adv-x="514" 
d="M66 -285l137 267q-50 15 -76.5 59t-17.5 102q14 72 71.5 120t130.5 48q74 0 115.5 -48t28.5 -120q-4 -24 -29 -73l-221 -355h-139z" />
    <glyph glyph-name="hyphen" unicode="-" horiz-adv-x="937" 
d="M905 432h-721l45 256h721z" />
    <glyph glyph-name="period" unicode="." horiz-adv-x="501" 
d="M246 -25q-72 0 -114 48t-30 120q13 72 72 120t131 48q73 0 115 -48.5t29 -119.5q-12 -71 -71 -119.5t-132 -48.5z" />
    <glyph glyph-name="slash" unicode="/" horiz-adv-x="1130" 
d="M1083 1614h318l-1118 -1901h-320z" />
    <glyph glyph-name="zero" unicode="0" horiz-adv-x="1359" 
d="M676 -25q-106 0 -189 27t-138.5 77.5t-91.5 118.5t-50.5 153.5t-12 179t20.5 198.5q22 126 61.5 236t101.5 207t142 165.5t188 108t234 39.5q106 0 189 -27.5t138.5 -78t91.5 -118.5t50.5 -154t12 -179.5t-20.5 -198.5q-22 -126 -61.5 -236t-101.5 -206.5t-142 -164.5
t-188 -107.5t-234 -39.5zM532 729q-23 -140 -16 -243.5t60 -162.5t151 -59q275 0 358 465q82 467 -194 467q-277 0 -359 -467z" />
    <glyph glyph-name="one" unicode="1" horiz-adv-x="1044" 
d="M92 0l51 291h320l137 782q-120 -93 -356 -96l51 285q278 11 455 198h235l-207 -1169h312l-52 -291h-946z" />
    <glyph glyph-name="two" unicode="2" horiz-adv-x="1161" 
d="M1077 0h-993q4 90 18 172q15 89 58.5 168.5t102.5 138.5t130.5 114t143.5 96.5t142 85t125 80t92.5 80.5t45.5 89q13 73 -31.5 117.5t-130.5 44.5q-83 0 -164 -47t-133 -121l-207 168q94 137 247.5 218t322.5 81q95 0 178.5 -29t144.5 -82.5t88 -139t9 -190.5
q-16 -89 -65 -168.5t-115.5 -137.5t-143.5 -109.5t-153.5 -94t-140 -82t-108 -82.5t-53.5 -87h639z" />
    <glyph glyph-name="three" unicode="3" horiz-adv-x="1169" 
d="M82 256l262 186q34 -81 98 -126.5t144 -45.5q100 0 175.5 53.5t88.5 135.5q19 101 -47.5 159t-200.5 58q-109 0 -180 -19l33 191l364 326h-495l51 286h913l-37 -211l-407 -354q165 -15 259 -135t64 -291q-25 -144 -115 -257t-225 -175t-292 -62q-165 0 -282 76t-171 205z
" />
    <glyph glyph-name="four" unicode="4" horiz-adv-x="1228" 
d="M80 344l35 205l747 911h383l-147 -833h182l-49 -283h-182l-62 -344h-299l62 344h-670zM887 1100l-391 -482h307z" />
    <glyph glyph-name="five" unicode="5" horiz-adv-x="1159" 
d="M92 279l270 172q33 -82 92 -131.5t144 -49.5q105 0 177 57.5t87 151.5q18 97 -36 159t-162 62q-142 0 -242 -77l-174 77l201 760h802l-51 -286h-534l-64 -240q58 24 168 24q228 0 339 -126.5t73 -342.5q-39 -225 -209.5 -369.5t-413.5 -144.5q-171 0 -293 80.5
t-174 223.5z" />
    <glyph glyph-name="six" unicode="6" horiz-adv-x="1159" 
d="M590 -27q-109 0 -200 40t-149 108t-82.5 162t-6.5 198q20 106 73 197t146 199l489 581h359l-437 -512q12 4 41 4q200 0 307 -136t72 -341q-25 -140 -113.5 -254.5t-220 -180t-278.5 -65.5zM457 471q-19 -99 32 -161t148 -62q98 0 171.5 61.5t90.5 159.5
q19 96 -33.5 158.5t-148.5 62.5q-98 0 -170.5 -61.5t-89.5 -157.5z" />
    <glyph glyph-name="seven" unicode="7" horiz-adv-x="1021" 
d="M72 0l776 1169h-608l51 291h977l-43 -235l-822 -1225h-331z" />
    <glyph glyph-name="eight" unicode="8" horiz-adv-x="1204" 
d="M598 -25q-149 0 -257.5 56.5t-157.5 157t-27 225.5q15 82 62.5 152t104 112.5t119.5 66.5q-70 36 -111.5 123t-23.5 191q22 124 104 222t200.5 151t252.5 53q204 0 321.5 -119t84.5 -307q-18 -103 -90 -190.5t-154 -123.5q85 -39 138 -125t32 -206q-34 -191 -202.5 -315
t-395.5 -124zM465 428q-13 -79 37.5 -129.5t142.5 -50.5q93 0 164 50.5t84 129.5q15 83 -36.5 132.5t-145.5 49.5t-162.5 -49.5t-83.5 -132.5zM604 1049q-12 -73 33 -118.5t121 -45.5t137.5 45.5t73.5 118.5q13 73 -32.5 117t-121.5 44t-137 -44t-74 -117z" />
    <glyph glyph-name="nine" unicode="9" horiz-adv-x="1159" 
d="M594 508q-200 0 -308 136t-71 341q24 140 112.5 254.5t220.5 180t279 65.5q146 0 255 -67.5t157.5 -184t24.5 -256.5q-19 -105 -71.5 -195t-145.5 -200l-490 -582h-358l436 512q-12 -4 -41 -4zM516 989q-17 -96 34.5 -158.5t147.5 -62.5q98 0 172 61.5t91 157.5
q17 99 -34.5 161t-148.5 62q-98 0 -171.5 -61.5t-90.5 -159.5z" />
    <glyph glyph-name="colon" unicode=":" horiz-adv-x="563" 
d="M412 741q-72 0 -114 48t-30 120q13 71 71.5 118.5t131.5 47.5t114.5 -47.5t28.5 -118.5q-12 -71 -70.5 -119.5t-131.5 -48.5zM276 -23q-72 0 -113 48t-28 120q12 71 70 118.5t131 47.5t115 -47.5t30 -118.5q-13 -71 -72.5 -119.5t-132.5 -48.5z" />
    <glyph glyph-name="semicolon" unicode=";" horiz-adv-x="567" 
d="M231 -285h-139l137 267q-50 15 -76.5 59t-17.5 102q13 72 71 120t132 48t115 -48t28 -120q-4 -27 -28 -73zM414 741q-72 0 -114 48t-30 120q13 71 71.5 118.5t131.5 47.5t114.5 -47.5t28.5 -118.5q-12 -71 -70.5 -119.5t-131.5 -48.5z" />
    <glyph glyph-name="less" unicode="&#x3c;" horiz-adv-x="1091" 
d="M188 852l1006 416l-51 -289l-615 -250l527 -248l-49 -288l-861 413z" />
    <glyph glyph-name="equal" unicode="=" horiz-adv-x="1142" 
d="M307 1092h914l-47 -271h-914zM229 645h914l-49 -270h-914z" />
    <glyph glyph-name="greater" unicode="&#x3e;" horiz-adv-x="1091" 
d="M1159 604l-1005 -416l51 289l616 250l-528 248l51 289l858 -414z" />
    <glyph glyph-name="question" unicode="?" horiz-adv-x="1013" 
d="M416 1055l-172 182q79 105 211.5 176.5t287.5 71.5q96 0 177 -27.5t139 -80t83 -135.5t7 -187q-12 -69 -42.5 -127.5t-70 -100t-85 -77.5t-89.5 -66t-81.5 -59t-63.5 -63.5t-33 -72.5l-14 -79h-291l20 114q13 73 49.5 133.5t81.5 98.5t96.5 75t95 65t76 66t40.5 80
q12 71 -31.5 112.5t-126.5 41.5t-152 -42.5t-112 -98.5zM449 -25q-72 0 -114 48t-30 120q13 71 71.5 118.5t131.5 47.5t114.5 -47.5t28.5 -118.5q-12 -71 -70.5 -119.5t-131.5 -48.5z" />
    <glyph glyph-name="at" unicode="@" horiz-adv-x="1957" 
d="M932 -301q-130 0 -246 33.5t-206 93.5t-161 144.5t-109.5 186t-52 217.5t10.5 240q33 184 134 352.5t245.5 292.5t330.5 197.5t379 73.5q128 0 241.5 -32.5t201 -91t156 -140t106 -179.5t51 -209t-9.5 -229q-38 -218 -168.5 -357.5t-298.5 -139.5q-93 0 -155 45t-89 114
q-59 -69 -144.5 -116.5t-182.5 -47.5q-181 0 -279 129.5t-63 327.5q35 197 178 327t317 130q80 0 145 -35t87 -86l16 96h233l-98 -555q-8 -52 14 -85.5t64 -33.5q55 0 104 74t74 213q23 129 -5.5 246.5t-99 204.5t-184.5 138.5t-254 51.5q-191 0 -363 -90.5t-287 -245
t-148 -340.5q-25 -137 3 -261.5t99 -217t189 -147t266 -54.5q92 0 202.5 31.5t190.5 75.5l64 -205q-90 -56 -230.5 -96.5t-267.5 -40.5zM866 604q-18 -102 33 -168.5t137 -66.5q87 0 161.5 66.5t92.5 168.5q18 104 -33.5 171t-138.5 67q-86 0 -160 -67.5t-92 -170.5z" />
    <glyph glyph-name="A" unicode="A" horiz-adv-x="1394" 
d="M-16 0l819 1460h307l301 -1460h-319l-68 334h-535l-186 -334h-319zM893 1106l-260 -504h344z" />
    <glyph glyph-name="B" unicode="B" horiz-adv-x="1318" 
d="M745 0h-575l258 1460h565q199 0 305 -107t74 -288q-21 -115 -95.5 -202.5t-160.5 -117.5q45 -13 83 -39.5t69 -70t40.5 -102t-1.5 -136.5q-32 -181 -188.5 -289t-373.5 -108zM594 621l-62 -349h254q74 0 133.5 52t73.5 125q12 70 -37 121t-129 51h-233zM694 1188
l-55 -314h213q77 0 131.5 47t65.5 117q12 65 -27.5 107.5t-120.5 42.5h-207z" />
    <glyph glyph-name="C" unicode="C" horiz-adv-x="1480" 
d="M821 -25q-160 0 -290.5 59t-212 160.5t-114 241t-5.5 295.5q27 157 108.5 296t198 240t269.5 159.5t317 58.5q206 0 351.5 -91t205.5 -253l-271 -189q-37 104 -130.5 168t-213.5 64q-191 0 -333.5 -129t-176.5 -324q-34 -193 64.5 -324t281.5 -131q248 0 435 236
l206 -184q-125 -160 -307.5 -256.5t-382.5 -96.5z" />
    <glyph glyph-name="D" unicode="D" horiz-adv-x="1521" 
d="M170 0l258 1460h537q212 0 366.5 -98t220 -264t29.5 -365q-36 -203 -160 -370.5t-312.5 -265t-401.5 -97.5h-537zM532 272h195q186 0 339.5 132t188.5 327q34 192 -71.5 324.5t-292.5 132.5h-197z" />
    <glyph glyph-name="E" unicode="E" horiz-adv-x="1218" 
d="M170 2l258 1458h958l-49 -274h-643l-55 -314h528l-49 -274h-528l-55 -322h667l-49 -274h-983z" />
    <glyph glyph-name="F" unicode="F" horiz-adv-x="1128" 
d="M170 0l258 1460h911l-49 -274h-596l-61 -350h489l-49 -273h-489l-99 -563h-315z" />
    <glyph glyph-name="G" unicode="G" horiz-adv-x="1556" 
d="M825 -25q-109 0 -205 26.5t-170 75.5t-131.5 117.5t-88.5 152.5t-41 181.5t10 202.5q27 157 109 296t200.5 239.5t273 159.5t320.5 59q207 0 345.5 -86t211.5 -230l-266 -194q-49 92 -137 150.5t-212 58.5q-193 0 -339.5 -129.5t-180.5 -323.5t64.5 -324.5t285.5 -130.5
q121 0 213 41.5t170 124.5l19 109h-311l47 258h606l-86 -485q-130 -157 -311 -253t-396 -96z" />
    <glyph glyph-name="H" unicode="H" horiz-adv-x="1568" 
d="M170 0l258 1460h315l-102 -573h598l102 573h316l-258 -1460h-316l105 596h-598l-105 -596h-315z" />
    <glyph glyph-name="I" unicode="I" horiz-adv-x="655" 
d="M170 0l258 1460h315l-258 -1460h-315z" />
    <glyph glyph-name="J" unicode="J" horiz-adv-x="1083" 
d="M49 293l275 151q20 -90 60.5 -135t111.5 -45q76 0 129 52.5t67 134.5l178 1009h316l-180 -1016q-37 -208 -193 -338.5t-369 -130.5q-160 0 -263.5 83.5t-131.5 234.5z" />
    <glyph glyph-name="K" unicode="K" horiz-adv-x="1388" 
d="M485 0h-315l258 1460h315l-112 -641l645 641h385l-633 -631l397 -829h-366l-289 608l-215 -209z" />
    <glyph glyph-name="L" unicode="L" horiz-adv-x="1089" 
d="M170 0l258 1460h315l-208 -1184h589l-49 -276h-905z" />
    <glyph glyph-name="M" unicode="M" horiz-adv-x="1859" 
d="M170 0l258 1460h283l344 -749l612 749h281l-258 -1460h-316l158 895l-475 -582h-142l-272 582l-158 -895h-315z" />
    <glyph glyph-name="N" unicode="N" horiz-adv-x="1593" 
d="M170 0l258 1460h266l510 -915l162 915h315l-258 -1460h-266l-508 926l-164 -926h-315z" />
    <glyph glyph-name="O" unicode="O" horiz-adv-x="1660" 
d="M827 -25q-163 0 -294.5 59t-213.5 160.5t-114.5 241t-5.5 295.5t109 295.5t200 240t270.5 159.5t315.5 59q216 0 372.5 -100t223.5 -272.5t30 -381.5q-27 -156 -109 -295.5t-199.5 -241t-270 -160.5t-314.5 -59zM524 731q-34 -195 67.5 -326t289.5 -131t334 131t180 326
t-66.5 325t-288.5 130t-335 -130.5t-181 -324.5z" />
    <glyph glyph-name="P" unicode="P" horiz-adv-x="1259" 
d="M170 0l258 1460h551q104 0 190.5 -37.5t142 -102t78.5 -155t5 -192.5q-38 -213 -208.5 -355.5t-379.5 -142.5h-240l-84 -475h-313zM692 1188l-78 -440h195q92 0 167.5 65t92.5 160q17 93 -36 154t-146 61h-195z" />
    <glyph glyph-name="Q" unicode="Q" horiz-adv-x="1660" 
d="M827 -25q-163 0 -294.5 59t-213.5 160.5t-114.5 241t-5.5 295.5t109 295.5t200 240t270.5 159.5t315.5 59q216 0 372.5 -100t223.5 -272.5t30 -381.5q-36 -205 -162 -376.5t-309 -270.5l230 -465h-342l-179 367q-79 -11 -131 -11zM524 731q-34 -195 67.5 -326t289.5 -131
t334 131t180 326t-66.5 325t-288.5 130t-335 -130.5t-181 -324.5z" />
    <glyph glyph-name="R" unicode="R" horiz-adv-x="1366" 
d="M485 2h-315l258 1458h621q215 0 328.5 -129.5t78.5 -335.5q-26 -139 -117.5 -246.5t-224.5 -164.5l176 -582h-342l-139 526h-231zM694 1188l-69 -400h252q97 0 166.5 57.5t86.5 147.5q15 88 -34 141.5t-146 53.5h-256z" />
    <glyph glyph-name="S" unicode="S" horiz-adv-x="1171" 
d="M96 268l260 183q34 -86 105.5 -138.5t169.5 -52.5q92 0 156 38t75 97q11 64 -29.5 98t-156.5 86q-59 26 -92 42t-55.5 27.5t-52 28t-49.5 30.5t-44 32.5t-39.5 37.5t-31 41.5t-24 47.5t-14.5 53.5t-5 61.5t7 70q34 188 200 311t384 123q155 0 269 -69t165 -197l-262 -175
q-69 156 -227 156q-80 0 -140.5 -38t-72.5 -103q-3 -18 0.5 -34.5t11 -29t23 -26t29.5 -23t38.5 -22.5t43 -21.5t49.5 -22.5t51 -24q38 -18 64 -30.5t59.5 -30.5t55.5 -32.5t48.5 -34.5t43 -39t33.5 -42.5t25.5 -49t14.5 -55t5.5 -64t-7.5 -72.5q-32 -180 -197 -306.5
t-403 -126.5q-109 0 -205 33.5t-169.5 101t-109.5 160.5z" />
    <glyph glyph-name="T" unicode="T" horiz-adv-x="1148" 
d="M219 1184l49 276h1127l-49 -276h-406l-209 -1184h-315l209 1184h-406z" />
    <glyph glyph-name="U" unicode="U" horiz-adv-x="1503" 
d="M748 -25q-173 0 -297.5 77t-176.5 209t-24 292l160 907h315l-156 -882q-23 -133 40.5 -219.5t189.5 -86.5q128 0 222 86.5t118 219.5l155 882h316l-160 -907q-28 -160 -126.5 -292t-250 -209t-325.5 -77z" />
    <glyph glyph-name="V" unicode="V" horiz-adv-x="1368" 
d="M244 1460h323l185 -1073l565 1073h323l-802 -1460h-303z" />
    <glyph glyph-name="W" unicode="W" horiz-adv-x="2048" 
d="M426 0l-172 1460h319l95 -1034l473 1034h282l109 -1034l459 1034h319l-688 -1460h-313l-109 997l-461 -997h-313z" />
    <glyph glyph-name="X" unicode="X" horiz-adv-x="1294" 
d="M-8 0l579 733l-315 727h358l203 -493l379 493h356l-571 -727l322 -733h-353l-215 502l-393 -502h-350z" />
    <glyph glyph-name="Y" unicode="Y" horiz-adv-x="1327" 
d="M240 1460h348l237 -545l430 545h349l-666 -815l-115 -645h-317l115 645z" />
    <glyph glyph-name="Z" unicode="Z" horiz-adv-x="1146" 
d="M47 0l35 201l819 987h-614l49 272h1016l-35 -196l-821 -992h634l-47 -272h-1036z" />
    <glyph glyph-name="bracketleft" unicode="[" horiz-adv-x="749" 
d="M999 1604l-49 -277h-248l-231 -1317h248l-49 -276h-553l329 1870h553z" />
    <glyph glyph-name="backslash" unicode="\" horiz-adv-x="1130" 
d="M1065 -287h-317l-449 1901h319z" />
    <glyph glyph-name="bracketright" unicode="]" horiz-adv-x="749" 
d="M-14 -268l49 276h248l231 1317h-248l49 277h553l-329 -1870h-553z" />
    <glyph glyph-name="asciicircum" unicode="^" horiz-adv-x="1069" 
d="M186 780l521 680h172l278 -680h-283l-139 361l-266 -361h-283z" />
    <glyph glyph-name="underscore" unicode="_" horiz-adv-x="1120" 
d="M995 -362h-997l43 245h997z" />
    <glyph glyph-name="grave" unicode="`" horiz-adv-x="772" 
d="M737 1561l154 -414h-256l-277 414h379z" />
    <glyph glyph-name="a" unicode="a" horiz-adv-x="1105" 
d="M401 -25q-152 0 -234.5 88.5t-57.5 225.5q20 117 122 196t273 113l297 55l2 9q13 73 -32 109t-130 36q-157 0 -291 -127l-129 197q91 91 218 144.5t270 53.5q218 0 322.5 -110.5t70.5 -302.5l-117 -662h-289l23 129q-51 -71 -133.5 -112.5t-184.5 -41.5zM408 307
q-8 -45 20.5 -72.5t83.5 -27.5q94 0 164.5 62t87.5 157l4 31l-215 -41q-127 -22 -145 -109z" />
    <glyph glyph-name="b" unicode="b" horiz-adv-x="1312" 
d="M430 0h-289l258 1460h312l-95 -536q62 74 151 112.5t179 38.5q142 0 242 -72t140 -198t13 -281q-28 -158 -116.5 -284.5t-211 -195.5t-255.5 -69q-90 0 -177 43t-124 129zM539 528q-23 -125 34 -201.5t164 -76.5q102 0 186 77.5t107 200.5q21 120 -36.5 196.5
t-159.5 76.5q-106 0 -190 -75.5t-105 -197.5z" />
    <glyph glyph-name="c" unicode="c" horiz-adv-x="1089" 
d="M616 -25q-160 0 -276 73t-165 199t-23 279q42 233 229 391t428 158q287 0 399 -237l-239 -183q-58 144 -203 144q-108 0 -192.5 -77.5t-106.5 -195.5q-20 -120 37.5 -197t169.5 -77q132 0 258 129l166 -180q-93 -105 -218.5 -165.5t-263.5 -60.5z" />
    <glyph glyph-name="d" unicode="d" horiz-adv-x="1312" 
d="M547 -25q-99 0 -181.5 40t-135.5 113t-74.5 173.5t0.5 222.5q42 236 209.5 393.5t382.5 157.5q90 0 165.5 -38.5t110.5 -112.5l94 536h312l-259 -1460h-288l26 147q-68 -86 -170 -129t-192 -43zM471 528q-23 -123 34.5 -200.5t160.5 -77.5q106 0 190 76.5t107 201.5
q21 122 -37 197.5t-164 75.5q-102 0 -186 -76t-105 -197z" />
    <glyph glyph-name="e" unicode="e" horiz-adv-x="1161" 
d="M639 -25q-172 0 -292.5 73t-169.5 197.5t-23 278.5q27 153 119.5 279t229.5 199t290 73q223 0 336.5 -135.5t76.5 -349.5q-9 -53 -43 -139h-700q-6 -101 63.5 -156t178.5 -55q155 0 280 108l129 -201q-115 -91 -229.5 -131.5t-245.5 -40.5zM743 821q-87 0 -156 -47.5
t-95 -130.5h419l2 2q9 80 -39 128t-131 48z" />
    <glyph glyph-name="f" unicode="f" horiz-adv-x="716" 
d="M338 805h-145l43 246h145l10 53q31 174 156.5 277.5t312.5 103.5q103 0 156 -33l-45 -254q-44 23 -101 23q-67 0 -112.5 -30.5t-55.5 -92.5l-10 -47h211l-43 -246h-211l-141 -805h-311z" />
    <glyph glyph-name="g" unicode="g" horiz-adv-x="1126" 
d="M477 -434q-231 0 -358.5 77.5t-104.5 206.5q11 71 66.5 123t136.5 84q-75 58 -57 156q10 53 55 100.5t111 81.5q-75 52 -109.5 132t-17.5 175q28 156 175.5 264.5t334.5 108.5q71 0 139 -24h428l-39 -232h-158q16 -58 4 -117q-28 -159 -175.5 -266.5t-336.5 -107.5
q-39 0 -55 2q-70 -25 -76 -62q-4 -27 18 -40t58 -13h262q160 0 245 -87t62 -224q-27 -146 -194.5 -242t-413.5 -96zM473 702q-11 -62 30.5 -105.5t112.5 -43.5q70 0 126 43.5t67 105.5q12 63 -29 105.5t-112 42.5q-72 0 -127.5 -42.5t-67.5 -105.5zM324 -102q-7 -47 46 -73
t150 -26q120 0 186 27t74 74q7 38 -23 60t-77 22h-277q-69 -31 -79 -84z" />
    <glyph glyph-name="h" unicode="h" horiz-adv-x="1284" 
d="M453 0h-312l258 1460h312l-93 -524q127 139 324 139q187 0 276 -116.5t54 -319.5l-113 -639h-311l104 592q18 100 -22.5 154.5t-128.5 54.5q-98 0 -165 -70.5t-85 -177.5z" />
    <glyph glyph-name="i" unicode="i" horiz-adv-x="593" 
d="M453 0h-312l185 1051h311zM502 1182q-72 0 -114 48t-30 120q13 71 71.5 118.5t131.5 47.5t115 -47.5t29 -118.5q-12 -71 -71 -119.5t-132 -48.5z" />
    <glyph glyph-name="j" unicode="j" horiz-adv-x="575" 
d="M-172 -408l45 258q44 -16 98 -16q60 0 102.5 33t55.5 104l188 1080h312l-193 -1100q-15 -84 -48 -150.5t-76.5 -110t-98.5 -72t-111 -40.5t-118 -12q-103 0 -156 26zM496 1182q-72 0 -114 48t-30 120q13 71 71.5 118.5t131.5 47.5t114.5 -47.5t28.5 -118.5
q-12 -71 -70.5 -119.5t-131.5 -48.5z" />
    <glyph glyph-name="k" unicode="k" horiz-adv-x="1187" 
d="M141 0l258 1460h312l-142 -798l414 389h367l-463 -437l317 -614h-370l-209 438l-113 -106l-59 -332h-312z" />
    <glyph glyph-name="l" unicode="l" horiz-adv-x="632" 
d="M451 -25q-151 0 -224 82t-45 242l205 1161h311l-194 -1104q-4 -29 -4.5 -53.5t17.5 -40.5t56 -16q37 0 72 12l-45 -256q-66 -27 -149 -27z" />
    <glyph glyph-name="m" unicode="m" horiz-adv-x="1980" 
d="M453 0h-312l185 1051h299l-23 -136q126 160 336 160q238 0 315 -184q163 184 387 184q188 0 275.5 -116t52.5 -320l-113 -639h-311l105 592q18 99 -23 154t-127 55q-94 0 -161 -73t-87 -181l-96 -547h-311l104 592q18 100 -22.5 154.5t-128.5 54.5q-96 0 -162 -73
t-86 -181z" />
    <glyph glyph-name="n" unicode="n" horiz-adv-x="1284" 
d="M141 0l185 1051h299l-23 -136q126 160 340 160q188 0 277.5 -116.5t52.5 -319.5l-113 -639h-311l104 592q18 100 -22.5 154.5t-128.5 54.5q-97 0 -164.5 -73t-87.5 -181l-96 -547h-312z" />
    <glyph glyph-name="o" unicode="o" horiz-adv-x="1249" 
d="M621 -25q-161 0 -277.5 73t-166 199t-23.5 279q42 234 229.5 391.5t431.5 157.5q161 0 277.5 -72.5t165.5 -198t22 -278.5q-26 -153 -120 -279t-236 -199t-303 -73zM469 526q-21 -121 36.5 -197.5t164.5 -76.5t190 76t105 198q21 122 -35.5 197.5t-163.5 75.5t-191.5 -76
t-105.5 -197z" />
    <glyph glyph-name="p" unicode="p" horiz-adv-x="1312" 
d="M381 -410h-311l256 1461h288l-24 -146q72 86 171 128t187 42q99 0 181.5 -40t136 -113t75.5 -173.5t0 -222.5q-42 -237 -208 -394t-381 -157q-90 0 -168 35.5t-111 104.5zM537 522q-21 -122 36.5 -197t163.5 -75q102 0 186 76t105 196q21 123 -35.5 201t-158.5 78
q-106 0 -190 -77t-107 -202z" />
    <glyph glyph-name="q" unicode="q" horiz-adv-x="1310" 
d="M553 -25q-142 0 -242.5 72t-141 198t-13.5 281q28 158 118 285t214 195.5t257 68.5q88 0 172 -42t125 -128l25 146h289l-256 -1461h-312l93 525q-60 -70 -149 -105t-179 -35zM469 522q-21 -120 37 -196t160 -76q106 0 190 75t105 197q23 125 -34.5 202t-164.5 77
q-102 0 -187 -78t-106 -201z" />
    <glyph glyph-name="r" unicode="r" horiz-adv-x="833" 
d="M455 0h-314l185 1051h309l-31 -183q58 97 145.5 152t188.5 55q31 0 63 -8l-53 -297q-20 10 -67 10q-134 0 -229 -96t-124 -260z" />
    <glyph glyph-name="s" unicode="s" horiz-adv-x="974" 
d="M84 215l231 154q29 -70 84 -111t133 -41q62 0 101 20t45 54q7 42 -33 67t-164 70q-156 57 -222.5 132t-45.5 196q26 144 162.5 231.5t314.5 87.5q129 0 223 -58t127 -153l-223 -143q-47 115 -178 115q-53 0 -93 -22t-46 -58q-6 -31 32 -54t160 -73q32 -13 50.5 -21
t46.5 -21t44.5 -23t38.5 -24t34.5 -27.5t27.5 -31t21.5 -36.5t12 -41.5t5 -49t-5.5 -55.5q-25 -139 -159.5 -231.5t-320.5 -92.5q-146 0 -254 63.5t-149 176.5z" />
    <glyph glyph-name="t" unicode="t" horiz-adv-x="772" 
d="M172 805l43 246h152l51 284h301l-51 -284h235l-43 -246h-235l-72 -414q-13 -70 15.5 -104.5t90.5 -34.5q79 0 140 37l-47 -269q-95 -45 -228 -45q-167 0 -245.5 96.5t-47.5 270.5l82 463h-141z" />
    <glyph glyph-name="u" unicode="u" horiz-adv-x="1284" 
d="M528 -25q-188 0 -277 117t-52 320l112 639h312l-105 -592q-18 -100 23 -154.5t129 -54.5q97 0 164.5 73t85.5 181l98 547h311l-186 -1051h-299l24 135q-129 -160 -340 -160z" />
    <glyph glyph-name="v" unicode="v" horiz-adv-x="1107" 
d="M176 1051h316l126 -686l367 686h315l-608 -1051h-276z" />
    <glyph glyph-name="w" unicode="w" horiz-adv-x="1658" 
d="M346 0l-164 1051h303l76 -684l336 684h233l99 -684l313 684h303l-532 -1051h-283l-92 621l-309 -621h-283z" />
    <glyph glyph-name="x" unicode="x" horiz-adv-x="1097" 
d="M2 0l453 526l-269 525h355l135 -316l246 316h354l-453 -525l269 -526h-349l-141 313l-252 -313h-348z" />
    <glyph glyph-name="y" unicode="y" horiz-adv-x="1114" 
d="M-25 -395l45 258q59 -35 138 -35q72 0 128.5 36.5t104.5 139.5l19 35l-236 1012h326l123 -689l366 689h318l-658 -1137q-111 -188 -225.5 -268t-265.5 -80q-99 0 -183 39z" />
    <glyph glyph-name="z" unicode="z" horiz-adv-x="964" 
d="M59 0l29 160l574 643h-451l43 248h829l-26 -160l-580 -643h481l-43 -248h-856z" />
    <glyph glyph-name="braceleft" unicode="{" horiz-adv-x="710" 
d="M256 377q18 95 -7 139t-112 45l39 215q87 1 126.5 45t57.5 140l48 268q64 375 479 375q44 0 67 -2l-47 -269q-94 0 -141 -31t-61 -120l-39 -221q-42 -236 -191 -291q132 -58 86 -293l-39 -221q-12 -78 16.5 -115t106.5 -37h27l-47 -268q-25 -2 -72 -2q-207 0 -291.5 93
t-52.5 282z" />
    <glyph glyph-name="bar" unicode="|" horiz-adv-x="626" 
d="M412 -287h-299l338 1911h299z" />
    <glyph glyph-name="braceright" unicode="}" horiz-adv-x="710" 
d="M59 -268q-44 0 -67 2l47 268q94 0 141.5 31.5t61.5 120.5l39 221q42 237 190 291q-131 58 -86 292l39 222q12 78 -16.5 114.5t-106.5 36.5h-27l48 268q37 3 71 3q207 0 291.5 -93t52.5 -282l-47 -269q-18 -95 7 -139t112 -45l-39 -215q-87 -1 -126.5 -44.5t-57.5 -139.5
l-47 -269q-64 -374 -480 -374z" />
    <glyph glyph-name="asciitilde" unicode="~" horiz-adv-x="1122" 
d="M399 500l-196 45q25 140 115.5 228.5t220.5 88.5q47 0 95.5 -16t82.5 -35t73 -35t68 -16q91 0 119 110l194 -45q-25 -140 -115 -228.5t-220 -88.5q-58 0 -119 25.5t-112.5 51t-86.5 25.5q-48 0 -78 -30.5t-41 -79.5z" />
    <glyph glyph-name="uni00A0" unicode="&#xa0;" horiz-adv-x="491" 
 />
    <glyph glyph-name="exclamdown" unicode="&#xa1;" horiz-adv-x="593" 
d="M383 -410h-320l211 1024h261zM428 739q-74 0 -115.5 48.5t-29.5 121.5q13 72 71.5 120t132.5 48q73 0 115.5 -48.5t30.5 -119.5q-12 -72 -72 -121t-133 -49z" />
    <glyph glyph-name="cent" unicode="&#xa2;" horiz-adv-x="1101" 
d="M551 182q-195 34 -296.5 186t-66.5 357q37 205 191.5 356t361.5 185l41 237h199l-41 -237q213 -35 305 -230l-237 -182q-61 145 -203 145q-110 0 -194.5 -77.5t-106.5 -196.5q-20 -120 37.5 -197t169.5 -77q132 0 258 129l166 -181q-155 -179 -385 -217l-43 -237h-199z
" />
    <glyph glyph-name="sterling" unicode="&#xa3;" horiz-adv-x="1179" 
d="M1126 0h-1044l51 287h37q39 0 64.5 24t31.5 64l45 252h-116l30 172h117l37 215q38 207 193 339t378 132q145 0 245.5 -65t150.5 -167l-224 -194q-29 53 -84.5 92t-138.5 39q-84 0 -142.5 -48.5t-72.5 -127.5l-37 -215h377l-31 -172h-377l-41 -228q-12 -71 -63 -112h666z
" />
    <glyph glyph-name="currency" unicode="&#xa4;" horiz-adv-x="1431" 
d="M268 88l-145 176l250 213q-46 118 -23 252q22 129 109 250l-174 215l207 176l174 -215q130 68 262 68q136 0 239 -70l256 217l146 -176l-256 -217q45 -116 22 -248q-23 -135 -112 -250l180 -215l-207 -176l-180 217q-128 -67 -262 -67q-129 0 -234 65zM643 729
q-15 -88 30 -147t132 -60q96 0 164.5 56.5t81.5 150.5q12 88 -36 144.5t-138 56.5q-88 0 -153.5 -56.5t-80.5 -144.5z" />
    <glyph glyph-name="yen" unicode="&#xa5;" horiz-adv-x="1415" 
d="M283 1460h348l237 -545l430 545h349l-547 -669h223l-31 -170h-315l-23 -125h318l-31 -172h-317l-58 -324h-317l57 324h-315l31 172h315l22 125h-317l31 170h223z" />
    <glyph glyph-name="brokenbar" unicode="&#xa6;" horiz-adv-x="626" 
d="M240 428h299l-127 -715h-299zM623 909h-299l127 715h299z" />
    <glyph glyph-name="section" unicode="&#xa7;" horiz-adv-x="1091" 
d="M514 -229q-156 0 -273.5 71t-172.5 203l217 143q79 -180 270 -180q75 0 130.5 28.5t64.5 74.5q7 46 -35.5 80t-196.5 116q-184 99 -247.5 179t-43.5 190q20 123 181 227q-60 54 -80.5 110t-8.5 128q27 152 169.5 248t324.5 96q149 0 259 -66.5t155 -189.5l-215 -146
q-28 74 -93.5 119t-146.5 45q-74 0 -122 -29t-56 -73q-9 -45 34 -80t203 -121q178 -93 240 -174.5t43 -191.5q-23 -126 -180 -228q59 -56 79.5 -111t8.5 -124q-18 -101 -95.5 -181t-186.5 -121.5t-226 -41.5zM496 694q-6 -43 33.5 -76.5t172.5 -109.5q33 -18 70 -41
q71 41 74 94q4 45 -35.5 79t-171.5 110q-12 8 -34.5 20.5l-31.5 17.5q-72 -41 -77 -94z" />
    <glyph glyph-name="dieresis" unicode="&#xa8;" horiz-adv-x="1234" 
d="M1063 1182q-72 0 -113.5 48t-29.5 120q13 72 71.5 119t130.5 47q73 0 115 -47.5t29 -118.5q-12 -71 -71 -119.5t-132 -48.5zM588 1182q-72 0 -114 48t-30 120q13 71 71.5 118.5t131.5 47.5t115 -47.5t29 -118.5q-12 -71 -71 -119.5t-132 -48.5z" />
    <glyph glyph-name="copyright" unicode="&#xa9;" horiz-adv-x="1687" 
d="M838 -25q-168 0 -303.5 63t-216 167.5t-113 241t-6.5 282.5q25 146 105.5 283t198 242t275 168t326.5 63q167 0 302.5 -63t217 -168t115 -242t8.5 -283q-26 -146 -108 -282.5t-200.5 -241t-276 -167.5t-324.5 -63zM430 729q-26 -144 19.5 -265.5t158 -196t269.5 -74.5
q118 0 228 43.5t193.5 117t141 171t76.5 204.5q25 144 -21.5 267t-159.5 197.5t-270 74.5q-118 0 -228 -43.5t-192.5 -117.5t-139 -172t-75.5 -206zM907 311q-128 0 -217.5 60t-125 156t-15.5 206q20 109 89.5 203.5t180 153.5t236.5 59q107 0 184 -49.5t123 -134.5
l-170 -140q-54 115 -176 115q-94 0 -161.5 -59.5t-82.5 -151.5q-15 -91 31.5 -150t138.5 -59q108 0 223 107l125 -129q-166 -187 -383 -187z" />
    <glyph glyph-name="ordfeminine" unicode="&#xaa;" horiz-adv-x="804" 
d="M475 848q-93 0 -138.5 48.5t-31.5 125.5q24 138 227 186l162 37v2q5 25 -14 39t-57 14q-97 0 -199 -71l-53 157q40 35 121.5 67t173.5 32q123 0 185.5 -61.5t45.5 -159.5l-70 -398h-190l10 64q-27 -35 -73 -58.5t-99 -23.5zM797 557h-598l37 205h598zM506 1051
q-3 -20 8.5 -29.5t32.5 -9.5q41 0 78.5 31.5t44.5 74.5l2 4l-107 -26q-54 -14 -59 -45z" />
    <glyph glyph-name="guillemotleft" unicode="&#xab;" horiz-adv-x="1091" 
d="M557 526l334 420h297l-336 -420l186 -417h-297zM328 109l-185 417l334 420h297l-336 -420l187 -417h-297z" />
    <glyph glyph-name="logicalnot" unicode="&#xac;" horiz-adv-x="1214" 
d="M215 596l49 270h977l-94 -534h-273l46 264h-705z" />
    <glyph glyph-name="uni00AD" unicode="&#xad;" horiz-adv-x="880" 
d="M180 430l45 258h672l-45 -258h-672z" />
    <glyph glyph-name="registered" unicode="&#xae;" horiz-adv-x="958" 
d="M616 774q-178 0 -277 120.5t-67 299.5q31 177 172 296.5t320 119.5q178 0 276.5 -119.5t67.5 -296.5q-32 -179 -173 -299.5t-319 -120.5zM416 1194q-22 -122 41 -200.5t184 -78.5t211.5 78.5t112.5 200.5t-41.5 199t-184.5 77t-211 -77t-112 -199zM621 1004h-125l67 380
h191q57 0 88.5 -36t21.5 -93q-13 -75 -82 -116l54 -135h-134l-38 114h-23zM668 1290l-13 -73h39q16 0 29 9t16 25q3 18 -6.5 28.5t-25.5 10.5h-39z" />
    <glyph glyph-name="macron" unicode="&#xaf;" horiz-adv-x="780" 
d="M291 1233l41 235h633l-41 -235h-633z" />
    <glyph glyph-name="degree" unicode="&#xb0;" horiz-adv-x="784" 
d="M537 821q-140 0 -220 96.5t-55 235.5t138 235.5t253 96.5t220 -96.5t55 -235.5t-138 -235.5t-253 -96.5zM477 1153q-8 -50 19.5 -83.5t76.5 -33.5q51 0 93 34t49 83q9 51 -20.5 85t-80.5 34q-50 0 -89 -34t-48 -85z" />
    <glyph glyph-name="plusminus" unicode="&#xb1;" horiz-adv-x="1185" 
d="M250 788l47 271h346l59 332h273l-60 -332h347l-48 -271h-346l-59 -331h-272l59 331h-346zM1094 68h-977l47 270h977z" />
    <glyph glyph-name="twosuperior" unicode="&#xb2;" horiz-adv-x="712" 
d="M176 651q7 164 61 246.5t207 167.5q19 10 58 30.5t55 30t38.5 25t32.5 30t13 31.5q6 32 -12.5 49t-57.5 17q-86 0 -159 -94l-140 121q55 79 149 129.5t193 50.5q130 0 200.5 -72t49.5 -190q-9 -52 -33.5 -95t-64.5 -77t-73.5 -55.5t-84.5 -49.5q-19 -11 -51.5 -27.5
t-48.5 -25.5t-32 -21t-21 -22h358l-35 -199h-602z" />
    <glyph glyph-name="threesuperior" unicode="&#xb3;" horiz-adv-x="716" 
d="M172 807l184 117q12 -42 44 -70.5t85 -28.5q42 0 76.5 24t40.5 60q9 47 -20.5 69.5t-85.5 22.5q-61 0 -119 -8l20 123l176 146h-268l35 198h557l-27 -145l-215 -168q92 -18 138.5 -82t29.5 -158q-23 -127 -126.5 -203.5t-239.5 -76.5q-106 0 -180 50t-105 130z" />
    <glyph glyph-name="acute" unicode="&#xb4;" horiz-adv-x="772" 
d="M287 1147l297 414h379l-420 -414h-256z" />
    <glyph glyph-name="uni00B5" unicode="&#xb5;" horiz-adv-x="1300" 
d="M381 -410h-309l133 764q4 40 8 56l113 639h311l-105 -592q-17 -100 24 -154.5t128 -54.5q97 0 164.5 73t87.5 181l96 547h311l-184 -1051h-299l25 135q-129 -160 -340 -160q-51 0 -94 9z" />
    <glyph glyph-name="paragraph" unicode="&#xb6;" horiz-adv-x="1370" 
d="M602 604q-194 0 -308 121.5t-81 308.5q33 185 189.5 305.5t353.5 120.5h688l-295 -1665h-248l248 1395h-148l-247 -1395h-248l143 809h-47z" />
    <glyph glyph-name="periodcentered" unicode="&#xb7;" horiz-adv-x="542" 
d="M350 455q-72 0 -113 48t-28 120q12 72 70 120t131 48t115 -48t30 -120q-13 -71 -72.5 -119.5t-132.5 -48.5z" />
    <glyph glyph-name="cedilla" unicode="&#xb8;" horiz-adv-x="557" 
d="M-8 -463l31 178q52 -18 106 -18q92 0 102 47q9 49 -92 49q-37 0 -65 -4l131 272l135 -61l-47 -96q31 -7 57 -20.5t48.5 -35.5t32 -56.5t1.5 -76.5q-15 -89 -99.5 -142.5t-205.5 -53.5q-83 0 -135 18z" />
    <glyph glyph-name="onesuperior" unicode="&#xb9;" horiz-adv-x="655" 
d="M182 651l37 205h174l58 334q-71 -31 -189 -31l35 199q161 3 260 102h162l-107 -604h172l-36 -205h-566z" />
    <glyph glyph-name="ordmasculine" unicode="&#xba;" horiz-adv-x="862" 
d="M582 848q-137 0 -217.5 92.5t-57.5 224.5q25 133 137.5 226.5t249.5 93.5q136 0 216 -93.5t55 -226.5q-23 -132 -135.5 -224.5t-247.5 -92.5zM834 559h-609l37 205h608zM520 1165q-7 -47 21.5 -79.5t76.5 -32.5q47 0 87 32.5t47 79.5q9 49 -19.5 83t-75.5 34
q-48 0 -88 -34t-49 -83z" />
    <glyph glyph-name="guillemotright" unicode="&#xbb;" horiz-adv-x="1095" 
d="M506 106l334 420l-187 418h297l185 -418l-332 -420h-297zM92 106l334 420l-186 418h297l184 -418l-332 -420h-297z" />
    <glyph glyph-name="onequarter" unicode="&#xbc;" horiz-adv-x="1579" 
d="M877 164l24 137l447 508h217l-84 -469h102l-31 -178h-102l-29 -162h-207l29 164h-366zM756 651h-566l37 205h174l58 334q-71 -31 -189 -31l35 199q161 3 260 102h162l-106 -604h172zM246 0l1325 1460h192l-1325 -1460h-192zM1145 338h141l35 201z" />
    <glyph glyph-name="onehalf" unicode="&#xbd;" horiz-adv-x="1716" 
d="M1667 0h-602q7 164 61 246.5t207 167.5q19 10 58 30.5t55 30t38.5 25t32.5 30t13 31.5q6 32 -12.5 49t-57.5 17q-86 0 -160 -95l-139 121q56 79 149.5 130t192.5 51q129 0 200 -72.5t50 -190.5q-9 -52 -33.5 -95t-65 -77t-73.5 -55t-84 -49q-20 -11 -52 -27.5
t-48.5 -25.5t-32.5 -21t-21 -22h359zM756 651h-566l37 205h174l58 334q-71 -31 -189 -31l35 199q161 3 260 102h162l-106 -604h172zM455 0h-193l1325 1460h193z" />
    <glyph glyph-name="threequarters" unicode="&#xbe;" horiz-adv-x="1560" 
d="M463 627q-106 0 -180 50t-105 130l184 117q12 -41 44 -70t86 -29q42 0 76 24t40 60q9 47 -20.5 69.5t-85.5 22.5q-61 0 -119 -8l20 123l177 146h-269l35 198h557l-26 -145l-215 -168q92 -18 138 -82t29 -158q-23 -127 -126.5 -203.5t-239.5 -76.5zM854 164l25 137
l446 508h217l-84 -469h103l-31 -178h-103l-28 -162h-207l29 164h-367zM223 0l1325 1460h193l-1325 -1460h-193zM1298 539l-176 -201h142z" />
    <glyph glyph-name="questiondown" unicode="&#xbf;" horiz-adv-x="1003" 
d="M451 -434q-96 0 -177 27.5t-139.5 80t-83.5 136t-6 186.5q12 69 42.5 127.5t69.5 100t84.5 77.5t89.5 66t81 58.5t63 63t33 72.5l14 80h291l-20 -115q-12 -73 -48.5 -133.5t-81.5 -98.5t-96.5 -75t-95 -65t-76 -66t-39.5 -80q-13 -71 30 -112t126 -41t151.5 42t114.5 99
l172 -182q-81 -105 -212.5 -176.5t-286.5 -71.5zM686 741q-72 0 -113.5 48t-29.5 120q13 72 71.5 119t130.5 47q73 0 115 -47.5t29 -118.5q-12 -71 -71 -119.5t-132 -48.5z" />
    <glyph glyph-name="Agrave" unicode="&#xc0;" horiz-adv-x="1394" 
d="M-16 0l819 1460h307l301 -1460h-319l-68 334h-535l-186 -334h-319zM565 1970h379l154 -414h-256zM633 602h344l-84 504z" />
    <glyph glyph-name="Aacute" unicode="&#xc1;" horiz-adv-x="1394" 
d="M-16 0l819 1460h307l301 -1460h-319l-68 334h-535l-186 -334h-319zM1098 1556h-256l297 414h379zM893 1106l-260 -504h344z" />
    <glyph glyph-name="Acircumflex" unicode="&#xc2;" horiz-adv-x="1394" 
d="M-16 0l819 1460h307l301 -1460h-319l-68 334h-535l-186 -334h-319zM848 1556h-275l345 420h260l196 -420h-274l-88 226zM633 602h344l-84 504z" />
    <glyph glyph-name="Atilde" unicode="&#xc3;" horiz-adv-x="1394" 
d="M-16 0l819 1460h307l301 -1460h-319l-68 334h-535l-186 -334h-319zM791 1579l-197 45q23 131 106 211t199 80q51 0 97 -22.5t81 -45t60 -22.5q68 0 90 98l194 -45q-23 -131 -106.5 -212t-198.5 -81q-40 0 -78 14t-61.5 31t-50.5 31t-47 14q-68 0 -88 -96zM893 1106
l-260 -504h344z" />
    <glyph glyph-name="Adieresis" unicode="&#xc4;" horiz-adv-x="1394" 
d="M-16 0l819 1460h307l301 -1460h-319l-68 334h-535l-186 -334h-319zM741 1591q-72 0 -113.5 48t-29.5 120q13 71 71.5 118.5t131.5 47.5t114.5 -47.5t28.5 -118.5q-12 -71 -71 -119.5t-132 -48.5zM1217 1591q-72 0 -114 48t-30 120q13 71 71.5 118.5t131.5 47.5
t114.5 -47.5t28.5 -118.5q-12 -71 -70.5 -119.5t-131.5 -48.5zM893 1106l-260 -504h344z" />
    <glyph glyph-name="Aring" unicode="&#xc5;" horiz-adv-x="1394" 
d="M-16 0l819 1460h307l301 -1460h-319l-68 334h-535l-186 -334h-319zM967 1526q-116 0 -174 69t-39 170q18 101 100 169.5t197 68.5q113 0 172 -68.5t41 -169.5q-19 -101 -101.5 -170t-195.5 -69zM633 602h344l-84 504zM936 1765q-6 -29 11.5 -50t49.5 -21q30 0 54 20.5
t30 50.5q5 30 -12 50t-47 20q-32 0 -56.5 -20.5t-29.5 -49.5z" />
    <glyph glyph-name="AE" unicode="&#xc6;" horiz-adv-x="2000" 
d="M-57 2l991 1458h1235l-49 -274h-602l-56 -314h488l-49 -274h-488l-55 -322h627l-50 -274h-942l74 416h-502l-278 -416h-344zM1079 1186l-321 -479h360l84 479h-123z" />
    <glyph glyph-name="Ccedilla" unicode="&#xc7;" horiz-adv-x="1480" 
d="M709 -16q-276 40 -418.5 249.5t-91.5 497.5q27 157 108.5 296t198 240t269.5 159.5t317 58.5q206 0 351.5 -91t205.5 -253l-271 -189q-37 104 -130.5 168t-213.5 64q-191 0 -333.5 -129t-176.5 -324q-34 -193 64.5 -324t281.5 -131q248 0 435 236l206 -184
q-117 -151 -286.5 -246t-356.5 -105l-34 -73q31 -7 57 -20.5t48.5 -35.5t32 -56.5t1.5 -76.5q-15 -89 -99.5 -142.5t-205.5 -53.5q-84 0 -136 18l31 178q52 -18 107 -18q92 0 102 47q9 49 -92 49q-38 0 -66 -4z" />
    <glyph glyph-name="Egrave" unicode="&#xc8;" horiz-adv-x="1218" 
d="M170 2l258 1458h958l-49 -274h-643l-55 -314h528l-49 -274h-528l-55 -322h667l-49 -274h-983zM903 1970l154 -414h-256l-277 414h379z" />
    <glyph glyph-name="Eacute" unicode="&#xc9;" horiz-adv-x="1218" 
d="M170 2l258 1458h958l-49 -274h-643l-55 -314h528l-49 -274h-528l-55 -322h667l-49 -274h-983zM748 1556l296 414h379l-419 -414h-256z" />
    <glyph glyph-name="Ecircumflex" unicode="&#xca;" horiz-adv-x="1218" 
d="M1153 2h-983l258 1458h958l-49 -274h-643l-55 -314h528l-49 -274h-528l-55 -322h667zM782 1556h-274l344 420h260l197 -420h-275l-88 226z" />
    <glyph glyph-name="Edieresis" unicode="&#xcb;" horiz-adv-x="1218" 
d="M1153 2h-983l258 1458h958l-49 -274h-643l-55 -314h528l-49 -274h-528l-55 -322h667zM1169 1591q-72 0 -113.5 48t-29.5 120q13 71 71.5 118.5t131.5 47.5t114.5 -47.5t28.5 -118.5q-12 -71 -71 -119.5t-132 -48.5zM692 1591q-72 0 -113.5 48t-29.5 120q13 71 71.5 118.5
t131.5 47.5t114.5 -47.5t28.5 -118.5q-12 -71 -71 -119.5t-132 -48.5z" />
    <glyph glyph-name="Igrave" unicode="&#xcc;" horiz-adv-x="655" 
d="M170 0l258 1460h315l-258 -1460h-315zM582 1970l153 -414h-256l-276 414h379z" />
    <glyph glyph-name="Iacute" unicode="&#xcd;" horiz-adv-x="655" 
d="M170 0l258 1460h315l-258 -1460h-315zM467 1556l297 414h379l-420 -414h-256z" />
    <glyph glyph-name="Icircumflex" unicode="&#xce;" horiz-adv-x="655" 
d="M485 0h-315l258 1460h315zM477 1556h-274l344 420h260l197 -420h-275l-88 226z" />
    <glyph glyph-name="Idieresis" unicode="&#xcf;" horiz-adv-x="655" 
d="M170 0l258 1460h315l-258 -1460h-315zM844 1591q-72 0 -114 48t-30 120q13 71 71.5 118.5t131.5 47.5t115 -47.5t29 -118.5q-12 -71 -71 -119.5t-132 -48.5zM371 1591q-72 0 -114 48t-30 120q13 71 71.5 118.5t131.5 47.5t114.5 -47.5t28.5 -118.5q-12 -71 -70.5 -119.5
t-131.5 -48.5z" />
    <glyph glyph-name="Eth" unicode="&#xd0;" horiz-adv-x="1529" 
d="M137 643l33 178h154l112 639h537q212 0 366.5 -98t220 -264t29.5 -365q-36 -203 -160 -370.5t-312.5 -265t-401.5 -97.5h-537l113 643h-154zM606 643l-65 -371h194q186 0 340 132t189 327q34 192 -72 324.5t-293 132.5h-197l-65 -367h315l-32 -178h-314z" />
    <glyph glyph-name="Ntilde" unicode="&#xd1;" horiz-adv-x="1593" 
d="M485 0h-315l258 1460h266l510 -915l162 915h315l-258 -1460h-266l-508 926zM680 1624q23 131 106 211t199 80q51 0 97 -22.5t81 -45t60 -22.5q68 0 90 98l194 -45q-23 -131 -106.5 -212t-198.5 -81q-40 0 -78 14t-61.5 31t-50.5 31t-47 14q-68 0 -88 -96z" />
    <glyph glyph-name="Ograve" unicode="&#xd2;" horiz-adv-x="1660" 
d="M827 -25q-163 0 -294.5 59t-213.5 160.5t-114.5 241t-5.5 295.5t109 295.5t200 240t270.5 159.5t315.5 59q216 0 372.5 -100t223.5 -272.5t30 -381.5q-27 -156 -109 -295.5t-199.5 -241t-270 -160.5t-314.5 -59zM524 731q-34 -195 67.5 -326t289.5 -131t334 131t180 326
t-66.5 325t-288.5 130t-335 -130.5t-181 -324.5zM991 1556l-276 414h379l153 -414h-256z" />
    <glyph glyph-name="Oacute" unicode="&#xd3;" horiz-adv-x="1660" 
d="M827 -25q-163 0 -294.5 59t-213.5 160.5t-114.5 241t-5.5 295.5t109 295.5t200 240t270.5 159.5t315.5 59q216 0 372.5 -100t223.5 -272.5t30 -381.5q-27 -156 -109 -295.5t-199.5 -241t-270 -160.5t-314.5 -59zM524 731q-34 -195 67.5 -326t289.5 -131t334 131t180 326
t-66.5 325t-288.5 130t-335 -130.5t-181 -324.5zM1217 1556h-256l296 414h379z" />
    <glyph glyph-name="Ocircumflex" unicode="&#xd4;" horiz-adv-x="1660" 
d="M827 -25q-163 0 -294.5 59t-213.5 160.5t-114.5 241t-5.5 295.5t109 295.5t200 240t270.5 159.5t315.5 59q216 0 372.5 -100t223.5 -272.5t30 -381.5q-27 -156 -109 -295.5t-199.5 -241t-270 -160.5t-314.5 -59zM524 731q-34 -195 67.5 -326t289.5 -131t334 131t180 326
t-66.5 325t-288.5 130t-335 -130.5t-181 -324.5zM977 1556h-275l345 420h260l196 -420h-274l-88 226z" />
    <glyph glyph-name="Otilde" unicode="&#xd5;" horiz-adv-x="1660" 
d="M827 -25q-163 0 -294.5 59t-213.5 160.5t-114.5 241t-5.5 295.5t109 295.5t200 240t270.5 159.5t315.5 59q216 0 372.5 -100t223.5 -272.5t30 -381.5q-27 -156 -109 -295.5t-199.5 -241t-270 -160.5t-314.5 -59zM524 731q-34 -195 67.5 -326t289.5 -131t334 131t180 326
t-66.5 325t-288.5 130t-335 -130.5t-181 -324.5zM920 1579l-197 45q23 131 106 211t199 80q51 0 97 -22.5t81 -45t60 -22.5q68 0 90 98l194 -45q-23 -131 -106.5 -212t-198.5 -81q-40 0 -78 14t-61.5 31t-50.5 31t-47 14q-68 0 -88 -96z" />
    <glyph glyph-name="Odieresis" unicode="&#xd6;" horiz-adv-x="1660" 
d="M827 -25q-163 0 -294.5 59t-213.5 160.5t-114.5 241t-5.5 295.5t109 295.5t200 240t270.5 159.5t315.5 59q216 0 372.5 -100t223.5 -272.5t30 -381.5q-27 -156 -109 -295.5t-199.5 -241t-270 -160.5t-314.5 -59zM524 731q-34 -195 67.5 -326t289.5 -131t334 131t180 326
t-66.5 325t-288.5 130t-335 -130.5t-181 -324.5zM1346 1591q-72 0 -114 48t-30 120q13 71 71.5 118.5t131.5 47.5t114.5 -47.5t28.5 -118.5q-12 -71 -70.5 -119.5t-131.5 -48.5zM870 1591q-72 0 -113.5 48t-29.5 120q13 71 71.5 118.5t131.5 47.5t114.5 -47.5t28.5 -118.5
q-12 -71 -71 -119.5t-132 -48.5z" />
    <glyph glyph-name="multiply" unicode="&#xd7;" horiz-adv-x="1146" 
d="M735 922l350 297l158 -191l-352 -297l246 -297l-224 -190l-243 299l-353 -299l-155 190l350 297l-244 297l221 191z" />
    <glyph glyph-name="Oslash" unicode="&#xd8;" horiz-adv-x="1660" 
d="M350 160q-101 106 -141 253.5t-10 317.5q27 156 109 295.5t200 240t270.5 159.5t315.5 59q207 0 360 -92l178 198l115 -90l-178 -201q101 -104 141 -251.5t10 -317.5q-27 -156 -109 -295.5t-199.5 -241t-270 -160.5t-314.5 -59q-206 0 -360 93l-178 -199l-119 90z
M524 731q-30 -182 58 -313l647 723q-82 45 -189 45q-188 0 -335 -130.5t-181 -324.5zM692 319q82 -45 189 -45q188 0 334 131t180 326q30 187 -58 311z" />
    <glyph glyph-name="Ugrave" unicode="&#xd9;" horiz-adv-x="1503" 
d="M748 -25q-173 0 -297.5 77t-176.5 209t-24 292l160 907h315l-156 -882q-23 -133 40.5 -219.5t189.5 -86.5q128 0 222 86.5t118 219.5l155 882h316l-160 -907q-28 -160 -126.5 -292t-250 -209t-325.5 -77zM901 1556l-276 414h379l153 -414h-256z" />
    <glyph glyph-name="Uacute" unicode="&#xda;" horiz-adv-x="1503" 
d="M748 -25q-173 0 -297.5 77t-176.5 209t-24 292l160 907h315l-156 -882q-23 -133 40.5 -219.5t189.5 -86.5q128 0 222 86.5t118 219.5l155 882h316l-160 -907q-28 -160 -126.5 -292t-250 -209t-325.5 -77zM1141 1556h-256l297 414h379z" />
    <glyph glyph-name="Ucircumflex" unicode="&#xdb;" horiz-adv-x="1503" 
d="M748 -25q-173 0 -297.5 77t-176.5 209t-24 292l160 907h315l-156 -882q-23 -133 40.5 -219.5t189.5 -86.5q128 0 222 86.5t118 219.5l155 882h316l-160 -907q-28 -160 -126.5 -292t-250 -209t-325.5 -77zM899 1556h-274l344 420h260l196 -420h-274l-88 226z" />
    <glyph glyph-name="Udieresis" unicode="&#xdc;" horiz-adv-x="1503" 
d="M748 -25q-173 0 -297.5 77t-176.5 209t-24 292l160 907h315l-156 -882q-23 -133 40.5 -219.5t189.5 -86.5q128 0 222 86.5t118 219.5l155 882h316l-160 -907q-28 -160 -126.5 -292t-250 -209t-325.5 -77zM1268 1591q-72 0 -114 48t-30 120q13 71 71.5 118.5t131.5 47.5
t114.5 -47.5t28.5 -118.5q-12 -71 -70.5 -119.5t-131.5 -48.5zM791 1591q-72 0 -114 48t-30 120q13 71 71.5 118.5t131.5 47.5t114.5 -47.5t28.5 -118.5q-12 -71 -70.5 -119.5t-131.5 -48.5z" />
    <glyph glyph-name="Yacute" unicode="&#xdd;" horiz-adv-x="1327" 
d="M621 645l-381 815h348l237 -545l430 545h349l-666 -815l-115 -645h-317zM1065 1556h-256l297 414h379z" />
    <glyph glyph-name="Thorn" unicode="&#xde;" horiz-adv-x="1280" 
d="M483 0h-313l258 1460h313l-43 -241h238q140 0 243.5 -64t150 -176.5t22.5 -249.5q-25 -140 -112.5 -253.5t-213 -176.5t-262.5 -63h-240zM573 506h201q96 0 168.5 63t89.5 162q17 97 -33 157t-147 60h-201z" />
    <glyph glyph-name="germandbls" unicode="&#xdf;" horiz-adv-x="1275" 
d="M422 0h-305l186 1057q21 115 101 212t212.5 156.5t288.5 59.5q133 0 237.5 -50t154.5 -133.5t34 -179.5q-16 -83 -70.5 -142t-156.5 -132l-30 -21t-28 -20t-22.5 -17t-20.5 -17t-14 -14.5t-11.5 -16t-4.5 -15.5q-2 -9 0.5 -17t9.5 -17.5t14.5 -16.5t22 -18t25 -18
t30 -20.5t31.5 -21.5q53 -34 88.5 -64.5t66 -70t41.5 -86.5t1 -101q-23 -129 -148.5 -215t-286.5 -86q-126 0 -219.5 58.5t-128.5 161.5l221 147q24 -53 65 -89t93 -36q38 0 68.5 20.5t36.5 51.5q3 16 -4 31t-27 31.5t-38 29t-52.5 34.5t-55.5 36q-92 66 -132.5 123
t-26.5 135q10 59 55 108.5t133 114.5q80 56 118.5 93t45.5 77q11 59 -37.5 96t-134.5 37q-89 0 -158 -52.5t-84 -138.5z" />
    <glyph glyph-name="agrave" unicode="&#xe0;" horiz-adv-x="1107" 
d="M403 -25q-152 0 -234.5 88.5t-57.5 225.5q20 117 122 196t273 113l297 55l2 9q13 73 -32 109t-130 36q-157 0 -291 -127l-129 197q91 91 218 144.5t270 53.5q218 0 322.5 -110.5t70.5 -302.5l-117 -662h-289l23 129q-51 -71 -133.5 -112.5t-184.5 -41.5zM608 1147
l-276 414h379l153 -414h-256zM410 307q-8 -45 20.5 -72.5t83.5 -27.5q94 0 164.5 62t87.5 157l4 31l-215 -41q-127 -22 -145 -109z" />
    <glyph glyph-name="aacute" unicode="&#xe1;" horiz-adv-x="1105" 
d="M401 -25q-152 0 -234.5 88.5t-57.5 225.5q20 117 122 196t273 113l297 55l2 9q13 73 -32 109t-130 36q-157 0 -291 -127l-129 197q91 91 218 144.5t270 53.5q218 0 322.5 -110.5t70.5 -302.5l-117 -662h-289l23 129q-51 -71 -133.5 -112.5t-184.5 -41.5zM840 1147h-256
l297 414h379zM408 307q-8 -45 20.5 -72.5t83.5 -27.5q94 0 164.5 62t87.5 157l4 31l-215 -41q-127 -22 -145 -109z" />
    <glyph glyph-name="acircumflex" unicode="&#xe2;" horiz-adv-x="1105" 
d="M401 -25q-152 0 -234.5 88.5t-57.5 225.5q20 117 122 196t273 113l297 55l2 9q13 73 -32 109t-130 36q-157 0 -291 -127l-129 197q91 91 218 144.5t270 53.5q218 0 322.5 -110.5t70.5 -302.5l-117 -662h-289l23 129q-51 -71 -133.5 -112.5t-184.5 -41.5zM608 1147h-274
l344 420h260l197 -420h-275l-88 225zM408 307q-8 -45 20.5 -72.5t83.5 -27.5q94 0 164.5 62t87.5 157l4 31l-215 -41q-127 -22 -145 -109z" />
    <glyph glyph-name="atilde" unicode="&#xe3;" horiz-adv-x="1105" 
d="M401 -25q-152 0 -234.5 88.5t-57.5 225.5q20 117 122 196t273 113l297 55l2 9q13 73 -32 109t-130 36q-157 0 -291 -127l-129 197q91 91 218 144.5t270 53.5q218 0 322.5 -110.5t70.5 -302.5l-117 -662h-289l23 129q-51 -71 -133.5 -112.5t-184.5 -41.5zM344 1214
q23 131 106 211t199 80q51 0 97 -22.5t81 -45t60 -22.5q68 0 90 98l194 -45q-23 -131 -106.5 -211.5t-198.5 -80.5q-40 0 -78 14t-61.5 31t-50.5 31t-47 14q-68 0 -88 -97zM408 307q-8 -45 20.5 -72.5t83.5 -27.5q94 0 164.5 62t87.5 157l4 31l-215 -41q-127 -22 -145 -109z
" />
    <glyph glyph-name="adieresis" unicode="&#xe4;" horiz-adv-x="1105" 
d="M401 -25q-152 0 -234.5 88.5t-57.5 225.5q20 117 122 196t273 113l297 55l2 9q13 73 -32 109t-130 36q-157 0 -291 -127l-129 197q91 91 218 144.5t270 53.5q218 0 322.5 -110.5t70.5 -302.5l-117 -662h-289l23 129q-51 -71 -133.5 -112.5t-184.5 -41.5zM498 1182
q-72 0 -114 48t-30 120q13 71 71.5 118.5t131.5 47.5t114.5 -47.5t28.5 -118.5q-12 -71 -70.5 -119.5t-131.5 -48.5zM973 1182q-72 0 -114 48t-30 120q13 71 71.5 118.5t131.5 47.5t115 -47.5t29 -118.5q-12 -71 -71 -119.5t-132 -48.5zM408 307q-8 -45 20.5 -72.5
t83.5 -27.5q94 0 164.5 62t87.5 157l4 31l-215 -41q-127 -22 -145 -109z" />
    <glyph glyph-name="aring" unicode="&#xe5;" horiz-adv-x="1105" 
d="M401 -25q-152 0 -234.5 88.5t-57.5 225.5q20 117 122 196t273 113l297 55l2 9q13 73 -32 109t-130 36q-157 0 -291 -127l-129 197q91 91 218 144.5t270 53.5q218 0 322.5 -110.5t70.5 -302.5l-117 -662h-289l23 129q-51 -71 -133.5 -112.5t-184.5 -41.5zM731 1116
q-116 0 -174 69.5t-39 170.5q18 101 99.5 169t197.5 68q113 0 172 -68.5t41 -168.5q-19 -101 -101.5 -170.5t-195.5 -69.5zM408 307q-8 -45 20.5 -72.5t83.5 -27.5q94 0 164.5 62t87.5 157l4 31l-215 -41q-127 -22 -145 -109zM700 1356q-6 -29 12 -50.5t50 -21.5q30 0 54 21
t30 51q5 29 -12 49t-48 20q-32 0 -56.5 -20t-29.5 -49z" />
    <glyph glyph-name="ae" unicode="&#xe6;" horiz-adv-x="1792" 
d="M457 -25q-172 0 -272 93t-76 239q27 145 164.5 235.5t301.5 90.5h269l4 18q14 81 -47.5 125.5t-151.5 44.5q-155 0 -299 -123l-127 191q78 76 203 131t262 55q125 0 216.5 -40.5t139.5 -114.5q79 73 181.5 114t208.5 41q217 0 328 -137.5t73 -355.5q-10 -67 -41 -131
h-684q-3 -100 59.5 -159t161.5 -59q82 0 161 31.5t130 77.5l131 -195q-210 -172 -471 -172q-127 0 -223.5 51.5t-157.5 141.5q-86 -87 -204.5 -140t-239.5 -53zM412 334q-9 -47 26.5 -81t102.5 -34q89 0 171 58.5t97 142.5l6 31h-225q-74 0 -122 -33t-56 -84zM1139 633h409
l2 2q10 84 -38.5 136t-129.5 52q-83 0 -150 -51t-93 -139z" />
    <glyph glyph-name="ccedilla" unicode="&#xe7;" horiz-adv-x="1091" 
d="M514 -16q-196 35 -295.5 185.5t-64.5 356.5q42 233 229 391t428 158q287 0 399 -237l-239 -183q-58 144 -203 144q-108 0 -192.5 -77.5t-106.5 -195.5q-20 -120 37.5 -197t169.5 -77q132 0 258 129l166 -180q-84 -94 -193 -153t-231 -71l-37 -73q31 -7 57 -20.5
t48.5 -35.5t32 -56.5t1.5 -76.5q-15 -89 -99.5 -142.5t-205.5 -53.5q-83 0 -135 18l31 178q52 -18 106 -18q93 0 103 47q5 23 -19.5 36t-73.5 13q-37 0 -65 -4z" />
    <glyph glyph-name="egrave" unicode="&#xe8;" horiz-adv-x="1161" 
d="M639 -25q-172 0 -292.5 73t-169.5 197.5t-23 278.5q27 153 119.5 279t229.5 199t290 73q223 0 336.5 -135.5t76.5 -349.5q-9 -53 -43 -139h-700q-6 -101 63.5 -156t178.5 -55q155 0 280 108l129 -201q-115 -91 -229.5 -131.5t-245.5 -40.5zM686 1147l-276 414h378
l154 -414h-256zM492 643h419l2 2q9 80 -39 128t-131 48q-87 0 -156 -47.5t-95 -130.5z" />
    <glyph glyph-name="eacute" unicode="&#xe9;" horiz-adv-x="1161" 
d="M639 -25q-172 0 -292.5 73t-169.5 197.5t-23 278.5q27 153 119.5 279t229.5 199t290 73q223 0 336.5 -135.5t76.5 -349.5q-9 -53 -43 -139h-700q-6 -101 63.5 -156t178.5 -55q155 0 280 108l129 -201q-115 -91 -229.5 -131.5t-245.5 -40.5zM668 1147l297 414h378
l-419 -414h-256zM743 821q-87 0 -156 -47.5t-95 -130.5h419l2 2q9 80 -39 128t-131 48z" />
    <glyph glyph-name="ecircumflex" unicode="&#xea;" horiz-adv-x="1161" 
d="M639 -25q-172 0 -292.5 73t-169.5 197.5t-23 278.5q27 153 119.5 279t229.5 199t290 73q223 0 336.5 -135.5t76.5 -349.5q-9 -53 -43 -139h-700q-6 -101 63.5 -156t178.5 -55q155 0 280 108l129 -201q-115 -91 -229.5 -131.5t-245.5 -40.5zM662 1147h-275l344 420h260
l197 -420h-275l-88 225zM743 821q-87 0 -156 -47.5t-95 -130.5h419l2 2q9 80 -39 128t-131 48z" />
    <glyph glyph-name="edieresis" unicode="&#xeb;" horiz-adv-x="1161" 
d="M639 -25q-172 0 -292.5 73t-169.5 197.5t-23 278.5q27 153 119.5 279t229.5 199t290 73q223 0 336.5 -135.5t76.5 -349.5q-9 -53 -43 -139h-700q-6 -101 63.5 -156t178.5 -55q155 0 280 108l129 -201q-115 -91 -229.5 -131.5t-245.5 -40.5zM569 1182q-72 0 -113.5 48
t-29.5 120q13 71 71.5 118.5t131.5 47.5t114.5 -47.5t28.5 -118.5q-12 -71 -71 -119.5t-132 -48.5zM1044 1182q-72 0 -113.5 48t-29.5 120q13 71 71.5 118.5t131.5 47.5t114.5 -47.5t28.5 -118.5q-12 -71 -71 -119.5t-132 -48.5zM743 821q-87 0 -156 -47.5t-95 -130.5h419
l2 2q9 80 -39 128t-131 48z" />
    <glyph glyph-name="igrave" unicode="&#xec;" horiz-adv-x="593" 
d="M141 0l185 1051h311l-184 -1051h-312zM477 1561l154 -414h-256l-277 414h379z" />
    <glyph glyph-name="iacute" unicode="&#xed;" horiz-adv-x="593" 
d="M141 0l185 1051h311l-184 -1051h-312zM371 1147l297 414h379l-420 -414h-256z" />
    <glyph glyph-name="icircumflex" unicode="&#xee;" horiz-adv-x="593" 
d="M141 0l185 1051h311l-184 -1051h-312zM98 1147l344 420h260l197 -420h-274l-88 225l-164 -225h-275z" />
    <glyph glyph-name="idieresis" unicode="&#xef;" horiz-adv-x="593" 
d="M141 0l185 1051h311l-184 -1051h-312zM741 1182q-72 0 -113.5 48t-29.5 120q13 71 71.5 118.5t131.5 47.5t114.5 -47.5t28.5 -118.5q-12 -71 -71 -119.5t-132 -48.5zM268 1182q-72 0 -113.5 48t-29.5 120q13 71 71.5 118.5t131.5 47.5t114.5 -47.5t28.5 -118.5
q-12 -71 -71 -119.5t-132 -48.5z" />
    <glyph glyph-name="eth" unicode="&#xf0;" horiz-adv-x="1159" 
d="M569 -25q-123 0 -218 46t-148 121t-73 168.5t-3 191.5q17 95 66.5 187t122 166t172.5 119.5t208 45.5q92 0 160 -47l2 2q-67 86 -201 153l-268 -114l-35 112l152 66q-88 29 -148 41l134 252q202 -50 360 -146l264 115l35 -113l-184 -79q305 -259 225 -711
q-15 -84 -46.5 -164t-85.5 -155.5t-123 -132t-164 -90.5t-204 -34zM440 502q-21 -116 26 -188t148 -72q98 0 167.5 73.5t90.5 190.5q19 112 -26.5 186t-145.5 74q-99 0 -169 -75t-91 -189z" />
    <glyph glyph-name="ntilde" unicode="&#xf1;" horiz-adv-x="1284" 
d="M141 0l185 1051h299l-23 -136q126 160 340 160q188 0 277.5 -116.5t52.5 -319.5l-113 -639h-311l104 592q18 100 -22.5 154.5t-128.5 54.5q-97 0 -164.5 -73t-87.5 -181l-96 -547h-312zM662 1169l-197 45q23 131 106 211t199 80q51 0 97 -22.5t81 -45t60 -22.5
q68 0 90 98l194 -45q-23 -131 -106.5 -211.5t-198.5 -80.5q-40 0 -78 14t-61.5 31t-50.5 31t-47 14q-68 0 -88 -97z" />
    <glyph glyph-name="ograve" unicode="&#xf2;" horiz-adv-x="1249" 
d="M621 -25q-161 0 -277.5 73t-166 199t-23.5 279q42 234 229.5 391.5t431.5 157.5q161 0 277.5 -72.5t165.5 -198t22 -278.5q-26 -153 -120 -279t-236 -199t-303 -73zM469 526q-21 -121 36.5 -197.5t164.5 -76.5t190 76t105 198q21 122 -35.5 197.5t-163.5 75.5t-191.5 -76
t-105.5 -197zM696 1147l-276 414h379l153 -414h-256z" />
    <glyph glyph-name="oacute" unicode="&#xf3;" horiz-adv-x="1249" 
d="M621 -25q-161 0 -277.5 73t-166 199t-23.5 279q42 234 229.5 391.5t431.5 157.5q161 0 277.5 -72.5t165.5 -198t22 -278.5q-26 -153 -120 -279t-236 -199t-303 -73zM469 526q-21 -121 36.5 -197.5t164.5 -76.5t190 76t105 198q21 122 -35.5 197.5t-163.5 75.5t-191.5 -76
t-105.5 -197zM944 1147h-256l297 414h379z" />
    <glyph glyph-name="ocircumflex" unicode="&#xf4;" horiz-adv-x="1249" 
d="M621 -25q-161 0 -277.5 73t-166 199t-23.5 279q42 234 229.5 391.5t431.5 157.5q161 0 277.5 -72.5t165.5 -198t22 -278.5q-26 -153 -120 -279t-236 -199t-303 -73zM469 526q-21 -121 36.5 -197.5t164.5 -76.5t190 76t105 198q21 122 -35.5 197.5t-163.5 75.5t-191.5 -76
t-105.5 -197zM426 1147l344 420h260l197 -420h-275l-88 225l-164 -225h-274z" />
    <glyph glyph-name="otilde" unicode="&#xf5;" horiz-adv-x="1249" 
d="M621 -25q-161 0 -277.5 73t-166 199t-23.5 279q42 234 229.5 391.5t431.5 157.5q161 0 277.5 -72.5t165.5 -198t22 -278.5q-26 -153 -120 -279t-236 -199t-303 -73zM469 526q-21 -121 36.5 -197.5t164.5 -76.5t190 76t105 198q21 122 -35.5 197.5t-163.5 75.5t-191.5 -76
t-105.5 -197zM444 1214q23 131 106.5 211t199.5 80q40 0 78 -14t61.5 -31t50.5 -31t47 -14q68 0 90 98l195 -45q-23 -131 -106.5 -211.5t-198.5 -80.5q-51 0 -97 22.5t-81 45t-60 22.5q-68 0 -88 -97z" />
    <glyph glyph-name="odieresis" unicode="&#xf6;" horiz-adv-x="1249" 
d="M621 -25q-161 0 -277.5 73t-166 199t-23.5 279q42 234 229.5 391.5t431.5 157.5q161 0 277.5 -72.5t165.5 -198t22 -278.5q-26 -153 -120 -279t-236 -199t-303 -73zM469 526q-21 -121 36.5 -197.5t164.5 -76.5t190 76t105 198q21 122 -35.5 197.5t-163.5 75.5t-191.5 -76
t-105.5 -197zM1069 1182q-72 0 -113.5 48t-29.5 120q13 72 71.5 119t130.5 47q73 0 115 -47.5t29 -118.5q-12 -71 -71 -119.5t-132 -48.5zM592 1182q-72 0 -113.5 48t-29.5 120q13 72 71.5 119t130.5 47q73 0 115 -47.5t29 -118.5q-12 -71 -71 -119.5t-132 -48.5z" />
    <glyph glyph-name="divide" unicode="&#xf7;" horiz-adv-x="1089" 
d="M1118 571h-946l47 271h946zM713 961q-72 0 -114 47.5t-30 119.5q12 71 71 119.5t132 48.5t114 -48t29 -120t-70 -119.5t-132 -47.5zM563 119q-72 0 -113 48t-28 120q12 70 70.5 118t130.5 48q74 0 115.5 -48t29.5 -118q-13 -72 -72 -120t-133 -48z" />
    <glyph glyph-name="oslash" unicode="&#xf8;" horiz-adv-x="1249" 
d="M209 -145l-111 88l160 178q-70 75 -97.5 180t-6.5 225q42 234 229.5 391.5t431.5 157.5q140 0 248 -57l160 178l110 -86l-157 -176q71 -74 98.5 -180t5.5 -228q-26 -153 -120 -279t-236 -199t-303 -73q-139 0 -252 58zM580 268q43 -16 90 -16q107 0 190 76t105 198
q15 91 -13 158zM469 526q-15 -90 12 -155l371 411q-43 17 -86 17q-107 0 -191.5 -76t-105.5 -197z" />
    <glyph glyph-name="ugrave" unicode="&#xf9;" horiz-adv-x="1284" 
d="M528 -25q-188 0 -277 117t-52 320l112 639h312l-105 -592q-18 -100 23 -154.5t129 -54.5q97 0 164.5 73t85.5 181l98 547h311l-186 -1051h-299l24 135q-129 -160 -340 -160zM432 1561h379l154 -414h-256z" />
    <glyph glyph-name="uacute" unicode="&#xfa;" horiz-adv-x="1284" 
d="M528 -25q-188 0 -277 117t-52 320l112 639h312l-105 -592q-18 -100 23 -154.5t129 -54.5q97 0 164.5 73t85.5 181l98 547h311l-186 -1051h-299l24 135q-129 -160 -340 -160zM698 1147l297 414h379l-420 -414h-256z" />
    <glyph glyph-name="ucircumflex" unicode="&#xfb;" horiz-adv-x="1284" 
d="M528 -25q-188 0 -277 117t-52 320l112 639h312l-105 -592q-18 -100 23 -154.5t129 -54.5q97 0 164.5 73t85.5 181l98 547h311l-186 -1051h-299l24 135q-129 -160 -340 -160zM430 1147l344 420h260l197 -420h-275l-88 225l-163 -225h-275z" />
    <glyph glyph-name="udieresis" unicode="&#xfc;" horiz-adv-x="1284" 
d="M528 -25q-188 0 -277 117t-52 320l112 639h312l-105 -592q-18 -100 23 -154.5t129 -54.5q97 0 164.5 73t85.5 181l98 547h311l-186 -1051h-299l24 135q-129 -160 -340 -160zM1067 1182q-72 0 -113.5 48t-29.5 120q13 72 71.5 119t130.5 47q73 0 115 -47.5t29 -118.5
q-12 -71 -71 -119.5t-132 -48.5zM592 1182q-72 0 -113.5 48t-29.5 120q13 72 71.5 119t130.5 47q73 0 115 -47.5t29 -118.5q-12 -71 -71 -119.5t-132 -48.5z" />
    <glyph glyph-name="yacute" unicode="&#xfd;" horiz-adv-x="1114" 
d="M-25 -395l45 258q59 -35 138 -35q72 0 128.5 36.5t104.5 139.5l19 35l-236 1012h326l123 -689l366 689h318l-658 -1137q-111 -188 -225.5 -268t-265.5 -80q-99 0 -183 39zM623 1147l297 414h378l-419 -414h-256z" />
    <glyph glyph-name="thorn" unicode="&#xfe;" horiz-adv-x="1308" 
d="M377 -410h-311l256 1461l73 409h312l-95 -524q71 71 161.5 105t170.5 34q99 0 181.5 -40t136 -113t75.5 -173.5t0 -222.5q-42 -237 -208 -394t-381 -157q-90 0 -168 35.5t-111 104.5zM532 522q-21 -122 36.5 -197t164.5 -75q102 0 186 76t105 196q21 123 -36 201t-159 78
q-106 0 -190 -77t-107 -202z" />
    <glyph glyph-name="ydieresis" unicode="&#xff;" horiz-adv-x="1114" 
d="M-25 -395l45 258q59 -35 138 -35q72 0 128.5 36.5t104.5 139.5l19 35l-236 1012h326l123 -689l366 689h318l-658 -1137q-111 -188 -225.5 -268t-265.5 -80q-99 0 -183 39zM995 1182q-72 0 -113.5 48t-29.5 120q13 71 71.5 118.5t131.5 47.5t114.5 -47.5t28.5 -118.5
q-12 -71 -71 -119.5t-132 -48.5zM520 1182q-72 0 -113.5 48t-29.5 120q13 71 71.5 118.5t131.5 47.5t114.5 -47.5t28.5 -118.5q-12 -71 -71 -119.5t-132 -48.5z" />
    <glyph glyph-name="Amacron" unicode="&#x100;" horiz-adv-x="1394" 
d="M-16 0l819 1460h307l301 -1460h-319l-68 334h-535l-186 -334h-319zM670 1642l41 236h632l-40 -236h-633zM893 1106l-260 -504h344z" />
    <glyph glyph-name="amacron" unicode="&#x101;" horiz-adv-x="1105" 
d="M401 -25q-152 0 -234.5 88.5t-57.5 225.5q20 117 122 196t273 113l297 55l2 9q13 73 -32 109t-130 36q-157 0 -291 -127l-129 197q91 91 218 144.5t270 53.5q218 0 322.5 -110.5t70.5 -302.5l-117 -662h-289l23 129q-51 -71 -133.5 -112.5t-184.5 -41.5zM432 1233l41 235
h633l-41 -235h-633zM408 307q-8 -45 20.5 -72.5t83.5 -27.5q94 0 164.5 62t87.5 157l4 31l-215 -41q-127 -22 -145 -109z" />
    <glyph glyph-name="Abreve" unicode="&#x102;" horiz-adv-x="1394" 
d="M303 0h-319l819 1460h307l301 -1460h-319l-68 334h-535zM979 1583q-136 0 -214.5 84.5t-51.5 230.5h239q-9 -47 8.5 -74.5t55.5 -27.5q37 0 64.5 27.5t33.5 74.5h240q-24 -146 -131.5 -230.5t-243.5 -84.5zM893 1106l-260 -504h344z" />
    <glyph glyph-name="abreve" unicode="&#x103;" horiz-adv-x="1105" 
d="M401 -25q-152 0 -234.5 88.5t-57.5 225.5q20 117 122 196t273 113l297 55l2 9q13 73 -32 109t-130 36q-157 0 -291 -127l-129 197q91 91 218 144.5t270 53.5q218 0 322.5 -110.5t70.5 -302.5l-117 -662h-289l23 129q-51 -71 -133.5 -112.5t-184.5 -41.5zM735 1174
q-136 0 -214.5 84.5t-51.5 230.5h240q-9 -47 8 -75t55 -28q37 0 64.5 28t33.5 75h240q-24 -146 -131.5 -230.5t-243.5 -84.5zM408 307q-8 -45 20.5 -72.5t83.5 -27.5q94 0 164.5 62t87.5 157l4 31l-215 -41q-127 -22 -145 -109z" />
    <glyph glyph-name="Aogonek" unicode="&#x104;" horiz-adv-x="1394" 
d="M-16 0l819 1460h307l301 -1458l2 -2q-80 -55 -118.5 -94.5t-45.5 -75.5q-6 -34 27.5 -52.5t91.5 -25.5l-131 -223q-74 1 -134.5 24.5t-95 73.5t-22.5 117q23 132 217 256h-110l-68 334h-535l-186 -334h-319zM893 1106l-260 -504h344z" />
    <glyph glyph-name="aogonek" unicode="&#x105;" horiz-adv-x="1105" 
d="M401 -25q-152 0 -234.5 88.5t-57.5 225.5q20 117 122 196t273 113l297 55l2 9q13 73 -32 109t-130 36q-157 0 -291 -127l-129 197q91 91 218 144.5t270 53.5q218 0 322.5 -110.5t70.5 -302.5l-117 -662q-80 -55 -118.5 -94.5t-45.5 -75.5q-6 -34 27.5 -52.5t91.5 -25.5
l-131 -223q-74 1 -134.5 24.5t-95 73.5t-22.5 117q23 132 217 256h-78l23 129q-51 -71 -133.5 -112.5t-184.5 -41.5zM408 307q-8 -45 20.5 -72.5t83.5 -27.5q94 0 164.5 62t87.5 157l4 31l-215 -41q-127 -22 -145 -109z" />
    <glyph glyph-name="Cacute" unicode="&#x106;" horiz-adv-x="1480" 
d="M821 -25q-160 0 -290.5 59t-212 160.5t-114 241t-5.5 295.5q27 157 108.5 296t198 240t269.5 159.5t317 58.5q206 0 351.5 -91t205.5 -253l-271 -189q-37 104 -130.5 168t-213.5 64q-191 0 -333.5 -129t-176.5 -324q-34 -193 64.5 -324t281.5 -131q248 0 435 236
l206 -184q-125 -160 -307.5 -256.5t-382.5 -96.5zM1206 1556h-256l297 414h379z" />
    <glyph glyph-name="cacute" unicode="&#x107;" horiz-adv-x="1089" 
d="M616 -25q-160 0 -276 73t-165 199t-23 279q42 233 229 391t428 158q287 0 399 -237l-239 -183q-58 144 -203 144q-108 0 -192.5 -77.5t-106.5 -195.5q-20 -120 37.5 -197t169.5 -77q132 0 258 129l166 -180q-93 -105 -218.5 -165.5t-263.5 -60.5zM911 1147h-256l297 414
h379z" />
    <glyph glyph-name="Ccircumflex" unicode="&#x108;" horiz-adv-x="1480" 
d="M821 -25q-160 0 -290.5 59t-212 160.5t-114 241t-5.5 295.5q27 157 108.5 296t198 240t269.5 159.5t317 58.5q206 0 351.5 -91t205.5 -253l-271 -189q-37 104 -130.5 168t-213.5 64q-191 0 -333.5 -129t-176.5 -324q-34 -193 64.5 -324t281.5 -131q248 0 435 236
l206 -184q-125 -160 -307.5 -256.5t-382.5 -96.5zM969 1556h-275l344 420h260l197 -420h-274l-88 226z" />
    <glyph glyph-name="ccircumflex" unicode="&#x109;" horiz-adv-x="1089" 
d="M616 -25q-160 0 -276 73t-165 199t-23 279q42 233 229 391t428 158q287 0 399 -237l-239 -183q-58 144 -203 144q-108 0 -192.5 -77.5t-106.5 -195.5q-20 -120 37.5 -197t169.5 -77q132 0 258 129l166 -180q-93 -105 -218.5 -165.5t-263.5 -60.5zM428 1147l344 420h260
l197 -420h-275l-88 225l-164 -225h-274z" />
    <glyph glyph-name="Cdotaccent" unicode="&#x10a;" horiz-adv-x="1480" 
d="M821 -25q-160 0 -290.5 59t-212 160.5t-114 241t-5.5 295.5q27 157 108.5 296t198 240t269.5 159.5t317 58.5q206 0 351.5 -91t205.5 -253l-271 -189q-37 104 -130.5 168t-213.5 64q-191 0 -333.5 -129t-176.5 -324q-34 -193 64.5 -324t281.5 -131q248 0 435 236
l206 -184q-125 -160 -307.5 -256.5t-382.5 -96.5zM1102 1591q-72 0 -114 48t-30 120q13 71 71.5 118.5t131.5 47.5t115 -47.5t29 -118.5q-12 -71 -71 -119.5t-132 -48.5z" />
    <glyph glyph-name="cdotaccent" unicode="&#x10b;" horiz-adv-x="1089" 
d="M616 -25q-160 0 -276 73t-165 199t-23 279q42 233 229 391t428 158q287 0 399 -237l-239 -183q-58 144 -203 144q-108 0 -192.5 -77.5t-106.5 -195.5q-20 -120 37.5 -197t169.5 -77q132 0 258 129l166 -180q-93 -105 -218.5 -165.5t-263.5 -60.5zM811 1182
q-72 0 -113.5 48t-29.5 120q13 72 71.5 119t130.5 47q73 0 115 -47.5t29 -118.5q-12 -71 -71 -119.5t-132 -48.5z" />
    <glyph glyph-name="Ccaron" unicode="&#x10c;" horiz-adv-x="1480" 
d="M821 -25q-160 0 -290.5 59t-212 160.5t-114 241t-5.5 295.5q27 157 108.5 296t198 240t269.5 159.5t317 58.5q206 0 351.5 -91t205.5 -253l-271 -189q-37 104 -130.5 168t-213.5 64q-191 0 -333.5 -129t-176.5 -324q-34 -193 64.5 -324t281.5 -131q248 0 435 236
l206 -184q-125 -160 -307.5 -256.5t-382.5 -96.5zM768 1976h274l86 -223l166 223h275l-344 -420h-260z" />
    <glyph glyph-name="ccaron" unicode="&#x10d;" horiz-adv-x="1089" 
d="M616 -25q-160 0 -276 73t-165 199t-23 279q42 233 229 391t428 158q287 0 399 -237l-239 -183q-58 144 -203 144q-108 0 -192.5 -77.5t-106.5 -195.5q-20 -120 37.5 -197t169.5 -77q132 0 258 129l166 -180q-93 -105 -218.5 -165.5t-263.5 -60.5zM479 1567h275l86 -224
l166 224h274l-344 -420h-260z" />
    <glyph glyph-name="Dcaron" unicode="&#x10e;" horiz-adv-x="1521" 
d="M170 0l258 1460h537q212 0 366.5 -98t220 -264t29.5 -365q-36 -203 -160 -370.5t-312.5 -265t-401.5 -97.5h-537zM532 272h195q186 0 339.5 132t188.5 327q34 192 -71.5 324.5t-292.5 132.5h-197zM659 1976h275l86 -223l166 223h274l-344 -420h-260z" />
    <glyph glyph-name="dcaron" unicode="&#x10f;" horiz-adv-x="1429" 
d="M547 -25q-99 0 -181.5 40t-135.5 113t-74.5 173.5t0.5 222.5q42 236 209.5 393.5t382.5 157.5q90 0 165.5 -38.5t110.5 -112.5l94 536h312l-259 -1460h-288l26 147q-68 -86 -170 -129t-192 -43zM471 528q-23 -123 34.5 -200.5t160.5 -77.5q106 0 190 76.5t107 201.5
q21 122 -37 197.5t-164 75.5q-102 0 -186 -76t-105 -197zM1696 1032h-232q61 133 78 238q17 96 10 188h269q-5 -135 -30.5 -228t-94.5 -198z" />
    <glyph glyph-name="Dcroat" unicode="&#x110;" horiz-adv-x="1529" 
d="M137 643l33 178h154l112 639h537q212 0 366.5 -98t220 -264t29.5 -365q-36 -203 -160 -370.5t-312.5 -265t-401.5 -97.5h-537l113 643h-154zM606 643l-65 -371h194q186 0 340 132t189 327q34 192 -72 324.5t-293 132.5h-197l-65 -367h315l-32 -178h-314z" />
    <glyph glyph-name="dcroat" unicode="&#x111;" horiz-adv-x="1286" 
d="M547 -25q-99 0 -181.5 40t-135.5 113t-74.5 173.5t0.5 222.5q42 236 209.5 393.5t382.5 157.5q90 0 165.5 -38.5t110.5 -112.5l43 250h-236l29 159h236l22 127h312l-23 -127h147l-28 -159h-148l-207 -1174h-288l26 147q-68 -86 -170 -129t-192 -43zM471 528
q-23 -123 34.5 -200.5t160.5 -77.5q106 0 190 76.5t107 201.5q21 122 -37 197.5t-164 75.5q-102 0 -186 -76t-105 -197z" />
    <glyph glyph-name="Emacron" unicode="&#x112;" horiz-adv-x="1218" 
d="M170 2l258 1458h958l-49 -274h-643l-55 -314h528l-49 -274h-528l-55 -322h667l-49 -274h-983zM602 1642l41 236h633l-41 -236h-633z" />
    <glyph glyph-name="emacron" unicode="&#x113;" horiz-adv-x="1161" 
d="M639 -25q-172 0 -292.5 73t-169.5 197.5t-23 278.5q27 153 119.5 279t229.5 199t290 73q223 0 336.5 -135.5t76.5 -349.5q-9 -53 -43 -139h-700q-6 -101 63.5 -156t178.5 -55q155 0 280 108l129 -201q-115 -91 -229.5 -131.5t-245.5 -40.5zM492 1233l40 235h633l-41 -235
h-632zM743 821q-87 0 -156 -47.5t-95 -130.5h419l2 2q9 80 -39 128t-131 48z" />
    <glyph glyph-name="Ebreve" unicode="&#x114;" horiz-adv-x="1218" 
d="M1153 2h-983l258 1458h958l-49 -274h-643l-55 -314h528l-49 -274h-528l-55 -322h667zM913 1583q-136 0 -214.5 84.5t-51.5 230.5h240q-9 -47 8 -74.5t55 -27.5t65.5 28t33.5 74h239q-24 -146 -131.5 -230.5t-243.5 -84.5z" />
    <glyph glyph-name="ebreve" unicode="&#x115;" horiz-adv-x="1161" 
d="M639 -25q-172 0 -292.5 73t-169.5 197.5t-23 278.5q27 153 119.5 279t229.5 199t290 73q223 0 336.5 -135.5t76.5 -349.5q-9 -53 -43 -139h-700q-6 -101 63.5 -156t178.5 -55q155 0 280 108l129 -201q-115 -91 -229.5 -131.5t-245.5 -40.5zM797 1174q-65 0 -119.5 21
t-92.5 60t-53 99.5t-2 134.5h240q-9 -47 8.5 -75t55.5 -28q37 0 64.5 28t33.5 75h239q-24 -146 -131 -230.5t-243 -84.5zM743 821q-87 0 -156 -47.5t-95 -130.5h419l2 2q9 80 -39 128t-131 48z" />
    <glyph glyph-name="Edotaccent" unicode="&#x116;" horiz-adv-x="1218" 
d="M1153 2h-983l258 1458h958l-49 -274h-643l-55 -314h528l-49 -274h-528l-55 -322h667zM930 1591q-72 0 -114 48t-30 120q13 71 71.5 118.5t131.5 47.5t115 -47.5t29 -118.5q-12 -71 -71 -119.5t-132 -48.5z" />
    <glyph glyph-name="edotaccent" unicode="&#x117;" horiz-adv-x="1161" 
d="M639 -25q-172 0 -292.5 73t-169.5 197.5t-23 278.5q27 153 119.5 279t229.5 199t290 73q223 0 336.5 -135.5t76.5 -349.5q-9 -53 -43 -139h-700q-6 -101 63.5 -156t178.5 -55q155 0 280 108l129 -201q-115 -91 -229.5 -131.5t-245.5 -40.5zM797 1182q-72 0 -114 48
t-30 120q13 71 71.5 118.5t131.5 47.5t114.5 -47.5t28.5 -118.5q-12 -71 -70.5 -119.5t-131.5 -48.5zM743 821q-87 0 -156 -47.5t-95 -130.5h419l2 2q9 80 -39 128t-131 48z" />
    <glyph glyph-name="Eogonek" unicode="&#x118;" horiz-adv-x="1218" 
d="M942 2h-772l258 1458h958l-49 -274h-643l-55 -314h528l-49 -274h-528l-55 -322h667l-49 -274h-4l2 -2q-80 -55 -118.5 -94.5t-45.5 -75.5q-6 -34 27.5 -52.5t91.5 -25.5l-131 -223q-74 1 -134.5 24.5t-95 73.5t-22.5 117q22 131 219 258z" />
    <glyph glyph-name="eogonek" unicode="&#x119;" horiz-adv-x="1161" 
d="M586 -23q-156 11 -263.5 86t-150.5 195t-18 266q27 153 119.5 279t229.5 199t290 73q223 0 336.5 -135.5t76.5 -349.5q-9 -53 -43 -139h-700q-6 -101 63.5 -156t178.5 -55q155 0 280 108l129 -201q-134 -109 -285 -147q-78 -55 -116 -94.5t-45 -75.5q-6 -34 27 -52.5
t91 -25.5l-131 -223q-74 1 -134.5 24.5t-95 73.5t-22.5 117q19 117 183 233zM492 643h419l2 2q9 80 -39 128t-131 48q-87 0 -156 -47.5t-95 -130.5z" />
    <glyph glyph-name="Ecaron" unicode="&#x11a;" horiz-adv-x="1218" 
d="M170 2l258 1458h958l-49 -274h-643l-55 -314h528l-49 -274h-528l-55 -322h667l-49 -274h-983zM805 1556l-197 420h275l86 -223l166 223h274l-344 -420h-260z" />
    <glyph glyph-name="ecaron" unicode="&#x11b;" horiz-adv-x="1161" 
d="M639 -25q-172 0 -292.5 73t-169.5 197.5t-23 278.5q27 153 119.5 279t229.5 199t290 73q223 0 336.5 -135.5t76.5 -349.5q-9 -53 -43 -139h-700q-6 -101 63.5 -156t178.5 -55q155 0 280 108l129 -201q-115 -91 -229.5 -131.5t-245.5 -40.5zM461 1567h274l86 -224l166 224
h275l-344 -420h-261zM743 821q-87 0 -156 -47.5t-95 -130.5h419l2 2q9 80 -39 128t-131 48z" />
    <glyph glyph-name="Gcircumflex" unicode="&#x11c;" horiz-adv-x="1556" 
d="M825 -25q-109 0 -205 26.5t-170 75.5t-131.5 117.5t-88.5 152.5t-41 181.5t10 202.5q27 157 109 296t200.5 239.5t273 159.5t320.5 59q207 0 345.5 -86t211.5 -230l-266 -194q-49 92 -137 150.5t-212 58.5q-193 0 -339.5 -129.5t-180.5 -323.5t64.5 -324.5t285.5 -130.5
q121 0 213 41.5t170 124.5l19 109h-311l47 258h606l-86 -485q-130 -157 -311 -253t-396 -96zM958 1556h-274l344 420h260l197 -420h-275l-88 226z" />
    <glyph glyph-name="gcircumflex" unicode="&#x11d;" horiz-adv-x="1126" 
d="M477 -434q-231 0 -358.5 77.5t-104.5 206.5q11 71 66.5 123t136.5 84q-75 58 -57 156q10 53 55 100.5t111 81.5q-75 52 -109.5 132t-17.5 175q28 156 175.5 264.5t334.5 108.5q71 0 139 -24h428l-39 -232h-158q16 -58 4 -117q-28 -159 -175.5 -266.5t-336.5 -107.5
q-39 0 -55 2q-70 -25 -76 -62q-4 -27 18 -40t58 -13h262q160 0 245 -87t62 -224q-27 -146 -194.5 -242t-413.5 -96zM612 1147h-274l344 420h260l197 -420h-275l-88 225zM473 702q-11 -62 30.5 -105.5t112.5 -43.5q70 0 126 43.5t67 105.5q12 63 -29 105.5t-112 42.5
q-72 0 -127.5 -42.5t-67.5 -105.5zM324 -102q-7 -47 46 -73t150 -26q120 0 186 27t74 74q7 38 -23 60t-77 22h-277q-69 -31 -79 -84z" />
    <glyph glyph-name="Gbreve" unicode="&#x11e;" horiz-adv-x="1556" 
d="M825 -25q-109 0 -205 26.5t-170 75.5t-131.5 117.5t-88.5 152.5t-41 181.5t10 202.5q27 157 109 296t200.5 239.5t273 159.5t320.5 59q207 0 345.5 -86t211.5 -230l-266 -194q-49 92 -137 150.5t-212 58.5q-193 0 -339.5 -129.5t-180.5 -323.5t64.5 -324.5t285.5 -130.5
q121 0 213 41.5t170 124.5l19 109h-311l47 258h606l-86 -485q-130 -157 -311 -253t-396 -96zM1087 1583q-136 0 -214.5 84.5t-51.5 230.5h240q-9 -47 8 -74.5t55 -27.5t65.5 28t33.5 74h239q-24 -146 -131.5 -230.5t-243.5 -84.5z" />
    <glyph glyph-name="gbreve" unicode="&#x11f;" horiz-adv-x="1126" 
d="M477 -434q-231 0 -358.5 77.5t-104.5 206.5q11 71 66.5 123t136.5 84q-75 58 -57 156q10 53 55 100.5t111 81.5q-75 52 -109.5 132t-17.5 175q28 156 175.5 264.5t334.5 108.5q71 0 139 -24h428l-39 -232h-158q16 -58 4 -117q-28 -159 -175.5 -266.5t-336.5 -107.5
q-39 0 -55 2q-70 -25 -76 -62q-4 -27 18 -40t58 -13h262q160 0 245 -87t62 -224q-27 -146 -194.5 -242t-413.5 -96zM739 1174q-136 0 -214.5 84.5t-51.5 230.5h240q-9 -47 8 -75t55 -28q37 0 64.5 28t33.5 75h240q-24 -146 -131.5 -230.5t-243.5 -84.5zM473 702
q-11 -62 30.5 -105.5t112.5 -43.5q70 0 126 43.5t67 105.5q12 63 -29 105.5t-112 42.5q-72 0 -127.5 -42.5t-67.5 -105.5zM324 -102q-7 -47 46 -73t150 -26q120 0 186 27t74 74q7 38 -23 60t-77 22h-277q-69 -31 -79 -84z" />
    <glyph glyph-name="Gdotaccent" unicode="&#x120;" horiz-adv-x="1556" 
d="M825 -25q-109 0 -205 26.5t-170 75.5t-131.5 117.5t-88.5 152.5t-41 181.5t10 202.5q27 157 109 296t200.5 239.5t273 159.5t320.5 59q207 0 345.5 -86t211.5 -230l-266 -194q-49 92 -137 150.5t-212 58.5q-193 0 -339.5 -129.5t-180.5 -323.5t64.5 -324.5t285.5 -130.5
q121 0 213 41.5t170 124.5l19 109h-311l47 258h606l-86 -485q-130 -157 -311 -253t-396 -96zM1087 1591q-72 0 -113.5 48t-29.5 120q13 71 71.5 118.5t131.5 47.5t114.5 -47.5t28.5 -118.5q-12 -71 -71 -119.5t-132 -48.5z" />
    <glyph glyph-name="gdotaccent" unicode="&#x121;" horiz-adv-x="1126" 
d="M477 -434q-231 0 -358.5 77.5t-104.5 206.5q11 71 66.5 123t136.5 84q-75 58 -57 156q10 53 55 100.5t111 81.5q-75 52 -109.5 132t-17.5 175q28 156 175.5 264.5t334.5 108.5q71 0 139 -24h428l-39 -232h-158q16 -58 4 -117q-28 -159 -175.5 -266.5t-336.5 -107.5
q-39 0 -55 2q-70 -25 -76 -62q-4 -27 18 -40t58 -13h262q160 0 245 -87t62 -224q-27 -146 -194.5 -242t-413.5 -96zM750 1182q-72 0 -114 48t-30 120q13 71 71.5 118.5t131.5 47.5t114.5 -47.5t28.5 -118.5q-12 -71 -70.5 -119.5t-131.5 -48.5zM473 702q-11 -62 30.5 -105.5
t112.5 -43.5q70 0 126 43.5t67 105.5q12 63 -29 105.5t-112 42.5q-72 0 -127.5 -42.5t-67.5 -105.5zM324 -102q-7 -47 46 -73t150 -26q120 0 186 27t74 74q7 38 -23 60t-77 22h-277q-69 -31 -79 -84z" />
    <glyph glyph-name="uni0122" unicode="&#x122;" horiz-adv-x="1556" 
d="M825 -25q-109 0 -205 26.5t-170 75.5t-131.5 117.5t-88.5 152.5t-41 181.5t10 202.5q27 157 109 296t200.5 239.5t273 159.5t320.5 59q207 0 345.5 -86t211.5 -230l-266 -194q-49 92 -137 150.5t-212 58.5q-193 0 -339.5 -129.5t-180.5 -323.5t64.5 -324.5t285.5 -130.5
q121 0 213 41.5t170 124.5l19 109h-311l47 258h606l-86 -485q-130 -157 -311 -253t-396 -96zM582 -561q60 130 77 237q18 102 9 189h268q0 -123 -28.5 -221.5t-94.5 -204.5h-231z" />
    <glyph glyph-name="uni0123" unicode="&#x123;" horiz-adv-x="1126" 
d="M477 -434q-231 0 -358.5 77.5t-104.5 206.5q11 71 66.5 123t136.5 84q-75 58 -57 156q10 53 55 100.5t111 81.5q-75 52 -109.5 132t-17.5 175q28 156 175.5 264.5t334.5 108.5q71 0 139 -24h428l-39 -232h-158q16 -58 4 -117q-28 -159 -175.5 -266.5t-336.5 -107.5
q-39 0 -55 2q-70 -25 -76 -62q-4 -27 18 -40t58 -13h262q160 0 245 -87t62 -224q-27 -146 -194.5 -242t-413.5 -96zM590 1171q0 124 29 223t96 203h231q-60 -131 -80 -237q-18 -98 -8 -189h-268zM473 702q-11 -62 30.5 -105.5t112.5 -43.5q70 0 126 43.5t67 105.5
q12 63 -29 105.5t-112 42.5q-72 0 -127.5 -42.5t-67.5 -105.5zM324 -102q-7 -47 46 -73t150 -26q120 0 186 27t74 74q7 38 -23 60t-77 22h-277q-69 -31 -79 -84z" />
    <glyph glyph-name="Hcircumflex" unicode="&#x124;" horiz-adv-x="1568" 
d="M485 0h-315l258 1460h315l-102 -573h598l102 573h316l-258 -1460h-316l105 596h-598zM657 1556l344 420h261l196 -420h-274l-88 226l-164 -226h-275z" />
    <glyph glyph-name="hcircumflex" unicode="&#x125;" horiz-adv-x="1284" 
d="M453 0h-312l258 1460h312l-93 -524q127 139 324 139q187 0 276 -116.5t54 -319.5l-113 -639h-311l104 592q18 100 -22.5 154.5t-128.5 54.5q-98 0 -165 -70.5t-85 -177.5zM451 1556h-275l344 420h260l197 -420h-275l-88 226z" />
    <glyph glyph-name="Hbar" unicode="&#x126;" horiz-adv-x="1626" 
d="M514 0h-315l190 1081h-170l31 179h172l35 200h315l-35 -200h598l35 200h316l-35 -200h168l-31 -179h-170l-191 -1081h-315l105 596h-599zM670 887h598l35 194h-598z" />
    <glyph glyph-name="hbar" unicode="&#x127;" horiz-adv-x="1284" 
d="M141 0l207 1174h-141l29 159h141l22 127h312l-23 -127h258l-28 -159h-259l-41 -238q127 139 324 139q187 0 276 -116.5t54 -319.5l-113 -639h-311l104 592q18 100 -22.5 154.5t-128.5 54.5q-98 0 -165 -70.5t-85 -177.5l-98 -553h-312z" />
    <glyph glyph-name="Itilde" unicode="&#x128;" horiz-adv-x="655" 
d="M170 0l258 1460h315l-258 -1460h-315zM223 1624q23 131 106 211t199 80q51 0 97 -22.5t81 -45t60 -22.5q68 0 90 98l195 -45q-23 -131 -107 -212t-199 -81q-40 0 -78 14t-61.5 31t-50.5 31t-47 14q-68 0 -88 -96z" />
    <glyph glyph-name="itilde" unicode="&#x129;" horiz-adv-x="593" 
d="M141 0l185 1051h311l-184 -1051h-312zM315 1169l-196 45q23 131 106 211t199 80q51 0 97 -22.5t81 -45t60 -22.5q68 0 90 98l194 -45q-23 -131 -106.5 -211.5t-198.5 -80.5q-51 0 -97 22.5t-81 45t-60 22.5q-68 0 -88 -97z" />
    <glyph glyph-name="Imacron" unicode="&#x12a;" horiz-adv-x="655" 
d="M170 0l258 1460h315l-258 -1460h-315zM301 1642l41 236h633l-41 -236h-633z" />
    <glyph glyph-name="imacron" unicode="&#x12b;" horiz-adv-x="593" 
d="M141 0l185 1051h311l-184 -1051h-312zM197 1233l41 235h632l-41 -235h-632z" />
    <glyph glyph-name="Ibreve" unicode="&#x12c;" horiz-adv-x="655" 
d="M485 0h-315l258 1460h315zM608 1583q-136 0 -214.5 84.5t-51.5 230.5h240q-9 -47 8 -74.5t55 -27.5q37 0 64.5 27.5t33.5 74.5h240q-24 -146 -131.5 -230.5t-243.5 -84.5z" />
    <glyph glyph-name="ibreve" unicode="&#x12d;" horiz-adv-x="593" 
d="M453 0h-312l185 1051h311zM504 1174q-136 0 -214.5 84.5t-51.5 230.5h239q-9 -47 8.5 -75t55.5 -28q37 0 64.5 28t33.5 75h240q-24 -146 -131.5 -230.5t-243.5 -84.5z" />
    <glyph glyph-name="Iogonek" unicode="&#x12e;" horiz-adv-x="655" 
d="M307 -471q-74 1 -134.5 24.5t-95 73.5t-22.5 117q23 132 217 256h-102l258 1460h315l-258 -1460h-2q-80 -55 -118.5 -94.5t-45.5 -75.5q-6 -34 27.5 -52.5t91.5 -25.5z" />
    <glyph glyph-name="iogonek" unicode="&#x12f;" horiz-adv-x="593" 
d="M274 -471q-74 1 -134 24.5t-94.5 73.5t-22.5 117q23 132 217 256h-99l185 1051h311l-184 -1051h-2q-80 -55 -118.5 -94.5t-45.5 -75.5q-6 -34 27.5 -52.5t91.5 -25.5zM502 1182q-72 0 -114 48t-30 120q13 71 71.5 118.5t131.5 47.5t115 -47.5t29 -118.5
q-12 -71 -71 -119.5t-132 -48.5z" />
    <glyph glyph-name="Idotaccent" unicode="&#x130;" horiz-adv-x="655" 
d="M485 0h-315l258 1460h315zM606 1591q-72 0 -113.5 48t-29.5 120q13 71 71.5 118.5t131.5 47.5t114.5 -47.5t28.5 -118.5q-12 -71 -71 -119.5t-132 -48.5z" />
    <glyph glyph-name="dotlessi" unicode="&#x131;" horiz-adv-x="593" 
d="M141 0l185 1051h311l-184 -1051h-312z" />
    <glyph glyph-name="IJ" unicode="&#x132;" horiz-adv-x="1738" 
d="M1100 -25q-160 0 -263.5 83.5t-131.5 234.5l274 151q20 -90 60.5 -135t111.5 -45q76 0 129.5 52.5t67.5 134.5l178 1009h315l-180 -1016q-37 -208 -192.5 -338.5t-368.5 -130.5zM485 0h-315l258 1460h315z" />
    <glyph glyph-name="ij" unicode="&#x133;" horiz-adv-x="1167" 
d="M575 -434q-102 0 -155 26l45 258q44 -16 98 -16q60 0 102.5 33t55.5 104l188 1080h312l-193 -1100q-15 -84 -48 -150.5t-76.5 -110t-98.5 -72t-111.5 -40.5t-118.5 -12zM453 0h-312l185 1051h311zM1090 1182q-72 0 -114 48t-30 120q13 71 71.5 118.5t131.5 47.5
t114.5 -47.5t28.5 -118.5q-12 -71 -70.5 -119.5t-131.5 -48.5zM502 1182q-72 0 -114 48t-30 120q13 71 71.5 118.5t131.5 47.5t115 -47.5t29 -118.5q-12 -71 -71 -119.5t-132 -48.5z" />
    <glyph glyph-name="Jcircumflex" unicode="&#x134;" horiz-adv-x="1083" 
d="M49 293l275 151q20 -90 60.5 -135t111.5 -45q76 0 129 52.5t67 134.5l178 1009h316l-180 -1016q-37 -208 -193 -338.5t-369 -130.5q-160 0 -263.5 83.5t-131.5 234.5zM911 1556h-274l344 420h260l197 -420h-275l-88 226z" />
    <glyph glyph-name="jcircumflex" unicode="&#x135;" horiz-adv-x="595" 
d="M-164 -408l45 258q44 -16 99 -16q60 0 102 33t55 104l189 1080h311l-193 -1100q-15 -84 -48 -150.5t-76.5 -110t-98.5 -72t-111 -40.5t-118 -12q-103 0 -156 26zM102 1147l344 420h261l196 -420h-274l-88 225l-164 -225h-275z" />
    <glyph glyph-name="uni0136" unicode="&#x136;" horiz-adv-x="1388" 
d="M485 0h-315l258 1460h315l-112 -641l645 641h385l-633 -631l397 -829h-366l-289 608l-215 -209zM727 -561h-231q60 130 77 237q18 102 9 189h268q0 -123 -28.5 -221.5t-94.5 -204.5z" />
    <glyph glyph-name="uni0137" unicode="&#x137;" horiz-adv-x="1187" 
d="M453 0h-312l258 1460h312l-142 -798l414 389h367l-463 -437l317 -614h-370l-209 438l-113 -106zM586 -561h-232q62 133 78 237q18 98 8 189h269q0 -123 -28.5 -221.5t-94.5 -204.5z" />
    <glyph glyph-name="kgreenlandic" unicode="&#x138;" horiz-adv-x="1138" 
d="M117 0l184 1051h311l-67 -389l413 389h367l-463 -437l318 -614h-371l-209 438l-113 -106l-59 -332h-311z" />
    <glyph glyph-name="Lacute" unicode="&#x139;" horiz-adv-x="1089" 
d="M170 0l258 1460h315l-208 -1184h589l-49 -276h-905zM469 1556l297 414h379l-420 -414h-256z" />
    <glyph glyph-name="lacute" unicode="&#x13a;" horiz-adv-x="632" 
d="M451 -25q-151 0 -224 82t-45 242l205 1161h311l-194 -1104q-4 -29 -4.5 -53.5t17.5 -40.5t56 -16q37 0 72 12l-45 -256q-66 -27 -149 -27zM680 1556h-256l297 414h379z" />
    <glyph glyph-name="uni013B" unicode="&#x13b;" horiz-adv-x="1089" 
d="M1075 0h-905l258 1460h315l-208 -1184h589zM608 -561h-231q62 133 78 237q18 98 8 189h268q0 -123 -28.5 -221.5t-94.5 -204.5z" />
    <glyph glyph-name="uni013C" unicode="&#x13c;" horiz-adv-x="632" 
d="M451 -25q-151 0 -224 82t-45 242l205 1161h311l-194 -1104q-4 -29 -4.5 -53.5t17.5 -40.5t56 -16q37 0 72 12l-45 -256q-66 -27 -149 -27zM115 -561q62 133 78 237q18 98 8 189h268q0 -123 -28.5 -221.5t-94.5 -204.5h-231z" />
    <glyph glyph-name="Lcaron" unicode="&#x13d;" horiz-adv-x="1093" 
d="M1075 0h-905l258 1460h315l-208 -1184h589zM803 1032q61 133 78 238q17 96 10 188h268q-5 -135 -30.5 -228t-94.5 -198h-231z" />
    <glyph glyph-name="lcaron" unicode="&#x13e;" horiz-adv-x="759" 
d="M451 -25q-151 0 -224 82t-45 242l205 1161h311l-194 -1104q-4 -29 -4.5 -53.5t17.5 -40.5t56 -16q37 0 72 12l-45 -256q-66 -27 -149 -27zM729 1032q61 133 78 238q17 96 10 188h268q-5 -136 -30 -228.5t-94 -197.5h-232z" />
    <glyph glyph-name="Ldot" unicode="&#x13f;" horiz-adv-x="1095" 
d="M1075 0h-905l258 1460h315l-208 -1184h589zM956 623q-72 0 -113.5 48t-29.5 120q12 71 71 119t132 48q72 0 113.5 -47.5t29.5 -119.5q-12 -71 -71 -119.5t-132 -48.5z" />
    <glyph glyph-name="ldot" unicode="&#x140;" horiz-adv-x="903" 
d="M451 -25q-151 0 -224 82t-45 242l205 1161h311l-194 -1104q-4 -29 -4.5 -53.5t17.5 -40.5t56 -16q37 0 72 12l-45 -256q-66 -27 -149 -27zM795 479q-73 0 -114 48.5t-28 119.5q12 72 70.5 120t130.5 48q73 0 115 -48t30 -120q-13 -72 -72.5 -120t-131.5 -48z" />
    <glyph glyph-name="Lslash" unicode="&#x141;" horiz-adv-x="1161" 
d="M721 946l323 170l60 -147l-418 -219l-84 -474h590l-49 -276h-905l100 567l-135 -71l-60 149l230 121l123 694h315z" />
    <glyph glyph-name="lslash" unicode="&#x142;" horiz-adv-x="753" 
d="M195 528l-62 148l195 102l121 682h311l-88 -504l166 86l61 -147l-262 -137l-72 -402q-4 -29 -4 -53.5t18 -40.5t56 -16q37 0 72 12l-45 -256q-66 -27 -150 -27q-151 0 -223.5 82t-44.5 242l49 281z" />
    <glyph glyph-name="Nacute" unicode="&#x143;" horiz-adv-x="1593" 
d="M485 0h-315l258 1460h266l510 -915l162 915h315l-258 -1460h-266l-508 926zM1149 1556h-256l297 414h379z" />
    <glyph glyph-name="nacute" unicode="&#x144;" horiz-adv-x="1284" 
d="M141 0l185 1051h299l-23 -136q126 160 340 160q188 0 277.5 -116.5t52.5 -319.5l-113 -639h-311l104 592q18 100 -22.5 154.5t-128.5 54.5q-97 0 -164.5 -73t-87.5 -181l-96 -547h-312zM993 1147h-256l297 414h379z" />
    <glyph glyph-name="uni0145" unicode="&#x145;" horiz-adv-x="1593" 
d="M485 0h-315l258 1460h266l510 -915l162 915h315l-258 -1460h-266l-508 926zM563 -561q62 133 78 237q18 98 8 189h269q0 -123 -28.5 -221.5t-94.5 -204.5h-232z" />
    <glyph glyph-name="uni0146" unicode="&#x146;" horiz-adv-x="1284" 
d="M141 0l185 1051h299l-23 -136q126 160 340 160q188 0 277.5 -116.5t52.5 -319.5l-113 -639h-311l104 592q18 100 -22.5 154.5t-128.5 54.5q-97 0 -164.5 -73t-87.5 -181l-96 -547h-312zM397 -561q62 133 78 237q18 98 8 189h269q0 -123 -28.5 -221.5t-94.5 -204.5h-232z
" />
    <glyph glyph-name="Ncaron" unicode="&#x147;" horiz-adv-x="1593" 
d="M485 0h-315l258 1460h266l510 -915l162 915h315l-258 -1460h-266l-508 926zM932 1556l-197 420h275l86 -223l166 223h274l-344 -420h-260z" />
    <glyph glyph-name="ncaron" unicode="&#x148;" horiz-adv-x="1284" 
d="M141 0l185 1051h299l-23 -136q126 160 340 160q188 0 277.5 -116.5t52.5 -319.5l-113 -639h-311l104 592q18 100 -22.5 154.5t-128.5 54.5q-97 0 -164.5 -73t-87.5 -181l-96 -547h-312zM715 1147l-197 420h275l86 -224l165 224h275l-344 -420h-260z" />
    <glyph glyph-name="napostrophe" unicode="&#x149;" horiz-adv-x="1355" 
d="M213 0l184 1051h299l-22 -136q126 160 340 160q188 0 277 -116.5t52 -319.5l-112 -639h-311l104 592q18 100 -23 154.5t-129 54.5q-97 0 -164 -73t-87 -181l-97 -547h-311zM96 1034q60 130 80 238q15 103 8 188h269q-5 -135 -30.5 -228t-94.5 -198h-232z" />
    <glyph glyph-name="Eng" unicode="&#x14a;" horiz-adv-x="1593" 
d="M485 0h-315l258 1460h266l510 -915l162 915h315l-258 -1460h-2l-8 -49q-18 -105 -63.5 -182t-109.5 -120t-134 -63t-150 -20q-100 0 -153 26l45 258q44 -16 98 -16q59 0 102 33t56 104l16 97l-471 858z" />
    <glyph glyph-name="eng" unicode="&#x14b;" horiz-adv-x="1284" 
d="M453 0h-312l185 1051h299l-23 -136q126 160 340 160q188 0 277.5 -116.5t52.5 -319.5l-121 -688q-18 -105 -63.5 -182t-108.5 -120t-133.5 -63t-149.5 -20q-100 0 -153 26l45 258q44 -16 96 -16q135 0 160 137l16 103l92 518q18 100 -22.5 154.5t-128.5 54.5
q-97 0 -164.5 -73t-87.5 -181z" />
    <glyph glyph-name="Omacron" unicode="&#x14c;" horiz-adv-x="1660" 
d="M827 -25q-163 0 -294.5 59t-213.5 160.5t-114.5 241t-5.5 295.5t109 295.5t200 240t270.5 159.5t315.5 59q216 0 372.5 -100t223.5 -272.5t30 -381.5q-27 -156 -109 -295.5t-199.5 -241t-270 -160.5t-314.5 -59zM524 731q-34 -195 67.5 -326t289.5 -131t334 131t180 326
t-66.5 325t-288.5 130t-335 -130.5t-181 -324.5zM1434 1642h-633l41 236h633z" />
    <glyph glyph-name="omacron" unicode="&#x14d;" horiz-adv-x="1249" 
d="M621 -25q-161 0 -277.5 73t-166 199t-23.5 279q42 234 229.5 391.5t431.5 157.5q161 0 277.5 -72.5t165.5 -198t22 -278.5q-26 -153 -120 -279t-236 -199t-303 -73zM469 526q-21 -121 36.5 -197.5t164.5 -76.5t190 76t105 198q21 122 -35.5 197.5t-163.5 75.5t-191.5 -76
t-105.5 -197zM1155 1233h-633l41 235h633z" />
    <glyph glyph-name="Obreve" unicode="&#x14e;" horiz-adv-x="1660" 
d="M827 -25q-163 0 -294.5 59t-213.5 160.5t-114.5 241t-5.5 295.5t109 295.5t200 240t270.5 159.5t315.5 59q216 0 372.5 -100t223.5 -272.5t30 -381.5q-27 -156 -109 -295.5t-199.5 -241t-270 -160.5t-314.5 -59zM524 731q-34 -195 67.5 -326t289.5 -131t334 131t180 326
t-66.5 325t-288.5 130t-335 -130.5t-181 -324.5zM1108 1583q-136 0 -214.5 84.5t-51.5 230.5h239q-9 -47 8.5 -74.5t55.5 -27.5q37 0 64.5 27.5t33.5 74.5h240q-24 -146 -131.5 -230.5t-243.5 -84.5z" />
    <glyph glyph-name="obreve" unicode="&#x14f;" horiz-adv-x="1249" 
d="M621 -25q-161 0 -277.5 73t-166 199t-23.5 279q42 234 229.5 391.5t431.5 157.5q161 0 277.5 -72.5t165.5 -198t22 -278.5q-26 -153 -120 -279t-236 -199t-303 -73zM469 526q-21 -121 36.5 -197.5t164.5 -76.5t190 76t105 198q21 122 -35.5 197.5t-163.5 75.5t-191.5 -76
t-105.5 -197zM829 1174q-136 0 -214.5 84.5t-51.5 230.5h240q-9 -47 8 -75t55 -28q37 0 65 28t34 75h239q-24 -146 -131.5 -230.5t-243.5 -84.5z" />
    <glyph glyph-name="Ohungarumlaut" unicode="&#x150;" horiz-adv-x="1660" 
d="M827 -25q-163 0 -294.5 59t-213.5 160.5t-114.5 241t-5.5 295.5t109 295.5t200 240t270.5 159.5t315.5 59q216 0 372.5 -100t223.5 -272.5t30 -381.5q-27 -156 -109 -295.5t-199.5 -241t-270 -160.5t-314.5 -59zM524 731q-34 -195 67.5 -326t289.5 -131t334 131t180 326
t-66.5 325t-288.5 130t-335 -130.5t-181 -324.5zM1411 1556h-242l312 414h315zM793 1556l282 414h299l-340 -414h-241z" />
    <glyph glyph-name="ohungarumlaut" unicode="&#x151;" horiz-adv-x="1249" 
d="M621 -25q-161 0 -277.5 73t-166 199t-23.5 279q42 234 229.5 391.5t431.5 157.5q161 0 277.5 -72.5t165.5 -198t22 -278.5q-26 -153 -120 -279t-236 -199t-303 -73zM469 526q-21 -121 36.5 -197.5t164.5 -76.5t190 76t105 198q21 122 -35.5 197.5t-163.5 75.5t-191.5 -76
t-105.5 -197zM1114 1147h-242l312 414h315zM496 1147l282 414h299l-340 -414h-241z" />
    <glyph glyph-name="OE" unicode="&#x152;" horiz-adv-x="2037" 
d="M834 -25q-219 0 -377.5 100.5t-226.5 273.5t-31 382t165.5 381.5t322.5 272.5t413 100q101 0 190 -25h914l-50 -276h-600l-55 -312h488l-50 -274h-487l-55 -322h626l-49 -276h-940q-98 -25 -198 -25zM522 731q-34 -197 68.5 -329t294.5 -132q105 0 200 37l152 848
q-81 35 -190 35q-193 0 -341.5 -131t-183.5 -328z" />
    <glyph glyph-name="oe" unicode="&#x153;" horiz-adv-x="1947" 
d="M614 -25q-161 0 -276.5 73t-164.5 199t-23 279q42 234 228.5 391.5t430.5 157.5q238 0 358 -172q180 172 412 172q221 0 334 -135.5t76 -349.5q-13 -81 -43 -139h-695q-6 -101 63 -156t177 -55q149 0 278 108l127 -201q-114 -91 -228 -131.5t-245 -40.5q-255 0 -387 175
q-183 -175 -422 -175zM465 526q-22 -122 35 -198t164 -76q112 0 192 75t102 199q22 123 -32 198t-166 75q-107 0 -190 -75.5t-105 -197.5zM1528 821q-84 0 -153 -48t-93 -130h414l2 2q7 81 -40 128.5t-130 47.5z" />
    <glyph glyph-name="Racute" unicode="&#x154;" horiz-adv-x="1366" 
d="M485 2h-315l258 1458h621q215 0 328.5 -129.5t78.5 -335.5q-26 -139 -117.5 -246.5t-224.5 -164.5l176 -582h-342l-139 526h-231zM694 1188l-69 -400h252q97 0 166.5 57.5t86.5 147.5q15 88 -34 141.5t-146 53.5h-256zM776 1556l297 414h379l-420 -414h-256z" />
    <glyph glyph-name="racute" unicode="&#x155;" horiz-adv-x="833" 
d="M141 0l185 1051h309l-31 -183q58 97 145.5 152t188.5 55q31 0 63 -8l-53 -297q-20 10 -67 10q-134 0 -229 -96t-124 -260l-73 -424h-314zM553 1147l297 414h379l-420 -414h-256z" />
    <glyph glyph-name="uni0156" unicode="&#x156;" horiz-adv-x="1366" 
d="M485 2h-315l258 1458h621q215 0 328.5 -129.5t78.5 -335.5q-26 -139 -117.5 -246.5t-224.5 -164.5l176 -582h-342l-139 526h-231zM694 1188l-69 -400h252q97 0 166.5 57.5t86.5 147.5q15 88 -34 141.5t-146 53.5h-256zM455 -561q60 130 77 237q18 102 9 189h268
q0 -123 -28.5 -221.5t-94.5 -204.5h-231z" />
    <glyph glyph-name="uni0157" unicode="&#x157;" horiz-adv-x="833" 
d="M141 0l185 1051h309l-31 -183q58 97 145.5 152t188.5 55q31 0 63 -8l-53 -297q-20 10 -67 10q-134 0 -229 -96t-124 -260l-73 -424h-314zM63 -561q62 133 78 237q18 102 9 189h268q0 -123 -28.5 -221.5t-94.5 -204.5h-232z" />
    <glyph glyph-name="Rcaron" unicode="&#x158;" horiz-adv-x="1366" 
d="M485 2h-315l258 1458h621q215 0 328.5 -129.5t78.5 -335.5q-26 -139 -117.5 -246.5t-224.5 -164.5l176 -582h-342l-139 526h-231zM623 1976h274l86 -223l166 223h274l-344 -420h-260zM694 1188l-69 -400h252q97 0 166.5 57.5t86.5 147.5q15 88 -34 141.5t-146 53.5h-256z
" />
    <glyph glyph-name="rcaron" unicode="&#x159;" horiz-adv-x="849" 
d="M461 0h-314l185 1051h309l-31 -183q58 97 145.5 152t188.5 55q32 0 64 -8l-54 -297q-20 10 -67 10q-134 0 -228.5 -96t-123.5 -260zM354 1567h275l86 -224l166 224h274l-344 -420h-260z" />
    <glyph glyph-name="Sacute" unicode="&#x15a;" horiz-adv-x="1171" 
d="M580 -27q-109 0 -205 33.5t-169.5 101t-109.5 160.5l260 183q34 -86 105.5 -138.5t169.5 -52.5q92 0 156 38t75 97q11 64 -29.5 98t-156.5 86q-59 26 -92 42t-55.5 27.5t-52 28t-49.5 30.5t-44 32.5t-39.5 37.5t-31 41.5t-24 47.5t-14.5 53.5t-5 61.5t7 70
q34 188 200 311t384 123q155 0 269 -69t165 -197l-262 -175q-69 156 -227 156q-80 0 -140.5 -38t-72.5 -103q-3 -18 0.5 -34.5t11 -29t23 -26t29.5 -23t38.5 -22.5t43 -21.5t49.5 -22.5t51 -24q38 -18 64 -30.5t59.5 -30.5t55.5 -32.5t48.5 -34.5t43 -39t33.5 -42.5
t25.5 -49t14.5 -55t5.5 -64t-7.5 -72.5q-32 -180 -197 -306.5t-403 -126.5zM727 1556l297 414h379l-420 -414h-256z" />
    <glyph glyph-name="sacute" unicode="&#x15b;" horiz-adv-x="1003" 
d="M487 -25q-146 0 -254 63.5t-149 176.5l231 154q29 -70 84 -111t133 -41q62 0 101 20t45 54q7 42 -33 67t-164 70q-156 57 -222.5 132t-45.5 196q26 144 162.5 231.5t314.5 87.5q129 0 223 -58t127 -153l-223 -143q-47 115 -178 115q-53 0 -93 -22t-46 -58q-6 -31 32 -54
t160 -73q32 -13 50.5 -21t46.5 -21t44.5 -23t38.5 -24t34.5 -27.5t27.5 -31t21.5 -36.5t12 -41.5t5 -49t-5.5 -55.5q-25 -139 -159.5 -231.5t-320.5 -92.5zM797 1147h-256l297 414h379z" />
    <glyph glyph-name="Scircumflex" unicode="&#x15c;" horiz-adv-x="1171" 
d="M580 -27q-109 0 -205 33.5t-169.5 101t-109.5 160.5l260 183q34 -86 105.5 -138.5t169.5 -52.5q92 0 156 38t75 97q11 64 -29.5 98t-156.5 86q-59 26 -92 42t-55.5 27.5t-52 28t-49.5 30.5t-44 32.5t-39.5 37.5t-31 41.5t-24 47.5t-14.5 53.5t-5 61.5t7 70
q34 188 200 311t384 123q155 0 269 -69t165 -197l-262 -175q-69 156 -227 156q-80 0 -140.5 -38t-72.5 -103q-3 -18 0.5 -34.5t11 -29t23 -26t29.5 -23t38.5 -22.5t43 -21.5t49.5 -22.5t51 -24q38 -18 64 -30.5t59.5 -30.5t55.5 -32.5t48.5 -34.5t43 -39t33.5 -42.5
t25.5 -49t14.5 -55t5.5 -64t-7.5 -72.5q-32 -180 -197 -306.5t-403 -126.5zM739 1556h-274l344 420h260l197 -420h-275l-88 226z" />
    <glyph glyph-name="scircumflex" unicode="&#x15d;" horiz-adv-x="974" 
d="M487 -25q-146 0 -254 63.5t-149 176.5l231 154q29 -70 84 -111t133 -41q62 0 101 20t45 54q7 42 -33 67t-164 70q-156 57 -222.5 132t-45.5 196q26 144 162.5 231.5t314.5 87.5q129 0 223 -58t127 -153l-223 -143q-47 115 -178 115q-53 0 -93 -22t-46 -58q-6 -31 32 -54
t160 -73q32 -13 50.5 -21t46.5 -21t44.5 -23t38.5 -24t34.5 -27.5t27.5 -31t21.5 -36.5t12 -41.5t5 -49t-5.5 -55.5q-25 -139 -159.5 -231.5t-320.5 -92.5zM563 1147h-274l344 420h260l197 -420h-275l-88 225z" />
    <glyph glyph-name="Scedilla" unicode="&#x15e;" horiz-adv-x="1171" 
d="M96 268l260 183q34 -86 105.5 -138.5t169.5 -52.5q92 0 156 38t75 97q11 64 -29.5 98t-156.5 86q-59 26 -92 42t-55.5 27.5t-52 28t-49.5 30.5t-44 32.5t-39.5 37.5t-31 41.5t-24 47.5t-14.5 53.5t-5 61.5t7 70q34 188 200 311t384 123q155 0 269 -69t165 -197l-262 -175
q-69 156 -227 156q-80 0 -140.5 -38t-72.5 -103q-3 -18 0.5 -34.5t11 -29t23 -26t29.5 -23t38.5 -22.5t43 -21.5t49.5 -22.5t51 -24q38 -18 64 -30.5t59.5 -30.5t55.5 -32.5t48.5 -34.5t43 -39t33.5 -42.5t25.5 -49t14.5 -55t5.5 -64t-7.5 -72.5q-29 -161 -166.5 -281.5
t-341.5 -144.5l-37 -76q31 -7 57 -20.5t48.5 -35.5t32 -56.5t1.5 -76.5q-15 -89 -99.5 -142.5t-205.5 -53.5q-83 0 -135 18l31 178q52 -18 106 -18q92 0 102 47q9 49 -92 49q-37 0 -65 -4l90 188q-142 15 -251.5 91t-158.5 200z" />
    <glyph glyph-name="scedilla" unicode="&#x15f;" horiz-adv-x="974" 
d="M84 215l231 154q29 -70 84 -111t133 -41q62 0 101 20t45 54q7 42 -33 67t-164 70q-156 57 -222.5 132t-45.5 196q26 144 162.5 231.5t314.5 87.5q129 0 223 -58t127 -153l-223 -143q-47 115 -178 115q-53 0 -93 -22t-46 -58q-6 -31 32 -54t160 -73q32 -13 50.5 -21
t46.5 -21t44.5 -23t38.5 -24t34.5 -27.5t27.5 -31t21.5 -36.5t12 -41.5t5 -49t-5.5 -55.5q-22 -123 -132.5 -211t-269.5 -108l-37 -76q31 -7 57 -20.5t49 -35.5t32.5 -56.5t1.5 -76.5q-15 -89 -100 -142.5t-206 -53.5q-83 0 -135 18l31 178q52 -18 107 -18q92 0 102 47
q9 49 -92 49q-38 0 -66 -4l92 193q-116 18 -199 78t-118 155z" />
    <glyph glyph-name="Scaron" unicode="&#x160;" horiz-adv-x="1171" 
d="M96 268l260 183q34 -86 105.5 -138.5t169.5 -52.5q92 0 156 38t75 97q11 64 -29.5 98t-156.5 86q-59 26 -92 42t-55.5 27.5t-52 28t-49.5 30.5t-44 32.5t-39.5 37.5t-31 41.5t-24 47.5t-14.5 53.5t-5 61.5t7 70q34 188 200 311t384 123q155 0 269 -69t165 -197l-262 -175
q-69 156 -227 156q-80 0 -140.5 -38t-72.5 -103q-3 -18 0.5 -34.5t11 -29t23 -26t29.5 -23t38.5 -22.5t43 -21.5t49.5 -22.5t51 -24q38 -18 64 -30.5t59.5 -30.5t55.5 -32.5t48.5 -34.5t43 -39t33.5 -42.5t25.5 -49t14.5 -55t5.5 -64t-7.5 -72.5q-32 -180 -197 -306.5
t-403 -126.5q-109 0 -205 33.5t-169.5 101t-109.5 160.5zM545 1976h274l86 -223l166 223h275l-345 -420h-260z" />
    <glyph glyph-name="scaron" unicode="&#x161;" horiz-adv-x="974" 
d="M487 -25q-146 0 -254 63.5t-149 176.5l231 154q29 -70 84 -111t133 -41q62 0 101 20t45 54q7 42 -33 67t-164 70q-156 57 -222.5 132t-45.5 196q26 144 162.5 231.5t314.5 87.5q129 0 223 -58t127 -153l-223 -143q-47 115 -178 115q-53 0 -93 -22t-46 -58q-6 -31 32 -54
t160 -73q32 -13 50.5 -21t46.5 -21t44.5 -23t38.5 -24t34.5 -27.5t27.5 -31t21.5 -36.5t12 -41.5t5 -49t-5.5 -55.5q-25 -139 -159.5 -231.5t-320.5 -92.5zM362 1567h275l86 -224l166 224h274l-344 -420h-260z" />
    <glyph glyph-name="uni0162" unicode="&#x162;" horiz-adv-x="1148" 
d="M625 1184h-406l49 276h1127l-49 -276h-406l-209 -1184h-74l-47 -96q31 -7 57 -20.5t49 -35.5t32.5 -56.5t1.5 -76.5q-15 -89 -100 -142.5t-206 -53.5q-83 0 -135 18l31 178q52 -18 106 -18q93 0 103 47q9 49 -92 49q-38 0 -66 -4l103 211h-78z" />
    <glyph glyph-name="uni0163" unicode="&#x163;" horiz-adv-x="772" 
d="M313 805h-141l43 246h152l51 284h301l-51 -284h235l-43 -246h-235l-72 -414q-13 -70 15.5 -104.5t90.5 -34.5q79 0 140 37l-47 -269q-95 -45 -238 -45l-35 -71q31 -7 57 -20.5t48.5 -35.5t32 -56.5t1.5 -76.5q-15 -89 -99.5 -142.5t-205.5 -53.5q-83 0 -135 18l31 178
q52 -18 106 -18q93 0 103 47q9 49 -92 49q-38 0 -66 -4l105 217q-86 39 -121 125t-13 211z" />
    <glyph glyph-name="Tcaron" unicode="&#x164;" horiz-adv-x="1148" 
d="M219 1184l49 276h1127l-49 -276h-406l-209 -1184h-315l209 1184h-406zM520 1976h275l86 -223l166 223h274l-344 -420h-260z" />
    <glyph glyph-name="tcaron" unicode="&#x165;" horiz-adv-x="851" 
d="M313 805h-141l43 246h152l51 284h301l-51 -284h235l-43 -246h-235l-72 -414q-13 -70 15.5 -104.5t90.5 -34.5q79 0 140 37l-47 -269q-95 -45 -228 -45q-167 0 -245.5 96.5t-47.5 270.5zM745 1112q57 121 70 199q15 83 2 147h273q0 -111 -21.5 -179.5t-85.5 -166.5h-238z
" />
    <glyph glyph-name="Tbar" unicode="&#x166;" horiz-adv-x="1214" 
d="M252 1184l49 276h1126l-49 -276h-405l-60 -334h275l-31 -178h-274l-119 -672h-315l118 672h-272l31 178h272l59 334h-405z" />
    <glyph glyph-name="tbar" unicode="&#x167;" horiz-adv-x="786" 
d="M270 506h-129l27 160h131l25 139h-142l43 246h152l51 284h301l-51 -284h235l-43 -246h-235l-25 -139h226l-27 -160h-225l-21 -115q-13 -70 16 -104.5t91 -34.5q78 0 139 37l-47 -269q-95 -45 -227 -45q-167 0 -245.5 96.5t-47.5 270.5z" />
    <glyph glyph-name="Utilde" unicode="&#x168;" horiz-adv-x="1503" 
d="M748 -25q-173 0 -297.5 77t-176.5 209t-24 292l160 907h315l-156 -882q-23 -133 40.5 -219.5t189.5 -86.5q128 0 222 86.5t118 219.5l155 882h316l-160 -907q-28 -160 -126.5 -292t-250 -209t-325.5 -77zM643 1624q23 131 106 211t199 80q51 0 97 -22.5t81 -45t60 -22.5
q68 0 90 98l194 -45q-23 -131 -106.5 -212t-198.5 -81q-40 0 -78 14t-61.5 31t-50.5 31t-47 14q-68 0 -88 -96z" />
    <glyph glyph-name="utilde" unicode="&#x169;" horiz-adv-x="1284" 
d="M528 -25q-188 0 -277 117t-52 320l112 639h312l-105 -592q-18 -100 23 -154.5t129 -54.5q97 0 164.5 73t85.5 181l98 547h311l-186 -1051h-299l24 135q-129 -160 -340 -160zM459 1214q23 131 106 211t199 80q40 0 78 -14t61.5 -31t50.5 -31t47 -14q69 0 91 98l194 -45
q-23 -131 -106.5 -211.5t-198.5 -80.5q-51 0 -97 22.5t-81 45t-60 22.5q-68 0 -88 -97z" />
    <glyph glyph-name="Umacron" unicode="&#x16a;" horiz-adv-x="1503" 
d="M748 -25q-173 0 -297.5 77t-176.5 209t-24 292l160 907h315l-156 -882q-23 -133 40.5 -219.5t189.5 -86.5q128 0 222 86.5t118 219.5l155 882h316l-160 -907q-28 -160 -126.5 -292t-250 -209t-325.5 -77zM1354 1642h-633l41 236h633z" />
    <glyph glyph-name="umacron" unicode="&#x16b;" horiz-adv-x="1284" 
d="M528 -25q-188 0 -277 117t-52 320l112 639h312l-105 -592q-18 -100 23 -154.5t129 -54.5q97 0 164.5 73t85.5 181l98 547h311l-186 -1051h-299l24 135q-129 -160 -340 -160zM530 1233l41 235h633l-41 -235h-633z" />
    <glyph glyph-name="Ubreve" unicode="&#x16c;" horiz-adv-x="1503" 
d="M748 -25q-173 0 -297.5 77t-176.5 209t-24 292l160 907h315l-156 -882q-23 -133 40.5 -219.5t189.5 -86.5q128 0 222 86.5t118 219.5l155 882h316l-160 -907q-28 -160 -126.5 -292t-250 -209t-325.5 -77zM1028 1583q-136 0 -214.5 84.5t-51.5 230.5h239q-9 -47 8.5 -74.5
t55.5 -27.5q37 0 64.5 27.5t33.5 74.5h240q-24 -146 -131.5 -230.5t-243.5 -84.5z" />
    <glyph glyph-name="ubreve" unicode="&#x16d;" horiz-adv-x="1284" 
d="M528 -25q-188 0 -277 117t-52 320l112 639h312l-105 -592q-18 -100 23 -154.5t129 -54.5q97 0 164.5 73t85.5 181l98 547h311l-186 -1051h-299l24 135q-129 -160 -340 -160zM838 1174q-65 0 -119.5 21t-92.5 60t-53 99.5t-2 134.5h240q-9 -47 8 -75t55 -28q37 0 65 28
t34 75h239q-24 -146 -131 -230.5t-243 -84.5z" />
    <glyph glyph-name="Uring" unicode="&#x16e;" horiz-adv-x="1503" 
d="M748 -25q-173 0 -297.5 77t-176.5 209t-24 292l160 907h315l-156 -882q-23 -133 40.5 -219.5t189.5 -86.5q128 0 222 86.5t118 219.5l155 882h316l-160 -907q-28 -160 -126.5 -292t-250 -209t-325.5 -77zM1018 1526q-116 0 -174 69t-39 170q18 101 100 169.5t197 68.5
q113 0 172 -68.5t41 -169.5q-19 -101 -101.5 -170t-195.5 -69zM987 1765q-6 -29 12 -50t50 -21q30 0 54 20.5t30 50.5q5 30 -12.5 50t-47.5 20q-32 0 -56.5 -20.5t-29.5 -49.5z" />
    <glyph glyph-name="uring" unicode="&#x16f;" horiz-adv-x="1284" 
d="M528 -25q-188 0 -277 117t-52 320l112 639h312l-105 -592q-18 -100 23 -154.5t129 -54.5q97 0 164.5 73t85.5 181l98 547h311l-186 -1051h-299l24 135q-129 -160 -340 -160zM829 1116q-116 0 -174 69.5t-39 170.5q18 101 99.5 169t197.5 68q113 0 172 -68.5t41 -168.5
q-19 -101 -101.5 -170.5t-195.5 -69.5zM799 1356q-6 -30 11.5 -51t49.5 -21q30 0 54 21t30 51q5 30 -12 49.5t-47 19.5q-32 0 -56.5 -20t-29.5 -49z" />
    <glyph glyph-name="Uhungarumlaut" unicode="&#x170;" horiz-adv-x="1507" 
d="M748 -25q-173 0 -297.5 77t-176.5 209t-24 292l160 907h315l-156 -882q-23 -133 40.5 -219.5t189.5 -86.5q128 0 222 86.5t118 219.5l155 882h316l-160 -907q-28 -160 -126.5 -292t-250 -209t-325.5 -77zM1317 1556h-242l311 414h316zM940 1556h-242l283 414h299z" />
    <glyph glyph-name="uhungarumlaut" unicode="&#x171;" horiz-adv-x="1284" 
d="M528 -25q-188 0 -277 117t-52 320l112 639h312l-105 -592q-18 -100 23 -154.5t129 -54.5q97 0 164.5 73t85.5 181l98 547h311l-186 -1051h-299l24 135q-129 -160 -340 -160zM1135 1147h-242l311 414h316zM758 1147h-242l283 414h299z" />
    <glyph glyph-name="Uogonek" unicode="&#x172;" horiz-adv-x="1503" 
d="M686 -23q-234 22 -355 184.5t-81 391.5l160 907h315l-156 -882q-23 -133 40.5 -219.5t189.5 -86.5q128 0 222 86.5t118 219.5l155 882h316l-160 -907q-35 -200 -178 -352t-346 -203q-78 -55 -115.5 -93.5t-44.5 -74.5q-6 -34 27.5 -52.5t91.5 -25.5l-131 -223
q-74 1 -134.5 24.5t-95 73.5t-22.5 117q20 118 184 233z" />
    <glyph glyph-name="uogonek" unicode="&#x173;" horiz-adv-x="1284" 
d="M528 -25q-188 0 -277 117t-52 320l112 639h312l-105 -592q-18 -100 23 -154.5t129 -54.5q97 0 164.5 73t85.5 181l98 547h311l-186 -1051q-80 -55 -118.5 -94.5t-45.5 -75.5q-6 -34 27.5 -52.5t91.5 -25.5l-131 -223q-74 1 -134.5 24.5t-95 73.5t-22.5 117
q23 132 217 256h-88l24 135q-129 -160 -340 -160z" />
    <glyph glyph-name="Wcircumflex" unicode="&#x174;" horiz-adv-x="2048" 
d="M254 1460h319l95 -1034l473 1034h282l109 -1034l459 1034h319l-688 -1460h-313l-109 997l-461 -997h-313zM1186 1556h-275l344 420h261l196 -420h-274l-88 226z" />
    <glyph glyph-name="wcircumflex" unicode="&#x175;" horiz-adv-x="1658" 
d="M182 1051h303l76 -684l336 684h233l99 -684l313 684h303l-532 -1051h-283l-92 621l-309 -621h-283zM897 1147h-274l344 420h260l196 -420h-274l-88 225z" />
    <glyph glyph-name="Ycircumflex" unicode="&#x176;" horiz-adv-x="1327" 
d="M621 645l-381 815h348l237 -545l430 545h349l-666 -815l-115 -645h-317zM537 1556l344 420h260l196 -420h-274l-88 226l-164 -226h-274z" />
    <glyph glyph-name="ycircumflex" unicode="&#x177;" horiz-adv-x="1114" 
d="M158 -434q-99 0 -183 39l45 258q59 -35 138 -35q72 0 128.5 36.5t104.5 139.5l19 35l-236 1012h326l123 -689l366 689h318l-658 -1137q-111 -188 -225.5 -268t-265.5 -80zM352 1147l344 420h260l197 -420h-274l-88 225l-164 -225h-275z" />
    <glyph glyph-name="Ydieresis" unicode="&#x178;" horiz-adv-x="1327" 
d="M621 645l-381 815h348l237 -545l430 545h349l-666 -815l-115 -645h-317zM1182 1591q-72 0 -114 48t-30 120q13 71 71.5 118.5t131.5 47.5t114.5 -47.5t28.5 -118.5q-12 -71 -70.5 -119.5t-131.5 -48.5zM707 1591q-72 0 -114 48t-30 120q13 71 71.5 118.5t131.5 47.5
t114.5 -47.5t28.5 -118.5q-12 -71 -70.5 -119.5t-131.5 -48.5z" />
    <glyph glyph-name="Zacute" unicode="&#x179;" horiz-adv-x="1146" 
d="M47 0l35 201l819 987h-614l49 272h1016l-35 -196l-821 -992h634l-47 -272h-1036zM721 1556l297 414h379l-420 -414h-256z" />
    <glyph glyph-name="zacute" unicode="&#x17a;" horiz-adv-x="964" 
d="M59 0l29 160l574 643h-451l43 248h829l-26 -160l-580 -643h481l-43 -248h-856zM539 1147l297 414h378l-419 -414h-256z" />
    <glyph glyph-name="Zdotaccent" unicode="&#x17b;" horiz-adv-x="1146" 
d="M47 0l35 201l819 987h-614l49 272h1016l-35 -196l-821 -992h634l-47 -272h-1036zM868 1591q-72 0 -113.5 48t-29.5 120q13 71 71.5 118.5t131.5 47.5t114.5 -47.5t28.5 -118.5q-12 -71 -71 -119.5t-132 -48.5z" />
    <glyph glyph-name="zdotaccent" unicode="&#x17c;" horiz-adv-x="964" 
d="M59 0l29 160l574 643h-451l43 248h829l-26 -160l-580 -643h481l-43 -248h-856zM684 1182q-72 0 -113.5 48t-29.5 120q13 72 71.5 119t130.5 47q73 0 115 -47.5t29 -118.5q-12 -71 -71 -119.5t-132 -48.5z" />
    <glyph glyph-name="Zcaron" unicode="&#x17d;" horiz-adv-x="1146" 
d="M47 0l35 201l819 987h-614l49 272h1016l-35 -196l-821 -992h634l-47 -272h-1036zM745 1556l-196 420h274l86 -223l166 223h275l-344 -420h-261z" />
    <glyph glyph-name="zcaron" unicode="&#x17e;" horiz-adv-x="964" 
d="M59 0l29 160l574 643h-451l43 248h829l-26 -160l-580 -643h481l-43 -248h-856zM367 1567h274l86 -224l166 224h274l-344 -420h-260z" />
    <glyph glyph-name="uni018F" unicode="&#x18f;" horiz-adv-x="1533" 
d="M741 -25q-146 0 -264 53.5t-197 159.5t-96.5 264.5t39.5 368.5h1065q3 170 -89.5 269.5t-258.5 99.5q-134 0 -249.5 -62t-198.5 -147l-166 199q35 37 78 74t109.5 80t137.5 75.5t163 54t185 21.5q216 0 364 -103t205 -276.5t19 -386.5q-37 -210 -155 -379t-299 -267
t-392 -98zM489 586q-12 -138 74 -229t236 -91q149 0 265.5 87t176.5 233h-752z" />
    <glyph glyph-name="florin" unicode="&#x192;" horiz-adv-x="1075" 
d="M-6 -176l47 264q68 -29 135 -29q85 0 136.5 39t74.5 127l123 463h-164l43 246h184l43 156q47 186 189 290.5t342 104.5q89 0 156 -31l-46 -262q-13 9 -51 19t-78 10q-175 0 -219 -166l-35 -121h193l-43 -246h-211l-133 -498q-49 -188 -186.5 -292.5t-329.5 -104.5
q-106 0 -170 31z" />
    <glyph glyph-name="uni019D" unicode="&#x19d;" horiz-adv-x="1576" 
d="M-111 -414l48 260q36 -12 73 -12q51 0 88.5 31.5t48.5 99.5l265 1495h266l510 -915l162 915h315l-258 -1460h-266l-508 926l-174 -981q-18 -103 -62 -179.5t-105.5 -118.5t-129 -61.5t-142.5 -19.5q-69 0 -131 20z" />
    <glyph glyph-name="Gcaron" unicode="&#x1e6;" horiz-adv-x="1556" 
d="M825 -25q-109 0 -205 26.5t-170 75.5t-131.5 117.5t-88.5 152.5t-41 181.5t10 202.5q27 157 109 296t200.5 239.5t273 159.5t320.5 59q207 0 345.5 -86t211.5 -230l-266 -194q-49 92 -137 150.5t-212 58.5q-193 0 -339.5 -129.5t-180.5 -323.5t64.5 -324.5t285.5 -130.5
q121 0 213 41.5t170 124.5l19 109h-311l47 258h606l-86 -485q-130 -157 -311 -253t-396 -96zM772 1976h275l86 -223l165 223h275l-344 -420h-260z" />
    <glyph glyph-name="gcaron" unicode="&#x1e7;" horiz-adv-x="1126" 
d="M477 -434q-231 0 -358.5 77.5t-104.5 206.5q11 71 66.5 123t136.5 84q-75 58 -57 156q10 53 55 100.5t111 81.5q-75 52 -109.5 132t-17.5 175q28 156 175.5 264.5t334.5 108.5q71 0 139 -24h428l-39 -232h-158q16 -58 4 -117q-28 -159 -175.5 -266.5t-336.5 -107.5
q-39 0 -55 2q-70 -25 -76 -62q-4 -27 18 -40t58 -13h262q160 0 245 -87t62 -224q-27 -146 -194.5 -242t-413.5 -96zM406 1567h274l86 -224l166 224h274l-344 -420h-260zM473 702q-11 -62 30.5 -105.5t112.5 -43.5q70 0 126 43.5t67 105.5q12 63 -29 105.5t-112 42.5
q-72 0 -127.5 -42.5t-67.5 -105.5zM324 -102q-7 -47 46 -73t150 -26q120 0 186 27t74 74q7 38 -23 60t-77 22h-277q-69 -31 -79 -84z" />
    <glyph glyph-name="uni01EA" unicode="&#x1ea;" horiz-adv-x="1660" 
d="M782 -23q-204 10 -350.5 112.5t-207.5 271t-25 370.5q27 156 109 295.5t200 240t270.5 159.5t315.5 59q216 0 372.5 -100t223.5 -272.5t30 -381.5q-46 -266 -238.5 -468.5t-455.5 -264.5q-78 -54 -116.5 -93t-45.5 -75q-6 -34 27.5 -52.5t91.5 -25.5l-131 -223
q-74 1 -134.5 24.5t-95 73.5t-22.5 117q20 117 182 233zM524 731q-34 -195 67.5 -326t289.5 -131t334 131t180 326t-66.5 325t-288.5 130t-335 -130.5t-181 -324.5z" />
    <glyph glyph-name="uni01EB" unicode="&#x1eb;" horiz-adv-x="1249" 
d="M553 -20q-214 23 -325 176.5t-74 369.5q42 234 229.5 391.5t431.5 157.5q161 0 277.5 -72.5t165.5 -198t22 -278.5q-32 -190 -166.5 -334t-322.5 -194q-77 -54 -115 -93t-45 -75q-6 -34 27.5 -52.5t91.5 -25.5l-132 -223q-74 1 -134 24.5t-94.5 73.5t-22.5 117
q20 120 186 236zM469 526q-21 -121 36.5 -197.5t164.5 -76.5t190 76t105 198q21 122 -35.5 197.5t-163.5 75.5t-191.5 -76t-105.5 -197z" />
    <glyph glyph-name="Aringacute" unicode="&#x1fa;" horiz-adv-x="1394" 
d="M-16 0l819 1460h307l301 -1460h-319l-68 334h-535l-186 -334h-319zM967 1526q-116 0 -174 69t-39 170q18 101 100 169.5t197 68.5q113 0 172 -68.5t41 -169.5q-19 -101 -101.5 -170t-195.5 -69zM928 2060l248 342h356l-348 -342h-256zM893 1106l-260 -504h344zM936 1765
q-6 -29 11.5 -50t49.5 -21q30 0 54 20.5t30 50.5q5 30 -12 50t-47 20q-32 0 -56.5 -20.5t-29.5 -49.5z" />
    <glyph glyph-name="aringacute" unicode="&#x1fb;" horiz-adv-x="1105" 
d="M401 -25q-152 0 -234.5 88.5t-57.5 225.5q20 117 122 196t273 113l297 55l2 9q13 73 -32 109t-130 36q-157 0 -291 -127l-129 197q91 91 218 144.5t270 53.5q218 0 322.5 -110.5t70.5 -302.5l-117 -662h-289l23 129q-51 -71 -133.5 -112.5t-184.5 -41.5zM731 1116
q-116 0 -174 69.5t-39 170.5q18 101 99.5 169t197.5 68q113 0 172 -68.5t41 -168.5q-19 -101 -101.5 -170.5t-195.5 -69.5zM688 1645l248 342h356l-348 -342h-256zM408 307q-8 -45 20.5 -72.5t83.5 -27.5q94 0 164.5 62t87.5 157l4 31l-215 -41q-127 -22 -145 -109z
M700 1356q-6 -29 12 -50.5t50 -21.5q30 0 54 21t30 51q5 29 -12 49t-48 20q-32 0 -56.5 -20t-29.5 -49z" />
    <glyph glyph-name="AEacute" unicode="&#x1fc;" horiz-adv-x="2000" 
d="M-57 2l991 1458h1235l-49 -274h-602l-56 -314h488l-49 -274h-488l-55 -322h627l-50 -274h-942l74 416h-502l-278 -416h-344zM1552 1556h-256l297 414h379zM1079 1186l-321 -479h360l84 479h-123z" />
    <glyph glyph-name="aeacute" unicode="&#x1fd;" horiz-adv-x="1792" 
d="M457 -25q-172 0 -272 93t-76 239q27 145 164.5 235.5t301.5 90.5h269l4 18q14 81 -47.5 125.5t-151.5 44.5q-155 0 -299 -123l-127 191q78 76 203 131t262 55q125 0 216.5 -40.5t139.5 -114.5q79 73 181.5 114t208.5 41q217 0 328 -137.5t73 -355.5q-10 -67 -41 -131
h-684q-3 -100 59.5 -159t161.5 -59q82 0 161 31.5t130 77.5l131 -195q-210 -172 -471 -172q-127 0 -223.5 51.5t-157.5 141.5q-86 -87 -204.5 -140t-239.5 -53zM952 1147l297 414h379l-420 -414h-256zM412 334q-9 -47 26.5 -81t102.5 -34q89 0 171 58.5t97 142.5l6 31h-225
q-74 0 -122 -33t-56 -84zM1382 823q-83 0 -150 -51t-93 -139h409l2 2q10 84 -38.5 136t-129.5 52z" />
    <glyph glyph-name="Oslashacute" unicode="&#x1fe;" horiz-adv-x="1660" 
d="M350 160q-101 106 -141 253.5t-10 317.5q27 156 109 295.5t200 240t270.5 159.5t315.5 59q207 0 360 -92l178 198l115 -90l-178 -201q101 -104 141 -251.5t10 -317.5q-27 -156 -109 -295.5t-199.5 -241t-270 -160.5t-314.5 -59q-206 0 -360 93l-178 -199l-119 90z
M524 731q-30 -182 58 -313l647 723q-82 45 -189 45q-188 0 -335 -130.5t-181 -324.5zM692 319q82 -45 189 -45q188 0 334 131t180 326q30 187 -58 311zM1217 1556h-256l296 414h379z" />
    <glyph glyph-name="oslashacute" unicode="&#x1ff;" horiz-adv-x="1249" 
d="M209 -145l-111 88l160 178q-70 75 -97.5 180t-6.5 225q42 234 229.5 391.5t431.5 157.5q140 0 248 -57l160 178l110 -86l-157 -176q71 -74 98.5 -180t5.5 -228q-26 -153 -120 -279t-236 -199t-303 -73q-139 0 -252 58zM688 1147l297 414h379l-420 -414h-256zM952 684
l-372 -416q43 -16 90 -16q107 0 190 76t105 198q15 91 -13 158zM469 526q-15 -90 12 -155l371 411q-43 17 -86 17q-107 0 -191.5 -76t-105.5 -197z" />
    <glyph glyph-name="uni0218" unicode="&#x218;" horiz-adv-x="1171" 
d="M96 268l260 183q34 -86 105.5 -138.5t169.5 -52.5q92 0 156 38t75 97q11 64 -29.5 98t-156.5 86q-59 26 -92 42t-55.5 27.5t-52 28t-49.5 30.5t-44 32.5t-39.5 37.5t-31 41.5t-24 47.5t-14.5 53.5t-5 61.5t7 70q34 188 200 311t384 123q155 0 269 -69t165 -197l-262 -175
q-69 156 -227 156q-80 0 -140.5 -38t-72.5 -103q-3 -18 0.5 -34.5t11 -29t23 -26t29.5 -23t38.5 -22.5t43 -21.5t49.5 -22.5t51 -24q38 -18 64 -30.5t59.5 -30.5t55.5 -32.5t48.5 -34.5t43 -39t33.5 -42.5t25.5 -49t14.5 -55t5.5 -64t-7.5 -72.5q-32 -180 -197 -306.5
t-403 -126.5q-109 0 -205 33.5t-169.5 101t-109.5 160.5zM348 -561q62 133 78 237q18 98 8 189h268q0 -123 -28 -222t-94 -204h-232z" />
    <glyph glyph-name="uni0219" unicode="&#x219;" horiz-adv-x="974" 
d="M487 -25q-146 0 -254 63.5t-149 176.5l231 154q29 -70 84 -111t133 -41q62 0 101 20t45 54q7 42 -33 67t-164 70q-156 57 -222.5 132t-45.5 196q26 144 162.5 231.5t314.5 87.5q129 0 223 -58t127 -153l-223 -143q-47 115 -178 115q-53 0 -93 -22t-46 -58q-6 -31 32 -54
t160 -73q32 -13 50.5 -21t46.5 -21t44.5 -23t38.5 -24t34.5 -27.5t27.5 -31t21.5 -36.5t12 -41.5t5 -49t-5.5 -55.5q-25 -139 -159.5 -231.5t-320.5 -92.5zM240 -561q60 130 77 237q18 102 9 189h268q0 -123 -28.5 -221.5t-94.5 -204.5h-231z" />
    <glyph glyph-name="uni021A" unicode="&#x21a;" horiz-adv-x="1148" 
d="M625 1184h-406l49 276h1127l-49 -276h-406l-209 -1184h-315zM565 -561h-231q62 133 78 237q18 98 8 189h268q0 -123 -28.5 -221.5t-94.5 -204.5z" />
    <glyph glyph-name="uni021B" unicode="&#x21b;" horiz-adv-x="772" 
d="M313 805h-141l43 246h152l51 284h301l-51 -284h235l-43 -246h-235l-72 -414q-13 -70 15.5 -104.5t90.5 -34.5q79 0 140 37l-47 -269q-95 -45 -228 -45q-167 0 -245.5 96.5t-47.5 270.5zM205 -561q62 133 78 237q18 98 8 189h268q0 -123 -28.5 -221.5t-94.5 -204.5h-231z
" />
    <glyph glyph-name="uni0232" unicode="&#x232;" horiz-adv-x="1327" 
d="M621 645l-381 815h348l237 -545l430 545h349l-666 -815l-115 -645h-317zM1268 1642h-633l41 236h633z" />
    <glyph glyph-name="uni0233" unicode="&#x233;" horiz-adv-x="1114" 
d="M-25 -395l45 258q59 -35 138 -35q72 0 128.5 36.5t104.5 139.5l19 35l-236 1012h326l123 -689l366 689h318l-658 -1137q-111 -188 -225.5 -268t-265.5 -80q-99 0 -183 39zM1081 1233h-632l40 235h633z" />
    <glyph glyph-name="uni0237" unicode="&#x237;" horiz-adv-x="585" 
d="M-16 -434q-103 0 -156 26l45 258q44 -16 98 -16q60 0 102.5 33t55.5 104l188 1080h312l-193 -1100q-15 -84 -48 -150.5t-76.5 -110t-98.5 -72t-111 -40.5t-118 -12z" />
    <glyph glyph-name="uni0259" unicode="&#x259;" horiz-adv-x="1110" 
d="M553 -25q-223 0 -337.5 136.5t-76.5 349.5q12 66 41 139h703q6 101 -56.5 156t-162.5 55q-84 0 -160.5 -31t-132.5 -78l-127 201q203 172 487 172q164 0 279 -73t161 -197.5t19 -278.5q-40 -233 -222.5 -392t-414.5 -159zM430 406q-9 -80 40 -128.5t134 -48.5t152.5 48
t93.5 131h-420v-2z" />
    <glyph glyph-name="uni0272" unicode="&#x272;" horiz-adv-x="1269" 
d="M-139 -414l47 260q36 -12 74 -12q117 0 139 131l190 1086h299l-22 -136q126 160 340 160q188 0 277 -116.5t52 -319.5l-112 -639h-311l104 592q18 100 -23 154.5t-129 54.5q-97 0 -164 -73t-87 -181l-107 -602q-14 -83 -46 -149t-73.5 -108.5t-94.5 -70.5t-107 -39.5
t-113 -11.5q-71 0 -133 20z" />
    <glyph glyph-name="circumflex" unicode="&#x2c6;" horiz-adv-x="948" 
d="M276 1147l345 420h260l196 -420h-274l-88 225l-164 -225h-275z" />
    <glyph glyph-name="caron" unicode="&#x2c7;" horiz-adv-x="948" 
d="M350 1567h275l86 -224l166 224h274l-344 -420h-260z" />
    <glyph glyph-name="breve" unicode="&#x2d8;" horiz-adv-x="788" 
d="M602 1174q-136 0 -214.5 84.5t-51.5 230.5h239q-9 -47 8.5 -75t55.5 -28q37 0 64.5 28t33.5 75h240q-24 -146 -131.5 -230.5t-243.5 -84.5z" />
    <glyph glyph-name="dotaccent" unicode="&#x2d9;" horiz-adv-x="493" 
d="M455 1182q-72 0 -114 48t-30 120q13 71 71.5 118.5t131.5 47.5t114.5 -47.5t28.5 -118.5q-12 -71 -70.5 -119.5t-131.5 -48.5z" />
    <glyph glyph-name="ring" unicode="&#x2da;" horiz-adv-x="657" 
d="M526 1116q-116 0 -174 69.5t-39 170.5q18 101 99.5 169t197.5 68q113 0 172 -68.5t41 -168.5q-19 -101 -101.5 -170.5t-195.5 -69.5zM496 1356q-6 -30 11.5 -51t49.5 -21q30 0 54 21t30 51q5 30 -12 49.5t-47 19.5q-32 0 -56.5 -20t-29.5 -49z" />
    <glyph glyph-name="ogonek" unicode="&#x2db;" horiz-adv-x="530" 
d="M281 -471q-74 1 -134.5 24.5t-95 73.5t-22.5 117q15 87 98.5 166t234.5 158l95 -68q-80 -55 -118.5 -94.5t-45.5 -75.5q-6 -34 27.5 -52.5t91.5 -25.5z" />
    <glyph glyph-name="tilde" unicode="&#x2dc;" horiz-adv-x="931" 
d="M485 1169l-196 45q23 131 106 211t199 80q40 0 78 -14t61.5 -31t50.5 -31t47 -14q69 0 91 98l194 -45q-23 -131 -106.5 -211.5t-198.5 -80.5q-51 0 -97 22.5t-81 45t-60 22.5q-68 0 -88 -97z" />
    <glyph glyph-name="hungarumlaut" unicode="&#x2dd;" horiz-adv-x="1085" 
d="M655 1147l312 414h315l-385 -414h-242zM520 1147h-241l282 414h299z" />
    <glyph glyph-name="acutecomb" unicode="&#x301;" horiz-adv-x="692" 
d="M279 1157l247 342h357l-348 -342h-256z" />
    <glyph glyph-name="pi" unicode="&#x3c0;" horiz-adv-x="1339" 
d="M156 786l45 265h1306l-45 -265h-188l-139 -786h-304l140 786h-324l-139 -786h-303l139 786h-188z" />
    <glyph glyph-name="Wgrave" unicode="&#x1e80;" horiz-adv-x="2048" 
d="M426 0l-172 1460h319l95 -1034l473 1034h282l109 -1034l459 1034h319l-688 -1460h-313l-109 997l-461 -997h-313zM1178 1556l-277 414h379l154 -414h-256z" />
    <glyph glyph-name="wgrave" unicode="&#x1e81;" horiz-adv-x="1658" 
d="M182 1051h303l76 -684l336 684h233l99 -684l313 684h303l-532 -1051h-283l-92 621l-309 -621h-283zM893 1147l-277 414h379l154 -414h-256z" />
    <glyph glyph-name="Wacute" unicode="&#x1e82;" horiz-adv-x="2048" 
d="M254 1460h319l95 -1034l473 1034h282l109 -1034l459 1034h319l-688 -1460h-313l-109 997l-461 -997h-313zM1436 1556h-256l297 414h378z" />
    <glyph glyph-name="wacute" unicode="&#x1e83;" horiz-adv-x="1658" 
d="M182 1051h303l76 -684l336 684h233l99 -684l313 684h303l-532 -1051h-283l-92 621l-309 -621h-283zM905 1147l297 414h379l-420 -414h-256z" />
    <glyph glyph-name="Wdieresis" unicode="&#x1e84;" horiz-adv-x="2048" 
d="M426 0l-172 1460h319l95 -1034l473 1034h282l109 -1034l459 1034h319l-688 -1460h-313l-109 997l-461 -997h-313zM1542 1591q-72 0 -113.5 48t-29.5 120q13 71 71.5 118.5t131.5 47.5t114.5 -47.5t28.5 -118.5q-12 -71 -71 -119.5t-132 -48.5zM1067 1591q-72 0 -113.5 48
t-29.5 120q13 72 71.5 119t130.5 47q73 0 115 -47.5t29 -118.5q-12 -71 -71 -119.5t-132 -48.5z" />
    <glyph glyph-name="wdieresis" unicode="&#x1e85;" horiz-adv-x="1658" 
d="M182 1051h303l76 -684l336 684h233l99 -684l313 684h303l-532 -1051h-283l-92 621l-309 -621h-283zM1266 1182q-72 0 -114 48t-30 120q13 71 71.5 118.5t131.5 47.5t114.5 -47.5t28.5 -118.5q-12 -71 -70.5 -119.5t-131.5 -48.5zM791 1182q-72 0 -114 48t-30 120
q13 71 71.5 118.5t131.5 47.5t114.5 -47.5t28.5 -118.5q-12 -71 -70.5 -119.5t-131.5 -48.5z" />
    <glyph glyph-name="Germandbls" unicode="&#x1e9e;" horiz-adv-x="1386" 
d="M428 0h-313l174 983q37 213 198.5 345t393.5 132h659l-43 -235l-385 -379h8q163 -16 255 -131.5t61 -292.5q-33 -189 -184 -318t-353 -129q-132 0 -230.5 59t-138.5 169l242 170q53 -115 162 -115q78 0 129.5 51t64.5 125t-34 125t-148 51h-209l35 201l377 369h-315
q-88 0 -153 -57.5t-79 -139.5z" />
    <glyph glyph-name="uni1EA0" unicode="&#x1ea0;" horiz-adv-x="1394" 
d="M303 0h-319l819 1460h307l301 -1460h-319l-68 334h-535zM623 -434q-72 0 -114 48t-30 120q12 71 71 119.5t132 48.5q72 0 113.5 -48t29.5 -120q-12 -71 -70.5 -119.5t-131.5 -48.5zM633 602h344l-84 504z" />
    <glyph glyph-name="uni1EA1" unicode="&#x1ea1;" horiz-adv-x="1105" 
d="M401 -25q-152 0 -234.5 88.5t-57.5 225.5q20 117 122 196t273 113l297 55l2 9q13 73 -32 109t-130 36q-157 0 -291 -127l-129 197q91 91 218 144.5t270 53.5q218 0 322.5 -110.5t70.5 -302.5l-117 -662h-289l23 129q-51 -71 -133.5 -112.5t-184.5 -41.5zM426 -434
q-72 0 -113.5 48t-29.5 120q12 71 70.5 119.5t131.5 48.5q72 0 114 -48t30 -120q-12 -71 -71 -119.5t-132 -48.5zM408 307q-8 -45 20.5 -72.5t83.5 -27.5q94 0 164.5 62t87.5 157l4 31l-215 -41q-127 -22 -145 -109z" />
    <glyph glyph-name="uni1EB8" unicode="&#x1eb8;" horiz-adv-x="1218" 
d="M170 2l258 1458h958l-49 -274h-643l-55 -314h528l-49 -274h-528l-55 -322h667l-49 -274h-983zM616 -434q-72 0 -113.5 48t-29.5 120q12 71 71 119.5t132 48.5q72 0 113.5 -48t29.5 -120q-12 -71 -71 -119.5t-132 -48.5z" />
    <glyph glyph-name="uni1EB9" unicode="&#x1eb9;" horiz-adv-x="1161" 
d="M639 -25q-172 0 -292.5 73t-169.5 197.5t-23 278.5q27 153 119.5 279t229.5 199t290 73q223 0 336.5 -135.5t76.5 -349.5q-9 -53 -43 -139h-700q-6 -101 63.5 -156t178.5 -55q155 0 280 108l129 -201q-115 -91 -229.5 -131.5t-245.5 -40.5zM528 -434q-72 0 -113.5 48
t-29.5 120q12 71 71 119.5t132 48.5q72 0 113.5 -48t29.5 -120q-12 -71 -71 -119.5t-132 -48.5zM492 643h419l2 2q9 80 -39 128t-131 48q-87 0 -156 -47.5t-95 -130.5z" />
    <glyph glyph-name="uni1EBC" unicode="&#x1ebc;" horiz-adv-x="1218" 
d="M1153 2h-983l258 1458h958l-49 -274h-643l-55 -314h528l-49 -274h-528l-55 -322h667zM725 1579l-197 45q23 131 106.5 211t199.5 80q40 0 78 -14t61.5 -31t50.5 -31t47 -14q68 0 90 98l195 -45q-23 -131 -106.5 -212t-198.5 -81q-51 0 -97 22.5t-81 45t-60 22.5
q-68 0 -88 -96z" />
    <glyph glyph-name="uni1EBD" unicode="&#x1ebd;" horiz-adv-x="1161" 
d="M639 -25q-172 0 -292.5 73t-169.5 197.5t-23 278.5q27 153 119.5 279t229.5 199t290 73q223 0 336.5 -135.5t76.5 -349.5q-9 -53 -43 -139h-700q-6 -101 63.5 -156t178.5 -55q155 0 280 108l129 -201q-115 -91 -229.5 -131.5t-245.5 -40.5zM406 1214q23 131 106 211
t199 80q40 0 78 -14t61.5 -31t50.5 -31t47 -14q68 0 90 98l195 -45q-23 -131 -106.5 -211.5t-198.5 -80.5q-51 0 -97 22.5t-81 45t-60 22.5q-68 0 -88 -97zM743 821q-87 0 -156 -47.5t-95 -130.5h419l2 2q9 80 -39 128t-131 48z" />
    <glyph glyph-name="uni1ECA" unicode="&#x1eca;" horiz-adv-x="655" 
d="M485 0h-315l258 1460h315zM252 -434q-72 0 -113.5 48t-29.5 120q12 71 70.5 119.5t131.5 48.5q72 0 114 -48t30 -120q-12 -71 -71 -119.5t-132 -48.5z" />
    <glyph glyph-name="uni1ECB" unicode="&#x1ecb;" horiz-adv-x="593" 
d="M141 0l185 1051h311l-184 -1051h-312zM219 -434q-72 0 -113.5 48t-29.5 120q12 71 71 119.5t132 48.5q72 0 113.5 -48t29.5 -120q-12 -71 -71 -119.5t-132 -48.5zM502 1182q-72 0 -114 48t-30 120q13 71 71.5 118.5t131.5 47.5t115 -47.5t29 -118.5q-12 -71 -71 -119.5
t-132 -48.5z" />
    <glyph glyph-name="uni1ECC" unicode="&#x1ecc;" horiz-adv-x="1660" 
d="M827 -25q-163 0 -294.5 59t-213.5 160.5t-114.5 241t-5.5 295.5t109 295.5t200 240t270.5 159.5t315.5 59q216 0 372.5 -100t223.5 -272.5t30 -381.5q-27 -156 -109 -295.5t-199.5 -241t-270 -160.5t-314.5 -59zM524 731q-34 -195 67.5 -326t289.5 -131t334 131t180 326
t-66.5 325t-288.5 130t-335 -130.5t-181 -324.5zM752 -434q-72 0 -114 48t-30 120q12 71 71 119.5t132 48.5q72 0 113.5 -48t29.5 -120q-12 -71 -70.5 -119.5t-131.5 -48.5z" />
    <glyph glyph-name="uni1ECD" unicode="&#x1ecd;" horiz-adv-x="1249" 
d="M621 -25q-161 0 -277.5 73t-166 199t-23.5 279q42 234 229.5 391.5t431.5 157.5q161 0 277.5 -72.5t165.5 -198t22 -278.5q-26 -153 -120 -279t-236 -199t-303 -73zM469 526q-21 -121 36.5 -197.5t164.5 -76.5t190 76t105 198q21 122 -35.5 197.5t-163.5 75.5t-191.5 -76
t-105.5 -197zM545 -434q-72 0 -114 48t-30 120q12 71 71 119.5t132 48.5q72 0 114 -48t30 -120q-12 -71 -71 -119.5t-132 -48.5z" />
    <glyph glyph-name="uni1EE4" unicode="&#x1ee4;" horiz-adv-x="1503" 
d="M748 -25q-173 0 -297.5 77t-176.5 209t-24 292l160 907h315l-156 -882q-23 -133 40.5 -219.5t189.5 -86.5q128 0 222 86.5t118 219.5l155 882h316l-160 -907q-28 -160 -126.5 -292t-250 -209t-325.5 -77zM672 -434q-72 0 -114 48t-30 120q12 71 71 119.5t132 48.5
q72 0 113.5 -48t29.5 -120q-12 -71 -70.5 -119.5t-131.5 -48.5z" />
    <glyph glyph-name="uni1EE5" unicode="&#x1ee5;" horiz-adv-x="1284" 
d="M528 -25q-188 0 -277 117t-52 320l112 639h312l-105 -592q-18 -100 23 -154.5t129 -54.5q97 0 164.5 73t85.5 181l98 547h311l-186 -1051h-299l24 135q-129 -160 -340 -160zM553 -434q-72 0 -113.5 48t-29.5 120q12 71 70.5 119.5t131.5 48.5q72 0 114 -48t30 -120
q-12 -71 -71 -119.5t-132 -48.5z" />
    <glyph glyph-name="Ygrave" unicode="&#x1ef2;" horiz-adv-x="1327" 
d="M240 1460h348l237 -545l430 545h349l-666 -815l-115 -645h-317l115 645zM807 1556l-277 414h379l154 -414h-256z" />
    <glyph glyph-name="ygrave" unicode="&#x1ef3;" horiz-adv-x="1114" 
d="M-25 -395l45 258q59 -35 138 -35q72 0 128.5 36.5t104.5 139.5l19 35l-236 1012h326l123 -689l366 689h318l-658 -1137q-111 -188 -225.5 -268t-265.5 -80q-99 0 -183 39zM354 1561h379l154 -414h-256z" />
    <glyph glyph-name="uni1EF8" unicode="&#x1ef8;" horiz-adv-x="1327" 
d="M621 645l-381 815h348l237 -545l430 545h349l-666 -815l-115 -645h-317zM557 1624q23 131 106 211t199 80q51 0 97 -22.5t81 -45t60 -22.5q68 0 90 98l194 -45q-23 -131 -106.5 -212t-198.5 -81q-40 0 -78 14t-61.5 31t-50.5 31t-47 14q-68 0 -88 -96z" />
    <glyph glyph-name="uni1EF9" unicode="&#x1ef9;" horiz-adv-x="1114" 
d="M-25 -395l45 258q59 -35 138 -35q72 0 128.5 36.5t104.5 139.5l19 35l-236 1012h326l123 -689l366 689h318l-658 -1137q-111 -188 -225.5 -268t-265.5 -80q-99 0 -183 39zM371 1214q23 131 106 211t199 80q40 0 78 -14t61.5 -31t50.5 -31t47 -14q69 0 91 98l194 -45
q-23 -131 -106.5 -211.5t-198.5 -80.5q-51 0 -97 22.5t-81 45t-60 22.5q-68 0 -88 -97z" />
    <glyph glyph-name="endash" unicode="&#x2013;" horiz-adv-x="1327" 
d="M1329 434h-1179l45 252h1179z" />
    <glyph glyph-name="emdash" unicode="&#x2014;" horiz-adv-x="1695" 
d="M1700 438h-1548l43 244h1548z" />
    <glyph glyph-name="quoteleft" unicode="&#x2018;" horiz-adv-x="471" 
d="M408 1006q-74 0 -116 48t-30 120q4 24 29 73l223 355h139l-139 -267q51 -15 77.5 -59.5t16.5 -101.5q-12 -72 -69 -120t-131 -48z" />
    <glyph glyph-name="quoteright" unicode="&#x2019;" horiz-adv-x="473" 
d="M291 1006l139 266q-51 15 -78 59.5t-18 102.5q13 72 71.5 120t131.5 48q74 0 115 -48t28 -120q-4 -25 -29 -74l-221 -354h-139z" />
    <glyph glyph-name="quotesinglbase" unicode="&#x201a;" horiz-adv-x="514" 
d="M66 -285l137 267q-50 15 -76.5 59t-17.5 102q14 72 71.5 120t130.5 48q74 0 115.5 -48t28.5 -120q-4 -24 -29 -73l-221 -355h-139z" />
    <glyph glyph-name="quotedblleft" unicode="&#x201c;" horiz-adv-x="903" 
d="M840 1006q-74 0 -116 48t-30 120q4 24 29 73l223 355h139l-139 -267q51 -15 77.5 -59.5t16.5 -101.5q-12 -72 -69 -120t-131 -48zM408 1006q-74 0 -116 48t-30 120q4 24 29 73l223 355h139l-139 -267q51 -15 77.5 -59.5t16.5 -101.5q-12 -72 -69 -120t-131 -48z" />
    <glyph glyph-name="quotedblright" unicode="&#x201d;" horiz-adv-x="876" 
d="M834 1006h-140l140 266q-52 15 -79 59.5t-18 102.5q13 72 71 120t132 48t115 -48t28 -120q-4 -28 -28 -74zM291 1006l139 266q-51 15 -78 59.5t-18 102.5q13 72 71.5 120t131.5 48q74 0 115 -48t28 -120q-4 -25 -29 -74l-221 -354h-139z" />
    <glyph glyph-name="quotedblbase" unicode="&#x201e;" horiz-adv-x="937" 
d="M629 -285h-140l138 267q-50 15 -77 59t-18 102q14 72 72 120t131 48q74 0 115.5 -48t28.5 -120q-4 -24 -29 -73zM66 -285l137 267q-50 15 -76.5 59t-17.5 102q14 72 71.5 120t130.5 48q74 0 115.5 -48t28.5 -120q-4 -24 -29 -73l-221 -355h-139z" />
    <glyph glyph-name="dagger" unicode="&#x2020;" horiz-adv-x="1044" 
d="M219 821l45 258h305l68 381h293l-68 -381h299l-45 -258h-299l-182 -1026h-293l182 1026h-305z" />
    <glyph glyph-name="daggerdbl" unicode="&#x2021;" horiz-adv-x="1044" 
d="M410 172h-301l45 260h301l77 434h-305l45 260h306l59 334h293l-60 -334h299l-45 -260h-299l-77 -434h296l-45 -260h-297l-67 -377h-293z" />
    <glyph glyph-name="bullet" unicode="&#x2022;" horiz-adv-x="825" 
d="M475 354q-118 0 -184.5 77.5t-44.5 193.5q20 116 112.5 193t210.5 77t186 -77t48 -193t-115.5 -193.5t-212.5 -77.5z" />
    <glyph glyph-name="ellipsis" unicode="&#x2026;" horiz-adv-x="1462" 
d="M1206 -25q-72 0 -113.5 48t-29.5 120q13 72 72 120t131 48q73 0 114.5 -48.5t28.5 -119.5q-12 -71 -71 -119.5t-132 -48.5zM727 -25q-72 0 -113.5 48t-29.5 120q13 72 71.5 120t130.5 48q73 0 115 -48.5t29 -119.5q-12 -71 -71 -119.5t-132 -48.5zM246 -25q-72 0 -114 48
t-30 120q13 72 72 120t131 48q73 0 115 -48.5t29 -119.5q-12 -71 -71 -119.5t-132 -48.5z" />
    <glyph glyph-name="perthousand" unicode="&#x2030;" horiz-adv-x="2353" 
d="M1186 -25q-147 0 -232 99.5t-59 247.5q26 147 146.5 247.5t267.5 100.5q146 0 230 -100.5t58 -247.5q-26 -148 -145.5 -247.5t-265.5 -99.5zM526 774q-148 0 -233.5 99t-59.5 247q26 147 146.5 247.5t267.5 100.5q146 0 230.5 -100.5t58.5 -247.5q-26 -148 -145 -247
t-265 -99zM1968 -25q-146 0 -230.5 99.5t-58.5 247.5q26 147 146 247.5t266 100.5q147 0 231 -100.5t58 -247.5q-26 -148 -145.5 -247.5t-266.5 -99.5zM164 0l1325 1460h192l-1325 -1460h-192zM1890 322q-11 -60 21.5 -100t93.5 -40q62 0 107.5 39.5t56.5 100.5
q11 63 -20.5 101t-94.5 38q-62 0 -108 -38.5t-56 -100.5zM1106 322q-11 -61 22 -100.5t95 -39.5q61 0 105.5 39.5t55.5 100.5q11 63 -20 101t-92 38q-63 0 -109.5 -38t-56.5 -101zM444 1120q-9 -61 23 -100t94 -39q61 0 107 39.5t55 99.5q12 63 -19.5 101.5t-93.5 38.5
q-63 0 -108.5 -38.5t-57.5 -101.5z" />
    <glyph glyph-name="guilsinglleft" unicode="&#x2039;" horiz-adv-x="677" 
d="M477 946h297l-336 -420l187 -417h-297l-185 417z" />
    <glyph glyph-name="guilsinglright" unicode="&#x203a;" horiz-adv-x="681" 
d="M389 106h-297l334 420l-186 418h297l184 -418z" />
    <glyph glyph-name="fraction" unicode="&#x2044;" horiz-adv-x="333" 
d="M-461 0l1325 1460h193l-1325 -1460h-193z" />
    <glyph glyph-name="uni2070" unicode="&#x2070;" horiz-adv-x="808" 
d="M516 627q-81 0 -139 26t-89 67.5t-46 99t-14 115t12 120.5t30.5 120.5t54.5 115.5t80.5 100t113.5 68t149 26t139 -26t88.5 -68t45 -100t13.5 -115.5t-12 -120.5t-31 -120.5t-55 -115t-80.5 -99t-112.5 -67.5t-147 -26zM459 1055q-41 -228 92 -228q131 0 172 228
q7 42 8.5 74.5t-4 71.5t-29.5 61t-65 22q-133 0 -174 -229z" />
    <glyph glyph-name="uni2074" unicode="&#x2074;" horiz-adv-x="735" 
d="M168 815l25 137l446 508h217l-84 -469h102l-30 -178h-103l-28 -162h-207l29 164h-367zM612 1190l-176 -201h142z" />
    <glyph glyph-name="uni2075" unicode="&#x2075;" horiz-adv-x="712" 
d="M174 805l191 117q43 -95 124 -95q47 0 79 26.5t38 68.5q8 42 -16.5 69t-71.5 27q-51 0 -112 -45l-142 57l115 430h493l-34 -198h-312l-24 -86q45 10 90 10q130 0 194.5 -74.5t42.5 -193.5q-23 -129 -125 -210t-245 -81q-102 0 -175 48t-110 130z" />
    <glyph glyph-name="uni2076" unicode="&#x2076;" horiz-adv-x="700" 
d="M465 627q-135 0 -210 86.5t-52 210.5q10 62 40.5 113.5t84.5 115.5l270 307h256l-240 -270h2q115 -4 173.5 -82t39.5 -186q-22 -124 -126 -209.5t-238 -85.5zM414 920q-7 -44 17 -73.5t67 -29.5q44 0 77 30t41 73q8 45 -14.5 73.5t-66.5 28.5q-45 0 -79.5 -28.5
t-41.5 -73.5z" />
    <glyph glyph-name="uni2077" unicode="&#x2077;" horiz-adv-x="651" 
d="M184 651l414 606h-340l37 203h594l-27 -151l-444 -658h-234z" />
    <glyph glyph-name="uni2078" unicode="&#x2078;" horiz-adv-x="724" 
d="M473 627q-128 0 -207 70.5t-59 181.5q9 56 48 106t95 84q-77 66 -61 162q20 109 118 181.5t218 72.5t192.5 -72.5t52.5 -181.5q-16 -95 -110 -162q39 -35 58.5 -85.5t10.5 -104.5q-20 -111 -124 -181.5t-232 -70.5zM420 897q-6 -37 19.5 -60.5t66.5 -23.5t71.5 23
t36.5 61q6 36 -16.5 59t-62.5 23q-42 0 -75.5 -23t-39.5 -59zM498 1225q-4 -32 14.5 -52t52.5 -20t61 20t31 52q6 32 -12.5 51.5t-52.5 19.5q-33 0 -60.5 -20t-33.5 -51z" />
    <glyph glyph-name="uni2079" unicode="&#x2079;" horiz-adv-x="698" 
d="M453 922q-114 4 -173 82.5t-40 185.5q24 124 127 209.5t237 85.5q135 0 210.5 -86.5t53.5 -210.5q-10 -62 -41 -114.5t-86 -115.5l-268 -307h-256l238 271h-2zM455 1192q-8 -44 14.5 -73t65.5 -29q46 0 79.5 28t42.5 74q7 44 -18 73t-70 29q-42 0 -74 -29.5t-40 -72.5z
" />
    <glyph glyph-name="uni2080" unicode="&#x2080;" horiz-adv-x="808" 
d="M401 -25q-81 0 -139 26t-89 67.5t-46 99t-14 115t12 120.5q11 64 30.5 121t54.5 115.5t80.5 100t113.5 68t149 26.5t139 -26.5t88.5 -68.5t45 -100t13.5 -115.5t-12 -120.5t-31 -120.5t-55 -115t-80.5 -99t-112.5 -67.5t-147 -26zM344 403q-41 -227 92 -227
q131 0 172 227q37 230 -90 230q-133 0 -174 -230z" />
    <glyph glyph-name="uni2081" unicode="&#x2081;" horiz-adv-x="655" 
d="M68 0l36 205h175l57 334q-71 -31 -189 -31l35 199q161 3 260 102h162l-106 -604h172l-37 -205h-565z" />
    <glyph glyph-name="uni2082" unicode="&#x2082;" horiz-adv-x="712" 
d="M61 0q7 163 61.5 246t207.5 168q19 10 49.5 26t46 24.5t37 22t32 23.5t20 23.5t11.5 27.5q6 32 -12 49t-57 17q-86 0 -160 -95l-139 121q56 79 149.5 130t192.5 51q129 0 200 -72.5t50 -190.5q-9 -52 -33.5 -95t-65 -77t-73.5 -55t-84 -49q-20 -11 -52 -27.5t-48.5 -25.5
t-32.5 -21t-21 -22h358l-34 -199h-603z" />
    <glyph glyph-name="uni2083" unicode="&#x2083;" horiz-adv-x="716" 
d="M57 156l185 116q12 -41 43.5 -69.5t85.5 -28.5q42 0 76 24t40 60q9 47 -20.5 69.5t-85.5 22.5q-61 0 -119 -8l21 123l176 145h-269l35 199h557l-26 -145l-215 -168q92 -18 138.5 -82t29.5 -158q-23 -127 -127 -204t-240 -77q-106 0 -180 50t-105 131z" />
    <glyph glyph-name="uni2084" unicode="&#x2084;" horiz-adv-x="735" 
d="M53 164l25 137l446 508h217l-84 -469h103l-31 -178h-102l-29 -162h-207l29 164h-367zM498 539l-176 -201h141z" />
    <glyph glyph-name="uni2085" unicode="&#x2085;" horiz-adv-x="712" 
d="M57 154l191 116q43 -94 125 -94q47 0 78.5 26t37.5 68q8 42 -16.5 69.5t-71.5 27.5q-51 0 -112 -45l-142 57l115 430h494l-35 -199h-311l-25 -86q49 11 90 11q130 0 195 -75t43 -194q-23 -129 -125.5 -210t-245.5 -81q-102 0 -175 48.5t-110 130.5z" />
    <glyph glyph-name="uni2086" unicode="&#x2086;" horiz-adv-x="700" 
d="M350 -25q-135 0 -210 86.5t-52 210.5q10 62 40.5 114t84.5 116l270 307h256l-239 -270h2q115 -4 173.5 -82.5t39.5 -186.5q-22 -124 -126.5 -209.5t-238.5 -85.5zM299 268q-7 -44 17 -73t67 -29q44 0 77.5 29.5t41.5 72.5q8 45 -15 74t-67 29q-45 0 -79.5 -29t-41.5 -74z
" />
    <glyph glyph-name="uni2087" unicode="&#x2087;" horiz-adv-x="651" 
d="M70 0l413 606h-340l37 203h594l-26 -152l-445 -657h-233z" />
    <glyph glyph-name="uni2088" unicode="&#x2088;" horiz-adv-x="724" 
d="M358 -25q-128 0 -207 70.5t-59 181.5q9 56 48.5 106.5t95.5 84.5q-77 67 -62 162q20 109 118 181.5t218 72.5t193 -72.5t53 -181.5q-16 -94 -111 -162q40 -35 59.5 -86t10.5 -105q-20 -111 -124.5 -181.5t-232.5 -70.5zM305 246q-6 -37 19.5 -60.5t66.5 -23.5t72 23.5
t37 60.5q6 36 -17 59t-63 23q-42 0 -75.5 -23t-39.5 -59zM383 573q-4 -32 15 -51.5t53 -19.5q35 0 61.5 19.5t30.5 51.5q6 32 -13 52t-53 20q-33 0 -60.5 -20.5t-33.5 -51.5z" />
    <glyph glyph-name="uni2089" unicode="&#x2089;" horiz-adv-x="698" 
d="M338 270q-114 4 -173 83t-40 186q24 124 127 209.5t237 85.5q135 0 211 -86.5t54 -210.5q-10 -62 -41 -114.5t-86 -115.5l-269 -307h-256l238 270h-2zM340 541q-8 -44 14.5 -73.5t65.5 -29.5q46 0 80 28.5t43 74.5q7 44 -18 73t-70 29q-42 0 -74.5 -29.5t-40.5 -72.5z
" />
    <glyph glyph-name="Euro" unicode="&#x20ac;" horiz-adv-x="1400" 
d="M289 504h-150l31 172h125q6 56 18 108h-125l29 172h152q102 243 302 386t445 143q76 0 143 -17.5t113.5 -44.5t85 -64t61.5 -71t40 -71l-242 -181q-14 28 -33 53.5t-49.5 52.5t-75.5 43.5t-98 16.5q-116 0 -210 -64.5t-155 -181.5h451l-51 -172h-463q-14 -61 -19 -108
h463l-53 -172h-408q21 -118 90 -182t183 -64q189 0 330 174l190 -166q-38 -52 -92.5 -100.5t-125.5 -92.5t-161.5 -71t-183.5 -27q-243 0 -391.5 143t-165.5 386z" />
    <glyph glyph-name="trademark" unicode="&#x2122;" horiz-adv-x="1148" 
d="M807 950h-143l90 510h190l62 -200l135 200h192l-90 -510h-149l57 326l-137 -205h-82l-68 205zM246 1329l24 131h422l-24 -131h-142l-65 -379h-139l65 379h-141z" />
    <glyph glyph-name="estimated" unicode="&#x212e;" horiz-adv-x="1886" 
d="M940 -25q-169 0 -309.5 57.5t-230.5 154.5t-129 231.5t-13 283.5q27 150 115.5 286t214 233.5t285 155t323.5 57.5q219 0 387.5 -101t246.5 -271.5t44 -369.5l-4 -22h-1311q-12 0 -12 -8l-66 -377q-4 -18 6 -49q165 -183 469 -183q157 0 301 53.5t252 153.5h121
q-131 -131 -312.5 -208t-377.5 -77zM563 752q-3 -13 8 -13h1008q5 0 8 13l66 374q5 24 -8 50q-77 88 -196.5 135t-262.5 47q-303 0 -529 -182q-25 -28 -30 -56z" />
    <glyph glyph-name="onethird" unicode="&#x2153;" horiz-adv-x="1740" 
d="M1077 156l185 116q12 -41 43.5 -69.5t85.5 -28.5q42 0 76 24t40 60q9 47 -20.5 69.5t-85.5 22.5q-61 0 -119 -8l21 123l176 145h-269l35 199h557l-26 -145l-215 -168q92 -18 138.5 -82t29.5 -158q-23 -127 -127 -204t-240 -77q-106 0 -180 50t-105 131zM190 651l37 205
h174l58 334q-71 -31 -189 -31l35 199q161 3 260 102h162l-106 -604h172l-37 -205h-566zM246 0l1325 1460h192l-1325 -1460h-192z" />
    <glyph glyph-name="twothirds" unicode="&#x2154;" horiz-adv-x="1775" 
d="M784 651h-602q7 163 61.5 246t207.5 168q19 10 49.5 26t46 24.5t37 22t32 23.5t20 23.5t11.5 27.5q6 32 -12 49t-57 17q-87 0 -160 -94l-139 121q55 79 149 129.5t193 50.5q129 0 199.5 -72t49.5 -190q-9 -52 -33.5 -95t-64.5 -77t-73.5 -55.5t-84.5 -49.5
q-19 -11 -51.5 -27.5t-48.5 -25.5t-32 -21t-21 -22h358zM1395 -25q-106 0 -180 50t-105 131l184 116q12 -41 43.5 -69.5t85.5 -28.5q42 0 76.5 24t40.5 60q9 47 -20.5 69.5t-85.5 22.5q-61 0 -119 -8l20 123l176 145h-268l35 199h557l-27 -145l-215 -168q92 -18 138.5 -82
t29.5 -158q-23 -127 -126.5 -204t-239.5 -77zM463 0h-193l1325 1460h193z" />
    <glyph glyph-name="minus" unicode="&#x2212;" horiz-adv-x="1132" 
d="M270 866h899l-49 -270h-899z" />
    <glyph glyph-name="uni2215" unicode="&#x2215;" horiz-adv-x="333" 
d="M-461 0l1325 1460h193l-1325 -1460h-193z" />
    <glyph glyph-name="uni2219" unicode="&#x2219;" horiz-adv-x="739" 
d="M449 455q-73 0 -114 48.5t-28 119.5q12 72 70.5 120t130.5 48t114.5 -48t30.5 -120q-13 -72 -72.5 -120t-131.5 -48z" />
    <glyph glyph-name="approxequal" unicode="&#x2248;" horiz-adv-x="1181" 
d="M178 381q24 140 116 228.5t226 88.5q64 0 135 -26t131 -52t99 -26q50 0 78 29t43 82l196 -46q-26 -141 -117 -230t-225 -89q-64 0 -134.5 26t-131 52t-98.5 26q-91 0 -119 -108zM254 809q24 139 116.5 227t225.5 88q64 0 135 -26t131.5 -52t98.5 -26q50 0 77.5 29
t40.5 81l197 -45q-24 -141 -115 -230t-225 -89q-64 0 -135 26t-131 52t-99 26q-90 0 -118 -106z" />
    <glyph glyph-name="notequal" unicode="&#x2260;" horiz-adv-x="1140" 
d="M180 377l49 268h328l129 176h-426l47 269h574l194 266l109 -68l-146 -198h181l-48 -269h-329l-129 -176h428l-49 -268h-574l-196 -268l-107 67l145 201h-180z" />
    <glyph glyph-name="lessequal" unicode="&#x2264;" horiz-adv-x="1126" 
d="M135 299h942l-45 -256h-942zM266 1006l1002 413l-47 -274l-615 -248l527 -250l-50 -274l-856 415z" />
    <glyph glyph-name="greaterequal" unicode="&#x2265;" horiz-adv-x="1126" 
d="M156 299h942l-45 -256h-942zM358 1419l859 -413l-39 -218l-1004 -415l49 274l613 250l-525 248z" />
    <glyph glyph-name="f_f" unicode="&#xfb00;" horiz-adv-x="1384" 
d="M193 805l43 246h145l10 53q31 174 156.5 277.5t312.5 103.5q103 0 156 -33l-45 -254q-44 23 -101 23q-67 0 -112.5 -30.5t-55.5 -92.5l-10 -47h357l10 53q31 174 156.5 277.5t312.5 103.5q102 0 155 -33l-45 -254q-44 23 -100 23q-67 0 -112.5 -30.5t-55.5 -92.5l-10 -47
h211l-43 -246h-211l-141 -805h-312l142 805h-357l-141 -805h-311l141 805h-145z" />
    <glyph glyph-name="CR" horiz-adv-x="491" 
 />
    <glyph glyph-name="Euro.onum" horiz-adv-x="1155" 
d="M252 371h-133l24 145h111l6 37q1 6 3 17.5t3 17.5h-110l24 145h135q85 181 248.5 289t356.5 108q131 0 219 -56t127 -134l-203 -176q-26 43 -77 75.5t-118 32.5q-147 0 -239 -139h311l-45 -145h-326q-4 -13 -8 -35l-6 -37h328l-43 -145h-273q22 -64 71.5 -99.5
t119.5 -35.5q136 0 241 110l152 -166q-70 -84 -186 -144.5t-250 -60.5q-193 0 -318 107.5t-145 288.5z" />
    <glyph glyph-name="Euro.onum.tnum" 
d="M340 371h-133l24 145h111l6 37q1 6 3 17.5t3 17.5h-110l24 145h135q85 181 248.5 289t356.5 108q131 0 219 -56t127 -134l-203 -176q-26 43 -77 75.5t-118 32.5q-147 0 -239 -139h311l-45 -145h-326q-4 -13 -8 -35l-6 -37h328l-43 -145h-273q22 -64 71.5 -99.5
t119.5 -35.5q136 0 241 110l152 -166q-70 -84 -186 -144.5t-250 -60.5q-193 0 -318 107.5t-145 288.5z" />
    <glyph glyph-name="Euro.tnum" 
d="M256 504h-150l31 172h125q5 47 19 108h-125l28 172h152q102 243 302 386t445 143q76 0 143 -17.5t113.5 -44.5t85 -64t61.5 -71t40 -71l-242 -181q-14 28 -33 53.5t-49.5 52.5t-75.5 43.5t-98 16.5q-116 0 -209.5 -64.5t-154.5 -181.5h450l-51 -172h-463
q-12 -52 -18 -108h462l-53 -172h-407q21 -118 89.5 -182t182.5 -64q189 0 330 174l190 -166q-38 -52 -92.5 -100.5t-125.5 -92.5t-161.5 -71t-183.5 -27q-243 0 -391.5 143t-165.5 386z" />
    <glyph glyph-name="G.alt" horiz-adv-x="1570" 
d="M791 -25q-103 0 -194 26.5t-161.5 75.5t-125 117.5t-84 152.5t-38.5 181.5t11 202.5q27 157 109 296t200.5 239.5t273 159.5t320.5 59q207 0 345.5 -86t211.5 -230l-266 -194q-49 92 -137 150.5t-212 58.5q-193 0 -339.5 -129.5t-180.5 -323.5q-34 -197 64.5 -329
t285.5 -132q147 0 261.5 70t146.5 178l8 33h-325l47 258h606l-143 -809h-281l27 158q-160 -183 -430 -183z" />
    <glyph glyph-name="Gbreve.alt" horiz-adv-x="1570" 
d="M791 -25q-103 0 -194 26.5t-161.5 75.5t-125 117.5t-84 152.5t-38.5 181.5t11 202.5q27 157 109 296t200.5 239.5t273 159.5t320.5 59q207 0 345.5 -86t211.5 -230l-266 -194q-49 92 -137 150.5t-212 58.5q-193 0 -339.5 -129.5t-180.5 -323.5q-34 -197 64.5 -329
t285.5 -132q147 0 261.5 70t146.5 178l8 33h-325l47 258h606l-143 -809h-281l27 158q-160 -183 -430 -183zM1087 1583q-136 0 -214.5 84.5t-51.5 230.5h240q-9 -47 8 -74.5t55 -27.5t65.5 28t33.5 74h239q-24 -146 -131.5 -230.5t-243.5 -84.5z" />
    <glyph glyph-name="Gcaron.alt" horiz-adv-x="1570" 
d="M791 -25q-103 0 -194 26.5t-161.5 75.5t-125 117.5t-84 152.5t-38.5 181.5t11 202.5q27 157 109 296t200.5 239.5t273 159.5t320.5 59q207 0 345.5 -86t211.5 -230l-266 -194q-49 92 -137 150.5t-212 58.5q-193 0 -339.5 -129.5t-180.5 -323.5q-34 -197 64.5 -329
t285.5 -132q147 0 261.5 70t146.5 178l8 33h-325l47 258h606l-143 -809h-281l27 158q-160 -183 -430 -183zM772 1976h275l86 -223l165 223h275l-344 -420h-260z" />
    <glyph glyph-name="Gcircumflex.alt" horiz-adv-x="1570" 
d="M791 -25q-103 0 -194 26.5t-161.5 75.5t-125 117.5t-84 152.5t-38.5 181.5t11 202.5q27 157 109 296t200.5 239.5t273 159.5t320.5 59q207 0 345.5 -86t211.5 -230l-266 -194q-49 92 -137 150.5t-212 58.5q-193 0 -339.5 -129.5t-180.5 -323.5q-34 -197 64.5 -329
t285.5 -132q147 0 261.5 70t146.5 178l8 33h-325l47 258h606l-143 -809h-281l27 158q-160 -183 -430 -183zM958 1556h-274l344 420h260l197 -420h-275l-88 226z" />
    <glyph glyph-name="Gcommaaccent.alt" horiz-adv-x="1570" 
d="M791 -25q-103 0 -194 26.5t-161.5 75.5t-125 117.5t-84 152.5t-38.5 181.5t11 202.5q27 157 109 296t200.5 239.5t273 159.5t320.5 59q207 0 345.5 -86t211.5 -230l-266 -194q-49 92 -137 150.5t-212 58.5q-193 0 -339.5 -129.5t-180.5 -323.5q-34 -197 64.5 -329
t285.5 -132q147 0 261.5 70t146.5 178l8 33h-325l47 258h606l-143 -809h-281l27 158q-160 -183 -430 -183zM567 -561q62 133 78 237q18 98 8 189h269q0 -123 -28.5 -221.5t-94.5 -204.5h-232z" />
    <glyph glyph-name="Gdotaccent.alt" horiz-adv-x="1570" 
d="M791 -25q-103 0 -194 26.5t-161.5 75.5t-125 117.5t-84 152.5t-38.5 181.5t11 202.5q27 157 109 296t200.5 239.5t273 159.5t320.5 59q207 0 345.5 -86t211.5 -230l-266 -194q-49 92 -137 150.5t-212 58.5q-193 0 -339.5 -129.5t-180.5 -323.5q-34 -197 64.5 -329
t285.5 -132q147 0 261.5 70t146.5 178l8 33h-325l47 258h606l-143 -809h-281l27 158q-160 -183 -430 -183zM1087 1591q-72 0 -113.5 48t-29.5 120q13 71 71.5 118.5t131.5 47.5t114.5 -47.5t28.5 -118.5q-12 -71 -71 -119.5t-132 -48.5z" />
    <glyph glyph-name="I.alt" horiz-adv-x="913" 
d="M59 0l50 283h239l158 895h-240l51 282h795l-51 -282h-240l-157 -895h239l-49 -283h-795z" />
    <glyph glyph-name="IJ.alt" horiz-adv-x="2084" 
d="M963 293l272 151q27 -91 77.5 -135.5t137.5 -44.5q98 0 164 54.5t80 140.5l129 721h-498l49 280h813l-178 -1009q-37 -211 -207 -343.5t-405 -132.5q-159 0 -277.5 85.5t-156.5 232.5zM854 0h-795l50 283h239l158 895h-240l51 282h795l-51 -282h-240l-157 -895h239z" />
    <glyph glyph-name="IJacute" horiz-adv-x="1738" 
d="M705 293l274 151q20 -90 60.5 -135t111.5 -45q76 0 129.5 52.5t67.5 134.5l178 1009h315l-180 -1016q-37 -208 -192.5 -338.5t-368.5 -130.5q-160 0 -263.5 83.5t-131.5 234.5zM170 0l258 1460h315l-258 -1460h-315zM1565 1556l297 414h379l-420 -414h-256zM723 1556
h-256l297 414h379z" />
    <glyph glyph-name="IJacute.alt" horiz-adv-x="2084" 
d="M1397 -25q-159 0 -277.5 85.5t-156.5 232.5l272 151q27 -91 77.5 -135.5t137.5 -44.5q98 0 164 54.5t80 140.5l129 721h-498l49 280h813l-178 -1009q-37 -211 -207 -343.5t-405 -132.5zM59 0l50 283h239l158 895h-240l51 282h795l-51 -282h-240l-157 -895h239l-49 -283
h-795zM1894 1556h-256l297 414h379zM854 1556h-256l297 414h379z" />
    <glyph glyph-name="Iacute.alt" horiz-adv-x="978" 
d="M59 0l50 283h239l158 895h-240l51 282h795l-51 -282h-240l-157 -895h239l-49 -283h-795zM596 1556l297 414h379l-420 -414h-256z" />
    <glyph glyph-name="Ibreve.alt" horiz-adv-x="913" 
d="M854 0h-795l50 283h239l158 895h-240l51 282h795l-51 -282h-240l-157 -895h239zM735 1583q-136 0 -214.5 84.5t-51.5 230.5h240q-9 -47 8 -74.5t55 -27.5q37 0 64.5 27.5t33.5 74.5h240q-24 -146 -131.5 -230.5t-243.5 -84.5z" />
    <glyph glyph-name="Icircumflex.alt" horiz-adv-x="919" 
d="M856 0h-795l50 283h239l158 895h-240l51 282h795l-51 -282h-240l-157 -895h239zM608 1556h-274l344 420h260l197 -420h-275l-88 226z" />
    <glyph glyph-name="Idieresis.alt" horiz-adv-x="933" 
d="M866 0h-794l49 283h239l158 895h-239l51 282h794l-51 -282h-239l-158 -895h239zM985 1591q-72 0 -113.5 48t-29.5 120q13 72 71.5 119t130.5 47q73 0 115 -47.5t29 -118.5q-12 -71 -71 -119.5t-132 -48.5zM512 1591q-72 0 -113.5 48t-29.5 120q13 72 71.5 119t130.5 47
q73 0 115 -47.5t29 -118.5q-12 -71 -71 -119.5t-132 -48.5z" />
    <glyph glyph-name="Idotaccent.alt" horiz-adv-x="913" 
d="M854 0h-795l50 283h239l158 895h-240l51 282h795l-51 -282h-240l-157 -895h239zM735 1591q-72 0 -113.5 48t-29.5 120q13 71 71.5 118.5t131.5 47.5t114.5 -47.5t28.5 -118.5q-12 -71 -71 -119.5t-132 -48.5z" />
    <glyph glyph-name="Idotbelow.alt" horiz-adv-x="913" 
d="M854 0h-795l50 283h239l158 895h-240l51 282h795l-51 -282h-240l-157 -895h239zM379 -434q-72 0 -113.5 48t-29.5 120q12 71 70.5 119.5t131.5 48.5q72 0 114 -48t30 -120q-12 -71 -71 -119.5t-132 -48.5z" />
    <glyph glyph-name="Igrave.alt" horiz-adv-x="972" 
d="M913 0h-794l49 283h240l157 895h-239l51 282h794l-51 -282h-239l-158 -895h240zM391 1970h379l154 -414h-256z" />
    <glyph glyph-name="Imacron.alt" horiz-adv-x="913" 
d="M854 0h-795l50 283h239l158 895h-240l51 282h795l-51 -282h-240l-157 -895h239zM1061 1642h-633l41 236h633z" />
    <glyph glyph-name="Iogonek.alt" horiz-adv-x="913" 
d="M59 0l50 283h239l158 895h-240l51 282h795l-51 -282h-240l-157 -895h239l-49 -283h-242q-79 -55 -117.5 -94.5t-45.5 -75.5q-6 -34 27 -52.5t91 -25.5l-131 -223q-74 1 -134.5 24.5t-95 73.5t-22.5 117q23 132 217 256h-342z" />
    <glyph glyph-name="Itilde.alt" horiz-adv-x="913" 
d="M854 0h-795l50 283h239l158 895h-240l51 282h795l-51 -282h-240l-157 -895h239zM549 1579l-197 45q23 131 106 211t199 80q51 0 97 -22.5t81 -45t60 -22.5q68 0 90 98l195 -45q-23 -131 -107 -212t-199 -81q-40 0 -78 14t-61.5 31t-50.5 31t-47 14q-68 0 -88 -96z" />
    <glyph glyph-name="J.alt" horiz-adv-x="1171" 
d="M49 293l273 151q27 -91 77.5 -135.5t137.5 -44.5q98 0 163.5 54.5t79.5 140.5l129 721h-497l49 280h813l-178 -1009q-37 -211 -207.5 -343.5t-405.5 -132.5q-159 0 -277.5 85.5t-156.5 232.5z" />
    <glyph glyph-name="Jcircumflex.alt" horiz-adv-x="1171" 
d="M49 293l273 151q27 -91 77.5 -135.5t137.5 -44.5q98 0 163.5 54.5t79.5 140.5l129 721h-497l49 280h813l-178 -1009q-37 -211 -207.5 -343.5t-405.5 -132.5q-159 0 -277.5 85.5t-156.5 232.5zM760 1556h-275l344 420h261l196 -420h-274l-88 226z" />
    <glyph glyph-name="K.alt" horiz-adv-x="1376" 
d="M643 739l633 721h358l-630 -708l428 -752h-373zM170 0l258 1460h315l-258 -1460h-315z" />
    <glyph glyph-name="Kcommaaccent.alt" horiz-adv-x="1376" 
d="M1059 0l-416 739l633 721h358l-630 -708l428 -752h-373zM485 0h-315l258 1460h315zM727 -561h-231q60 130 77 237q18 102 9 189h268q0 -123 -28.5 -221.5t-94.5 -204.5z" />
    <glyph glyph-name="Q.alt" horiz-adv-x="1660" 
d="M827 -25q-163 0 -294.5 59t-213.5 160.5t-114.5 241t-5.5 295.5t109 295.5t200 240t270.5 159.5t315.5 59q216 0 372.5 -100t223.5 -272.5t30 -381.5q-27 -157 -107.5 -294.5t-201.5 -241.5l109 -168l-250 -174l-119 184q-159 -62 -324 -62zM524 731q-34 -195 67.5 -326
t289.5 -131q53 0 110 13l-133 209q-1 0 61.5 43.5t125.5 86.5l63 44l145 -228q115 125 142 289q34 195 -66.5 325t-288.5 130t-335 -130.5t-181 -324.5z" />
    <glyph glyph-name="W.alt" horiz-adv-x="2048" 
d="M244 1460h317l160 -1079l348 717l-61 362h313l156 -1079l530 1079h313l-757 -1460h-308l-114 674l-348 -674h-299z" />
    <glyph glyph-name="Wacute.alt" horiz-adv-x="2048" 
d="M244 1460h317l160 -1079l348 717l-61 362h313l156 -1079l530 1079h313l-757 -1460h-308l-114 674l-348 -674h-299zM1055 1556l297 414h379l-420 -414h-256z" />
    <glyph glyph-name="Wcircumflex.alt" horiz-adv-x="2048" 
d="M244 1460h317l160 -1079l348 717l-61 362h313l156 -1079l530 1079h313l-757 -1460h-308l-114 674l-348 -674h-299zM1059 1556h-275l344 420h261l196 -420h-274l-88 226z" />
    <glyph glyph-name="Wdieresis.alt" horiz-adv-x="2048" 
d="M244 1460h317l160 -1079l348 717l-61 362h313l156 -1079l530 1079h313l-757 -1460h-308l-114 674l-348 -674h-299zM1430 1591q-72 0 -114 48t-30 120q13 71 71.5 118.5t131.5 47.5t114.5 -47.5t28.5 -118.5q-12 -71 -70.5 -119.5t-131.5 -48.5zM954 1591q-72 0 -113.5 48
t-29.5 120q13 71 71.5 118.5t131.5 47.5t114.5 -47.5t28.5 -118.5q-12 -71 -71 -119.5t-132 -48.5z" />
    <glyph glyph-name="Wgrave.alt" horiz-adv-x="2048" 
d="M244 1460h317l160 -1079l348 717l-61 362h313l156 -1079l530 1079h313l-757 -1460h-308l-114 674l-348 -674h-299zM768 1970h379l153 -414h-256z" />
    <glyph glyph-name="a.alt" horiz-adv-x="1312" 
d="M547 -25q-99 0 -181.5 40t-135.5 113t-74.5 173.5t0.5 222.5q42 236 209.5 393.5t384.5 157.5q90 0 165 -38.5t109 -112.5l20 127h312l-185 -1051h-288l26 147q-68 -86 -170 -129t-192 -43zM469 528q-21 -123 37.5 -200.5t161.5 -77.5q105 0 189.5 76.5t105.5 201.5
q23 122 -35.5 197.5t-163.5 75.5q-102 0 -187 -76.5t-108 -196.5z" />
    <glyph glyph-name="aacute.alt" horiz-adv-x="1312" 
d="M547 -25q-99 0 -181.5 40t-135.5 113t-74.5 173.5t0.5 222.5q42 236 209.5 393.5t384.5 157.5q90 0 165 -38.5t109 -112.5l20 127h312l-185 -1051h-288l26 147q-68 -86 -170 -129t-192 -43zM469 528q-21 -123 37.5 -200.5t161.5 -77.5q105 0 189.5 76.5t105.5 201.5
q23 122 -35.5 197.5t-163.5 75.5q-102 0 -187 -76.5t-108 -196.5zM891 1147h-256l297 414h379z" />
    <glyph glyph-name="abreve.alt" horiz-adv-x="1312" 
d="M547 -25q-99 0 -181.5 40t-135.5 113t-74.5 173.5t0.5 222.5q42 236 209.5 393.5t384.5 157.5q90 0 165 -38.5t109 -112.5l20 127h312l-185 -1051h-288l26 147q-68 -86 -170 -129t-192 -43zM469 528q-21 -123 37.5 -200.5t161.5 -77.5q105 0 189.5 76.5t105.5 201.5
q23 122 -35.5 197.5t-163.5 75.5q-102 0 -187 -76.5t-108 -196.5zM844 1174q-136 0 -214.5 84.5t-51.5 230.5h239q-9 -47 8.5 -75t55.5 -28q37 0 64.5 28t33.5 75h240q-24 -146 -131.5 -230.5t-243.5 -84.5z" />
    <glyph glyph-name="acircumflex.alt" horiz-adv-x="1312" 
d="M547 -25q-99 0 -181.5 40t-135.5 113t-74.5 173.5t0.5 222.5q42 236 209.5 393.5t384.5 157.5q90 0 165 -38.5t109 -112.5l20 127h312l-185 -1051h-288l26 147q-68 -86 -170 -129t-192 -43zM469 528q-21 -123 37.5 -200.5t161.5 -77.5q105 0 189.5 76.5t105.5 201.5
q23 122 -35.5 197.5t-163.5 75.5q-102 0 -187 -76.5t-108 -196.5zM455 1147l344 420h260l196 -420h-274l-88 225l-164 -225h-274z" />
    <glyph glyph-name="adieresis.alt" horiz-adv-x="1312" 
d="M547 -25q-99 0 -181.5 40t-135.5 113t-74.5 173.5t0.5 222.5q42 236 209.5 393.5t384.5 157.5q90 0 165 -38.5t109 -112.5l20 127h312l-185 -1051h-288l26 147q-68 -86 -170 -129t-192 -43zM469 528q-21 -123 37.5 -200.5t161.5 -77.5q105 0 189.5 76.5t105.5 201.5
q23 122 -35.5 197.5t-163.5 75.5q-102 0 -187 -76.5t-108 -196.5zM1065 1182q-72 0 -113.5 48t-29.5 120q13 72 71.5 119t130.5 47q73 0 115 -47.5t29 -118.5q-12 -71 -71 -119.5t-132 -48.5zM590 1182q-72 0 -114 48t-30 120q13 71 71.5 118.5t131.5 47.5t115 -47.5
t29 -118.5q-12 -71 -71 -119.5t-132 -48.5z" />
    <glyph glyph-name="adotbelow.alt" horiz-adv-x="1312" 
d="M547 -25q-99 0 -181.5 40t-135.5 113t-74.5 173.5t0.5 222.5q42 236 209.5 393.5t384.5 157.5q90 0 165 -38.5t109 -112.5l20 127h312l-185 -1051h-288l26 147q-68 -86 -170 -129t-192 -43zM469 528q-21 -123 37.5 -200.5t161.5 -77.5q105 0 189.5 76.5t105.5 201.5
q23 122 -35.5 197.5t-163.5 75.5q-102 0 -187 -76.5t-108 -196.5zM553 -434q-72 0 -113.5 48t-29.5 120q12 71 70.5 119.5t131.5 48.5q72 0 114 -48t30 -120q-12 -71 -71 -119.5t-132 -48.5z" />
    <glyph glyph-name="agrave.alt" horiz-adv-x="1312" 
d="M547 -25q-99 0 -181.5 40t-135.5 113t-74.5 173.5t0.5 222.5q42 236 209.5 393.5t384.5 157.5q90 0 165 -38.5t109 -112.5l20 127h312l-185 -1051h-288l26 147q-68 -86 -170 -129t-192 -43zM469 528q-21 -123 37.5 -200.5t161.5 -77.5q105 0 189.5 76.5t105.5 201.5
q23 122 -35.5 197.5t-163.5 75.5q-102 0 -187 -76.5t-108 -196.5zM684 1147l-276 414h378l154 -414h-256z" />
    <glyph glyph-name="amacron.alt" horiz-adv-x="1312" 
d="M547 -25q-99 0 -181.5 40t-135.5 113t-74.5 173.5t0.5 222.5q42 236 209.5 393.5t384.5 157.5q90 0 165 -38.5t109 -112.5l20 127h312l-185 -1051h-288l26 147q-68 -86 -170 -129t-192 -43zM469 528q-21 -123 37.5 -200.5t161.5 -77.5q105 0 189.5 76.5t105.5 201.5
q23 122 -35.5 197.5t-163.5 75.5q-102 0 -187 -76.5t-108 -196.5zM541 1233l41 235h632l-40 -235h-633z" />
    <glyph glyph-name="aogonek.alt" horiz-adv-x="1312" 
d="M547 -25q-99 0 -181.5 40t-135.5 113t-74.5 173.5t0.5 222.5q42 236 209.5 393.5t384.5 157.5q90 0 165 -38.5t109 -112.5l20 127h312l-185 -1051h-4q-79 -55 -117.5 -94.5t-45.5 -75.5q-6 -34 27 -52.5t91 -25.5l-131 -223q-74 1 -134.5 24.5t-95 73.5t-22.5 117
q23 132 217 256h-73l26 147q-68 -86 -170 -129t-192 -43zM469 528q-21 -123 37.5 -200.5t161.5 -77.5q105 0 189.5 76.5t105.5 201.5q23 122 -35.5 197.5t-163.5 75.5q-102 0 -187 -76.5t-108 -196.5z" />
    <glyph glyph-name="approxequal.onum" horiz-adv-x="1173" 
d="M137 205q24 140 116 228.5t226 88.5q64 0 135 -26t131 -52t99 -26q90 0 121 110l196 -45q-26 -141 -117 -230t-225 -89q-64 0 -134.5 26t-130.5 52t-99 26q-91 0 -119 -108zM213 633q24 139 116.5 227t225.5 88q64 0 135 -26t131 -52t99 -26q50 0 77.5 29t40.5 81
l197 -45q-24 -141 -115 -230t-225 -89q-64 0 -135 26t-131 52t-99 26q-90 0 -118 -106z" />
    <glyph glyph-name="approxequal.onum.tnum" 
d="M217 205q24 140 116 228.5t226 88.5q64 0 135 -26t131 -52t99 -26q50 0 77.5 28.5t42.5 81.5l197 -45q-26 -141 -117 -230t-225 -89q-64 0 -134.5 26t-130.5 52t-99 26q-91 0 -119 -108zM293 633q24 139 116.5 227t225.5 88q64 0 134.5 -26t130.5 -52t99 -26
q91 0 119 110l197 -45q-24 -141 -115 -230t-225 -89q-64 0 -135 26t-131 52t-99 26q-90 0 -118 -106z" />
    <glyph glyph-name="approxequal.tnum" 
d="M252 381q24 140 116 228.5t226 88.5q64 0 134.5 -26t131 -52t98.5 -26q50 0 78 29t43 82l197 -46q-26 -141 -117 -230t-225 -89q-64 0 -135 26t-131 52t-99 26q-90 0 -118 -108zM328 809q24 139 116.5 227t225.5 88q64 0 134.5 -26t131 -52t98.5 -26q91 0 119 110
l197 -45q-24 -141 -115 -230t-225 -89q-64 0 -135 26t-131 52t-99 26q-91 0 -119 -106z" />
    <glyph glyph-name="aring.alt" horiz-adv-x="1312" 
d="M547 -25q-99 0 -181.5 40t-135.5 113t-74.5 173.5t0.5 222.5q42 236 209.5 393.5t384.5 157.5q90 0 165 -38.5t109 -112.5l20 127h312l-185 -1051h-288l26 147q-68 -86 -170 -129t-192 -43zM469 528q-21 -123 37.5 -200.5t161.5 -77.5q105 0 189.5 76.5t105.5 201.5
q23 122 -35.5 197.5t-163.5 75.5q-102 0 -187 -76.5t-108 -196.5zM842 1116q-116 0 -174 69.5t-39 170.5q18 101 99.5 169t197.5 68q113 0 172 -68.5t41 -168.5q-19 -101 -101.5 -170.5t-195.5 -69.5zM811 1356q-6 -30 11.5 -51t49.5 -21q30 0 54 21t30 51q5 30 -12 49.5
t-47 19.5q-32 0 -56.5 -20t-29.5 -49z" />
    <glyph glyph-name="aringacute.alt" horiz-adv-x="1312" 
d="M547 -25q-99 0 -181.5 40t-135.5 113t-74.5 173.5t0.5 222.5q42 236 209.5 393.5t384.5 157.5q90 0 165 -38.5t109 -112.5l20 127h312l-185 -1051h-288l26 147q-68 -86 -170 -129t-192 -43zM469 528q-21 -123 37.5 -200.5t161.5 -77.5q105 0 189.5 76.5t105.5 201.5
q23 122 -35.5 197.5t-163.5 75.5q-102 0 -187 -76.5t-108 -196.5zM842 1116q-116 0 -174 69.5t-39 170.5q18 101 99.5 169t197.5 68q113 0 172 -68.5t41 -168.5q-19 -101 -101.5 -170.5t-195.5 -69.5zM799 1645l245 342h359l-348 -342h-256zM811 1356q-6 -30 11.5 -51
t49.5 -21q30 0 54 21t30 51q5 30 -12 49.5t-47 19.5q-32 0 -56.5 -20t-29.5 -49z" />
    <glyph glyph-name="atilde.alt" horiz-adv-x="1312" 
d="M547 -25q-99 0 -181.5 40t-135.5 113t-74.5 173.5t0.5 222.5q42 236 209.5 393.5t384.5 157.5q90 0 165 -38.5t109 -112.5l20 127h312l-185 -1051h-288l26 147q-68 -86 -170 -129t-192 -43zM469 528q-21 -123 37.5 -200.5t161.5 -77.5q105 0 189.5 76.5t105.5 201.5
q23 122 -35.5 197.5t-163.5 75.5q-102 0 -187 -76.5t-108 -196.5zM631 1169l-197 45q23 131 106 211t199 80q51 0 97 -22.5t81 -45t60 -22.5q68 0 90 98l195 -45q-23 -131 -107 -211.5t-199 -80.5q-40 0 -78 14t-61.5 31t-50.5 31t-47 14q-68 0 -88 -97z" />
    <glyph glyph-name="cent.onum" horiz-adv-x="1091" 
d="M518 12q-195 34 -296 185.5t-66 357.5q37 205 191.5 356t361.5 185l41 237h198l-41 -237q213 -35 305 -230l-237 -182q-61 145 -203 145q-110 0 -194.5 -77.5t-106.5 -196.5q-20 -120 37.5 -197t169.5 -77q132 0 258 129l166 -181q-155 -179 -385 -217l-43 -237h-199z
" />
    <glyph glyph-name="cent.onum.tnum" 
d="M637 12q-195 34 -296.5 186t-66.5 357q37 205 191.5 356t361.5 185l41 237h199l-41 -237q213 -35 305 -230l-237 -182q-61 145 -203 145q-110 0 -194.5 -77.5t-106.5 -196.5q-20 -120 37.5 -197t169.5 -77q132 0 258 129l166 -181q-155 -179 -385 -217l-43 -237h-199z
" />
    <glyph glyph-name="cent.tnum" 
d="M666 182q-195 34 -296.5 186t-66.5 357q37 205 191.5 356t361.5 185l41 237h199l-41 -237q213 -35 305 -230l-238 -182q-61 145 -202 145q-110 0 -195 -77.5t-107 -196.5q-20 -120 37.5 -197t169.5 -77q132 0 258 129l166 -181q-155 -179 -385 -217l-43 -237h-198z" />
    <glyph glyph-name="commaaccent" horiz-adv-x="442" 
d="M-25 -561q62 133 78 237q18 98 8 189h269q0 -123 -28.5 -221.5t-94.5 -204.5h-232z" />
    <glyph glyph-name="currency.onum" horiz-adv-x="1415" 
d="M229 -82l-145 176l250 213q-46 118 -23 252q22 129 109 250l-174 215l207 176l174 -215q130 68 262 68q136 0 239 -70l256 217l146 -176l-256 -217q45 -116 22 -248q-23 -135 -112 -250l180 -215l-207 -176l-180 217q-128 -67 -262 -67q-129 0 -234 65zM604 559
q-15 -88 30 -147t132 -60q96 0 164.5 56.5t81.5 150.5q12 88 -36 144.5t-138 56.5q-88 0 -153.5 -56.5t-80.5 -144.5z" />
    <glyph glyph-name="currency.onum.tnum" 
d="M188 -82l-145 176l250 213q-46 118 -23 252q22 129 109 250l-174 215l207 176l174 -215q130 68 262 68q136 0 239 -70l256 217l146 -176l-256 -217q45 -116 22 -248q-23 -135 -112 -250l180 -215l-207 -176l-180 217q-128 -67 -262 -67q-129 0 -234 65zM563 559
q-15 -88 30 -147t132 -60q96 0 164.5 56.5t81.5 150.5q12 88 -36 144.5t-138 56.5q-88 0 -153.5 -56.5t-80.5 -144.5z" />
    <glyph glyph-name="currency.tnum" 
d="M219 88l-145 176l250 213q-46 118 -23 252q22 129 109 250l-174 215l206 176l174 -215q130 68 263 68q136 0 239 -70l256 217l146 -176l-256 -217q45 -116 22 -248q-23 -135 -112 -250l180 -215l-207 -176l-180 217q-128 -67 -262 -67q-129 0 -234 65zM594 729
q-15 -88 30 -147t132 -60q96 0 164 56.5t81 150.5q12 88 -36 144.5t-138 56.5q-88 0 -153 -56.5t-80 -144.5z" />
    <glyph glyph-name="degree.onum" horiz-adv-x="792" 
d="M475 451q-140 0 -219.5 96t-54.5 235t138 235.5t253 96.5t219.5 -96.5t54.5 -235.5t-138 -235t-253 -96zM416 782q-8 -50 19.5 -83t76.5 -33q51 0 92.5 33.5t48.5 82.5q9 51 -20 85t-80 34q-50 0 -89 -34t-48 -85z" />
    <glyph glyph-name="degree.onum.tnum" 
d="M743 446q-140 0 -219.5 96.5t-54.5 235.5t138 235.5t253 96.5t220 -96.5t55 -235.5t-138.5 -235.5t-253.5 -96.5zM684 778q-8 -50 19.5 -83t76.5 -33q51 0 93 33.5t49 82.5q9 51 -20.5 85t-80.5 34q-50 0 -89 -34t-48 -85z" />
    <glyph glyph-name="degree.tnum" 
d="M811 821q-140 0 -219.5 96.5t-54.5 235.5t138 235.5t253 96.5t219.5 -96.5t54.5 -235.5t-138 -235.5t-253 -96.5zM752 1153q-8 -50 19.5 -83.5t76.5 -33.5q51 0 92.5 34t48.5 83q9 51 -20 85t-80 34q-50 0 -89 -34t-48 -85z" />
    <glyph glyph-name="divide.onum" horiz-adv-x="1077" 
d="M1081 395h-946l47 271h946zM676 784q-72 0 -114 48t-30 120q12 71 71 119.5t132 48.5q74 0 115 -48t29 -120t-70.5 -120t-132.5 -48zM526 -57q-72 0 -113 48t-28 120q12 70 70.5 117.5t130.5 47.5q74 0 115.5 -47.5t29.5 -117.5q-13 -72 -72 -120t-133 -48z" />
    <glyph glyph-name="divide.onum.tnum" 
d="M1208 395h-946l47 271h946zM803 784q-72 0 -114 48t-30 120q12 71 71 119.5t132 48.5q74 0 115 -48t29 -120t-70.5 -120t-132.5 -48zM653 -57q-72 0 -113 48t-28 120q12 70 70.5 117.5t130.5 47.5q74 0 115.5 -47.5t29.5 -117.5q-13 -72 -72 -120t-133 -48z" />
    <glyph glyph-name="divide.tnum" 
d="M1239 571h-946l47 271h946zM834 961q-72 0 -114 47.5t-30 119.5q12 71 71 119.5t132 48.5t114 -48t29 -120t-70 -119.5t-132 -47.5zM684 119q-72 0 -113 48t-28 120q12 70 70 118t130 48q74 0 116 -48t30 -118q-13 -72 -72 -120t-133 -48z" />
    <glyph glyph-name="dollar.onum" horiz-adv-x="987" 
d="M82 221l240 164q33 -70 90.5 -112t136.5 -42q63 0 105 22.5t48 57.5q7 42 -35.5 68.5t-170.5 75.5q-168 66 -234.5 142.5t-44.5 199.5q23 127 130.5 212t260.5 107l41 232h197l-41 -232q98 -19 171 -72.5t103 -130.5l-229 -149q-58 110 -195 110q-55 0 -95 -21t-46 -56
q-5 -31 31 -54t147 -70q18 -7 27 -11q37 -16 59.5 -26.5t53.5 -26t50 -28t41.5 -30t35 -34.5t25 -39t17 -45.5t4.5 -53t-6 -62.5q-22 -123 -131.5 -214t-271.5 -115l-41 -232h-197l41 234q-114 19 -196.5 78t-120.5 153z" />
    <glyph glyph-name="dollar.onum.tnum" 
d="M254 221l240 164q33 -70 90.5 -112t136.5 -42q63 0 105 22.5t48 57.5q7 42 -35.5 68.5t-170.5 75.5q-168 66 -234.5 142.5t-44.5 199.5q23 127 130.5 212t260.5 107l41 232h197l-41 -232q98 -19 171 -72.5t103 -130.5l-229 -149q-58 110 -195 110q-55 0 -95 -21t-46 -56
q-5 -31 31 -54t147 -70q18 -7 27 -11q37 -16 59.5 -26.5t53.5 -26t50 -28t41.5 -30t35 -34.5t25 -39t17 -45.5t4.5 -53t-6 -62.5q-22 -123 -131.5 -214t-271.5 -115l-41 -232h-197l41 234q-114 19 -196.5 78t-120.5 153z" />
    <glyph glyph-name="dollar.tnum" 
d="M180 268l258 183q35 -86 107.5 -138.5t169.5 -52.5q92 0 156 38t75 97q5 34 -3 58.5t-37.5 46.5t-57.5 36.5t-87 41.5q-19 9 -30 14t-29 13t-34 16q-33 16 -55.5 27.5t-52 28t-49.5 30.5t-44 32.5t-39.5 37.5t-31 41.5t-24 47.5t-14.5 53.5t-5 61.5t7 70
q29 163 161 279.5t315 146.5l43 249h200l-43 -247q122 -21 210 -87t130 -173l-262 -175q-69 156 -225 156q-80 0 -141.5 -38t-71.5 -103q-4 -21 -0.5 -38.5t17 -33t26.5 -27.5t40.5 -27t46.5 -24t56 -26t58 -27q43 -20 71.5 -34t65 -34t60 -36.5t51 -40t43.5 -45.5t31.5 -51
t21 -60t6 -69t-7.5 -80q-27 -158 -163.5 -278.5t-338.5 -147.5l-45 -250h-201l45 252q-134 21 -235 95t-144 191z" />
    <glyph glyph-name="dotbelow" horiz-adv-x="493" 
d="M170 -434q-72 0 -113.5 48t-29.5 120q12 71 70.5 119.5t131.5 48.5q72 0 114 -48t30 -120q-12 -71 -71 -119.5t-132 -48.5z" />
    <glyph glyph-name="eight.onum" horiz-adv-x="1191" 
d="M592 -25q-149 0 -257.5 56.5t-157.5 157t-27 225.5q15 82 62.5 152t104 112.5t119.5 66.5q-70 36 -111.5 123t-23.5 191q22 124 104 222t200.5 151t252.5 53q204 0 321.5 -119t84.5 -307q-18 -103 -90 -190.5t-154 -123.5q85 -39 138 -125t32 -206q-34 -191 -202.5 -315
t-395.5 -124zM459 428q-13 -79 37.5 -129.5t142.5 -50.5q93 0 164 50.5t84 129.5q15 83 -36.5 132.5t-145.5 49.5t-162.5 -49.5t-83.5 -132.5zM598 1049q-12 -73 33 -118.5t121 -45.5t137.5 45.5t73.5 118.5q13 73 -32.5 117t-121.5 44t-137 -44t-74 -117z" />
    <glyph glyph-name="eight.onum.tnum" 
d="M662 -25q-226 0 -351.5 124.5t-91.5 314.5q11 62 41 118t71 96.5t85 69.5t90 47q-70 36 -111.5 123t-23.5 191q22 124 104 222t200.5 151t252.5 53q204 0 321 -119t84 -307q-18 -103 -89.5 -190.5t-153.5 -123.5q85 -39 138 -125t32 -206q-34 -191 -202.5 -315
t-395.5 -124zM528 428q-13 -79 37.5 -129.5t143.5 -50.5t163.5 50.5t83.5 129.5q15 83 -36.5 132.5t-145.5 49.5t-162.5 -49.5t-83.5 -132.5zM668 1049q-12 -73 32.5 -118.5t120.5 -45.5t137.5 45.5t73.5 118.5q13 73 -32 117t-121 44t-137 -44t-74 -117z" />
    <glyph glyph-name="eight.tnum" 
d="M659 -25q-149 0 -257.5 56.5t-157.5 157t-27 225.5q11 62 41 118t71 96.5t85 69.5t90 47q-70 36 -111.5 123t-23.5 191q22 124 104 222t200.5 151t252.5 53q204 0 321 -119t84 -307q-18 -103 -90 -190.5t-154 -123.5q85 -39 138 -125t32 -206q-34 -191 -202.5 -315
t-395.5 -124zM526 428q-13 -79 37.5 -129.5t143.5 -50.5t163.5 50.5t83.5 129.5q15 83 -36.5 132.5t-145.5 49.5t-162.5 -49.5t-83.5 -132.5zM666 1049q-12 -73 32.5 -118.5t120.5 -45.5t137.5 45.5t73.5 118.5q13 73 -32 117t-121 44t-137 -44t-74 -117z" />
    <glyph glyph-name="equal.onum" horiz-adv-x="1130" 
d="M270 915h914l-47 -270h-914zM193 469h913l-49 -270h-914z" />
    <glyph glyph-name="equal.onum.tnum" 
d="M371 915h913l-47 -270h-913zM293 469h913l-49 -270h-913z" />
    <glyph glyph-name="equal.tnum" 
d="M401 1092h914l-47 -271h-914zM324 645h913l-49 -270h-914z" />
    <glyph glyph-name="f_f_t" horiz-adv-x="2111" 
d="M193 805l43 246h145l10 53q31 174 156.5 277.5t312.5 103.5q103 0 156 -33l-45 -254q-44 23 -101 23q-67 0 -112.5 -30.5t-55.5 -92.5l-10 -47h357l10 53q31 174 156.5 277.5t312.5 103.5q102 0 155 -33l-45 -254q-44 23 -100 23q-67 0 -112.5 -30.5t-55.5 -92.5l-10 -47
h346l51 284h301l-51 -284h236l-43 -246h-236l-72 -414q-13 -70 16 -104.5t91 -34.5q78 0 139 37l-47 -269q-95 -45 -227 -45q-167 0 -245.5 96.5t-47.5 270.5l82 463h-336l-141 -805h-312l142 805h-357l-141 -805h-311l141 805h-145z" />
    <glyph glyph-name="five.onum" horiz-adv-x="1130" 
d="M16 -74l271 172q33 -82 91.5 -131t143.5 -49q105 0 177 57.5t87 151.5q18 97 -36 159t-162 62q-141 0 -242 -78l-174 78l201 760h803l-52 -287h-534l-64 -239q58 24 168 24q228 0 339 -126.5t73 -342.5q-39 -225 -209.5 -369.5t-413.5 -144.5q-172 0 -293.5 80.5
t-173.5 222.5z" />
    <glyph glyph-name="five.onum.tnum" 
d="M115 -74l270 172q33 -82 92 -131t144 -49q105 0 177 57.5t87 151.5q18 97 -36 159t-163 62q-141 0 -242 -78l-174 78l201 760h803l-51 -287h-535l-63 -239q58 24 168 24q227 0 338 -126t73 -343q-39 -225 -209 -369.5t-413 -144.5q-172 0 -293.5 80.5t-173.5 222.5z" />
    <glyph glyph-name="five.tnum" 
d="M178 279l271 172q73 -181 235 -181q105 0 177 57.5t87 151.5q18 97 -36 159t-162 62q-142 0 -242 -77l-174 77l201 760h802l-51 -286h-534l-64 -240q58 24 168 24q228 0 339 -126.5t73 -342.5q-39 -225 -209.5 -369.5t-413.5 -144.5q-171 0 -293 80.5t-174 223.5z" />
    <glyph glyph-name="florin.onum" horiz-adv-x="1071" 
d="M-25 -258l48 264q68 -29 135 -29q85 0 136.5 39t74.5 127l123 463h-164l43 246h184l43 156q47 186 188.5 290.5t341.5 104.5q89 0 156 -31l-45 -262q-13 9 -51 19t-78 10q-175 0 -219 -166l-35 -121h193l-43 -246h-211l-133 -497q-49 -188 -187 -293t-330 -105
q-106 0 -170 31z" />
    <glyph glyph-name="florin.onum.tnum" 
d="M104 -258l48 264q68 -29 135 -29q85 0 136.5 39t74.5 127l123 463h-164l43 246h184l43 156q47 186 188.5 290.5t341.5 104.5q89 0 156 -31l-45 -262q-13 9 -51 19t-78 10q-175 0 -219 -166l-35 -121h193l-43 -246h-211l-133 -497q-49 -188 -187 -293t-330 -105
q-106 0 -170 31z" />
    <glyph glyph-name="florin.tnum" 
d="M123 -176l47 264q68 -29 135 -29q85 0 136.5 39t74.5 127l123 463h-164l43 246h184l43 156q47 186 189 290.5t342 104.5q89 0 156 -31l-46 -262q-13 9 -51 19t-78 10q-175 0 -219 -166l-34 -121h192l-43 -246h-211l-133 -498q-49 -188 -186.5 -292.5t-329.5 -104.5
q-106 0 -170 31z" />
    <glyph glyph-name="foundryicon" horiz-adv-x="2088" 
d="M1573 487l61 349h66l4 -23l8 6q23 23 64 23q47 0 68.5 -35.5t10.5 -93.5q-11 -60 -49.5 -96.5t-93.5 -36.5q-24 0 -41 10l-18 -103h-80zM655 487h-82l62 349h65l5 -23l10 6q13 13 26 17q15 6 33 6q19 0 37 -6q64 -25 45 -123q-9 -51 -37.5 -84.5t-70.5 -44.5
q-24 -4 -35 -4t-27 4l-12 6zM958 584q-40 10 -57 43t-8 80q11 62 50 98.5t99 36.5q25 0 43 -6q40 -12 56.5 -44.5t7.5 -78.5q-11 -61 -52 -97t-102 -36q-13 0 -37 4zM1282 489l21 60q1 0 7.5 -1.5t17 -3t20.5 -1.5q31 0 41 30l-3 27l-49 236h90l21 -172h2l72 172h88
l-125 -256q-41 -74 -86 -93q-27 -10 -58 -10q-23 0 -53 10q-1 0 -3 1t-3 1zM1997 580q-60 0 -89 35t-18 92q11 62 51.5 98.5t100.5 36.5q46 0 69 -27.5t15 -69.5q-5 -26 -17 -51h-139q-3 -49 47 -49q30 0 72 14l6 -59q-40 -20 -98 -20zM250 885l12 71h295l-12 -71h-113
l-53 -301h-80l53 301h-102zM1229 885h-103l13 71h284l-12 -71h-102l-54 -301h-79zM444 584l45 252h82l-45 -252h-82zM975 713q-14 -76 33 -76q43 0 57 72q14 75 -31 75q-44 0 -59 -71zM1702 766l-21 -117q16 -8 31 -8q23 0 39 19t21 49q13 69 -35 69q-19 0 -35 -12zM684 649
q8 -8 29 -8q24 0 39 18.5t20 49.5q13 69 -33 69q-22 0 -34 -12zM2028 784q-37 0 -52 -47h70q9 20 4 33.5t-22 13.5z" />
    <glyph glyph-name="four.alt" horiz-adv-x="1200" 
d="M80 338l37 205l690 917h313l-622 -848h307l61 367h295l-63 -358h182l-49 -283h-182l-60 -338h-299l60 338h-670z" />
    <glyph glyph-name="four.onum" horiz-adv-x="1206" 
d="M20 -8l35 205l748 911h383l-148 -834h183l-50 -282h-182l-61 -344h-299l61 344h-670zM827 748l-391 -482h307z" />
    <glyph glyph-name="four.onum.alt" horiz-adv-x="1191" 
d="M18 -14l37 204l690 918h314l-623 -848h307l62 367h295l-64 -359h183l-50 -282h-182l-59 -338h-299l59 338h-670z" />
    <glyph glyph-name="four.onum.tnum" 
d="M82 -8l35 205l747 911h383l-147 -834h182l-49 -282h-182l-62 -344h-299l62 344h-670zM889 748l-391 -482h307z" />
    <glyph glyph-name="four.tnum" 
d="M131 344l35 205l747 911h383l-147 -833h182l-49 -283h-182l-62 -344h-299l62 344h-670zM938 1100l-391 -482h307z" />
    <glyph glyph-name="ft" horiz-adv-x="1443" 
d="M338 805h-145l43 246h145l10 53q31 174 156.5 277.5t312.5 103.5q103 0 156 -33l-45 -254q-44 23 -101 23q-67 0 -112.5 -30.5t-55.5 -92.5l-10 -47h346l52 284h301l-52 -284h236l-43 -246h-236l-71 -414q-13 -70 15.5 -104.5t90.5 -34.5q78 0 139 37l-47 -269
q-95 -45 -227 -45q-167 0 -245.5 96.5t-47.5 270.5l82 463h-336l-141 -805h-311z" />
    <glyph glyph-name="g.alt" horiz-adv-x="1310" 
d="M63 -207l234 184q92 -143 272 -143q130 0 221.5 75.5t114.5 203.5l6 41q-49 -70 -139 -117t-186 -47q-106 0 -195 40.5t-147.5 110.5t-82.5 172t-3 219q40 233 207.5 388t384.5 155q90 0 165 -38.5t109 -112.5l20 127h312l-168 -959q-40 -230 -223.5 -378t-436.5 -148
q-317 0 -465 227zM471 535q-21 -119 38 -195t161 -76q105 0 189.5 75t105.5 196q21 120 -37 193t-164 73q-103 0 -187.5 -74t-105.5 -192z" />
    <glyph glyph-name="gbreve.alt" horiz-adv-x="1310" 
d="M528 -434q-317 0 -465 227l234 184q92 -143 272 -143q130 0 221.5 75.5t114.5 203.5l6 41q-49 -70 -139 -117t-186 -47q-106 0 -195 40.5t-147.5 110.5t-82.5 172t-3 219q40 233 207.5 388t384.5 155q90 0 165 -38.5t109 -112.5l20 127h312l-168 -959
q-40 -230 -223.5 -378t-436.5 -148zM471 535q-21 -119 38 -195t161 -76q105 0 189.5 75t105.5 196q21 120 -37 193t-164 73q-103 0 -187.5 -74t-105.5 -192zM838 1174q-65 0 -119.5 21t-92.5 60t-53 99.5t-2 134.5h240q-9 -47 8 -75t55 -28q37 0 65 28t34 75h239
q-24 -146 -131 -230.5t-243 -84.5z" />
    <glyph glyph-name="gcaron.alt" horiz-adv-x="1310" 
d="M63 -207l234 184q92 -143 272 -143q130 0 221.5 75.5t114.5 203.5l6 41q-49 -70 -139 -117t-186 -47q-106 0 -195 40.5t-147.5 110.5t-82.5 172t-3 219q40 233 207.5 388t384.5 155q90 0 165 -38.5t109 -112.5l20 127h312l-168 -959q-40 -230 -223.5 -378t-436.5 -148
q-317 0 -465 227zM471 535q-21 -119 38 -195t161 -76q105 0 189.5 75t105.5 196q21 120 -37 193t-164 73q-103 0 -187.5 -74t-105.5 -192zM700 1147l-196 420h274l86 -224l166 224h275l-344 -420h-261z" />
    <glyph glyph-name="gcircumflex.alt" horiz-adv-x="1310" 
d="M528 -434q-317 0 -465 227l234 184q92 -143 272 -143q130 0 221.5 75.5t114.5 203.5l6 41q-49 -70 -139 -117t-186 -47q-106 0 -195 40.5t-147.5 110.5t-82.5 172t-3 219q40 233 207.5 388t384.5 155q90 0 165 -38.5t109 -112.5l20 127h312l-168 -959
q-40 -230 -223.5 -378t-436.5 -148zM471 535q-21 -119 38 -195t161 -76q105 0 189.5 75t105.5 196q21 120 -37 193t-164 73q-103 0 -187.5 -74t-105.5 -192zM725 1147h-274l344 420h260l196 -420h-274l-88 225z" />
    <glyph glyph-name="gcommaaccent.alt" horiz-adv-x="1310" 
d="M528 -434q-317 0 -465 227l234 184q92 -143 272 -143q130 0 221.5 75.5t114.5 203.5l6 41q-49 -70 -139 -117t-186 -47q-106 0 -195 40.5t-147.5 110.5t-82.5 172t-3 219q40 233 207.5 388t384.5 155q90 0 165 -38.5t109 -112.5l20 127h312l-168 -959
q-40 -230 -223.5 -378t-436.5 -148zM471 535q-21 -119 38 -195t161 -76q105 0 189.5 75t105.5 196q21 120 -37 193t-164 73q-103 0 -187.5 -74t-105.5 -192zM688 1171q0 124 29 223t96 203h231q-59 -127 -79 -237q-18 -102 -9 -189h-268z" />
    <glyph glyph-name="gdotaccent.alt" horiz-adv-x="1310" 
d="M63 -207l234 184q92 -143 272 -143q130 0 221.5 75.5t114.5 203.5l6 41q-49 -70 -139 -117t-186 -47q-106 0 -195 40.5t-147.5 110.5t-82.5 172t-3 219q40 233 207.5 388t384.5 155q90 0 165 -38.5t109 -112.5l20 127h312l-168 -959q-40 -230 -223.5 -378t-436.5 -148
q-317 0 -465 227zM471 535q-21 -119 38 -195t161 -76q105 0 189.5 75t105.5 196q21 120 -37 193t-164 73q-103 0 -187.5 -74t-105.5 -192zM852 1182q-72 0 -113.5 48t-29.5 120q13 72 71.5 119t130.5 47q73 0 115 -47.5t29 -118.5q-12 -71 -71 -119.5t-132 -48.5z" />
    <glyph glyph-name="greater.onum" horiz-adv-x="1046" 
d="M1090 426l-1006 -416l51 289l615 250l-527 248l51 288l859 -413z" />
    <glyph glyph-name="greater.onum.tnum" 
d="M1231 426l-1006 -416l51 289l617 250l-528 248l51 288l858 -413z" />
    <glyph glyph-name="greater.tnum" 
d="M1280 604l-1006 -416l52 289l614 250l-528 248l51 289l860 -414z" />
    <glyph glyph-name="greaterequal.onum" horiz-adv-x="1095" 
d="M115 123h942l-45 -256h-942zM317 1243l857 -414l-37 -217l-1004 -415l49 274l613 250l-527 248z" />
    <glyph glyph-name="greaterequal.onum.tnum" 
d="M233 123h943l-46 -256h-942zM436 1243l856 -414l-37 -217l-1003 -415l49 274l612 250l-526 248z" />
    <glyph glyph-name="greaterequal.tnum" 
d="M258 299h942l-45 -256h-942zM461 1419l858 -413l-39 -218l-1004 -415l50 274l612 250l-524 248z" />
    <glyph glyph-name="i.TRK" horiz-adv-x="593" 
d="M453 0h-312l185 1051h311zM502 1182q-72 0 -114 48t-30 120q13 71 71.5 118.5t131.5 47.5t115 -47.5t29 -118.5q-12 -71 -71 -119.5t-132 -48.5z" />
    <glyph glyph-name="ijacute" horiz-adv-x="1167" 
d="M575 -434q-102 0 -155 26l45 258q44 -16 98 -16q60 0 102.5 33t55.5 104l188 1080h312l-193 -1100q-15 -84 -48 -150.5t-76.5 -110t-98.5 -72t-111.5 -40.5t-118.5 -12zM453 0h-312l185 1051h311zM954 1147l297 414h379l-420 -414h-256zM627 1147h-256l297 414h379z" />
    <glyph glyph-name="k.alt" horiz-adv-x="1159" 
d="M141 0l258 1460h312l-258 -1460h-312zM571 526l412 525h334l-397 -506l274 -545h-360z" />
    <glyph glyph-name="kcommaaccent.alt" horiz-adv-x="1159" 
d="M141 0l258 1460h312l-258 -1460h-312zM571 526l412 525h334l-397 -506l274 -545h-360zM586 -561h-232q62 133 78 237q18 98 8 189h269q0 -123 -28.5 -221.5t-94.5 -204.5z" />
    <glyph glyph-name="l.alt" horiz-adv-x="593" 
d="M141 0l258 1460h312l-258 -1460h-312z" />
    <glyph glyph-name="lacute.alt" horiz-adv-x="641" 
d="M141 0l258 1460h312l-258 -1460h-312zM434 1556l297 414h379l-420 -414h-256z" />
    <glyph glyph-name="lcaron.alt" horiz-adv-x="704" 
d="M141 0l258 1460h312l-258 -1460h-312zM971 1032h-232q61 133 78 238q17 96 10 188h269q-5 -135 -30.5 -228t-94.5 -198z" />
    <glyph glyph-name="lcommaaccent.alt" horiz-adv-x="585" 
d="M453 0h-312l258 1460h312zM51 -561q62 133 78 237q18 98 8 189h269q0 -123 -28.5 -221.5t-94.5 -204.5h-232z" />
    <glyph glyph-name="ldot.alt" horiz-adv-x="925" 
d="M453 0h-312l258 1460h312zM784 479q-72 0 -113 48t-28 120q12 72 70.5 120t130.5 48t114.5 -48t30.5 -120q-13 -71 -72.5 -119.5t-132.5 -48.5z" />
    <glyph glyph-name="less.onum" horiz-adv-x="1046" 
d="M152 676l1005 416l-51 -289l-614 -250l526 -248l-51 -289l-858 414z" />
    <glyph glyph-name="less.onum.tnum" 
d="M295 676l1005 416l-51 -289l-616 -250l528 -248l-51 -289l-858 414z" />
    <glyph glyph-name="less.tnum" 
d="M309 852l1006 416l-51 -289l-617 -250l529 -248l-52 -288l-858 413z" />
    <glyph glyph-name="lessequal.onum" horiz-adv-x="1095" 
d="M84 123h942l-45 -256h-942zM213 829l1004 414l-50 -274l-612 -248l526 -250l-49 -274l-856 415z" />
    <glyph glyph-name="lessequal.onum.tnum" 
d="M201 123h942l-45 -256h-942zM330 829l1003 414l-49 -274l-612 -248l526 -250l-49 -274l-856 415z" />
    <glyph glyph-name="lessequal.tnum" 
d="M238 299h942l-45 -256h-942zM369 1006l1001 413l-47 -274l-614 -248l526 -250l-49 -274l-856 415z" />
    <glyph glyph-name="logicalnot.onum" horiz-adv-x="1198" 
d="M178 420l49 270h977l-94 -534h-272l45 264h-705z" />
    <glyph glyph-name="logicalnot.onum.tnum" 
d="M246 420l49 270h977l-94 -534h-273l45 264h-704z" />
    <glyph glyph-name="logicalnot.tnum" 
d="M274 596l50 270h976l-94 -534h-272l45 264h-705z" />
    <glyph glyph-name="lslash.alt" horiz-adv-x="718" 
d="M680 969l139 73l62 -147l-236 -123l-137 -772h-311l104 594l-125 -66l-61 148l221 115l119 669h311z" />
    <glyph glyph-name="minus.onum" horiz-adv-x="1116" 
d="M231 690h899l-49 -270h-899z" />
    <glyph glyph-name="minus.onum.tnum" 
d="M338 690h899l-49 -270h-899z" />
    <glyph glyph-name="minus.tnum" 
d="M371 866h899l-49 -270h-899z" />
    <glyph glyph-name="mu.onum" horiz-adv-x="1300" 
d="M381 -408h-309l139 793q0 7 4 27l113 639h311l-104 -592q-18 -100 22.5 -154.5t128.5 -54.5q97 0 164.5 73t85.5 181l98 547h312l-187 -1051h-299l25 135q-129 -160 -340 -160q-51 0 -94 9z" />
    <glyph glyph-name="mu.onum.tnum" 
d="M395 -408h-309l139 793q0 7 4 27l113 639h311l-104 -592q-18 -100 22.5 -154.5t128.5 -54.5q97 0 164.5 73t85.5 181l99 547h311l-186 -1051h-300l25 135q-129 -160 -340 -160q-51 0 -94 9z" />
    <glyph glyph-name="mu.tnum" 
d="M395 -408h-309l135 768q5 37 8 52l113 639h311l-104 -592q-18 -100 22.5 -154.5t128.5 -54.5q97 0 164.5 73t85.5 181l99 547h311l-186 -1051h-300l25 135q-129 -160 -340 -160q-51 0 -94 9z" />
    <glyph glyph-name="multiply.onum" horiz-adv-x="1097" 
d="M680 745l350 297l158 -190l-352 -297l245 -297l-223 -190l-244 299l-352 -299l-156 190l351 297l-244 297l221 190z" />
    <glyph glyph-name="multiply.onum.tnum" 
d="M795 745l350 297l158 -190l-353 -297l246 -297l-223 -190l-244 299l-352 -299l-156 190l350 297l-243 297l221 190z" />
    <glyph glyph-name="multiply.tnum" 
d="M827 922l351 297l157 -191l-352 -297l246 -297l-223 -190l-244 299l-352 -299l-156 190l350 297l-244 297l222 191z" />
    <glyph glyph-name="nine.onum" horiz-adv-x="1126" 
d="M518 156q-200 0 -307 136t-70 341q37 212 213 356t400 144q109 0 199.5 -40t148.5 -108t82 -161.5t6 -198.5q-19 -105 -71.5 -195.5t-145.5 -200.5l-490 -581h-358l436 512q-12 -4 -43 -4zM442 637q-17 -96 35 -158.5t148 -62.5q98 0 171.5 61.5t90.5 157.5
q17 99 -34 161t-148 62q-99 0 -172.5 -61.5t-90.5 -159.5z" />
    <glyph glyph-name="nine.onum.tnum" 
d="M621 156q-200 0 -307 136t-72 341q24 140 112.5 254.5t220.5 180t279 65.5q146 0 255 -67.5t157.5 -184t23.5 -256.5q-19 -105 -71.5 -195.5t-145.5 -200.5l-489 -581h-359l437 512q-12 -4 -41 -4zM543 637q-17 -96 34.5 -158.5t147.5 -62.5q98 0 171.5 61.5t90.5 157.5
q19 99 -32.5 161t-149.5 62t-170.5 -61.5t-91.5 -159.5z" />
    <glyph glyph-name="nine.tnum" 
d="M676 508q-200 0 -307 136t-72 341q25 140 113.5 254.5t220 180t278.5 65.5q146 0 255.5 -67.5t158.5 -184t25 -256.5q-19 -105 -71.5 -194.5t-146.5 -200.5l-489 -582h-358l436 512q-16 -4 -43 -4zM600 989q-17 -96 34.5 -158.5t147.5 -62.5q98 0 171.5 61.5t90.5 157.5
q17 99 -34 161t-148 62q-98 0 -171.5 -61.5t-90.5 -159.5z" />
    <glyph glyph-name="notequal.onum" horiz-adv-x="1064" 
d="M113 201l49 268h327l129 176h-425l47 268h573l195 267l108 -68l-145 -199h180l-47 -268h-330l-129 -176h428l-49 -268h-573l-197 -269l-107 68l146 201h-180z" />
    <glyph glyph-name="notequal.onum.tnum" 
d="M244 201l49 268h328l129 176h-426l47 268h573l195 267l108 -68l-145 -199h180l-47 -268h-330l-129 -176h428l-49 -268h-573l-197 -269l-106 68l145 201h-180z" />
    <glyph glyph-name="notequal.tnum" 
d="M276 377l50 268h327l129 176h-426l47 269h574l194 266l109 -68l-145 -198h180l-47 -269h-330l-129 -176h428l-49 -268h-574l-196 -268l-107 67l146 201h-181z" />
    <glyph glyph-name="numbersign.onum" horiz-adv-x="1439" 
d="M72 227l84 238h274l64 178h-279l86 238h277l127 362h256l-127 -362h194l127 362h256l-127 -362h279l-84 -238h-279l-63 -178h280l-82 -238h-280l-129 -364h-256l129 364h-195l-127 -364h-258l129 364h-276zM750 643l-62 -178h193l63 178h-194z" />
    <glyph glyph-name="numbersign.onum.tnum" 
d="M18 227l86 238h275l63 178h-278l84 238h278l127 362h256l-127 -362h195l127 362h256l-127 -362h276l-82 -238h-278l-64 -178h281l-84 -238h-278l-130 -364h-256l130 364h-195l-127 -364h-258l129 364h-279zM698 643l-61 -178h192l64 178h-195z" />
    <glyph glyph-name="numbersign.tnum" 
d="M57 397l86 238h275l63 178h-278l84 238h278l127 362h256l-127 -362h195l127 362h256l-127 -362h276l-82 -238h-278l-64 -178h281l-84 -238h-279l-129 -364h-256l129 364h-194l-127 -364h-258l129 364h-279zM737 813l-61 -178h192l64 178h-195z" />
    <glyph glyph-name="one.alt" horiz-adv-x="946" 
d="M578 1176h-318l51 284h633l-258 -1460h-315z" />
    <glyph glyph-name="one.onum" horiz-adv-x="1056" 
d="M96 0l51 291h320l76 428q-117 -91 -355 -96l50 284q276 11 452 199h236l-144 -815h312l-52 -291h-946z" />
    <glyph glyph-name="one.onum.alt" horiz-adv-x="808" 
d="M209 823l49 283h604l-194 -1106h-316l146 823h-289z" />
    <glyph glyph-name="one.onum.tnum" 
d="M231 0l52 291h319l76 428q-117 -91 -354 -96l49 284q276 11 452 199h236l-143 -815h311l-51 -291h-947z" />
    <glyph glyph-name="one.tnum" 
d="M236 0l51 291h319l137 782q-120 -93 -356 -96l51 285q278 11 455 198h235l-206 -1169h311l-51 -291h-946z" />
    <glyph glyph-name="onehalf.onum" horiz-adv-x="1705" 
d="M1632 -170h-602q7 164 61 246.5t207 167.5q19 10 58 30.5t55 30t38.5 25t32.5 30t13 31.5q6 32 -12.5 49t-57.5 17q-85 0 -159 -95l-140 121q56 79 149.5 130t192.5 51q129 0 200 -72.5t50 -190.5q-9 -52 -33.5 -95t-65 -77t-73.5 -55t-84 -49q-19 -11 -51.5 -27.5
t-48.5 -25.5t-32 -21t-21 -22h358zM721 481h-565l37 205h174l57 334q-71 -31 -188 -31l34 199q161 3 260 102h162l-106 -604h172zM420 -170h-193l1325 1460h193z" />
    <glyph glyph-name="onequarter.onum" horiz-adv-x="1570" 
d="M842 -6l24 137l447 508h217l-84 -469h102l-30 -178h-103l-29 -162h-206l28 164h-366zM721 481h-565l37 205h174l57 334q-71 -31 -188 -31l34 199q161 3 260 102h162l-106 -604h172zM211 -170l1325 1460h193l-1326 -1460h-192zM1110 168h141l35 201z" />
    <glyph glyph-name="onethird.onum" horiz-adv-x="1732" 
d="M1042 -14l185 116q12 -41 43.5 -69.5t85.5 -28.5q42 0 76.5 24t40.5 60q9 47 -21 69.5t-86 22.5q-61 0 -119 -8l21 123l176 145h-268l34 199h557l-26 -145l-215 -168q92 -18 138.5 -82t29.5 -158q-23 -127 -127 -204t-240 -77q-106 0 -180 50t-105 131zM156 481l37 205
h174l57 334q-71 -31 -188 -31l34 199q161 3 260 102h162l-106 -604h172l-37 -205h-565zM211 -170l1325 1460h193l-1326 -1460h-192z" />
    <glyph glyph-name="ordfeminine.onum" horiz-adv-x="790" 
d="M403 477q-93 0 -138.5 48.5t-31.5 125.5q12 68 70.5 116t157.5 71l162 36v3q5 25 -14.5 39t-57.5 14q-96 0 -199 -72l-53 158q40 34 121.5 66t173.5 32q123 0 185.5 -61.5t45.5 -159.5l-69 -397h-191l10 63q-27 -35 -73 -58.5t-99 -23.5zM725 186h-598l37 205h598z
M434 680q-3 -20 8.5 -29.5t32.5 -9.5q41 0 78.5 32t44.5 75l2 4l-106 -27q-55 -14 -60 -45z" />
    <glyph glyph-name="ordfeminine.onum.tnum" 
d="M674 473q-93 0 -138.5 48.5t-31.5 125.5q24 139 227 187l162 36v2q5 25 -14.5 39.5t-57.5 14.5q-95 0 -198 -72l-54 158q40 34 121.5 66t173.5 32q123 0 186 -61.5t46 -159.5l-70 -397h-190l10 63q-27 -35 -73 -58.5t-99 -23.5zM995 182h-598l37 205h598zM705 676
q-3 -20 8.5 -29.5t31.5 -9.5q41 0 78.5 31.5t44.5 74.5l2 5l-106 -27q-54 -14 -59 -45z" />
    <glyph glyph-name="ordfeminine.tnum" 
d="M737 848q-93 0 -138.5 48.5t-31.5 125.5q24 138 228 186l161 37v2q5 25 -14 39t-57 14q-97 0 -199 -71l-53 157q40 35 121.5 67t173.5 32q123 0 185.5 -61.5t45.5 -159.5l-69 -398h-191l10 64q-27 -35 -73 -58.5t-99 -23.5zM1059 557h-598l37 205h598zM768 1051
q-3 -20 8.5 -29.5t32.5 -9.5q41 0 78.5 31.5t44.5 74.5l2 4l-107 -26q-54 -14 -59 -45z" />
    <glyph glyph-name="ordmasculine.onum" horiz-adv-x="849" 
d="M510 477q-137 0 -217 93t-57 225q25 133 137.5 226t249.5 93q136 0 215.5 -93t54.5 -226q-23 -132 -135.5 -225t-247.5 -93zM762 188h-608l36 205h609zM449 795q-7 -47 21.5 -80t76.5 -33q46 0 86 33t47 80q9 49 -19 82.5t-75 33.5q-48 0 -88 -33.5t-49 -82.5z" />
    <glyph glyph-name="ordmasculine.onum.tnum" 
d="M750 473q-137 0 -217.5 93t-57.5 225q25 133 137.5 226t249.5 93q136 0 216 -93t55 -226q-23 -132 -135.5 -225t-247.5 -93zM1001 184h-608l37 205h608zM688 791q-7 -47 21.5 -80t76.5 -33q46 0 86.5 33t47.5 80q9 49 -19.5 82.5t-75.5 33.5q-48 0 -88 -33.5t-49 -82.5z
" />
    <glyph glyph-name="ordmasculine.tnum" 
d="M817 848q-137 0 -217 92.5t-57 224.5q25 133 137.5 226.5t249.5 93.5q136 0 215.5 -93.5t54.5 -226.5q-23 -132 -135.5 -224.5t-247.5 -92.5zM1069 559h-608l37 205h608zM756 1165q-7 -47 21.5 -79.5t76.5 -32.5q46 0 86 32.5t47 79.5q9 49 -19.5 83t-74.5 34
q-48 0 -88 -34t-49 -83z" />
    <glyph glyph-name="percent.onum" horiz-adv-x="1576" 
d="M496 604q-148 0 -232.5 99t-58.5 247q26 147 146 247.5t267 100.5q146 0 230.5 -100.5t58.5 -247.5q-26 -148 -145.5 -247t-265.5 -99zM1155 -195q-147 0 -232 99.5t-59 247.5q26 147 146.5 247.5t267.5 100.5q146 0 230.5 -100.5t58.5 -247.5q-26 -148 -146 -247.5
t-266 -99.5zM133 -170l1325 1460h193l-1325 -1460h-193zM1075 152q-11 -61 22 -100.5t95 -39.5q61 0 106 39.5t56 100.5q10 63 -20.5 101t-92.5 38q-63 0 -109.5 -38t-56.5 -101zM416 950q-11 -61 21.5 -100t94.5 -39q61 0 106 39.5t56 99.5q11 63 -20 101.5t-92 38.5
q-63 0 -109.5 -38.5t-56.5 -101.5z" />
    <glyph glyph-name="perthousand.onum" horiz-adv-x="2351" 
d="M1155 -195q-147 0 -232 99.5t-59 247.5q26 147 146.5 247.5t267.5 100.5q146 0 230.5 -100.5t58.5 -247.5q-26 -148 -146 -247.5t-266 -99.5zM496 604q-148 0 -232.5 99t-58.5 247q26 147 146 247.5t267 100.5q146 0 230.5 -100.5t58.5 -247.5q-26 -148 -145.5 -247
t-265.5 -99zM1937 -195q-146 0 -230 99.5t-58 247.5q26 147 145.5 247.5t265.5 100.5q147 0 231 -100.5t58 -247.5q-26 -148 -145.5 -247.5t-266.5 -99.5zM133 -170l1325 1460h193l-1325 -1460h-193zM1860 152q-11 -61 21 -100.5t93 -39.5q62 0 107.5 39.5t56.5 100.5
q11 63 -20.5 101t-94.5 38q-62 0 -107.5 -38t-55.5 -101zM1075 152q-11 -61 22 -100.5t95 -39.5q61 0 106 39.5t56 100.5q10 63 -20.5 101t-92.5 38q-63 0 -109.5 -38t-56.5 -101zM416 950q-11 -61 21.5 -100t94.5 -39q61 0 106 39.5t56 99.5q11 63 -20 101.5t-92 38.5
q-63 0 -109.5 -38.5t-56.5 -101.5z" />
    <glyph glyph-name="pi.onum" horiz-adv-x="1339" 
d="M156 786l45 265h1306l-45 -265h-188l-139 -786h-304l140 786h-324l-139 -786h-303l139 786h-188z" />
    <glyph glyph-name="pi.onum.tnum" 
d="M154 786l45 265h1306l-45 -265h-188l-139 -786h-304l140 786h-324l-139 -786h-303l139 786h-188z" />
    <glyph glyph-name="pi.tnum" 
d="M154 786l45 265h1306l-45 -265h-188l-139 -786h-304l140 786h-324l-139 -786h-303l139 786h-188z" />
    <glyph glyph-name="plus.onum" horiz-adv-x="1122" 
d="M111 420l49 270h389l67 389h273l-68 -389h387l-49 -270h-387l-67 -387h-273l68 387h-389z" />
    <glyph glyph-name="plus.onum.tnum" 
d="M215 420l49 270h389l68 389h272l-67 -389h387l-49 -270h-387l-68 -387h-272l67 387h-389z" />
    <glyph glyph-name="plus.tnum" 
d="M246 596l49 270h389l68 389h272l-68 -389h387l-49 -270h-387l-67 -387h-273l68 387h-389z" />
    <glyph glyph-name="plusminus.onum" horiz-adv-x="1144" 
d="M199 612l47 271h346l59 331h273l-60 -331h346l-47 -271h-346l-59 -331h-273l60 331h-346zM1042 -109h-976l47 271h977z" />
    <glyph glyph-name="plusminus.onum.tnum" 
d="M291 612l47 271h346l59 331h273l-60 -331h347l-48 -271h-346l-59 -331h-272l59 331h-346zM1135 -109h-977l47 271h977z" />
    <glyph glyph-name="plusminus.tnum" 
d="M324 788l47 271h346l59 332h273l-60 -332h346l-47 -271h-346l-59 -331h-273l60 331h-346zM1167 68h-977l48 270h976z" />
    <glyph glyph-name="seven.alt" horiz-adv-x="1017" 
d="M543 0h-328q59 292 214.5 578.5t420.5 590.5h-625l51 291h992l-43 -235q-561 -610 -682 -1225z" />
    <glyph glyph-name="seven.onum" horiz-adv-x="1003" 
d="M-4 -352l776 1169h-608l51 291h977l-43 -236l-821 -1224h-332z" />
    <glyph glyph-name="seven.onum.alt" horiz-adv-x="1001" 
d="M469 -352h-328q59 292 214.5 578.5t420.5 590.5h-624l51 291h991l-43 -236q-562 -610 -682 -1224z" />
    <glyph glyph-name="seven.onum.tnum" 
d="M160 -352l776 1169h-608l51 291h977l-43 -236l-821 -1224h-332z" />
    <glyph glyph-name="seven.tnum" 
d="M225 0l776 1169h-608l51 291h977l-43 -235l-821 -1225h-332z" />
    <glyph glyph-name="six.onum" horiz-adv-x="1150" 
d="M586 -27q-146 0 -255.5 67.5t-158.5 184t-25 256.5q20 106 73.5 197t146.5 199l489 581h358l-436 -512q12 4 41 4q200 0 307 -136t72 -341q-25 -140 -113.5 -254.5t-220 -180t-278.5 -65.5zM453 471q-19 -99 32 -161t148 -62q98 0 171.5 61.5t90.5 159.5
q19 96 -33.5 158.5t-148.5 62.5q-98 0 -170.5 -61.5t-89.5 -157.5z" />
    <glyph glyph-name="six.onum.tnum" 
d="M674 -27q-109 0 -199.5 40t-148.5 108t-82 161.5t-6 198.5q19 105 71.5 195.5t145.5 200.5l489 581h359l-437 -512q12 4 41 4q200 0 308 -136t71 -341q-24 -140 -112.5 -254.5t-220.5 -180t-279 -65.5zM541 471q-17 -99 34 -161t148 -62q98 0 171.5 61.5t90.5 159.5
q17 96 -34.5 158.5t-147.5 62.5q-98 0 -171.5 -61.5t-90.5 -157.5z" />
    <glyph glyph-name="six.tnum" 
d="M676 -27q-109 0 -199.5 40t-148.5 108t-82 161.5t-6 198.5q19 105 71.5 195.5t145.5 200.5l489 581h359l-437 -512q12 4 41 4q200 0 308 -136t71 -341q-24 -140 -112.5 -254.5t-220.5 -180t-279 -65.5zM543 471q-17 -99 34 -161t148 -62q98 0 171.5 61.5t90.5 159.5
q17 96 -34.5 158.5t-147.5 62.5q-98 0 -171.5 -61.5t-90.5 -157.5z" />
    <glyph glyph-name="sterling.onum" horiz-adv-x="1099" 
d="M74 0l47 268h37q39 0 64.5 24.5t33.5 67.5l18 107h-116l28 160h117l14 82q33 187 177 304t358 117q250 0 354 -210l-215 -187q-62 121 -186 121q-72 0 -121.5 -40.5t-60.5 -104.5l-15 -82h310l-29 -160h-309l-17 -100q-7 -34 -25.5 -60t-37.5 -39h583l-47 -268h-962z" />
    <glyph glyph-name="sterling.onum.tnum" 
d="M188 0l48 268h36q39 0 65 24.5t34 67.5l18 107h-117l29 160h117l14 82q33 187 177 304t358 117q250 0 354 -210l-215 -187q-62 121 -186 121q-72 0 -122 -40.5t-61 -104.5l-14 -82h309l-28 -160h-310l-16 -100q-12 -63 -64 -99h584l-47 -268h-963z" />
    <glyph glyph-name="sterling.tnum" 
d="M1202 0h-1044l51 287h37q39 0 64.5 24t31.5 64l45 252h-117l31 172h117l37 215q38 207 193 339t378 132q145 0 244.5 -65t150.5 -167l-223 -194q-29 53 -84.5 92t-138.5 39q-84 0 -142.5 -48.5t-72.5 -127.5l-37 -215h377l-31 -172h-377l-41 -228q-12 -71 -63 -112h665z
" />
    <glyph glyph-name="three.alt" horiz-adv-x="1193" 
d="M96 256l252 176q35 -78 104.5 -124t153.5 -46q89 0 161.5 49.5t84.5 122.5q15 83 -36 127.5t-148 44.5h-154l45 256h154q93 0 152.5 42.5t72.5 121.5q14 74 -34 123t-134 49q-77 0 -156.5 -46.5t-138.5 -123.5l-190 176q93 130 233 205.5t303 75.5q228 0 353.5 -123.5
t91.5 -317.5q-15 -89 -73 -169.5t-149 -137.5q79 -56 113 -139.5t17 -181.5q-35 -194 -209 -317.5t-410 -123.5q-169 0 -287 75.5t-172 205.5z" />
    <glyph glyph-name="three.onum" horiz-adv-x="1132" 
d="M4 -96l262 186q34 -81 98 -126.5t144 -45.5q100 0 175.5 53.5t88.5 134.5q19 101 -47.5 159.5t-200.5 58.5q-109 0 -180 -19l33 191l364 325h-495l51 287h913l-36 -211l-408 -354q166 -15 260 -135t64 -291q-25 -144 -115 -257t-225.5 -175t-292.5 -62q-165 0 -282 76
t-171 205z" />
    <glyph glyph-name="three.onum.alt" horiz-adv-x="1159" 
d="M16 -96l252 176q35 -78 104.5 -124t153.5 -46q89 0 161.5 49.5t84.5 122.5q15 83 -36 127.5t-148 44.5h-154l45 256h154q93 0 152.5 42.5t72.5 121.5q14 74 -34 123t-134 49q-77 0 -156.5 -46.5t-138.5 -123.5l-190 176q93 130 233 205.5t303 75.5q228 0 353.5 -123.5
t91.5 -317.5q-15 -89 -72.5 -169.5t-148.5 -137.5q78 -56 112 -140t17 -182q-35 -194 -209 -317t-410 -123q-169 0 -287 75.5t-172 205.5z" />
    <glyph glyph-name="three.onum.tnum" 
d="M100 -96l262 186q34 -81 98 -126.5t144 -45.5q100 0 175.5 53.5t88.5 134.5q19 101 -47.5 159.5t-199.5 58.5q-110 0 -181 -19l33 191l365 325h-496l51 287h914l-37 -211l-408 -354q166 -15 260 -135t64 -291q-25 -144 -115 -257t-225.5 -175t-292.5 -62q-165 0 -282 76
t-171 205z" />
    <glyph glyph-name="three.tnum" 
d="M164 256l262 186q34 -81 98 -126.5t144 -45.5q100 0 175.5 53.5t88.5 135.5q19 101 -47.5 159t-200.5 58q-109 0 -180 -19l33 191l364 326h-495l51 286h913l-37 -211l-407 -354q165 -15 259 -135t64 -291q-25 -144 -115 -257t-225.5 -175t-292.5 -62q-165 0 -281 76
t-171 205z" />
    <glyph glyph-name="threequarters.onum" horiz-adv-x="1546" 
d="M426 457q-106 0 -180 50t-105 130l185 117q12 -42 44 -70.5t85 -28.5q42 0 76 24t40 60q9 47 -20.5 69.5t-85.5 22.5q-61 0 -119 -8l21 123l176 146h-269l35 198h557l-26 -145l-215 -168q92 -18 138.5 -82t29.5 -158q-23 -127 -127 -203.5t-240 -76.5zM817 -6l25 137
l446 508h217l-84 -469h103l-31 -178h-102l-29 -162h-207l29 164h-367zM186 -170l1325 1460h193l-1325 -1460h-193zM1262 369l-177 -201h142z" />
    <glyph glyph-name="two.onum" horiz-adv-x="1142" 
d="M1077 0h-985q4 91 21 182q14 79 61 143.5t111.5 107t140 77t149 60.5t135.5 50t103 54t47 65q8 46 -28 75.5t-107 29.5q-85 0 -172.5 -42t-140.5 -106l-191 168q99 127 245.5 196.5t317.5 69.5q94 0 172.5 -23.5t137 -70t84 -123t8.5 -174.5q-13 -76 -58 -136.5
t-103.5 -98t-131 -71t-136.5 -55t-124.5 -50t-91.5 -56.5h583z" />
    <glyph glyph-name="two.onum.tnum" 
d="M1171 0h-985q4 91 21 182q14 79 61 143.5t111.5 107t140 77t149 60.5t135.5 50t103 54t47 65q8 46 -28 75.5t-107 29.5q-85 0 -172.5 -42t-140.5 -106l-191 168q99 127 246 196.5t318 69.5q75 0 140.5 -14.5t119.5 -45.5t90.5 -76.5t50.5 -110.5t0 -144
q-13 -76 -58 -136.5t-103.5 -98t-131 -71t-136.5 -55t-124.5 -50t-91.5 -56.5h584z" />
    <glyph glyph-name="two.tnum" 
d="M1163 0h-993q4 90 18 172q15 89 58.5 168.5t102.5 138.5t130.5 114t143.5 96.5t142 85t125 80t92.5 80.5t45.5 89q13 73 -31.5 117.5t-130.5 44.5q-83 0 -164 -47t-133 -121l-207 168q94 137 247.5 218t322.5 81q95 0 178.5 -29t144.5 -82.5t88 -139t9 -190.5
q-16 -89 -65 -168.5t-115.5 -137.5t-143.5 -109.5t-153.5 -94t-140 -82t-108 -82.5t-53.5 -87h639z" />
    <glyph glyph-name="twothirds.onum" horiz-adv-x="1765" 
d="M750 481h-603q7 163 61.5 246t207.5 168q19 10 49.5 26t46 24.5t37 22t32 23.5t20 23.5t11.5 27.5q6 32 -12 49t-57 17q-87 0 -160 -94l-139 121q55 79 149 129.5t193 50.5q130 0 200.5 -72t49.5 -190q-9 -52 -33.5 -95t-64.5 -77t-73.5 -55.5t-84.5 -49.5
q-20 -11 -52 -27.5t-48.5 -25.5t-32.5 -21t-21 -22h358zM1360 -195q-106 0 -180 50t-105 131l185 116q12 -41 43.5 -69.5t85.5 -28.5q42 0 76 24t40 60q9 47 -20.5 69.5t-85.5 22.5q-61 0 -119 -8l20 123l177 145h-269l35 199h557l-26 -145l-215 -168q92 -18 138 -82
t29 -158q-23 -127 -126.5 -204t-239.5 -77zM428 -170h-192l1325 1460h192z" />
    <glyph glyph-name="u.alt" horiz-adv-x="1259" 
d="M625 -25q-233 0 -348 119t-80 322l110 635h311l-102 -588q-19 -101 22.5 -157t133.5 -56q94 0 155 56t80 157l103 588h311l-111 -635q-35 -202 -193.5 -321.5t-391.5 -119.5z" />
    <glyph glyph-name="uacute.alt" horiz-adv-x="1259" 
d="M625 -25q-233 0 -348 119t-80 322l110 635h311l-102 -588q-19 -101 22.5 -157t133.5 -56q94 0 155 56t80 157l103 588h311l-111 -635q-35 -202 -193.5 -321.5t-391.5 -119.5zM696 1147l297 414h379l-420 -414h-256z" />
    <glyph glyph-name="ubreve.alt" horiz-adv-x="1259" 
d="M625 -25q-233 0 -348 119t-80 322l110 635h311l-102 -588q-19 -101 22.5 -157t133.5 -56q94 0 155 56t80 157l103 588h311l-111 -635q-35 -202 -193.5 -321.5t-391.5 -119.5zM836 1174q-65 0 -119.5 21t-92.5 60t-53 99.5t-2 134.5h240q-9 -47 8 -75t55 -28q37 0 65 28
t34 75h239q-24 -146 -131 -230.5t-243 -84.5z" />
    <glyph glyph-name="ucircumflex.alt" horiz-adv-x="1259" 
d="M625 -25q-233 0 -348 119t-80 322l110 635h311l-102 -588q-19 -101 22.5 -157t133.5 -56q94 0 155 56t80 157l103 588h311l-111 -635q-35 -202 -193.5 -321.5t-391.5 -119.5zM428 1147l344 420h260l197 -420h-275l-88 225l-164 -225h-274z" />
    <glyph glyph-name="udieresis.alt" horiz-adv-x="1259" 
d="M625 -25q-233 0 -348 119t-80 322l110 635h311l-102 -588q-19 -101 22.5 -157t133.5 -56q94 0 155 56t80 157l103 588h311l-111 -635q-35 -202 -193.5 -321.5t-391.5 -119.5zM1065 1182q-72 0 -113.5 48t-29.5 120q13 72 71.5 119t130.5 47q73 0 115 -47.5t29 -118.5
q-12 -71 -71 -119.5t-132 -48.5zM590 1182q-72 0 -114 48t-30 120q13 71 71.5 118.5t131.5 47.5t115 -47.5t29 -118.5q-12 -71 -71 -119.5t-132 -48.5z" />
    <glyph glyph-name="udotbelow.alt" horiz-adv-x="1259" 
d="M625 -25q-233 0 -348 119t-80 322l110 635h311l-102 -588q-19 -101 22.5 -157t133.5 -56q94 0 155 56t80 157l103 588h311l-111 -635q-35 -202 -193.5 -321.5t-391.5 -119.5zM557 -434q-72 0 -113.5 48t-29.5 120q12 71 70.5 119.5t131.5 48.5q72 0 114 -48t30 -120
q-12 -71 -71 -119.5t-132 -48.5z" />
    <glyph glyph-name="ugrave.alt" horiz-adv-x="1259" 
d="M625 -25q-233 0 -348 119t-80 322l110 635h311l-102 -588q-19 -101 22.5 -157t133.5 -56q94 0 155 56t80 157l103 588h311l-111 -635q-35 -202 -193.5 -321.5t-391.5 -119.5zM430 1561h379l154 -414h-256z" />
    <glyph glyph-name="uhungarumlaut.alt" horiz-adv-x="1312" 
d="M625 -25q-233 0 -348 119t-80 322l110 635h311l-102 -588q-19 -101 22.5 -157t133.5 -56q94 0 155 56t80 157l103 588h311l-111 -635q-35 -202 -193.5 -321.5t-391.5 -119.5zM891 1147l311 414h316l-385 -414h-242zM756 1147h-242l283 414h299z" />
    <glyph glyph-name="umacron.alt" horiz-adv-x="1259" 
d="M625 -25q-233 0 -348 119t-80 322l110 635h311l-102 -588q-19 -101 22.5 -157t133.5 -56q94 0 155 56t80 157l103 588h311l-111 -635q-35 -202 -193.5 -321.5t-391.5 -119.5zM1161 1233h-633l41 235h633z" />
    <glyph glyph-name="uogonek.alt" horiz-adv-x="1259" 
d="M571 -23q-207 14 -307.5 131.5t-66.5 307.5l110 635h311l-102 -588q-19 -101 22.5 -157t133.5 -56q94 0 155 56t80 157l103 588h311l-111 -635q-28 -157 -132 -265.5t-263 -150.5q-79 -55 -117 -94.5t-45 -75.5q-6 -34 27.5 -52.5t91.5 -25.5l-131 -223
q-74 1 -134.5 24.5t-95 73.5t-22.5 117q20 117 182 233z" />
    <glyph glyph-name="uring.alt" horiz-adv-x="1259" 
d="M625 -25q-233 0 -348 119t-80 322l110 635h311l-102 -588q-19 -101 22.5 -157t133.5 -56q94 0 155 56t80 157l103 588h311l-111 -635q-35 -202 -193.5 -321.5t-391.5 -119.5zM827 1116q-116 0 -174 69.5t-39 170.5q18 101 99.5 169t197.5 68q113 0 172 -68.5t41 -168.5
q-19 -101 -101.5 -170.5t-195.5 -69.5zM797 1356q-6 -30 11.5 -51t49.5 -21q30 0 54 21t30 51q5 30 -12 49.5t-47 19.5q-32 0 -56.5 -20t-29.5 -49z" />
    <glyph glyph-name="utilde.alt" horiz-adv-x="1259" 
d="M625 -25q-233 0 -348 119t-80 322l110 635h311l-102 -588q-19 -101 22.5 -157t133.5 -56q94 0 155 56t80 157l103 588h311l-111 -635q-35 -202 -193.5 -321.5t-391.5 -119.5zM457 1214q23 131 106 211t199 80q40 0 78 -14t61.5 -31t50.5 -31t47 -14q69 0 91 98l194 -45
q-23 -131 -106.5 -211.5t-198.5 -80.5q-51 0 -97 22.5t-81 45t-60 22.5q-68 0 -88 -97z" />
    <glyph glyph-name="y.alt" horiz-adv-x="1114" 
d="M461 -410h-309l258 449l-236 1012h326l123 -689l366 689h318z" />
    <glyph glyph-name="yacute.alt" horiz-adv-x="1114" 
d="M152 -410l258 449l-236 1012h326l123 -689l366 689h318l-846 -1461h-309zM623 1147l297 414h378l-419 -414h-256z" />
    <glyph glyph-name="ycircumflex.alt" horiz-adv-x="1114" 
d="M152 -410l258 449l-236 1012h326l123 -689l366 689h318l-846 -1461h-309zM352 1147l344 420h260l197 -420h-274l-88 225l-164 -225h-275z" />
    <glyph glyph-name="ydieresis.alt" horiz-adv-x="1114" 
d="M461 -410h-309l258 449l-236 1012h326l123 -689l366 689h318zM995 1182q-72 0 -113.5 48t-29.5 120q13 71 71.5 118.5t131.5 47.5t114.5 -47.5t28.5 -118.5q-12 -71 -71 -119.5t-132 -48.5zM520 1182q-72 0 -113.5 48t-29.5 120q13 71 71.5 118.5t131.5 47.5t114.5 -47.5
t28.5 -118.5q-12 -71 -71 -119.5t-132 -48.5z" />
    <glyph glyph-name="yen.onum" horiz-adv-x="1204" 
d="M215 1106h342l176 -373l303 373h342l-428 -496h178l-28 -159h-260l-17 -86h260l-26 -160h-260l-37 -205h-316l37 205h-262l27 160h262l16 86h-262l29 159h178z" />
    <glyph glyph-name="yen.onum.tnum" 
d="M279 1106h342l176 -373l303 373h342l-428 -496h178l-29 -159h-260l-16 -86h260l-27 -160h-260l-37 -205h-315l37 205h-262l26 160h262l17 86h-262l28 159h178z" />
    <glyph glyph-name="yen.tnum" 
d="M240 1460h348l237 -545l430 545h349l-547 -669h225l-31 -170h-317l-23 -125h318l-31 -172h-315l-58 -324h-317l57 324h-317l31 172h315l22 125h-315l31 170h221z" />
    <glyph glyph-name="ygrave.alt" horiz-adv-x="1114" 
d="M461 -410h-309l258 449l-236 1012h326l123 -689l366 689h318zM631 1147l-277 414h379l154 -414h-256z" />
    <glyph glyph-name="ymacron.alt" horiz-adv-x="1114" 
d="M461 -410h-309l258 449l-236 1012h326l123 -689l366 689h318zM449 1233l40 235h633l-41 -235h-632z" />
    <glyph glyph-name="ytilde.alt" horiz-adv-x="1114" 
d="M461 -410h-309l258 449l-236 1012h326l123 -689l366 689h318zM567 1169l-196 45q23 131 106 211t199 80q40 0 78 -14t61.5 -31t50.5 -31t47 -14q69 0 91 98l194 -45q-23 -131 -106.5 -211.5t-198.5 -80.5q-51 0 -97 22.5t-81 45t-60 22.5q-68 0 -88 -97z" />
    <glyph glyph-name="zero.onum" horiz-adv-x="1333" 
d="M664 -25q-177 0 -301 77.5t-173.5 209t-21.5 293.5q20 120 82 226t152.5 184t211.5 123t254 45q176 0 299 -77.5t173 -208.5t22 -292q-21 -121 -83 -227.5t-152 -184.5t-210.5 -123t-252.5 -45zM483 555q-22 -124 42.5 -207.5t189.5 -83.5t217.5 83.5t114.5 207.5
t-41.5 206.5t-188.5 82.5t-218.5 -82.5t-115.5 -206.5z" />
    <glyph glyph-name="zero.onum.tnum" 
d="M664 -25q-172 0 -291 75t-166.5 207t-18.5 298q21 124 81.5 230.5t148.5 183t204.5 120.5t245.5 44q171 0 289 -75t165 -206t19 -297q-45 -254 -232 -417t-445 -163zM504 555q-23 -129 35 -210t176 -81t203 80.5t108 210.5t-34 209.5t-175 79.5t-204 -79.5t-109 -209.5z
" />
    <glyph glyph-name="zero.slash" horiz-adv-x="1359" 
d="M676 -25q-106 0 -189 27t-138.5 77.5t-91.5 118.5t-50.5 153.5t-12 179t20.5 198.5q22 126 61.5 236t101.5 207t142 165.5t188 108t234 39.5q106 0 189 -27.5t138.5 -78t91.5 -118.5t50.5 -154t12 -179.5t-20.5 -198.5q-22 -126 -61.5 -236t-101.5 -206.5t-142 -164.5
t-188 -107.5t-234 -39.5zM532 729q-29 -169 -12 -274l516 688q-53 53 -145 53q-277 0 -359 -467zM588 313q49 -49 139 -49q275 0 358 465q29 164 15 268z" />
    <glyph glyph-name="zero.slash.onum" horiz-adv-x="1333" 
d="M664 -25q-177 0 -301 77.5t-173.5 209t-21.5 293.5q20 120 82 226t152.5 184t211.5 123t254 45q176 0 299 -77.5t173 -208.5t22 -292q-21 -121 -83 -227.5t-152 -184.5t-210.5 -123t-252.5 -45zM483 555q-21 -123 41 -207l381 483q-44 13 -88 13q-125 0 -218.5 -82.5
t-115.5 -206.5zM637 274q42 -10 78 -10q125 0 217.5 83.5t114.5 207.5q21 116 -33 195z" />
    <glyph glyph-name="zero.slash.onum.tnum" 
d="M664 -25q-172 0 -291 75t-166.5 207t-18.5 298q21 124 81.5 230.5t148.5 183t204.5 120.5t245.5 44q171 0 289 -75t165 -206t19 -297q-45 -254 -232 -417t-445 -163zM997 756l-374 -475q46 -17 92 -17q118 0 203 80.5t108 210.5q21 124 -29 201zM504 555
q-19 -116 20 -184l365 463q-33 10 -72 10q-118 0 -204 -79.5t-109 -209.5z" />
    <glyph glyph-name="zero.slash.tnum" 
d="M662 -25q-101 0 -180 27t-132 77.5t-87 118.5t-47 153.5t-10 179t21 198.5q22 126 60.5 235.5t99 206.5t137.5 166t180.5 108.5t223.5 39.5q101 0 180 -27.5t131.5 -78t86.5 -119t47 -154.5t10 -179.5t-21 -197.5q-22 -126 -60.5 -236t-98.5 -206.5t-137 -164.5
t-180.5 -107.5t-223.5 -39.5zM545 729q-27 -158 -19 -246l488 650q-45 63 -137 63q-250 0 -332 -467zM580 322q49 -58 133 -58q248 0 331 465q25 140 19 240z" />
    <glyph glyph-name="zero.tnum" 
d="M662 -25q-101 0 -180 27t-132 77.5t-87 118.5t-47 153.5t-10 179t21 198.5q22 126 60.5 235.5t99 206.5t137.5 166t180.5 108.5t223.5 39.5q101 0 180 -27.5t131.5 -78t86.5 -119t47 -154.5t10 -179.5t-21 -197.5q-22 -126 -60.5 -236t-98.5 -206.5t-137 -164.5
t-180.5 -107.5t-223.5 -39.5zM545 729q-83 -465 168 -465q248 0 331 465q82 467 -167 467q-250 0 -332 -467z" />
    </font>
</defs>
</svg>
