<?xml version="1.0" standalone="no"?>
<!DOCTYPE svg PUBLIC "-//W3C//DTD SVG 1.1//EN" "http://www.w3.org/Graphics/SVG/1.1/DTD/svg11.dtd" >
<svg xmlns="http://www.w3.org/2000/svg" xmlns:xlink="http://www.w3.org/1999/xlink" version="1.1">
<metadata>
Created by FontForge 20170731 at Thu May  5 05:20:45 2022
 By Aleksey,,,
(c) TipoType 2019, all rights reserved.
</metadata>
<defs>
<font id="Rotunda-Medium" horiz-adv-x="1331" >
  <font-face 
    font-family="Rotunda Thin-Med"
    font-weight="500"
    font-stretch="normal"
    units-per-em="2048"
    panose-1="0 0 0 0 0 0 0 0 0 0"
    ascent="1638"
    descent="-410"
    x-height="1044"
    cap-height="1454"
    bbox="-451 -541 2331 2398"
    underline-thickness="102"
    underline-position="-307"
    unicode-range="U+0020-FB00"
  />
<missing-glyph horiz-adv-x="1300" 
d="M84 0v1454h1133v-1454h-1133zM772 727l244 -387v774zM651 881l230 372h-461zM420 201h461l-230 370zM285 340l243 387l-243 387v-774z" />
    <glyph glyph-name="f_j" unicode="fj" horiz-adv-x="1271" 
d="M61 831v213h146v70q0 166 103.5 265.5t279.5 99.5q98 0 153 -31v-221q-49 22 -108 22q-72 0 -117 -34.5t-45 -106.5v-64h225v-213h-225v-831h-266v831h-146zM621 -182q50 -19 104 -19q62 0 98.5 39t36.5 119v1087h266v-1099q0 -99 -28 -173.5t-78.5 -118.5t-114 -65.5
t-139.5 -21.5q-85 0 -145 26v226zM993 1196q-65 0 -109 44t-44 108t44 106.5t109 42.5q64 0 109 -42.5t45 -106.5t-45 -108t-109 -44z" />
    <glyph glyph-name=".notdef" horiz-adv-x="1300" 
d="M84 0v1454h1133v-1454h-1133zM772 727l244 -387v774zM651 881l230 372h-461zM420 201h461l-230 370zM285 340l243 387l-243 387v-774z" />
    <glyph glyph-name="uni0000" horiz-adv-x="0" 
 />
    <glyph glyph-name="uni0000" horiz-adv-x="0" 
 />
    <glyph glyph-name="uni000D" horiz-adv-x="645" 
 />
    <glyph glyph-name="space" unicode=" " horiz-adv-x="501" 
 />
    <glyph glyph-name="exclam" unicode="!" horiz-adv-x="606" 
d="M164 1454h278l-24 -1034h-228zM305 -23q-66 0 -112 45t-46 109q0 66 46 110t112 44q64 0 110 -44.5t46 -109.5q0 -64 -46 -109t-110 -45z" />
    <glyph glyph-name="quotedbl" unicode="&#x22;" horiz-adv-x="737" 
d="M455 915l-29 539h209l-29 -539h-151zM102 1454h209l-28 -539h-152z" />
    <glyph glyph-name="numbersign" unicode="#" horiz-adv-x="1439" 
d="M336 424h-287l37 205h285l35 190h-289l37 205h286l68 383h223l-65 -383h215l67 383h226l-68 -383h287l-35 -205h-287l-35 -190h289l-35 -205h-289l-67 -385h-225l67 385h-215l-67 -385h-226zM629 819l-33 -190h215l35 190h-217z" />
    <glyph glyph-name="dollar" unicode="$" horiz-adv-x="1128" 
d="M45 262l205 156q52 -92 134 -143.5t183 -51.5q104 0 170 47t66 113q0 27 -6 48.5t-23.5 41t-32.5 32.5t-49.5 31t-56.5 28t-72.5 32t-79.5 35q-48 22 -67.5 30.5t-63 30t-62.5 34.5t-54 37t-51.5 43.5t-39.5 49.5t-33 59.5t-18 67.5t-8 80q0 154 108 266.5t281 140.5v246
h197v-243q120 -19 217.5 -83t157.5 -169l-201 -150q-51 81 -122 121.5t-151 40.5q-95 0 -156 -44.5t-61 -117.5q0 -22 6.5 -41t16 -34t29 -30.5t35.5 -26t46 -25.5t49.5 -24t58 -25.5t60.5 -26.5q61 -27 98.5 -44.5t87 -44.5t79 -50.5t62 -56.5t49.5 -68.5t28.5 -82
t11.5 -100.5q0 -153 -110.5 -268.5t-303.5 -140.5v-252h-196v254q-135 21 -245 92t-173 186z" />
    <glyph glyph-name="percent" unicode="%" horiz-adv-x="1589" 
d="M395 782q-146 0 -247 98t-101 244t101.5 245t246.5 99q144 0 245 -99.5t101 -244.5q0 -146 -101 -244t-245 -98zM848 317q0 146 101.5 245.5t246.5 99.5q143 0 244.5 -100t101.5 -245q0 -146 -101 -244t-245 -98q-146 0 -247 98t-101 244zM362 0h-192l1063 1454h192z
M1196 471q-68 0 -112 -43.5t-44 -110.5q0 -66 44.5 -109.5t111.5 -43.5q66 0 109 43.5t43 109.5q0 67 -43 110.5t-109 43.5zM240 1124q0 -66 44 -109.5t111 -43.5q66 0 109 43.5t43 109.5q0 67 -43 110.5t-109 43.5q-68 0 -111.5 -43.5t-43.5 -110.5z" />
    <glyph glyph-name="ampersand" unicode="&#x26;" horiz-adv-x="1413" 
d="M608 -25q-144 0 -265.5 47.5t-197 140.5t-75.5 214q0 123 76 219t227 188q-88 94 -130 168.5t-42 161.5q0 145 116.5 255t300.5 110q91 0 169.5 -30.5t131 -81t82 -115t29.5 -132.5q0 -111 -69.5 -196t-231.5 -183l275 -292q79 149 61 335h240q15 -141 -21 -274
t-113 -242l250 -268h-313l-98 104q-185 -129 -402 -129zM334 397q-1 -61 41.5 -105t103 -63.5t127.5 -19.5q136 0 242 67l-326 349q-92 -54 -139.5 -107t-48.5 -121zM618 1260q-73 0 -120 -41.5t-47 -102.5q0 -53 29.5 -98t97.5 -117q111 67 158.5 114t47.5 103
q0 59 -48 100.5t-118 41.5z" />
    <glyph glyph-name="quotesingle" unicode="'" horiz-adv-x="413" 
d="M283 915h-152l-29 539h209z" />
    <glyph glyph-name="parenleft" unicode="(" horiz-adv-x="632" 
d="M84 666q0 241 66 482.5t182 448.5h256q-115 -226 -174.5 -467.5t-59.5 -463.5q0 -223 59.5 -464.5t174.5 -467.5h-256q-116 207 -182 448.5t-66 483.5z" />
    <glyph glyph-name="parenright" unicode=")" horiz-adv-x="632" 
d="M45 1595h256q116 -207 182 -448t66 -483q0 -241 -66 -483t-182 -449h-256q115 226 174.5 467.5t59.5 464.5q0 222 -59.5 463.5t-174.5 467.5z" />
    <glyph glyph-name="asterisk" unicode="*" horiz-adv-x="743" 
d="M78 1110v174l223 -45l-149 170l145 86l74 -215l75 215l146 -86l-150 -170l224 45v-174l-226 45l152 -168l-146 -86l-75 215l-76 -215l-143 86l149 168z" />
    <glyph glyph-name="plus" unicode="+" horiz-adv-x="1128" 
d="M446 612h-397v232h397v397h236v-397h397v-232h-397v-397h-236v397z" />
    <glyph glyph-name="comma" unicode="," horiz-adv-x="495" 
d="M94 127q0 64 44 106.5t110 42.5q65 0 109 -42.5t44 -106.5q0 -30 -16 -70l-147 -327h-123l88 252q-46 14 -77.5 54t-31.5 91z" />
    <glyph glyph-name="hyphen" unicode="-" horiz-adv-x="940" 
d="M821 446h-702v224h702v-224z" />
    <glyph glyph-name="period" unicode="." horiz-adv-x="483" 
d="M88 127q0 64 44.5 106.5t109.5 42.5q64 0 108.5 -42.5t44.5 -106.5t-45 -108t-108 -44q-65 0 -109.5 44t-44.5 108z" />
    <glyph glyph-name="slash" unicode="/" horiz-adv-x="1099" 
d="M807 1612h268l-782 -1899h-268z" />
    <glyph glyph-name="zero" unicode="0" horiz-adv-x="1357" 
d="M96 727q0 122 19.5 230t63.5 205t110.5 166.5t165.5 110t223 40.5t224 -40.5t166 -110t110.5 -166.5t64 -205t19.5 -230q0 -123 -19.5 -231t-64 -205t-110.5 -166t-166 -109.5t-224 -40.5t-223 40.5t-165.5 109.5t-110.5 166t-63.5 205t-19.5 231zM678 1229
q-154 0 -231.5 -132t-77.5 -370t77.5 -370t231.5 -132q156 0 232.5 131.5t76.5 370.5t-76.5 370.5t-232.5 131.5z" />
    <glyph glyph-name="one" unicode="1" horiz-adv-x="1038" 
d="M432 1108q-119 -107 -350 -107v242q280 12 407 211h213v-1210h320v-244h-918v244h328v864z" />
    <glyph glyph-name="two" unicode="2" horiz-adv-x="1148" 
d="M90 0q-12 82 -12 147q0 102 39 191.5t101 154.5t137.5 122t151 106t137.5 95.5t101 101t39 112.5q0 86 -60.5 139.5t-156.5 53.5q-91 0 -165.5 -49t-116.5 -132l-207 142q69 138 203 216.5t297 78.5q129 0 237 -49.5t176 -149.5t68 -231q0 -73 -23 -138.5t-61.5 -117
t-88.5 -98t-105.5 -85t-111 -74.5t-106 -71t-89.5 -69.5t-62.5 -74t-24.5 -81.5h664v-240h-961z" />
    <glyph glyph-name="three" unicode="3" horiz-adv-x="1157" 
d="M47 260l207 154q44 -89 118.5 -138t164.5 -49q109 0 181.5 61t72.5 154q0 114 -82.5 178t-227.5 64q-107 0 -164 -14v157l347 383h-541v242h893v-178l-363 -393q177 -15 293.5 -135t116.5 -293q0 -210 -148.5 -344t-377.5 -134q-163 0 -289.5 76t-200.5 209z" />
    <glyph glyph-name="four" unicode="4" horiz-adv-x="1222" 
d="M29 524l608 930h328v-864h188v-240h-188v-350h-260v350h-676v174zM350 586h359l-2 549z" />
    <glyph glyph-name="five" unicode="5" horiz-adv-x="1153" 
d="M53 272l211 146q46 -89 118.5 -140t164.5 -51q118 0 188 66.5t70 175.5q0 111 -71.5 181.5t-190.5 70.5q-145 0 -246 -90l-162 67l72 754h778v-242h-551l-31 -301q68 37 187 37q220 0 354.5 -128t134.5 -341q0 -221 -143.5 -361.5t-378.5 -140.5q-168 0 -300 78.5
t-204 218.5z" />
    <glyph glyph-name="six" unicode="6" horiz-adv-x="1167" 
d="M78 477q0 110 41.5 202t128.5 220l370 553h314l-357 -516q28 8 70 8q198 0 334.5 -137t136.5 -338q0 -139 -69 -253t-187.5 -178.5t-261.5 -64.5q-142 0 -261.5 66.5t-189 182.5t-69.5 255zM602 719q-113 0 -184.5 -71t-71.5 -177q0 -115 71 -186.5t181 -71.5
q111 0 183.5 71t72.5 181q0 109 -73.5 181.5t-178.5 72.5z" />
    <glyph glyph-name="seven" unicode="7" horiz-adv-x="1026" 
d="M94 0l594 1208h-645v246h961v-197l-621 -1257h-289z" />
    <glyph glyph-name="eight" unicode="8" horiz-adv-x="1206" 
d="M604 -25q-219 0 -365.5 123t-146.5 308q0 125 71 213.5t167 125.5q-79 36 -137 124.5t-58 195.5q0 182 136.5 298t332.5 116t332.5 -116t136.5 -298q0 -106 -58 -195t-136 -125q95 -37 165 -125.5t70 -213.5q0 -122 -66.5 -221t-183 -154.5t-260.5 -55.5zM604 629
q-105 0 -173.5 -58.5t-68.5 -152.5q0 -89 68.5 -147t173.5 -58q103 0 172.5 58t69.5 147q0 94 -69 152.5t-173 58.5zM604 1241q-86 0 -147.5 -51t-61.5 -133q0 -85 61 -138t148 -53q86 0 146.5 53t60.5 138q0 82 -60.5 133t-146.5 51z" />
    <glyph glyph-name="nine" unicode="9" horiz-adv-x="1167" 
d="M522 508q-198 0 -334.5 137t-136.5 338q0 139 69 253t187.5 178.5t261.5 64.5q142 0 262 -66.5t189.5 -182.5t69.5 -255q0 -110 -41.5 -202t-128.5 -220l-371 -553h-313l356 516q-28 -8 -70 -8zM313 987q0 -109 73.5 -181.5t178.5 -72.5q113 0 184.5 71t71.5 177
q0 115 -71 186.5t-181 71.5q-111 0 -183.5 -71t-72.5 -181z" />
    <glyph glyph-name="colon" unicode=":" horiz-adv-x="544" 
d="M119 129q0 64 44 107t109 43q64 0 109 -43t45 -107t-45 -108t-109 -44q-65 0 -109 44t-44 108zM119 920q0 64 44 106.5t109 42.5q64 0 109 -42.5t45 -106.5t-45 -108t-109 -44q-65 0 -109 44t-44 108z" />
    <glyph glyph-name="semicolon" unicode=";" horiz-adv-x="548" 
d="M121 127q0 64 43.5 106.5t109.5 42.5q65 0 109.5 -42.5t44.5 -106.5q0 -30 -16 -70l-148 -327h-123l88 252q-46 14 -77 54t-31 91zM274 768q-65 0 -109 44t-44 108t44 106.5t109 42.5q64 0 109 -42.5t45 -106.5t-45 -108t-109 -44z" />
    <glyph glyph-name="less" unicode="&#x3c;" horiz-adv-x="1099" 
d="M969 207l-920 407v224l920 409v-250l-621 -270l621 -270v-250z" />
    <glyph glyph-name="equal" unicode="=" horiz-adv-x="1132" 
d="M125 1055h883v-232h-883v232zM1008 401h-883v232h883v-232z" />
    <glyph glyph-name="greater" unicode="&#x3e;" horiz-adv-x="1099" 
d="M131 1245l920 -407v-224l-920 -409v250l621 270l-621 270v250z" />
    <glyph glyph-name="question" unicode="?" horiz-adv-x="993" 
d="M213 1077l-178 150q75 123 188.5 187.5t251.5 64.5q198 0 327.5 -110.5t129.5 -303.5q0 -69 -20.5 -128t-53 -100t-71.5 -77t-78.5 -67t-72 -61.5t-53 -69.5t-20.5 -83v-84h-254v109q0 67 19.5 123.5t51 95.5t70 72.5t76.5 62t69.5 57t51 64.5t19.5 78q0 81 -54 127.5
t-145 46.5q-156 0 -254 -154zM283 127q0 64 44 106.5t109 42.5q64 0 109 -42.5t45 -106.5t-45 -108t-109 -44q-65 0 -109 44t-44 108z" />
    <glyph glyph-name="at" unicode="@" horiz-adv-x="1947" 
d="M70 614q0 243 119.5 450.5t329 330.5t460.5 123q187 0 353.5 -71.5t283 -190.5t184.5 -279.5t68 -333.5q0 -214 -100.5 -351.5t-258.5 -137.5q-92 0 -160 47t-102 118q-46 -73 -128 -122.5t-177 -49.5q-184 0 -306 129t-122 328q0 197 122 327t296 130q82 0 155.5 -36
t108.5 -89v100h207v-561q0 -56 30 -94.5t80 -38.5q60 0 99 78t39 223q0 133 -50.5 254.5t-138 212t-214 144t-269.5 53.5q-145 0 -273.5 -55t-219.5 -148t-144 -220.5t-53 -269.5q0 -141 51 -268t140 -221t218.5 -149.5t278.5 -55.5q102 0 202.5 32.5t170.5 74.5l92 -181
q-82 -54 -205.5 -94.5t-259.5 -40.5q-188 0 -357 73t-289 195t-190.5 288t-70.5 347zM961 866q-94 0 -163 -74t-69 -188t69 -188t163 -74q98 0 167.5 74t69.5 188q0 115 -69.5 188.5t-167.5 73.5z" />
    <glyph glyph-name="A" unicode="A" horiz-adv-x="1378" 
d="M-6 0l561 1454h270l559 -1454h-274l-137 356h-565l-138 -356h-276zM690 1153l-198 -559h397z" />
    <glyph glyph-name="B" unicode="B" horiz-adv-x="1310" 
d="M180 0v1454h539q202 0 326 -105.5t124 -285.5q0 -116 -58 -204t-138 -120q99 -28 172.5 -116.5t73.5 -225.5q0 -181 -134.5 -289t-349.5 -108h-555zM451 238h282q90 0 147.5 57t57.5 141q0 80 -65.5 136.5t-161.5 56.5h-260v-391zM692 1217h-241v-369h247q92 0 144.5 55
t52.5 137q0 75 -54.5 126t-148.5 51z" />
    <glyph glyph-name="C" unicode="C" horiz-adv-x="1484" 
d="M80 727q0 210 96.5 382t268.5 271t384 99q204 0 361.5 -88t247.5 -236l-201 -168q-64 104 -172 168t-238 64q-204 0 -336.5 -140.5t-132.5 -351.5q0 -210 134 -350.5t335 -140.5q264 0 418 237l203 -160q-97 -153 -259 -245.5t-358 -92.5q-158 0 -297.5 58.5t-239 158.5
t-157 239t-57.5 296z" />
    <glyph glyph-name="D" unicode="D" horiz-adv-x="1521" 
d="M180 0v1454h522q211 0 381 -97.5t264.5 -263t94.5 -364.5q0 -203 -94.5 -369.5t-264.5 -263t-381 -96.5h-522zM682 1217h-231v-979h229q202 0 342.5 140t140.5 351q0 206 -139.5 347t-341.5 141z" />
    <glyph glyph-name="E" unicode="E" horiz-adv-x="1212" 
d="M180 0v1454h934v-237h-663v-367h546v-238h-546v-374h686v-238h-957z" />
    <glyph glyph-name="F" unicode="F" horiz-adv-x="1118" 
d="M180 0v1454h881v-237h-610v-396h512v-235h-512v-586h-271z" />
    <glyph glyph-name="G" unicode="G" horiz-adv-x="1560" 
d="M80 727q0 157 58 296t157.5 239t240.5 158.5t300 58.5q203 0 355 -84.5t251 -223.5l-199 -172q-69 98 -173 159t-236 61q-206 0 -341 -141t-135 -351t133 -350.5t336 -140.5q245 0 387 186v139h-331v225h585v-467q-104 -155 -267 -249.5t-372 -94.5q-158 0 -297 58.5
t-238 158.5t-156.5 239t-57.5 296z" />
    <glyph glyph-name="H" unicode="H" horiz-adv-x="1566" 
d="M451 0h-271v1454h271v-598h665v598h270v-1454h-270v610h-665v-610z" />
    <glyph glyph-name="I" unicode="I" horiz-adv-x="630" 
d="M180 0v1454h271v-1454h-271z" />
    <glyph glyph-name="J" unicode="J" horiz-adv-x="1073" 
d="M8 281l213 129q40 -93 92.5 -140t135.5 -47q91 0 139.5 59t48.5 154v1018h270v-1022q0 -202 -128.5 -329.5t-334.5 -127.5q-155 0 -268.5 80t-167.5 226z" />
    <glyph glyph-name="K" unicode="K" horiz-adv-x="1368" 
d="M451 0h-271v1454h271v-674l569 674h334l-520 -618l561 -836h-318l-428 643l-198 -227v-416z" />
    <glyph glyph-name="L" unicode="L" horiz-adv-x="1083" 
d="M180 0v1454h271v-1214h608v-240h-879z" />
    <glyph glyph-name="M" unicode="M" horiz-adv-x="1849" 
d="M180 0v1454h244l502 -792l501 792h242v-1454h-270v961l-406 -633h-135l-407 633v-961h-271z" />
    <glyph glyph-name="N" unicode="N" horiz-adv-x="1585" 
d="M180 0v1454h232l723 -983v983h270v-1454h-231l-723 989v-989h-271z" />
    <glyph glyph-name="O" unicode="O" horiz-adv-x="1667" 
d="M834 -25q-159 0 -299 58.5t-239.5 158.5t-157.5 239t-58 296t58 296t157.5 239t239.5 158.5t299 58.5q212 0 384.5 -99t270.5 -271.5t98 -381.5t-98 -381.5t-270.5 -271.5t-384.5 -99zM358 727q0 -210 137.5 -352t338.5 -142t338 142t137 352t-137 352t-338 142
t-338.5 -142t-137.5 -352z" />
    <glyph glyph-name="P" unicode="P" horiz-adv-x="1245" 
d="M180 0v1454h535q202 0 342.5 -137.5t140.5 -335.5q0 -133 -65 -244t-175.5 -174t-240.5 -63h-268v-500h-269zM449 733h227q102 0 173 72t71 176q0 100 -71 168t-173 68h-227v-484z" />
    <glyph glyph-name="Q" unicode="Q" horiz-adv-x="1667" 
d="M834 -25q-159 0 -299 58.5t-239.5 158.5t-157.5 239t-58 296t58 296t157.5 239t239.5 158.5t299 58.5q212 0 384.5 -99t270.5 -271.5t98 -381.5q0 -208 -96.5 -378.5t-263.5 -268.5l311 -451h-303l-248 361q-73 -15 -153 -15zM834 1221q-201 0 -338.5 -142t-137.5 -352
t137.5 -352t338.5 -142t338 142t137 352t-137 352t-338 142z" />
    <glyph glyph-name="R" unicode="R" horiz-adv-x="1347" 
d="M180 0v1454h604q206 0 341 -128t135 -329q0 -142 -77.5 -249.5t-207.5 -161.5l287 -586h-299l-250 545h-262v-545h-271zM451 1217v-447h294q100 0 167 63.5t67 165.5q0 97 -65.5 157.5t-165.5 60.5h-297z" />
    <glyph glyph-name="S" unicode="S" horiz-adv-x="1161" 
d="M59 262l205 156q52 -92 134.5 -143.5t183.5 -51.5q104 0 169.5 46.5t65.5 113.5q0 27 -6 48.5t-23.5 41t-32 32.5t-49.5 31t-56.5 28t-72.5 32t-79 35q-161 72 -225 115q-146 99 -168 252q-5 31 -5 65q0 179 140 297.5t352 118.5q147 0 272.5 -66t196.5 -192l-201 -150
q-102 162 -272 162q-95 0 -156 -44.5t-61 -117.5q0 -22 6.5 -41t16 -34t29 -30.5t35.5 -26t46 -25.5t49.5 -24t58 -25.5t60.5 -26.5q61 -27 98.5 -44.5t87 -44.5t79 -50.5t61.5 -56.5t49 -68.5t28.5 -82t11.5 -100.5q0 -83 -34.5 -157.5t-97.5 -132.5t-160.5 -92t-216.5 -34
q-164 0 -304 75.5t-215 211.5z" />
    <glyph glyph-name="T" unicode="T" horiz-adv-x="1146" 
d="M436 1214h-416v240h1104v-240h-417v-1214h-271v1214z" />
    <glyph glyph-name="U" unicode="U" horiz-adv-x="1490" 
d="M745 -25q-126 0 -235 44.5t-185 120.5t-119.5 180t-43.5 221v913h270v-895q0 -140 87.5 -234t225.5 -94t226 94t88 234v895h270v-913q0 -156 -74 -285.5t-208.5 -205t-301.5 -75.5z" />
    <glyph glyph-name="V" unicode="V" horiz-adv-x="1345" 
d="M-4 1454h285l393 -1104l391 1104h285l-541 -1454h-272z" />
    <glyph glyph-name="W" unicode="W" horiz-adv-x="2056" 
d="M438 0l-432 1454h277l299 -1081l319 1081h254l320 -1081l299 1081h276l-432 -1454h-272l-318 1055l-317 -1055h-273z" />
    <glyph glyph-name="X" unicode="X" horiz-adv-x="1273" 
d="M2 0l459 737l-443 717h308l311 -512l311 512h307l-442 -717l459 -737h-303l-332 535l-332 -535h-303z" />
    <glyph glyph-name="Y" unicode="Y" horiz-adv-x="1294" 
d="M512 649l-520 805h303l352 -567l352 567h304l-521 -805v-649h-270v649z" />
    <glyph glyph-name="Z" unicode="Z" horiz-adv-x="1142" 
d="M57 0v174l676 1043h-647v237h993v-172l-673 -1044h665v-238h-1014z" />
    <glyph glyph-name="bracketleft" unicode="[" horiz-adv-x="727" 
d="M684 -266h-510v1863h510v-235h-250v-1393h250v-235z" />
    <glyph glyph-name="backslash" unicode="\" horiz-adv-x="1099" 
d="M1075 -287h-268l-782 1899h268z" />
    <glyph glyph-name="bracketright" unicode="]" horiz-adv-x="727" 
d="M553 -268h-510v235h250v1393h-250v235h510v-1863z" />
    <glyph glyph-name="asciicircum" unicode="^" horiz-adv-x="1060" 
d="M59 793l387 661h168l387 -661h-249l-222 391l-221 -391h-250z" />
    <glyph glyph-name="underscore" unicode="_" horiz-adv-x="1114" 
d="M1042 -338h-970v207h970v-207z" />
    <glyph glyph-name="grave" unicode="`" horiz-adv-x="712" 
d="M418 1538l200 -367h-221l-303 367h324z" />
    <glyph glyph-name="a" unicode="a" horiz-adv-x="1097" 
d="M68 283q0 118 87 197.5t253 111.5l301 59v13q0 85 -56 129.5t-153 44.5q-82 0 -153.5 -35t-123.5 -94l-139 170q75 90 186.5 140t247.5 50q209 0 329 -109t120 -298v-662h-246v141q-45 -79 -125.5 -122.5t-183.5 -43.5q-149 0 -246.5 87t-97.5 221zM324 299q0 -53 39 -86
t102 -33q106 0 177 72.5t71 173.5v45l-244 -47q-74 -14 -109.5 -44t-35.5 -81z" />
    <glyph glyph-name="b" unicode="b" horiz-adv-x="1302" 
d="M152 1454h266v-543q47 72 134.5 115t182.5 43q213 0 353.5 -156t140.5 -391q0 -157 -66 -283t-178 -195t-246 -69q-96 0 -193 46.5t-145 128.5v-150h-249v1454zM408 524q0 -138 79.5 -224.5t196.5 -86.5q115 0 196 87.5t81 223.5q0 135 -81 221t-196 86
q-117 0 -196.5 -85t-79.5 -222z" />
    <glyph glyph-name="c" unicode="c" horiz-adv-x="1097" 
d="M623 -25q-155 0 -282 72.5t-199 198.5t-72 278q0 113 42.5 213.5t115.5 173.5t176 115.5t219 42.5q277 0 430 -229l-176 -160q-92 149 -252 149q-124 0 -204.5 -88t-80.5 -219q0 -132 81.5 -219.5t205.5 -87.5q158 0 262 139l172 -157q-72 -103 -186.5 -162.5
t-251.5 -59.5z" />
    <glyph glyph-name="d" unicode="d" horiz-adv-x="1302" 
d="M563 -25q-134 0 -245.5 69t-177.5 195t-66 283q0 235 140 391t353 156q95 0 183.5 -43t134.5 -115v543h266v-1454h-250v150q-48 -82 -145 -128.5t-193 -46.5zM618 831q-115 0 -195.5 -86t-80.5 -221q0 -137 80.5 -224t195.5 -87q117 0 197 86.5t80 224.5q0 136 -80 221.5
t-197 85.5z" />
    <glyph glyph-name="e" unicode="e" horiz-adv-x="1167" 
d="M72 520q0 152 68 277.5t190.5 198.5t275.5 73q220 0 356 -136.5t136 -346.5q0 -50 -17 -129h-733q12 -118 99 -184t208 -66q167 0 275 117l147 -177q-94 -90 -199.5 -131t-234.5 -41q-126 0 -233.5 42t-181 115t-115 173.5t-41.5 214.5zM604 846q-100 0 -170.5 -56
t-85.5 -153h490v2q-7 94 -73 150.5t-161 56.5z" />
    <glyph glyph-name="f" unicode="f" horiz-adv-x="710" 
d="M61 1044h146v70q0 166 103.5 265.5t279.5 99.5q98 0 153 -31v-221q-49 22 -108 22q-72 0 -117 -34.5t-45 -106.5v-64h225v-213h-225v-831h-266v831h-146v213z" />
    <glyph glyph-name="g" unicode="g" horiz-adv-x="1116" 
d="M51 -147q0 71 46 125.5t122 87.5q-76 56 -76 149q0 100 117 172q-82 52 -129 132t-47 175q0 157 124.5 266t305.5 109q72 0 145 -25h412v-204h-162q37 -67 37 -146q0 -160 -125.5 -268.5t-308.5 -108.5q-33 0 -80 7q-51 -26 -51 -66q0 -29 24.5 -45t57.5 -16h262
q159 0 257.5 -84t98.5 -217q0 -141 -148 -235.5t-388 -94.5q-225 0 -359.5 77.5t-134.5 209.5zM326 694q0 -71 54.5 -121.5t133.5 -50.5t135 50.5t56 121.5t-56 120.5t-135 49.5t-133.5 -49.5t-54.5 -120.5zM311 -113q0 -51 65.5 -80.5t172.5 -29.5q132 0 202 31t70 83
q0 45 -39 71t-96 26h-291q-84 -34 -84 -101z" />
    <glyph glyph-name="h" unicode="h" horiz-adv-x="1269" 
d="M418 0h-266v1454h266v-536q103 151 311 151q184 0 295 -116.5t111 -319.5v-633h-267v602q0 109 -58.5 169t-152.5 60q-117 0 -178 -81.5t-61 -198.5v-551z" />
    <glyph glyph-name="i" unicode="i" horiz-adv-x="569" 
d="M152 1044h266v-1044h-266v1044zM129 1348q0 64 44.5 106.5t109.5 42.5q64 0 108.5 -42.5t44.5 -106.5t-45 -108t-108 -44q-65 0 -109.5 44t-44.5 108z" />
    <glyph glyph-name="j" unicode="j" horiz-adv-x="561" 
d="M-90 -182q50 -19 104 -19q62 0 99 39t37 119v1087h266v-1099q0 -99 -28.5 -173.5t-78.5 -118.5t-114 -65.5t-140 -21.5q-85 0 -145 26v226zM283 1196q-65 0 -109.5 44t-44.5 108t44.5 106.5t109.5 42.5q64 0 108.5 -42.5t44.5 -106.5t-45 -108t-108 -44z" />
    <glyph glyph-name="k" unicode="k" horiz-adv-x="1144" 
d="M418 0h-266v1454h266v-842l381 432h315l-379 -436l416 -608h-313l-295 453l-125 -144v-309z" />
    <glyph glyph-name="l" unicode="l" horiz-adv-x="610" 
d="M139 1454h267v-1124q0 -58 18.5 -88.5t73.5 -30.5q37 0 69 12v-225q-57 -23 -125 -23q-137 0 -220 75.5t-83 232.5v1171z" />
    <glyph glyph-name="m" unicode="m" horiz-adv-x="1980" 
d="M152 0v1044h256v-143q102 168 319 168q120 0 210 -51t142 -146q67 98 152.5 147.5t210.5 49.5q185 0 294 -116t109 -320v-633h-266v602q0 109 -57.5 169t-151.5 60q-78 0 -133.5 -44t-79.5 -108.5t-24 -139.5v-539h-267v602q0 110 -58 169.5t-153 59.5q-60 0 -106.5 -25
t-74.5 -67.5t-42 -93t-14 -106.5v-539h-266z" />
    <glyph glyph-name="n" unicode="n" horiz-adv-x="1269" 
d="M152 0v1044h256v-143q102 168 321 168q185 0 295.5 -116.5t110.5 -319.5v-633h-267v602q0 110 -58 169.5t-153 59.5q-79 0 -135 -44t-80 -108.5t-24 -139.5v-539h-266z" />
    <glyph glyph-name="o" unicode="o" horiz-adv-x="1249" 
d="M625 -25q-157 0 -284 72.5t-198 197.5t-71 277t71 277t198 197.5t284 72.5t284 -72.5t198 -197.5t71 -277t-71 -277t-198 -197.5t-284 -72.5zM342 522q0 -131 80 -218t203 -87q122 0 202 87t80 218t-80 218t-202 87q-123 0 -203 -87t-80 -218z" />
    <glyph glyph-name="p" unicode="p" horiz-adv-x="1302" 
d="M152 -410v1454h249v-147q53 82 147 127t189 45q100 0 190.5 -40.5t157 -111.5t105.5 -174t39 -221q0 -235 -140.5 -391t-353.5 -156q-94 0 -182.5 40t-134.5 110v-535h-266zM684 831q-117 0 -196.5 -86.5t-79.5 -224.5q0 -137 79.5 -222t196.5 -85q115 0 196 86t81 221
q0 136 -81 223.5t-196 87.5z" />
    <glyph glyph-name="q" unicode="q" horiz-adv-x="1300" 
d="M567 -25q-213 0 -353 156t-140 391q0 118 39 221t105 174t156.5 111.5t190.5 40.5q95 0 189 -45t147 -127v147h250v-1454h-266v535q-46 -70 -135 -110t-183 -40zM618 831q-115 0 -195.5 -87t-80.5 -224q0 -135 80.5 -221t195.5 -86q117 0 197 85.5t80 221.5
q0 138 -80 224.5t-197 86.5z" />
    <glyph glyph-name="r" unicode="r" horiz-adv-x="804" 
d="M152 1044h262v-182q39 97 116.5 152t180.5 55q35 0 63 -8v-256q-20 8 -57 8q-138 0 -218.5 -96t-80.5 -258v-459h-266v1044z" />
    <glyph glyph-name="s" unicode="s" horiz-adv-x="964" 
d="M55 211l181 133q98 -154 249 -154q72 0 115 25.5t43 65.5q0 47 -45 75.5t-180 73.5q-168 55 -248 130t-80 198q0 134 116 222.5t286 88.5q127 0 227.5 -56t152.5 -151l-178 -129q-73 123 -207 123q-64 0 -105.5 -27t-41.5 -69q0 -39 46.5 -68.5t170.5 -73.5
q68 -25 112 -44.5t91 -49t73 -60.5t43 -76t17 -101q0 -134 -114.5 -223t-293.5 -89q-140 0 -256 63t-174 173z" />
    <glyph glyph-name="t" unicode="t" horiz-adv-x="763" 
d="M41 1044h156v285h258v-285h247v-213h-247v-464q0 -152 145 -152q76 0 129 35v-234q-77 -41 -199 -41q-161 0 -251.5 92.5t-90.5 260.5v503h-147v213z" />
    <glyph glyph-name="u" unicode="u" horiz-adv-x="1269" 
d="M541 -25q-185 0 -295.5 117t-110.5 320v632h266v-602q0 -110 58 -169.5t153 -59.5q79 0 135 44.5t80.5 109t24.5 139.5v538h266v-1044h-256v143q-102 -168 -321 -168z" />
    <glyph glyph-name="v" unicode="v" horiz-adv-x="1091" 
d="M2 1044h274l271 -718l268 718h275l-424 -1044h-240z" />
    <glyph glyph-name="w" unicode="w" horiz-adv-x="1646" 
d="M352 0l-344 1044h264l213 -716l230 716h217l229 -716l213 716h264l-344 -1044h-245l-226 676l-225 -676h-246z" />
    <glyph glyph-name="x" unicode="x" horiz-adv-x="1069" 
d="M12 0l357 528l-349 516h306l206 -337l207 337h305l-348 -516l357 -528h-299l-222 346l-221 -346h-299z" />
    <glyph glyph-name="y" unicode="y" horiz-adv-x="1093" 
d="M420 29l-420 1015h285l266 -727l264 727h277l-467 -1163q-68 -165 -158.5 -240t-233.5 -75q-96 0 -174 35v225q62 -35 140 -35q69 0 117 38t79 132z" />
    <glyph glyph-name="z" unicode="z" horiz-adv-x="968" 
d="M70 0v141l489 686h-483v217h815v-141l-494 -686h512v-217h-839z" />
    <glyph glyph-name="braceleft" unicode="{" horiz-adv-x="708" 
d="M49 762q92 1 127 45.5t35 146.5v279q0 184 94.5 274t288.5 90q42 0 65 -2v-231q-6 0 -16.5 1t-15.5 1q-86 0 -121 -39.5t-35 -126.5v-246q0 -235 -135 -288q135 -56 135 -289v-248q0 -99 43 -131.5t145 -32.5v-229q-23 -2 -63 -2q-195 0 -290 90t-95 274v279
q0 102 -34.5 145.5t-127.5 44.5v195z" />
    <glyph glyph-name="bar" unicode="|" horiz-adv-x="604" 
d="M430 -287h-256v1905h256v-1905z" />
    <glyph glyph-name="braceright" unicode="}" horiz-adv-x="708" 
d="M115 -268q-43 0 -66 2v231q6 0 17 -1t16 -1q86 0 121 39.5t35 126.5v246q0 236 135 289q-135 56 -135 288v248q0 99 -43.5 131.5t-145.5 32.5v229q23 2 64 2q195 0 290 -90t95 -274v-279q0 -102 34.5 -145.5t126.5 -44.5v-195q-92 -1 -126.5 -45.5t-34.5 -146.5v-279
q0 -184 -94.5 -274t-288.5 -90z" />
    <glyph glyph-name="asciitilde" unicode="~" horiz-adv-x="1130" 
d="M293 510l-176 43q0 128 73 211.5t195 83.5q50 0 104 -17.5t91.5 -39t82 -39t78.5 -17.5q50 0 77 36.5t30 86.5l176 -43q0 -128 -73 -211.5t-195 -83.5q-50 0 -104 17.5t-92 39t-82.5 39t-78.5 17.5q-50 0 -76.5 -36t-29.5 -87z" />
    <glyph glyph-name="uni00A0" unicode="&#xa0;" horiz-adv-x="501" 
 />
    <glyph glyph-name="exclamdown" unicode="&#xa1;" horiz-adv-x="577" 
d="M150 -410l26 1035h227l25 -1035h-278zM291 762q-66 0 -112 44.5t-46 108.5q0 66 46 110t112 44q64 0 109.5 -44.5t45.5 -109.5q0 -64 -45.5 -108.5t-109.5 -44.5z" />
    <glyph glyph-name="cent" unicode="&#xa2;" horiz-adv-x="1110" 
d="M72 725q0 204 127 353.5t325 183.5v237h195v-237q208 -33 336 -222l-176 -159q-62 100 -160 137q-51 14 -90 14q-128 0 -207.5 -88.5t-79.5 -220.5q0 -130 80 -218.5t207 -88.5q156 0 262 141l172 -160q-59 -84 -147.5 -139t-196.5 -74v-237h-195v237q-197 34 -324.5 185
t-127.5 356z" />
    <glyph glyph-name="sterling" unicode="&#xa3;" horiz-adv-x="1175" 
d="M92 246h33q41 0 64.5 29.5t23.5 80.5v269h-119v172h119v229q0 197 130 325t339 128q143 0 252.5 -63.5t173.5 -162.5l-172 -168q-38 58 -103 99t-151 41q-91 0 -148 -55.5t-57 -143.5v-229h389v-172h-389v-254q0 -81 -49 -125h684v-246h-1020v246z" />
    <glyph glyph-name="currency" unicode="&#xa4;" horiz-adv-x="1423" 
d="M84 260l213 213q-72 118 -72 256q0 136 72 254l-213 213l158 160l215 -215q114 71 252 71q139 0 256 -71l215 215l159 -160l-215 -215q70 -120 70 -252q0 -136 -72 -254l215 -215l-159 -158l-215 213q-119 -69 -254 -69q-140 0 -250 69l-215 -213zM709 963
q-100 0 -166 -66.5t-66 -167.5q0 -100 65.5 -169.5t166.5 -72.5q109 0 175 66t66 176q-3 81 -50.5 142t-121.5 83q-52 9 -69 9z" />
    <glyph glyph-name="yen" unicode="&#xa5;" horiz-adv-x="1382" 
d="M463 791l-428 663h303l352 -567l352 567h304l-428 -663h243v-168h-336v-131h336v-168h-336v-324h-270v324h-332v168h332v131h-332v168h240z" />
    <glyph glyph-name="brokenbar" unicode="&#xa6;" horiz-adv-x="604" 
d="M174 420h256v-707h-256v707zM174 1618h256v-707h-256v707z" />
    <glyph glyph-name="section" unicode="&#xa7;" horiz-adv-x="1091" 
d="M70 39l176 127q112 -180 307 -180q81 0 135.5 31.5t54.5 84.5q0 56 -50.5 94t-219.5 121q-205 102 -280.5 181.5t-75.5 189.5q0 119 133 219q-65 53 -94 108.5t-29 127.5q0 147 120.5 241.5t301.5 94.5q140 0 263 -64.5t189 -187.5l-174 -129q-45 78 -120.5 122
t-155.5 44q-86 0 -134 -32.5t-48 -84.5q0 -55 51 -91.5t239 -129.5q192 -95 265 -177t73 -192q0 -122 -131 -219q121 -104 121 -232q0 -146 -126.5 -240.5t-305.5 -94.5q-145 0 -275 68.5t-210 199.5zM414 803q-65 -47 -62 -103q3 -45 50 -81.5t192 -112.5q58 -30 108 -60
q63 46 58 101q-3 50 -50.5 89t-191.5 112q-29 14 -104 55z" />
    <glyph glyph-name="dieresis" unicode="&#xa8;" horiz-adv-x="1206" 
d="M682 1348q0 64 44.5 106.5t109.5 42.5q64 0 108.5 -42.5t44.5 -106.5t-45 -108t-108 -44q-65 0 -109.5 44t-44.5 108zM371 1196q-65 0 -109.5 44t-44.5 108t44.5 106.5t109.5 42.5q64 0 108.5 -42.5t44.5 -106.5t-45 -108t-108 -44z" />
    <glyph glyph-name="copyright" unicode="&#xa9;" horiz-adv-x="1689" 
d="M80 727q0 148 57 285.5t156 240.5t242.5 164.5t306.5 61.5q162 0 306 -61.5t244.5 -164.5t159 -240.5t58.5 -285.5q0 -149 -58.5 -286.5t-159 -240t-244.5 -164t-306 -61.5t-305.5 61.5t-242.5 164t-156.5 240t-57.5 286.5zM291 727q0 -150 69.5 -275.5t196.5 -200.5
t285 -75q157 0 285.5 75t200 201t71.5 275t-71.5 275t-200 201t-285.5 75q-158 0 -285 -75t-196.5 -200.5t-69.5 -275.5zM426 729q0 111 53.5 206t152 152.5t220.5 57.5q104 0 188.5 -48.5t143.5 -129.5l-131 -125q-80 112 -203 112q-98 0 -159.5 -63.5t-61.5 -163.5
q0 -101 62 -164t159 -63q117 0 211 106l135 -119q-59 -84 -148.5 -131t-195.5 -47q-123 0 -221.5 58t-151.5 154t-53 208z" />
    <glyph glyph-name="ordfeminine" unicode="&#xaa;" horiz-adv-x="817" 
d="M137 1022q0 69 50 115.5t143 68.5l159 37v2q0 32 -25 50t-65 18q-92 0 -178 -72l-80 137q33 35 105.5 68t159.5 33q123 0 195.5 -61.5t72.5 -162.5v-389h-176v70q-19 -35 -63 -60.5t-99 -25.5q-90 0 -144.5 48t-54.5 124zM700 575h-589v185h589v-185zM379 1098
q-62 -16 -62 -54q0 -22 15.5 -33.5t38.5 -11.5q47 0 82.5 35t35.5 84v8z" />
    <glyph glyph-name="guillemotleft" unicode="&#xab;" horiz-adv-x="1038" 
d="M698 113l-254 409l254 414h258l-256 -414l256 -409h-258zM61 522l254 414h258l-256 -414l256 -409h-258z" />
    <glyph glyph-name="logicalnot" unicode="&#xac;" horiz-adv-x="1198" 
d="M121 612v232h940v-486h-236v254h-704z" />
    <glyph glyph-name="uni00AD" unicode="&#xad;" horiz-adv-x="882" 
d="M115 444v226h653v-226h-653z" />
    <glyph glyph-name="registered" unicode="&#xae;" horiz-adv-x="968" 
d="M485 772q-177 0 -295 119.5t-118 296.5q0 174 118.5 292.5t294.5 118.5q175 0 293.5 -118.5t118.5 -292.5q0 -177 -118.5 -296.5t-293.5 -119.5zM205 1188q0 -125 78 -205t202 -80q123 0 202 80t79 205q0 123 -79 201.5t-202 78.5q-124 0 -202 -78.5t-78 -201.5z
M330 1376h188q56 0 92.5 -36t36.5 -91q0 -80 -63 -114l82 -140h-125l-66 121h-29v-121h-116v381zM489 1286h-45v-76h45q18 0 29.5 10t11.5 27t-12 28t-29 11z" />
    <glyph glyph-name="macron" unicode="&#xaf;" horiz-adv-x="768" 
d="M84 1249v199h600v-199h-600z" />
    <glyph glyph-name="degree" unicode="&#xb0;" horiz-adv-x="786" 
d="M393 834q-135 0 -229 93t-94 228q0 136 94 230t229 94t229.5 -94t94.5 -230q0 -135 -94.5 -228t-229.5 -93zM264 1155q0 -55 37 -92t92 -37q56 0 94.5 37t38.5 92q0 58 -38.5 95.5t-94.5 37.5t-92.5 -37.5t-36.5 -95.5z" />
    <glyph glyph-name="plusminus" unicode="&#xb1;" horiz-adv-x="1200" 
d="M119 1028h364v346h236v-346h362v-233h-362v-346h-236v346h-364v233zM115 311h970v-233h-970v233z" />
    <glyph glyph-name="twosuperior" unicode="&#xb2;" horiz-adv-x="718" 
d="M53 1298q39 78 119 129.5t182 51.5q128 0 209.5 -70t81.5 -184q0 -52 -18 -95.5t-54 -79t-67 -58t-81 -54.5q-9 -5 -13 -8q-9 -6 -27 -17.5t-26.5 -17t-22.5 -15t-21 -15.5t-15 -13t-12 -13t-5 -12h376v-176h-585q-13 57 -13 111q0 90 52 157.5t157 133.5q17 11 47.5 30
t44.5 28t33.5 24t28 26t15.5 26t7 32q0 36 -25.5 56.5t-70.5 20.5q-95 0 -149 -102z" />
    <glyph glyph-name="threesuperior" unicode="&#xb3;" horiz-adv-x="718" 
d="M41 805l145 104q52 -106 156 -106q48 0 82.5 29t34.5 71q0 51 -37.5 79t-99.5 28q-56 0 -109 -11v119l164 160h-289v176h547v-129l-191 -178q96 -20 153.5 -86t57.5 -158q0 -123 -88.5 -199.5t-222.5 -76.5q-105 0 -184.5 50t-118.5 128z" />
    <glyph glyph-name="acute" unicode="&#xb4;" horiz-adv-x="710" 
d="M94 1171l201 367h321l-301 -367h-221z" />
    <glyph glyph-name="uni00B5" unicode="&#xb5;" horiz-adv-x="1286" 
d="M152 1044h266v-602q0 -110 58 -169.5t153 -59.5q79 0 135 44.5t80 109t24 139.5v538h267v-1044h-256v143q-102 -168 -322 -168q-77 0 -141 21v-406h-262v768q-2 18 -2 54v632z" />
    <glyph glyph-name="paragraph" unicode="&#xb6;" horiz-adv-x="1345" 
d="M41 1034q0 185 135 302.5t330 117.5h645v-1659h-217v1432h-152v-1432h-219v817h-57q-126 0 -231.5 51.5t-169.5 149t-64 221.5z" />
    <glyph glyph-name="periodcentered" unicode="&#xb7;" horiz-adv-x="524" 
d="M109 623q0 64 44 106.5t109 42.5q64 0 109 -42.5t45 -106.5t-45 -108t-109 -44q-65 0 -109 44t-44 108z" />
    <glyph glyph-name="cedilla" unicode="&#xb8;" horiz-adv-x="552" 
d="M209 -473q-75 0 -125 16v158q54 -16 102 -16q45 0 70 14t25 39q0 53 -101 53q-33 0 -57 -4l78 266l127 -53l-31 -102q71 -15 121.5 -61t50.5 -120q0 -87 -74 -138.5t-186 -51.5z" />
    <glyph glyph-name="onesuperior" unicode="&#xb9;" horiz-adv-x="651" 
d="M252 1208q-62 -28 -184 -32v176q88 5 140 27t89 75h149v-623h172v-180h-540v180h174v377z" />
    <glyph glyph-name="ordmasculine" unicode="&#xba;" horiz-adv-x="866" 
d="M434 850q-134 0 -227.5 91.5t-93.5 221.5q0 132 93.5 224t227.5 92q132 0 226 -92t94 -224q0 -130 -94 -221.5t-226 -91.5zM135 766h596v-184h-596v184zM434 1294q-54 0 -91.5 -37t-37.5 -94q0 -55 37 -91t92 -36t92 36t37 91q0 57 -37.5 94t-91.5 37z" />
    <glyph glyph-name="guillemotright" unicode="&#xbb;" horiz-adv-x="1042" 
d="M725 111h-258l256 413l-256 410h258l254 -410zM340 524l-256 410h258l254 -410l-254 -413h-258z" />
    <glyph glyph-name="onequarter" unicode="&#xbc;" horiz-adv-x="1591" 
d="M860 168v117l375 518h180v-473h111v-164h-111v-166h-184v168h-371zM440 0h-192l1063 1454h192zM260 1208q-62 -28 -184 -32v176q88 5 140 27t89 75h150v-623h172v-180h-541v180h174v377zM1237 522l-143 -198h143v198z" />
    <glyph glyph-name="onehalf" unicode="&#xbd;" horiz-adv-x="1724" 
d="M1206 543l-147 104q39 78 119 129t182 51q128 0 209.5 -70t81.5 -184q0 -52 -17.5 -94.5t-54 -78t-66.5 -57.5t-80 -54q-11 -7 -16 -10q-9 -6 -27 -17.5t-26.5 -17t-22.5 -15t-21 -15.5t-15 -13t-12 -13t-5 -12h377v-176h-586q-12 52 -12 111q0 90 51.5 157t157.5 133
q17 11 47.5 30t44.5 28t33.5 24t28 26t15.5 26t7 32q0 37 -26 57.5t-70 20.5q-52 0 -90 -30t-60 -72zM258 0l1063 1454h192l-1062 -1454h-193zM76 1352q88 5 140 27t89 75h150v-623h172v-180h-541v180h174v377q-62 -28 -184 -32v176z" />
    <glyph glyph-name="threequarters" unicode="&#xbe;" horiz-adv-x="1589" 
d="M350 627q-105 0 -184.5 50t-118.5 128l146 104q52 -106 155 -106q48 0 82.5 29t34.5 71q0 51 -37.5 79t-99.5 28q-56 0 -109 -11v119l164 160h-289v176h547v-129l-190 -178q96 -20 153.5 -86t57.5 -158q0 -123 -89 -199.5t-223 -76.5zM854 168v117l375 518h180v-473h111
v-164h-111v-166h-184v168h-371zM434 0h-192l1063 1454h192zM1231 522l-144 -198h144v198z" />
    <glyph glyph-name="questiondown" unicode="&#xbf;" horiz-adv-x="983" 
d="M512 -434q-198 0 -327.5 110.5t-129.5 303.5q0 69 20.5 128t53 100t71.5 76.5t78.5 66.5t72 61.5t53 69.5t20.5 83v84h254v-108q0 -67 -19.5 -123.5t-51 -95.5t-69.5 -72.5t-76 -62t-69.5 -57t-51 -64.5t-19.5 -78q0 -81 53.5 -127.5t144.5 -46.5q157 0 254 153l178 -149
q-75 -123 -188.5 -187.5t-251.5 -64.5zM397 920q0 64 44.5 106.5t109.5 42.5q64 0 109 -42.5t45 -106.5t-45 -108t-109 -44q-65 0 -109.5 44t-44.5 108z" />
    <glyph glyph-name="Agrave" unicode="&#xc0;" horiz-adv-x="1378" 
d="M-6 0l561 1454h270l559 -1454h-274l-137 356h-565l-138 -356h-276zM492 594h397l-199 559zM553 1581l-303 367h323l201 -367h-221z" />
    <glyph glyph-name="Aacute" unicode="&#xc1;" horiz-adv-x="1378" 
d="M-6 0l561 1454h270l559 -1454h-274l-137 356h-565l-138 -356h-276zM492 594h397l-199 559zM819 1581h-221l201 367h321z" />
    <glyph glyph-name="Acircumflex" unicode="&#xc2;" horiz-adv-x="1378" 
d="M-6 0l561 1454h270l559 -1454h-274l-137 356h-565l-138 -356h-276zM555 1550h-240l260 402h228l260 -402h-240l-135 230zM492 594h397l-199 559z" />
    <glyph glyph-name="Atilde" unicode="&#xc3;" horiz-adv-x="1378" 
d="M-6 0l561 1454h270l559 -1454h-274l-137 356h-565l-138 -356h-276zM322 1626q0 121 64 193.5t171 72.5q40 0 80 -15.5t66 -33.5t55.5 -33.5t50.5 -15.5q69 0 76 104l174 -43q0 -120 -66 -193t-170 -73q-40 0 -79.5 15t-66 33.5t-56 33.5t-50.5 15q-35 0 -53 -28.5
t-20 -74.5zM690 1153l-198 -559h397z" />
    <glyph glyph-name="Adieresis" unicode="&#xc4;" horiz-adv-x="1378" 
d="M270 0h-276l561 1454h270l559 -1454h-274l-137 356h-565zM492 594h397l-199 559zM922 1606q-65 0 -109.5 43.5t-44.5 107.5t44.5 107t109.5 43q64 0 108.5 -43t44.5 -107t-44.5 -107.5t-108.5 -43.5zM457 1606q-65 0 -109.5 43.5t-44.5 107.5t44.5 107t109.5 43
q64 0 108.5 -43t44.5 -107t-44.5 -107.5t-108.5 -43.5z" />
    <glyph glyph-name="Aring" unicode="&#xc5;" horiz-adv-x="1378" 
d="M-6 0l561 1454h270l559 -1454h-274l-137 356h-565l-138 -356h-276zM449 1769q0 98 67.5 165t173.5 67q105 0 173.5 -67t68.5 -165q0 -97 -69 -164t-173 -67q-105 0 -173 67t-68 164zM690 1153l-198 -559h397zM690 1849q-35 0 -58.5 -23t-23.5 -57q0 -33 23.5 -56
t58.5 -23q34 0 57 23t23 56q0 34 -23 57t-57 23z" />
    <glyph glyph-name="AE" unicode="&#xc6;" horiz-adv-x="1970" 
d="M-47 0l735 1454h1184v-237h-623v-367h506v-238h-506v-372h645v-240h-915v446h-514l-223 -446h-289zM852 1217l-262 -523h389v523h-127z" />
    <glyph glyph-name="Ccedilla" unicode="&#xc7;" horiz-adv-x="1484" 
d="M80 727q0 210 96.5 382t268.5 271t384 99q204 0 361.5 -88t247.5 -236l-201 -168q-64 104 -172 168t-238 64q-204 0 -336.5 -140.5t-132.5 -351.5q0 -210 134 -350.5t335 -140.5q264 0 418 237l203 -160q-93 -145 -243 -236t-333 -100l-24 -79q71 -15 121.5 -61
t50.5 -120q0 -87 -74 -138.5t-186 -51.5q-75 0 -125 16v158q54 -16 102 -16q94 0 94 53t-100 53q-33 0 -57 -4l57 195q-186 23 -335 126t-232.5 265t-83.5 354z" />
    <glyph glyph-name="Egrave" unicode="&#xc8;" horiz-adv-x="1212" 
d="M180 0v1454h934v-237h-663v-367h546v-238h-546v-374h686v-238h-957zM219 1948h324l200 -367h-221z" />
    <glyph glyph-name="Eacute" unicode="&#xc9;" horiz-adv-x="1212" 
d="M180 0v1454h934v-237h-663v-367h546v-238h-546v-374h686v-238h-957zM745 1581h-221l201 367h322z" />
    <glyph glyph-name="Ecircumflex" unicode="&#xca;" horiz-adv-x="1212" 
d="M180 0v1454h934v-237h-663v-367h546v-238h-546v-374h686v-238h-957zM500 1550h-240l260 402h228l260 -402h-240l-135 230z" />
    <glyph glyph-name="Edieresis" unicode="&#xcb;" horiz-adv-x="1212" 
d="M1137 0h-957v1454h934v-237h-663v-367h546v-238h-546v-374h686v-238zM887 1606q-65 0 -109.5 43.5t-44.5 107.5t44.5 107t109.5 43q64 0 108.5 -43t44.5 -107t-44.5 -107.5t-108.5 -43.5zM268 1757q0 64 44.5 107t109.5 43q64 0 108.5 -43t44.5 -107t-44.5 -107.5
t-108.5 -43.5q-65 0 -109.5 43.5t-44.5 107.5z" />
    <glyph glyph-name="Igrave" unicode="&#xcc;" horiz-adv-x="630" 
d="M180 0v1454h271v-1454h-271zM207 1948l201 -367h-222l-303 367h324z" />
    <glyph glyph-name="Iacute" unicode="&#xcd;" horiz-adv-x="630" 
d="M180 0v1454h271v-1454h-271zM219 1581l201 367h321l-301 -367h-221z" />
    <glyph glyph-name="Icircumflex" unicode="&#xce;" horiz-adv-x="630" 
d="M180 0v1454h271v-1454h-271zM-57 1550l260 402h227l260 -402h-239l-136 230l-133 -230h-239z" />
    <glyph glyph-name="Idieresis" unicode="&#xcf;" horiz-adv-x="630" 
d="M451 0h-271v1454h271v-1454zM549 1606q-65 0 -109.5 43.5t-44.5 107.5t44.5 107t109.5 43q64 0 108.5 -43t44.5 -107t-44.5 -107.5t-108.5 -43.5zM-68 1757q0 64 44.5 107t109.5 43q64 0 109 -43t45 -107t-45 -107.5t-109 -43.5q-65 0 -109.5 43.5t-44.5 107.5z" />
    <glyph glyph-name="Eth" unicode="&#xd0;" horiz-adv-x="1533" 
d="M35 819h158v635h522q158 0 296.5 -57t235 -154.5t152 -231t55.5 -282.5q0 -152 -55.5 -286.5t-152.5 -232t-235 -154t-296 -56.5h-522v637h-158v182zM463 819h336v-182h-336v-399h229q202 0 343 140t141 351q0 206 -140 347t-342 141h-231v-398z" />
    <glyph glyph-name="Ntilde" unicode="&#xd1;" horiz-adv-x="1585" 
d="M451 0h-271v1454h232l723 -983v983h270v-1454h-231l-723 989v-989zM416 1626q0 121 64 193.5t171 72.5q40 0 80 -15.5t66 -33.5t55.5 -33.5t50.5 -15.5q69 0 76 104l174 -43q0 -120 -65.5 -193t-169.5 -73q-40 0 -79.5 15t-66 33.5t-56 33.5t-50.5 15q-35 0 -53.5 -28.5
t-20.5 -74.5z" />
    <glyph glyph-name="Ograve" unicode="&#xd2;" horiz-adv-x="1667" 
d="M834 -25q-159 0 -299 58.5t-239.5 158.5t-157.5 239t-58 296t58 296t157.5 239t239.5 158.5t299 58.5q212 0 384.5 -99t270.5 -271.5t98 -381.5t-98 -381.5t-270.5 -271.5t-384.5 -99zM834 1221q-201 0 -338.5 -142t-137.5 -352t137.5 -352t338.5 -142t338 142t137 352
t-137 352t-338 142zM709 1581l-303 367h323l201 -367h-221z" />
    <glyph glyph-name="Oacute" unicode="&#xd3;" horiz-adv-x="1667" 
d="M834 -25q-159 0 -299 58.5t-239.5 158.5t-157.5 239t-58 296t58 296t157.5 239t239.5 158.5t299 58.5q212 0 384.5 -99t270.5 -271.5t98 -381.5t-98 -381.5t-270.5 -271.5t-384.5 -99zM834 1221q-201 0 -338.5 -142t-137.5 -352t137.5 -352t338.5 -142t338 142t137 352
t-137 352t-338 142zM733 1581l201 367h321l-301 -367h-221z" />
    <glyph glyph-name="Ocircumflex" unicode="&#xd4;" horiz-adv-x="1667" 
d="M80 727q0 157 58 296t157.5 239t239.5 158.5t299 58.5q212 0 384.5 -99t270.5 -271.5t98 -381.5t-98 -381.5t-270.5 -271.5t-384.5 -99q-159 0 -299 58.5t-239.5 158.5t-157.5 239t-58 296zM834 1221q-201 0 -338.5 -142t-137.5 -352t137.5 -352t338.5 -142t338 142
t137 352t-137 352t-338 142zM698 1550h-239l260 402h227l260 -402h-239l-136 230z" />
    <glyph glyph-name="Otilde" unicode="&#xd5;" horiz-adv-x="1667" 
d="M80 727q0 157 58 296t157.5 239t239.5 158.5t299 58.5q212 0 384.5 -99t270.5 -271.5t98 -381.5t-98 -381.5t-270.5 -271.5t-384.5 -99q-159 0 -299 58.5t-239.5 158.5t-157.5 239t-58 296zM834 1221q-201 0 -338.5 -142t-137.5 -352t137.5 -352t338.5 -142t338 142
t137 352t-137 352t-338 142zM463 1626q0 121 64 193.5t171 72.5q40 0 80 -15.5t66 -33.5t55.5 -33.5t50.5 -15.5q69 0 76 104l174 -43q0 -120 -65.5 -193t-169.5 -73q-40 0 -79.5 15t-66 33.5t-56 33.5t-50.5 15q-35 0 -53.5 -28.5t-20.5 -74.5z" />
    <glyph glyph-name="Odieresis" unicode="&#xd6;" horiz-adv-x="1667" 
d="M834 -25q-159 0 -299 58.5t-239.5 158.5t-157.5 239t-58 296t58 296t157.5 239t239.5 158.5t299 58.5q212 0 384.5 -99t270.5 -271.5t98 -381.5t-98 -381.5t-270.5 -271.5t-384.5 -99zM834 1221q-201 0 -338.5 -142t-137.5 -352t137.5 -352t338.5 -142t338 142t137 352
t-137 352t-338 142zM911 1757q0 64 44.5 107t109.5 43q64 0 109 -43t45 -107t-45 -107.5t-109 -43.5q-65 0 -109.5 43.5t-44.5 107.5zM446 1757q0 64 44.5 107t109.5 43q64 0 109 -43t45 -107t-45 -107.5t-109 -43.5q-65 0 -109.5 43.5t-44.5 107.5z" />
    <glyph glyph-name="multiply" unicode="&#xd7;" horiz-adv-x="1140" 
d="M256 254l-160 160l314 313l-314 313l160 160l315 -311l312 311l161 -160l-313 -313l313 -313l-161 -160l-312 313z" />
    <glyph glyph-name="Oslash" unicode="&#xd8;" horiz-adv-x="1667" 
d="M80 727q0 157 58 296t157.5 239t239.5 158.5t299 58.5q197 0 376 -95l142 197l129 -88l-144 -199q119 -104 184.5 -250.5t65.5 -316.5q0 -209 -98 -381.5t-270.5 -271.5t-384.5 -99q-199 0 -375 95l-142 -197l-131 88l144 199q-119 104 -184.5 250.5t-65.5 316.5z
M358 727q0 -205 131 -346l566 786q-102 54 -221 54q-201 0 -338.5 -142t-137.5 -352zM614 287q102 -54 220 -54q201 0 338 142t137 352q0 207 -131 344z" />
    <glyph glyph-name="Ugrave" unicode="&#xd9;" horiz-adv-x="1490" 
d="M745 -25q-126 0 -235 44.5t-185 120.5t-119.5 180t-43.5 221v913h270v-895q0 -140 87.5 -234t225.5 -94t226 94t88 234v895h270v-913q0 -156 -74 -285.5t-208.5 -205t-301.5 -75.5zM608 1581l-303 367h324l200 -367h-221z" />
    <glyph glyph-name="Uacute" unicode="&#xda;" horiz-adv-x="1490" 
d="M162 541v913h270v-895q0 -140 87.5 -234t225.5 -94t226 94t88 234v895h270v-913q0 -156 -74 -285.5t-208.5 -205t-301.5 -75.5q-126 0 -235 44.5t-185 120.5t-119.5 180t-43.5 221zM870 1581h-221l201 367h321z" />
    <glyph glyph-name="Ucircumflex" unicode="&#xdb;" horiz-adv-x="1490" 
d="M745 -25q-126 0 -235 44.5t-185 120.5t-119.5 180t-43.5 221v913h270v-895q0 -140 87.5 -234t225.5 -94t226 94t88 234v895h270v-913q0 -156 -74 -285.5t-208.5 -205t-301.5 -75.5zM371 1550l260 402h227l260 -402h-239l-136 230l-133 -230h-239z" />
    <glyph glyph-name="Udieresis" unicode="&#xdc;" horiz-adv-x="1490" 
d="M162 1454h270v-895q0 -140 87.5 -234t225.5 -94t226 94t88 234v895h270v-913q0 -156 -74 -285.5t-208.5 -205t-301.5 -75.5q-126 0 -235 44.5t-185 120.5t-119.5 180t-43.5 221v913zM823 1757q0 64 44.5 107t109.5 43q64 0 108.5 -43t44.5 -107t-44.5 -107.5
t-108.5 -43.5q-65 0 -109.5 43.5t-44.5 107.5zM512 1606q-65 0 -109.5 43.5t-44.5 107.5t44.5 107t109.5 43q64 0 109 -43t45 -107t-45 -107.5t-109 -43.5z" />
    <glyph glyph-name="Yacute" unicode="&#xdd;" horiz-adv-x="1294" 
d="M512 649l-520 805h303l352 -567l352 567h304l-521 -805v-649h-270v649zM557 1581l201 367h321l-301 -367h-221z" />
    <glyph glyph-name="Thorn" unicode="&#xde;" horiz-adv-x="1265" 
d="M449 0h-269v1454h269v-254h266q203 0 343 -137t140 -336q0 -202 -140.5 -340.5t-340.5 -138.5h-268v-248zM449 479h237q110 0 177 68.5t67 179.5q0 110 -66.5 176t-175.5 66h-239v-490z" />
    <glyph glyph-name="germandbls" unicode="&#xdf;" horiz-adv-x="1265" 
d="M139 1067q0 179 140 295.5t352 116.5q195 0 329 -103.5t134 -247.5q0 -36 -10 -68.5t-23.5 -56.5t-42 -54t-50.5 -49.5t-63 -53.5q-10 -8 -29 -22.5t-26.5 -20.5t-20.5 -17.5t-18 -17.5t-12 -15t-9 -16.5t-2 -15.5q0 -9 4 -17.5t13.5 -17.5t18.5 -16.5t26.5 -19t29.5 -19
t35.5 -21.5t36.5 -22q134 -77 197 -150t63 -170q0 -130 -107.5 -211.5t-256.5 -81.5q-122 0 -222 56t-151 155l176 131q33 -55 82.5 -91t106.5 -36q45 0 77.5 23t32.5 63q0 18 -8.5 34t-32 34t-40 28.5t-59 35t-62.5 36.5q-118 73 -168 128.5t-50 134.5q0 59 38 110.5
t122 120.5q78 64 109.5 100.5t31.5 77.5q0 60 -57.5 100.5t-150.5 40.5t-157.5 -54t-64.5 -148v-1055h-262v1067z" />
    <glyph glyph-name="agrave" unicode="&#xe0;" horiz-adv-x="1097" 
d="M68 283q0 118 87 197.5t253 111.5l301 59v13q0 85 -56 129.5t-153 44.5q-82 0 -153.5 -35t-123.5 -94l-139 170q75 90 186.5 140t247.5 50q209 0 329 -109t120 -298v-662h-246v141q-45 -79 -125.5 -122.5t-183.5 -43.5q-149 0 -246.5 87t-97.5 221zM98 1538h324l201 -367
h-222zM324 299q0 -53 39 -86t102 -33q106 0 177 72.5t71 173.5v45l-244 -47q-74 -14 -109.5 -44t-35.5 -81z" />
    <glyph glyph-name="aacute" unicode="&#xe1;" horiz-adv-x="1097" 
d="M68 283q0 118 87 197.5t253 111.5l301 59v13q0 85 -56 129.5t-153 44.5q-82 0 -153.5 -35t-123.5 -94l-139 170q75 90 186.5 140t247.5 50q209 0 329 -109t120 -298v-662h-246v141q-45 -79 -125.5 -122.5t-183.5 -43.5q-149 0 -246.5 87t-97.5 221zM635 1171h-221
l200 367h322zM469 424q-74 -14 -109.5 -44t-35.5 -81q0 -53 39 -86t102 -33q106 0 177 72.5t71 173.5v45z" />
    <glyph glyph-name="acircumflex" unicode="&#xe2;" horiz-adv-x="1097" 
d="M412 -25q-149 0 -246.5 87t-97.5 221q0 118 87 197.5t253 111.5l301 59v13q0 85 -56 129.5t-153 44.5q-82 0 -153.5 -35t-123.5 -94l-139 170q75 90 186.5 140t247.5 50q209 0 329 -109t120 -298v-662h-246v141q-45 -79 -125.5 -122.5t-183.5 -43.5zM152 1141l260 401
h227l260 -401h-240l-135 229l-133 -229h-239zM469 424q-74 -14 -109.5 -44t-35.5 -81q0 -53 39 -86t102 -33q106 0 177 72.5t71 173.5v45z" />
    <glyph glyph-name="atilde" unicode="&#xe3;" horiz-adv-x="1097" 
d="M68 283q0 118 87 197.5t253 111.5l301 59v13q0 85 -56 129.5t-153 44.5q-82 0 -153.5 -35t-123.5 -94l-139 170q75 90 186.5 140t247.5 50q209 0 329 -109t120 -298v-662h-246v141q-45 -79 -125.5 -122.5t-183.5 -43.5q-149 0 -246.5 87t-97.5 221zM141 1217
q0 121 64.5 193.5t171.5 72.5q40 0 80 -15.5t66 -34t55.5 -34t50.5 -15.5q69 0 76 105l174 -43q0 -120 -66 -193t-170 -73q-50 0 -99 24t-88 48t-65 24q-35 0 -53.5 -28.5t-20.5 -73.5zM324 299q0 -53 39 -86t102 -33q106 0 177 72.5t71 173.5v45l-244 -47
q-74 -14 -109.5 -44t-35.5 -81z" />
    <glyph glyph-name="adieresis" unicode="&#xe4;" horiz-adv-x="1097" 
d="M412 -25q-149 0 -246.5 87t-97.5 221q0 118 87 197.5t253 111.5l301 59v13q0 85 -56 129.5t-153 44.5q-82 0 -153.5 -35t-123.5 -94l-139 170q75 90 186.5 140t247.5 50q209 0 329 -109t120 -298v-662h-246v141q-45 -79 -125.5 -122.5t-183.5 -43.5zM324 299
q0 -53 39 -86t102 -33q106 0 177 72.5t71 173.5v45l-244 -47q-74 -14 -109.5 -44t-35.5 -81zM596 1348q0 64 44.5 106.5t109.5 42.5q64 0 108.5 -42.5t44.5 -106.5t-45 -108t-108 -44q-65 0 -109.5 44t-44.5 108zM285 1196q-65 0 -109.5 44t-44.5 108t44.5 106.5t109.5 42.5
q64 0 108.5 -42.5t44.5 -106.5t-45 -108t-108 -44z" />
    <glyph glyph-name="aring" unicode="&#xe5;" horiz-adv-x="1097" 
d="M68 283q0 118 87 197.5t253 111.5l301 59v13q0 85 -56 129.5t-153 44.5q-82 0 -153.5 -35t-123.5 -94l-139 170q75 90 186.5 140t247.5 50q209 0 329 -109t120 -298v-662h-246v141q-45 -79 -125.5 -122.5t-183.5 -43.5q-149 0 -246.5 87t-97.5 221zM528 1128
q-105 0 -173 67.5t-68 164.5q0 98 67.5 164.5t173.5 66.5q105 0 173.5 -66.5t68.5 -164.5q0 -97 -69 -164.5t-173 -67.5zM469 424q-74 -14 -109.5 -44t-35.5 -81q0 -53 39 -86t102 -33q106 0 177 72.5t71 173.5v45zM528 1440q-35 0 -58.5 -23t-23.5 -57q0 -33 23.5 -56.5
t58.5 -23.5q33 0 56.5 23.5t23.5 56.5q0 34 -23 57t-57 23z" />
    <glyph glyph-name="ae" unicode="&#xe6;" horiz-adv-x="1814" 
d="M463 -25q-168 0 -282.5 94t-114.5 234q0 137 118.5 230.5t292.5 93.5h281v22q0 94 -75 145.5t-179 51.5q-82 0 -156.5 -35t-126.5 -92l-139 166q70 81 181.5 132.5t244.5 51.5q127 0 227.5 -46.5t159.5 -129.5q66 82 162 129t207 47q215 0 348 -138.5t133 -352.5
q0 -77 -14 -123h-717q15 -117 96 -184.5t195 -67.5q83 0 156.5 32t121.5 84l146 -172q-175 -172 -429 -172q-131 0 -238.5 55t-180.5 152q-67 -91 -179.5 -149t-238.5 -58zM508 455q-93 0 -139.5 -38t-46.5 -95q0 -55 45.5 -93.5t124.5 -38.5q101 0 185.5 70t84.5 162v33
h-254zM1262 846q-97 0 -165 -59t-81 -160h475v2q-7 98 -72 157.5t-157 59.5z" />
    <glyph glyph-name="ccedilla" unicode="&#xe7;" horiz-adv-x="1099" 
d="M532 -18q-202 32 -331 183t-129 359q0 113 42.5 213.5t115.5 173.5t176 115.5t219 42.5q277 0 430 -229l-176 -160q-92 149 -252 149q-124 0 -204.5 -88t-80.5 -219q0 -132 81.5 -219.5t205.5 -87.5q158 0 262 139l172 -157q-65 -94 -166.5 -152t-222.5 -68l-25 -79
q71 -15 121.5 -61t50.5 -120q0 -87 -74 -138.5t-186 -51.5q-75 0 -125 16v158q54 -16 103 -16q94 0 94 53t-101 53q-33 0 -57 -4z" />
    <glyph glyph-name="egrave" unicode="&#xe8;" horiz-adv-x="1167" 
d="M72 520q0 152 68 277.5t190.5 198.5t275.5 73q220 0 356 -136.5t136 -346.5q0 -50 -17 -129h-733q12 -118 99 -184t208 -66q167 0 275 117l147 -177q-94 -90 -199.5 -131t-234.5 -41q-126 0 -233.5 42t-181 115t-115 173.5t-41.5 214.5zM184 1538h324l201 -367h-222z
M604 846q-100 0 -170.5 -56t-85.5 -153h490v2q-7 94 -73 150.5t-161 56.5z" />
    <glyph glyph-name="eacute" unicode="&#xe9;" horiz-adv-x="1167" 
d="M72 520q0 152 68 277.5t190.5 198.5t275.5 73q220 0 356 -136.5t136 -346.5q0 -50 -17 -129h-733q12 -118 99 -184t208 -66q167 0 275 117l147 -177q-94 -90 -199.5 -131t-234.5 -41q-126 0 -233.5 42t-181 115t-115 173.5t-41.5 214.5zM504 1171l201 367h321l-301 -367
h-221zM604 846q-100 0 -170.5 -56t-85.5 -153h490v2q-7 94 -73 150.5t-161 56.5z" />
    <glyph glyph-name="ecircumflex" unicode="&#xea;" horiz-adv-x="1167" 
d="M72 520q0 152 68 277.5t190.5 198.5t275.5 73q220 0 356 -136.5t136 -346.5q0 -50 -17 -129h-733q12 -118 99 -184t208 -66q167 0 275 117l147 -177q-94 -90 -199.5 -131t-234.5 -41q-126 0 -233.5 42t-181 115t-115 173.5t-41.5 214.5zM213 1141l260 401h227l261 -401
h-240l-135 229l-133 -229h-240zM604 846q-100 0 -170.5 -56t-85.5 -153h490v2q-7 94 -73 150.5t-161 56.5z" />
    <glyph glyph-name="edieresis" unicode="&#xeb;" horiz-adv-x="1167" 
d="M72 520q0 152 68 277.5t190.5 198.5t275.5 73q220 0 356 -136.5t136 -346.5q0 -50 -17 -129h-733q12 -118 99 -184t208 -66q167 0 275 117l147 -177q-94 -90 -199.5 -131t-234.5 -41q-126 0 -233.5 42t-181 115t-115 173.5t-41.5 214.5zM604 846q-100 0 -170.5 -56
t-85.5 -153h490v2q-7 94 -73 150.5t-161 56.5zM827 1196q-65 0 -109 44t-44 108t44 106.5t109 42.5q64 0 109 -42.5t45 -106.5t-45 -108t-109 -44zM362 1196q-65 0 -109 44t-44 108t44 106.5t109 42.5q64 0 109 -42.5t45 -106.5t-45 -108t-109 -44z" />
    <glyph glyph-name="igrave" unicode="&#xec;" horiz-adv-x="569" 
d="M152 0v1044h266v-1044h-266zM176 1538l201 -367h-221l-303 367h323z" />
    <glyph glyph-name="iacute" unicode="&#xed;" horiz-adv-x="569" 
d="M152 0v1044h266v-1044h-266zM193 1171l200 367h322l-301 -367h-221z" />
    <glyph glyph-name="icircumflex" unicode="&#xee;" horiz-adv-x="569" 
d="M152 0v1044h266v-1044h-266zM-88 1141l260 401h227l260 -401h-239l-135 229l-133 -229h-240z" />
    <glyph glyph-name="idieresis" unicode="&#xef;" horiz-adv-x="569" 
d="M418 0h-266v1044h266v-1044zM520 1196q-65 0 -109 44t-44 108t44 106.5t109 42.5q64 0 109 -42.5t45 -106.5t-45 -108t-109 -44zM-98 1348q0 64 44 106.5t109 42.5q64 0 109 -42.5t45 -106.5t-45 -108t-109 -44q-65 0 -109 44t-44 108z" />
    <glyph glyph-name="eth" unicode="&#xf0;" horiz-adv-x="1175" 
d="M586 -25q-98 0 -184.5 29.5t-149 80.5t-107.5 117.5t-67.5 142t-22.5 153.5q0 94 33 185.5t93 165.5t153 119.5t203 45.5q109 0 190 -58l2 2q-76 102 -231 181l-262 -121l-56 115l156 73q-101 33 -174 45l78 228q211 -50 381 -142l251 117l58 -115l-180 -84
q346 -255 346 -714q0 -82 -19 -161t-60 -153t-99 -129.5t-144 -89t-188 -33.5zM569 788q-117 0 -181 -85t-64 -205q0 -123 70 -206t190 -83q112 0 176.5 86t64.5 211q0 116 -69 199t-187 83z" />
    <glyph glyph-name="ntilde" unicode="&#xf1;" horiz-adv-x="1269" 
d="M152 0v1044h256v-143q102 168 321 168q185 0 295.5 -116.5t110.5 -319.5v-633h-267v602q0 110 -58 169.5t-153 59.5q-79 0 -135 -44t-80 -108.5t-24 -139.5v-539h-266zM266 1217q0 121 64.5 193.5t171.5 72.5q40 0 80 -15.5t66 -34t55.5 -34t50.5 -15.5q68 0 75 105
l175 -43q0 -120 -66 -193t-170 -73q-50 0 -99 24t-88 48t-65 24q-35 0 -53.5 -28.5t-20.5 -73.5z" />
    <glyph glyph-name="ograve" unicode="&#xf2;" horiz-adv-x="1249" 
d="M625 -25q-157 0 -284 72.5t-198 197.5t-71 277t71 277t198 197.5t284 72.5t284 -72.5t198 -197.5t71 -277t-71 -277t-198 -197.5t-284 -72.5zM342 522q0 -131 80 -218t203 -87q122 0 202 87t80 218t-80 218t-202 87q-123 0 -203 -87t-80 -218zM487 1171l-303 367h324
l201 -367h-222z" />
    <glyph glyph-name="oacute" unicode="&#xf3;" horiz-adv-x="1249" 
d="M625 -25q-157 0 -284 72.5t-198 197.5t-71 277t71 277t198 197.5t284 72.5t284 -72.5t198 -197.5t71 -277t-71 -277t-198 -197.5t-284 -72.5zM625 827q-123 0 -203 -87t-80 -218t80 -218t203 -87q122 0 202 87t80 218t-80 218t-202 87zM522 1171l201 367h321l-301 -367
h-221z" />
    <glyph glyph-name="ocircumflex" unicode="&#xf4;" horiz-adv-x="1249" 
d="M72 522q0 152 71 277t198 197.5t284 72.5t284 -72.5t198 -197.5t71 -277t-71 -277t-198 -197.5t-284 -72.5t-284 72.5t-198 197.5t-71 277zM342 522q0 -131 80 -218t203 -87q122 0 202 87t80 218t-80 218t-202 87q-123 0 -203 -87t-80 -218zM252 1141l260 401h227
l260 -401h-239l-135 229l-133 -229h-240z" />
    <glyph glyph-name="otilde" unicode="&#xf5;" horiz-adv-x="1249" 
d="M72 522q0 152 71 277t198 197.5t284 72.5t284 -72.5t198 -197.5t71 -277t-71 -277t-198 -197.5t-284 -72.5t-284 72.5t-198 197.5t-71 277zM625 827q-123 0 -203 -87t-80 -218t80 -218t203 -87q122 0 202 87t80 218t-80 218t-202 87zM432 1174l-176 43q0 121 64.5 193.5
t171.5 72.5q40 0 80 -15.5t65.5 -34t55 -34t50.5 -15.5q69 0 76 105l174 -43q0 -120 -65.5 -193t-169.5 -73q-50 0 -99 24t-88 48t-65 24q-35 0 -53.5 -28.5t-20.5 -73.5z" />
    <glyph glyph-name="odieresis" unicode="&#xf6;" horiz-adv-x="1249" 
d="M625 -25q-157 0 -284 72.5t-198 197.5t-71 277t71 277t198 197.5t284 72.5t284 -72.5t198 -197.5t71 -277t-71 -277t-198 -197.5t-284 -72.5zM625 827q-123 0 -203 -87t-80 -218t80 -218t203 -87q122 0 202 87t80 218t-80 218t-202 87zM705 1348q0 64 44 106.5t109 42.5
q64 0 109 -42.5t45 -106.5t-45 -108t-109 -44q-65 0 -109 44t-44 108zM240 1348q0 64 44 106.5t109 42.5q64 0 109 -42.5t45 -106.5t-45 -108t-109 -44q-65 0 -109 44t-44 108z" />
    <glyph glyph-name="divide" unicode="&#xf7;" horiz-adv-x="1091" 
d="M82 598v231h928v-231h-928zM545 152q-65 0 -109.5 43.5t-44.5 107.5q0 63 44.5 106.5t109.5 43.5q64 0 108.5 -43.5t44.5 -106.5q0 -64 -44 -107.5t-109 -43.5zM545 975q-65 0 -109.5 43.5t-44.5 107.5q0 63 44.5 106.5t109.5 43.5q64 0 108.5 -43.5t44.5 -106.5
q0 -64 -44 -107.5t-109 -43.5z" />
    <glyph glyph-name="oslash" unicode="&#xf8;" horiz-adv-x="1249" 
d="M72 522q0 152 71 277t198 197.5t284 72.5q142 0 260 -59l123 172l122 -84l-124 -172q83 -76 127.5 -180t44.5 -224q0 -152 -71 -277t-198 -197.5t-284 -72.5q-141 0 -258 60l-123 -172l-123 86l123 170q-172 158 -172 403zM342 522q0 -108 55 -188l340 471
q-55 22 -112 22q-123 0 -203 -87t-80 -218zM514 240q54 -23 111 -23q122 0 202 87t80 218q0 110 -55 187z" />
    <glyph glyph-name="ugrave" unicode="&#xf9;" horiz-adv-x="1269" 
d="M135 412v632h266v-602q0 -110 58 -169.5t153 -59.5q79 0 135 44.5t80.5 109t24.5 139.5v538h266v-1044h-256v143q-102 -168 -321 -168q-185 0 -295.5 117t-110.5 320zM197 1538h323l201 -367h-221z" />
    <glyph glyph-name="uacute" unicode="&#xfa;" horiz-adv-x="1269" 
d="M135 412v632h266v-602q0 -110 58 -169.5t153 -59.5q79 0 135 44.5t80.5 109t24.5 139.5v538h266v-1044h-256v143q-102 -168 -321 -168q-185 0 -295.5 117t-110.5 320zM750 1171h-222l201 367h322z" />
    <glyph glyph-name="ucircumflex" unicode="&#xfb;" horiz-adv-x="1269" 
d="M135 412v632h266v-602q0 -110 58 -169.5t153 -59.5q79 0 135 44.5t80.5 109t24.5 139.5v538h266v-1044h-256v143q-102 -168 -321 -168q-185 0 -295.5 117t-110.5 320zM487 1141h-239l260 401h227l260 -401h-239l-135 229z" />
    <glyph glyph-name="udieresis" unicode="&#xfc;" horiz-adv-x="1269" 
d="M135 1044h266v-602q0 -110 58 -169.5t153 -59.5q79 0 135 44.5t80.5 109t24.5 139.5v538h266v-1044h-256v143q-102 -168 -321 -168q-185 0 -295.5 117t-110.5 320v632zM690 1348q0 64 44.5 106.5t109.5 42.5q64 0 108.5 -42.5t44.5 -106.5t-45 -108t-108 -44
q-65 0 -109.5 44t-44.5 108zM225 1348q0 64 44.5 106.5t109.5 42.5q64 0 108.5 -42.5t44.5 -106.5t-45 -108t-108 -44q-65 0 -109.5 44t-44.5 108z" />
    <glyph glyph-name="yacute" unicode="&#xfd;" horiz-adv-x="1093" 
d="M420 29l-420 1015h285l266 -727l264 727h277l-467 -1163q-68 -165 -158.5 -240t-233.5 -75q-96 0 -174 35v225q62 -35 140 -35q69 0 117 38t79 132zM451 1171l200 367h322l-301 -367h-221z" />
    <glyph glyph-name="thorn" unicode="&#xfe;" horiz-adv-x="1300" 
d="M147 866v588h269v-534q56 72 143.5 110.5t175.5 38.5q100 0 190.5 -40.5t157 -111.5t105.5 -174t39 -221q0 -235 -140.5 -391t-353.5 -156q-94 0 -182.5 40t-134.5 110v-535h-266v1276h-3zM406 520q0 -126 76 -216.5t200 -90.5q115 0 195.5 86t80.5 221q0 137 -80.5 224
t-195.5 87q-127 0 -201.5 -91.5t-74.5 -219.5z" />
    <glyph glyph-name="ydieresis" unicode="&#xff;" horiz-adv-x="1093" 
d="M0 1044h285l266 -727l264 727h277l-467 -1163q-68 -165 -158.5 -240t-233.5 -75q-96 0 -174 35v225q62 -35 140 -35q69 0 117 38t79 132l25 68zM776 1196q-65 0 -109 44t-44 108t44 106.5t109 42.5q64 0 109 -42.5t45 -106.5t-45 -108t-109 -44zM158 1348q0 64 44 106.5
t109 42.5q64 0 109 -42.5t45 -106.5t-45 -108t-109 -44q-65 0 -109 44t-44 108z" />
    <glyph glyph-name="Amacron" unicode="&#x100;" horiz-adv-x="1378" 
d="M-6 0l561 1454h270l559 -1454h-274l-137 356h-565l-138 -356h-276zM389 1858h600v-199h-600v199zM492 594h397l-199 559z" />
    <glyph glyph-name="amacron" unicode="&#x101;" horiz-adv-x="1097" 
d="M68 283q0 118 87 197.5t253 111.5l301 59v13q0 85 -56 129.5t-153 44.5q-82 0 -153.5 -35t-123.5 -94l-139 170q75 90 186.5 140t247.5 50q209 0 329 -109t120 -298v-662h-246v141q-45 -79 -125.5 -122.5t-183.5 -43.5q-149 0 -246.5 87t-97.5 221zM223 1448h600v-199
h-600v199zM469 424q-74 -14 -109.5 -44t-35.5 -81q0 -53 39 -86t102 -33q106 0 177 72.5t71 173.5v45z" />
    <glyph glyph-name="Abreve" unicode="&#x102;" horiz-adv-x="1378" 
d="M270 0h-276l561 1454h270l559 -1454h-274l-137 356h-565zM690 1593q-127 0 -212.5 81t-84.5 214h205q-1 -51 24 -81.5t68 -30.5q42 0 66.5 30.5t23.5 81.5h205q1 -133 -83.5 -214t-211.5 -81zM492 594h397l-199 559z" />
    <glyph glyph-name="abreve" unicode="&#x103;" horiz-adv-x="1097" 
d="M68 283q0 118 87 197.5t253 111.5l301 59v13q0 85 -56 129.5t-153 44.5q-82 0 -153.5 -35t-123.5 -94l-139 170q75 90 186.5 140t247.5 50q209 0 329 -109t120 -298v-662h-246v141q-45 -79 -125.5 -122.5t-183.5 -43.5q-149 0 -246.5 87t-97.5 221zM518 1184
q-127 0 -212.5 81t-84.5 214h205q-1 -51 24 -82t68 -31q41 0 66 31t24 82h205q1 -133 -83.5 -214t-211.5 -81zM324 299q0 -53 39 -86t102 -33q106 0 177 72.5t71 173.5v45l-244 -47q-74 -14 -109.5 -44t-35.5 -81z" />
    <glyph glyph-name="Aogonek" unicode="&#x104;" horiz-adv-x="1378" 
d="M-6 0l561 1454h270l559 -1454q-79 -62 -113 -102t-34 -80q0 -70 135 -86l-76 -197q-115 3 -195.5 59t-80.5 152q0 131 170 254h-80l-137 356h-565l-138 -356h-276zM492 594h397l-199 559z" />
    <glyph glyph-name="aogonek" unicode="&#x105;" horiz-adv-x="1097" 
d="M68 283q0 118 87 197.5t253 111.5l301 59v13q0 85 -56 129.5t-153 44.5q-82 0 -153.5 -35t-123.5 -94l-139 170q75 90 186.5 140t247.5 50q209 0 329 -109t120 -298v-662q-80 -62 -114 -102.5t-34 -79.5q0 -70 135 -86l-75 -197q-115 3 -196 59t-81 152q0 131 170 254
h-51v141q-45 -79 -125.5 -122.5t-183.5 -43.5q-149 0 -246.5 87t-97.5 221zM324 299q0 -53 39 -86t102 -33q106 0 177 72.5t71 173.5v45l-244 -47q-74 -14 -109.5 -44t-35.5 -81z" />
    <glyph glyph-name="Cacute" unicode="&#x106;" horiz-adv-x="1484" 
d="M80 727q0 210 96.5 382t268.5 271t384 99q204 0 361.5 -88t247.5 -236l-201 -168q-64 104 -172 168t-238 64q-204 0 -336.5 -140.5t-132.5 -351.5q0 -210 134 -350.5t335 -140.5q264 0 418 237l203 -160q-97 -153 -259 -245.5t-358 -92.5q-158 0 -297.5 58.5t-239 158.5
t-157 239t-57.5 296zM723 1581l201 367h321l-301 -367h-221z" />
    <glyph glyph-name="cacute" unicode="&#x107;" horiz-adv-x="1097" 
d="M70 524q0 113 42.5 213.5t115.5 173.5t176 115.5t219 42.5q277 0 430 -229l-176 -160q-92 149 -252 149q-124 0 -204.5 -88t-80.5 -219q0 -132 81.5 -219.5t205.5 -87.5q158 0 262 139l172 -157q-72 -103 -186.5 -162.5t-251.5 -59.5q-155 0 -282 72.5t-199 198.5
t-72 278zM496 1171l200 367h322l-301 -367h-221z" />
    <glyph glyph-name="Ccircumflex" unicode="&#x108;" horiz-adv-x="1484" 
d="M831 -25q-158 0 -297.5 58.5t-239 158.5t-157 239t-57.5 296q0 210 96.5 382t268.5 271t384 99q204 0 361.5 -88t247.5 -236l-201 -168q-64 104 -172 168t-238 64q-204 0 -336.5 -140.5t-132.5 -351.5q0 -210 134 -350.5t335 -140.5q264 0 418 237l203 -160
q-97 -153 -259 -245.5t-358 -92.5zM694 1550h-239l260 402h227l260 -402h-239l-136 230z" />
    <glyph glyph-name="ccircumflex" unicode="&#x109;" horiz-adv-x="1097" 
d="M623 -25q-155 0 -282 72.5t-199 198.5t-72 278q0 113 42.5 213.5t115.5 173.5t176 115.5t219 42.5q277 0 430 -229l-176 -160q-92 149 -252 149q-124 0 -204.5 -88t-80.5 -219q0 -132 81.5 -219.5t205.5 -87.5q158 0 262 139l172 -157q-72 -103 -186.5 -162.5
t-251.5 -59.5zM485 1141h-239l260 401h227l260 -401h-239l-136 229z" />
    <glyph glyph-name="Cdotaccent" unicode="&#x10a;" horiz-adv-x="1484" 
d="M80 727q0 210 96.5 382t268.5 271t384 99q204 0 361.5 -88t247.5 -236l-201 -168q-64 104 -172 168t-238 64q-204 0 -336.5 -140.5t-132.5 -351.5q0 -210 134 -350.5t335 -140.5q264 0 418 237l203 -160q-97 -153 -259 -245.5t-358 -92.5q-158 0 -297.5 58.5t-239 158.5
t-157 239t-57.5 296zM676 1757q0 64 44 107t109 43q64 0 109 -43t45 -107t-45 -107.5t-109 -43.5q-65 0 -109 43.5t-44 107.5z" />
    <glyph glyph-name="cdotaccent" unicode="&#x10b;" horiz-adv-x="1097" 
d="M623 -25q-155 0 -282 72.5t-199 198.5t-72 278q0 113 42.5 213.5t115.5 173.5t176 115.5t219 42.5q277 0 430 -229l-176 -160q-92 149 -252 149q-124 0 -204.5 -88t-80.5 -219q0 -132 81.5 -219.5t205.5 -87.5q158 0 262 139l172 -157q-72 -103 -186.5 -162.5
t-251.5 -59.5zM453 1348q0 64 44 106.5t109 42.5q64 0 109 -42.5t45 -106.5t-45 -108t-109 -44q-65 0 -109 44t-44 108z" />
    <glyph glyph-name="Ccaron" unicode="&#x10c;" horiz-adv-x="1484" 
d="M831 -25q-158 0 -297.5 58.5t-239 158.5t-157 239t-57.5 296q0 210 96.5 382t268.5 271t384 99q204 0 361.5 -88t247.5 -236l-201 -168q-64 104 -172 168t-238 64q-204 0 -336.5 -140.5t-132.5 -351.5q0 -210 134 -350.5t335 -140.5q264 0 418 237l203 -160
q-97 -153 -259 -245.5t-358 -92.5zM455 1952h239l133 -228l136 228h239l-260 -402h-227z" />
    <glyph glyph-name="ccaron" unicode="&#x10d;" horiz-adv-x="1097" 
d="M623 -25q-155 0 -282 72.5t-199 198.5t-72 278q0 113 42.5 213.5t115.5 173.5t176 115.5t219 42.5q277 0 430 -229l-176 -160q-92 149 -252 149q-124 0 -204.5 -88t-80.5 -219q0 -132 81.5 -219.5t205.5 -87.5q158 0 262 139l172 -157q-72 -103 -186.5 -162.5
t-251.5 -59.5zM231 1542h240l133 -227l135 227h240l-260 -401h-227z" />
    <glyph glyph-name="Dcaron" unicode="&#x10e;" horiz-adv-x="1521" 
d="M180 0v1454h522q211 0 381 -97.5t264.5 -263t94.5 -364.5q0 -203 -94.5 -369.5t-264.5 -263t-381 -96.5h-522zM682 1217h-231v-979h229q202 0 342.5 140t140.5 351q0 206 -139.5 347t-341.5 141zM602 1550l-260 402h240l133 -228l135 228h240l-261 -402h-227z" />
    <glyph glyph-name="dcaron" unicode="&#x10f;" horiz-adv-x="1390" 
d="M563 -25q-134 0 -245.5 69t-177.5 195t-66 283q0 235 140 391t353 156q95 0 183.5 -43t134.5 -115v543h266v-1454h-250v150q-48 -82 -145 -128.5t-193 -46.5zM618 831q-115 0 -195.5 -86t-80.5 -221q0 -137 80.5 -224t195.5 -87q117 0 197 86.5t80 224.5q0 136 -80 221.5
t-197 85.5zM1464 1047h-196q35 143 35 227q0 102 -25 178h235q15 -91 15 -156q0 -68 -16 -123.5t-48 -125.5z" />
    <glyph glyph-name="Dcroat" unicode="&#x110;" horiz-adv-x="1533" 
d="M35 819h158v635h522q158 0 296.5 -57t235 -154.5t152 -231t55.5 -282.5q0 -152 -55.5 -286.5t-152.5 -232t-235 -154t-296 -56.5h-522v637h-158v182zM463 819h336v-182h-336v-399h229q202 0 343 140t141 351q0 206 -140 347t-342 141h-231v-398z" />
    <glyph glyph-name="dcroat" unicode="&#x111;" horiz-adv-x="1286" 
d="M563 -25q-134 0 -245.5 69t-177.5 195t-66 283q0 235 140 391t353 156q95 0 183.5 -43t134.5 -115v256h-260v162h260v125h266v-125h158v-162h-158v-1167h-250v150q-48 -82 -145 -128.5t-193 -46.5zM618 831q-115 0 -195.5 -86t-80.5 -221q0 -137 80.5 -224t195.5 -87
q117 0 197 86.5t80 224.5q0 136 -80 221.5t-197 85.5z" />
    <glyph glyph-name="Emacron" unicode="&#x112;" horiz-adv-x="1212" 
d="M180 0v1454h934v-237h-663v-367h546v-238h-546v-374h686v-238h-957zM334 1659v199h600v-199h-600z" />
    <glyph glyph-name="emacron" unicode="&#x113;" horiz-adv-x="1167" 
d="M72 520q0 152 68 277.5t190.5 198.5t275.5 73q220 0 356 -136.5t136 -346.5q0 -50 -17 -129h-733q12 -118 99 -184t208 -66q167 0 275 117l147 -177q-94 -90 -199.5 -131t-234.5 -41q-126 0 -233.5 42t-181 115t-115 173.5t-41.5 214.5zM291 1249v199h600v-199h-600z
M348 637h490v2q-7 94 -73 150.5t-161 56.5q-100 0 -170.5 -56t-85.5 -153z" />
    <glyph glyph-name="Ebreve" unicode="&#x114;" horiz-adv-x="1212" 
d="M180 0v1454h934v-237h-663v-367h546v-238h-546v-374h686v-238h-957zM637 1593q-127 0 -212.5 81t-84.5 214h205q-1 -51 24 -81.5t68 -30.5q42 0 66.5 30.5t23.5 81.5h205q1 -133 -83.5 -214t-211.5 -81z" />
    <glyph glyph-name="ebreve" unicode="&#x115;" horiz-adv-x="1167" 
d="M72 520q0 152 68 277.5t190.5 198.5t275.5 73q220 0 356 -136.5t136 -346.5q0 -50 -17 -129h-733q12 -118 99 -184t208 -66q167 0 275 117l147 -177q-94 -90 -199.5 -131t-234.5 -41q-126 0 -233.5 42t-181 115t-115 173.5t-41.5 214.5zM590 1184q-127 0 -212.5 81
t-84.5 214h205q-1 -51 24 -82t68 -31q41 0 66 31t24 82h205q1 -133 -83.5 -214t-211.5 -81zM604 846q-100 0 -170.5 -56t-85.5 -153h490v2q-7 94 -73 150.5t-161 56.5z" />
    <glyph glyph-name="Edotaccent" unicode="&#x116;" horiz-adv-x="1212" 
d="M180 1454h934v-237h-663v-367h546v-238h-546v-374h686v-238h-957v1454zM651 1606q-65 0 -109 43.5t-44 107.5t44 107t109 43q64 0 109 -43t45 -107t-45 -107.5t-109 -43.5z" />
    <glyph glyph-name="edotaccent" unicode="&#x117;" horiz-adv-x="1167" 
d="M72 520q0 152 68 277.5t190.5 198.5t275.5 73q220 0 356 -136.5t136 -346.5q0 -50 -17 -129h-733q12 -118 99 -184t208 -66q167 0 275 117l147 -177q-94 -90 -199.5 -131t-234.5 -41q-126 0 -233.5 42t-181 115t-115 173.5t-41.5 214.5zM604 846q-100 0 -170.5 -56
t-85.5 -153h490v2q-7 94 -73 150.5t-161 56.5zM596 1196q-65 0 -109.5 44t-44.5 108t44.5 106.5t109.5 42.5q64 0 109 -42.5t45 -106.5t-45 -108t-109 -44z" />
    <glyph glyph-name="Eogonek" unicode="&#x118;" horiz-adv-x="1212" 
d="M940 0h-760v1454h934v-237h-663v-367h546v-238h-546v-374h686v-238h-2q-80 -62 -114 -102.5t-34 -79.5q0 -70 135 -86l-75 -197q-115 3 -196 59t-81 152q0 131 170 254z" />
    <glyph glyph-name="eogonek" unicode="&#x119;" horiz-adv-x="1167" 
d="M72 520q0 152 68 277.5t190.5 198.5t275.5 73q220 0 356 -136.5t136 -346.5q0 -50 -17 -129h-733q12 -118 99 -184t208 -66q167 0 275 117l147 -177q-113 -108 -254 -149q-78 -60 -111.5 -100.5t-33.5 -79.5q0 -70 135 -86l-76 -197q-115 3 -195.5 59t-80.5 152
q0 121 139 231q-157 9 -277.5 82.5t-185.5 193.5t-65 267zM604 846q-100 0 -170.5 -56t-85.5 -153h490v2q-7 94 -73 150.5t-161 56.5z" />
    <glyph glyph-name="Ecaron" unicode="&#x11a;" horiz-adv-x="1212" 
d="M180 1454h934v-237h-663v-367h546v-238h-546v-374h686v-238h-957v1454zM283 1952h239l133 -228l136 228h239l-260 -402h-227z" />
    <glyph glyph-name="ecaron" unicode="&#x11b;" horiz-adv-x="1167" 
d="M72 520q0 152 68 277.5t190.5 198.5t275.5 73q220 0 356 -136.5t136 -346.5q0 -50 -17 -129h-733q12 -118 99 -184t208 -66q167 0 275 117l147 -177q-94 -90 -199.5 -131t-234.5 -41q-126 0 -233.5 42t-181 115t-115 173.5t-41.5 214.5zM213 1542h240l133 -227l135 227
h240l-261 -401h-227zM604 846q-100 0 -170.5 -56t-85.5 -153h490v2q-7 94 -73 150.5t-161 56.5z" />
    <glyph glyph-name="Gcircumflex" unicode="&#x11c;" horiz-adv-x="1560" 
d="M80 727q0 157 58 296t157.5 239t240.5 158.5t300 58.5q203 0 355 -84.5t251 -223.5l-199 -172q-69 98 -173 159t-236 61q-206 0 -341 -141t-135 -351t133 -350.5t336 -140.5q245 0 387 186v139h-331v225h585v-467q-104 -155 -267 -249.5t-372 -94.5q-158 0 -297 58.5
t-238 158.5t-156.5 239t-57.5 296zM682 1550h-240l260 402h228l260 -402h-240l-135 230z" />
    <glyph glyph-name="gcircumflex" unicode="&#x11d;" horiz-adv-x="1116" 
d="M545 -434q-225 0 -359.5 77.5t-134.5 209.5q0 71 46 125.5t122 87.5q-76 56 -76 149q0 100 117 172q-82 52 -129 132t-47 175q0 157 124.5 266t305.5 109q72 0 145 -25h412v-204h-162q37 -67 37 -146q0 -160 -125.5 -268.5t-308.5 -108.5q-33 0 -80 7q-51 -26 -51 -66
q0 -29 24.5 -45t57.5 -16h262q159 0 257.5 -84t98.5 -217q0 -141 -148 -235.5t-388 -94.5zM154 1141l260 401h227l260 -401h-239l-136 229l-133 -229h-239zM326 694q0 -71 54.5 -121.5t133.5 -50.5t135 50.5t56 121.5t-56 120.5t-135 49.5t-133.5 -49.5t-54.5 -120.5z
M311 -113q0 -51 65.5 -80.5t172.5 -29.5q132 0 202 31t70 83q0 45 -39 71t-96 26h-291q-84 -34 -84 -101z" />
    <glyph glyph-name="Gbreve" unicode="&#x11e;" horiz-adv-x="1560" 
d="M80 727q0 157 58 296t157.5 239t240.5 158.5t300 58.5q203 0 355 -84.5t251 -223.5l-199 -172q-69 98 -173 159t-236 61q-206 0 -341 -141t-135 -351t133 -350.5t336 -140.5q245 0 387 186v139h-331v225h585v-467q-104 -155 -267 -249.5t-372 -94.5q-158 0 -297 58.5
t-238 158.5t-156.5 239t-57.5 296zM811 1593q-127 0 -212.5 81t-84.5 214h205q-1 -51 24 -81.5t68 -30.5q42 0 66.5 30.5t23.5 81.5h205q1 -133 -83.5 -214t-211.5 -81z" />
    <glyph glyph-name="gbreve" unicode="&#x11f;" horiz-adv-x="1116" 
d="M51 -147q0 71 46 125.5t122 87.5q-76 56 -76 149q0 100 117 172q-82 52 -129 132t-47 175q0 157 124.5 266t305.5 109q72 0 145 -25h412v-204h-162q37 -67 37 -146q0 -160 -125.5 -268.5t-308.5 -108.5q-33 0 -80 7q-51 -26 -51 -66q0 -29 24.5 -45t57.5 -16h262
q159 0 257.5 -84t98.5 -217q0 -141 -148 -235.5t-388 -94.5q-225 0 -359.5 77.5t-134.5 209.5zM524 1184q-127 0 -212.5 81t-84.5 214h205q-1 -51 24 -82t68 -31q41 0 66 31t24 82h205q1 -133 -83.5 -214t-211.5 -81zM514 864q-79 0 -133.5 -49.5t-54.5 -120.5t54.5 -121.5
t133.5 -50.5t135 50.5t56 121.5t-56 120.5t-135 49.5zM311 -113q0 -51 65.5 -80.5t172.5 -29.5q132 0 202 31t70 83q0 45 -39 71t-96 26h-291q-84 -34 -84 -101z" />
    <glyph glyph-name="Gdotaccent" unicode="&#x120;" horiz-adv-x="1560" 
d="M80 727q0 157 58 296t157.5 239t240.5 158.5t300 58.5q203 0 355 -84.5t251 -223.5l-199 -172q-69 98 -173 159t-236 61q-206 0 -341 -141t-135 -351t133 -350.5t336 -140.5q245 0 387 186v139h-331v225h585v-467q-104 -155 -267 -249.5t-372 -94.5q-158 0 -297 58.5
t-238 158.5t-156.5 239t-57.5 296zM657 1757q0 64 44.5 107t109.5 43q64 0 109 -43t45 -107t-45 -107.5t-109 -43.5q-65 0 -109.5 43.5t-44.5 107.5z" />
    <glyph glyph-name="gdotaccent" unicode="&#x121;" horiz-adv-x="1116" 
d="M51 -147q0 71 46 125.5t122 87.5q-76 56 -76 149q0 100 117 172q-82 52 -129 132t-47 175q0 157 124.5 266t305.5 109q72 0 145 -25h412v-204h-162q37 -67 37 -146q0 -160 -125.5 -268.5t-308.5 -108.5q-33 0 -80 7q-51 -26 -51 -66q0 -29 24.5 -45t57.5 -16h262
q159 0 257.5 -84t98.5 -217q0 -141 -148 -235.5t-388 -94.5q-225 0 -359.5 77.5t-134.5 209.5zM514 864q-79 0 -133.5 -49.5t-54.5 -120.5t54.5 -121.5t133.5 -50.5t135 50.5t56 121.5t-56 120.5t-135 49.5zM311 -113q0 -51 65.5 -80.5t172.5 -29.5q132 0 202 31t70 83
q0 45 -39 71t-96 26h-291q-84 -34 -84 -101zM383 1348q0 64 44.5 106.5t109.5 42.5q64 0 108.5 -42.5t44.5 -106.5t-45 -108t-108 -44q-65 0 -109.5 44t-44.5 108z" />
    <glyph glyph-name="uni0122" unicode="&#x122;" horiz-adv-x="1560" 
d="M80 727q0 157 58 296t157.5 239t240.5 158.5t300 58.5q203 0 355 -84.5t251 -223.5l-199 -172q-69 98 -173 159t-236 61q-206 0 -341 -141t-135 -351t133 -350.5t336 -140.5q245 0 387 186v139h-331v225h585v-467q-104 -155 -267 -249.5t-372 -94.5q-158 0 -297 58.5
t-238 158.5t-156.5 239t-57.5 296zM700 -541q35 143 35 228q0 105 -24 178h235q15 -92 15 -156q0 -112 -64 -250h-197z" />
    <glyph glyph-name="uni0123" unicode="&#x123;" horiz-adv-x="1116" 
d="M51 -147q0 71 46 125.5t122 87.5q-76 56 -76 149q0 100 117 172q-82 52 -129 132t-47 175q0 157 124.5 266t305.5 109q72 0 145 -25h412v-204h-162q37 -67 37 -146q0 -160 -125.5 -268.5t-308.5 -108.5q-33 0 -80 7q-51 -26 -51 -66q0 -29 24.5 -45t57.5 -16h262
q159 0 257.5 -84t98.5 -217q0 -141 -148 -235.5t-388 -94.5q-225 0 -359.5 77.5t-134.5 209.5zM514 864q-79 0 -133.5 -49.5t-54.5 -120.5t54.5 -121.5t133.5 -50.5t135 50.5t56 121.5t-56 120.5t-135 49.5zM395 -12q-84 -34 -84 -101q0 -51 65.5 -80.5t172.5 -29.5
q132 0 202 31t70 83q0 45 -39 71t-96 26h-291zM397 1171q-14 85 -14 156q0 114 63 250h197q-35 -143 -35 -227q0 -103 25 -179h-236z" />
    <glyph glyph-name="Hcircumflex" unicode="&#x124;" horiz-adv-x="1566" 
d="M451 0h-271v1454h271v-598h665v598h270v-1454h-270v610h-665v-610zM649 1550h-239l260 402h227l260 -402h-239l-136 230z" />
    <glyph glyph-name="hcircumflex" unicode="&#x125;" horiz-adv-x="1273" 
d="M156 1454h266v-536q103 151 311 151q184 0 295 -116.5t111 -319.5v-633h-267v602q0 109 -58 169t-152 60q-117 0 -178.5 -81.5t-61.5 -198.5v-551h-266v1454zM158 1550h-240l260 402h228l260 -402h-240l-135 230z" />
    <glyph glyph-name="Hbar" unicode="&#x126;" horiz-adv-x="1636" 
d="M39 1243h176v211h270v-211h666v211h270v-211h176v-176h-176v-1067h-270v610h-666v-610h-270v1067h-176v176zM1151 1067h-666v-211h666v211z" />
    <glyph glyph-name="hbar" unicode="&#x127;" horiz-adv-x="1257" 
d="M139 1167h-149v162h149v125h267v-125h288v-162h-288v-249q103 151 311 151q184 0 294.5 -116.5t110.5 -319.5v-633h-266v602q0 109 -58.5 169t-152.5 60q-117 0 -178 -81.5t-61 -198.5v-551h-267v1167z" />
    <glyph glyph-name="Itilde" unicode="&#x128;" horiz-adv-x="630" 
d="M180 0v1454h271v-1454h-271zM123 1583l-176 43q0 121 64 193.5t171 72.5q40 0 80 -15.5t66 -33.5t55.5 -33.5t50.5 -15.5q69 0 76 104l174 -43q0 -120 -65.5 -193t-169.5 -73q-40 0 -79.5 15t-66 33.5t-56 33.5t-50.5 15q-35 0 -53.5 -28.5t-20.5 -74.5z" />
    <glyph glyph-name="itilde" unicode="&#x129;" horiz-adv-x="569" 
d="M152 0v1044h266v-1044h-266zM92 1174l-176 43q0 121 64.5 193.5t171.5 72.5q40 0 80 -15.5t65.5 -34t55 -34t50.5 -15.5q69 0 76 105l174 -43q0 -120 -65.5 -193t-169.5 -73q-50 0 -99 24t-88 48t-65 24q-35 0 -53.5 -28.5t-20.5 -73.5z" />
    <glyph glyph-name="Imacron" unicode="&#x12a;" horiz-adv-x="630" 
d="M180 0v1454h271v-1454h-271zM16 1659v199h600v-199h-600z" />
    <glyph glyph-name="imacron" unicode="&#x12b;" horiz-adv-x="569" 
d="M152 0v1044h266v-1044h-266zM-14 1249v199h600v-199h-600z" />
    <glyph glyph-name="Ibreve" unicode="&#x12c;" horiz-adv-x="630" 
d="M180 1454h271v-1454h-271v1454zM317 1593q-127 0 -212.5 81t-84.5 214h205q-1 -51 24 -81.5t68 -30.5q42 0 67 30.5t24 81.5h204q1 -133 -83.5 -214t-211.5 -81z" />
    <glyph glyph-name="ibreve" unicode="&#x12d;" horiz-adv-x="569" 
d="M152 1044h266v-1044h-266v1044zM287 1184q-127 0 -212.5 81t-84.5 214h205q-1 -51 24 -82t68 -31q41 0 66 31t24 82h205q1 -133 -83.5 -214t-211.5 -81z" />
    <glyph glyph-name="Iogonek" unicode="&#x12e;" horiz-adv-x="630" 
d="M86 -254q0 131 170 254h-76v1454h271v-1454q-80 -62 -114 -102.5t-34 -79.5q0 -70 135 -86l-76 -197q-115 3 -195.5 59t-80.5 152z" />
    <glyph glyph-name="iogonek" unicode="&#x12f;" horiz-adv-x="569" 
d="M328 -465q-115 3 -196 59t-81 152q0 131 170 254h-69v1044h266v-1044h-2q-80 -62 -114 -102.5t-34 -79.5q0 -70 135 -86zM129 1348q0 64 44.5 106.5t109.5 42.5q64 0 108.5 -42.5t44.5 -106.5t-45 -108t-108 -44q-65 0 -109.5 44t-44.5 108z" />
    <glyph glyph-name="Idotaccent" unicode="&#x130;" horiz-adv-x="630" 
d="M180 1454h271v-1454h-271v1454zM162 1757q0 64 44 107t109 43q64 0 109 -43t45 -107t-45 -107.5t-109 -43.5q-65 0 -109 43.5t-44 107.5z" />
    <glyph glyph-name="dotlessi" unicode="&#x131;" horiz-adv-x="569" 
d="M152 0v1044h266v-1044h-266z" />
    <glyph glyph-name="IJ" unicode="&#x132;" horiz-adv-x="1703" 
d="M639 281l213 129q40 -93 92 -140t135 -47q91 0 140 59.5t49 153.5v1018h270v-1022q0 -202 -128.5 -329.5t-334.5 -127.5q-155 0 -268.5 80t-167.5 226zM180 1454h271v-1454h-271v1454z" />
    <glyph glyph-name="ij" unicode="&#x133;" horiz-adv-x="1128" 
d="M623 -434q-86 0 -146 26v226q50 -19 105 -19q62 0 98.5 39t36.5 119v1087h266v-1099q0 -99 -28 -173.5t-78.5 -118.5t-114 -65.5t-139.5 -21.5zM150 0v1044h266v-1044h-266zM700 1348q0 64 44.5 106.5t109.5 42.5q64 0 109 -42.5t45 -106.5t-45 -108t-109 -44
q-65 0 -109.5 44t-44.5 108zM127 1348q0 64 44.5 106.5t109.5 42.5q64 0 108.5 -42.5t44.5 -106.5t-45 -108t-108 -44q-65 0 -109.5 44t-44.5 108z" />
    <glyph glyph-name="Jcircumflex" unicode="&#x134;" horiz-adv-x="1073" 
d="M8 281l213 129q40 -93 92.5 -140t135.5 -47q91 0 139.5 59t48.5 154v1018h270v-1022q0 -202 -128.5 -329.5t-334.5 -127.5q-155 0 -268.5 80t-167.5 226zM393 1550l260 402h228l260 -402h-240l-135 230l-133 -230h-240z" />
    <glyph glyph-name="jcircumflex" unicode="&#x135;" horiz-adv-x="571" 
d="M-90 -182q50 -19 104 -19q62 0 99 39t37 119v1087h266v-1099q0 -99 -28.5 -173.5t-78.5 -118.5t-114 -65.5t-140 -21.5q-85 0 -145 26v226zM158 1141h-240l260 401h228l260 -401h-240l-135 229z" />
    <glyph glyph-name="uni0136" unicode="&#x136;" horiz-adv-x="1368" 
d="M451 0h-271v1454h271v-674l569 674h334l-520 -618l561 -836h-318l-428 643l-198 -227v-416zM600 -541q35 143 35 228q0 102 -25 178h236q14 -85 14 -156q0 -114 -63 -250h-197z" />
    <glyph glyph-name="uni0137" unicode="&#x137;" horiz-adv-x="1144" 
d="M418 0h-266v1454h266v-842l381 432h315l-379 -436l416 -608h-313l-295 453l-125 -144v-309zM655 -541h-196q35 143 35 228q0 102 -25 178h236q14 -85 14 -156q0 -112 -64 -250z" />
    <glyph glyph-name="kgreenlandic" unicode="&#x138;" horiz-adv-x="1124" 
d="M141 1044h265v-432l380 432h316l-379 -436l416 -608h-314l-295 453l-124 -144v-309h-265v1044z" />
    <glyph glyph-name="Lacute" unicode="&#x139;" horiz-adv-x="1083" 
d="M180 0v1454h271v-1214h608v-240h-879zM223 1581l201 367h321l-301 -367h-221z" />
    <glyph glyph-name="lacute" unicode="&#x13a;" horiz-adv-x="610" 
d="M139 283v1171h267v-1124q0 -58 18.5 -88.5t73.5 -30.5q37 0 69 12v-225q-57 -23 -125 -23q-137 0 -220 75.5t-83 232.5zM182 1581l201 367h322l-302 -367h-221z" />
    <glyph glyph-name="uni013B" unicode="&#x13b;" horiz-adv-x="1083" 
d="M180 1454h271v-1214h608v-240h-879v1454zM686 -541h-197q35 143 35 228q0 105 -24 178h235q15 -92 15 -156q0 -112 -64 -250z" />
    <glyph glyph-name="uni013C" unicode="&#x13c;" horiz-adv-x="610" 
d="M139 283v1171h267v-1124q0 -58 18.5 -88.5t73.5 -30.5q37 0 69 12v-225q-57 -23 -125 -23q-137 0 -220 75.5t-83 232.5zM418 -541h-197q35 144 35 228q0 102 -25 178h236q14 -85 14 -156q0 -114 -63 -250z" />
    <glyph glyph-name="Lcaron" unicode="&#x13d;" horiz-adv-x="1087" 
d="M180 1454h271v-1214h608v-240h-879v1454zM809 1047h-197q35 143 35 227q0 105 -24 178h235q14 -85 14 -156q0 -113 -63 -249z" />
    <glyph glyph-name="lcaron" unicode="&#x13e;" horiz-adv-x="708" 
d="M139 283v1171h267v-1124q0 -58 18.5 -88.5t73.5 -30.5q37 0 69 12v-225q-57 -23 -125 -23q-137 0 -220 75.5t-83 232.5zM717 1047h-197q35 143 35 227q0 102 -25 178h236q14 -85 14 -156q0 -113 -63 -249z" />
    <glyph glyph-name="Ldot" unicode="&#x13f;" horiz-adv-x="1089" 
d="M180 0v1454h271v-1214h608v-240h-879zM825 631q-65 0 -109 43.5t-44 107.5t44 107t109 43q64 0 109 -43t45 -107t-45 -107.5t-109 -43.5z" />
    <glyph glyph-name="ldot" unicode="&#x140;" horiz-adv-x="860" 
d="M139 283v1171h267v-1124q0 -58 18.5 -88.5t73.5 -30.5q37 0 69 12v-225q-57 -23 -125 -23q-137 0 -220 75.5t-83 232.5zM524 633q0 64 44.5 106.5t109.5 42.5q64 0 108.5 -42.5t44.5 -106.5t-45 -108t-108 -44q-65 0 -109.5 44t-44.5 108z" />
    <glyph glyph-name="Lslash" unicode="&#x141;" horiz-adv-x="1165" 
d="M39 641l219 127v686h270v-530l318 182l86 -150l-404 -233v-483h609v-240h-879v567l-133 -78z" />
    <glyph glyph-name="lslash" unicode="&#x142;" horiz-adv-x="749" 
d="M111 532l-86 150l184 106v666h266v-512l164 94l88 -149l-252 -146v-411q0 -58 18.5 -88.5t73.5 -30.5q38 0 70 12v-225q-57 -23 -125 -23q-137 0 -220 75.5t-83 232.5v307z" />
    <glyph glyph-name="Nacute" unicode="&#x143;" horiz-adv-x="1585" 
d="M180 0v1454h232l723 -983v983h270v-1454h-231l-723 989v-989h-271zM674 1581l200 367h322l-301 -367h-221z" />
    <glyph glyph-name="nacute" unicode="&#x144;" horiz-adv-x="1269" 
d="M418 0h-266v1044h256v-143q102 168 321 168q185 0 295.5 -116.5t110.5 -319.5v-633h-267v602q0 110 -58 169.5t-153 59.5q-79 0 -135 -44t-80 -108.5t-24 -139.5v-539zM786 1171h-221l201 367h321z" />
    <glyph glyph-name="uni0145" unicode="&#x145;" horiz-adv-x="1585" 
d="M451 0h-271v1454h232l723 -983v983h270v-1454h-231l-723 989v-989zM868 -541h-196q35 143 35 228q0 102 -25 178h236q14 -85 14 -156q0 -112 -64 -250z" />
    <glyph glyph-name="uni0146" unicode="&#x146;" horiz-adv-x="1269" 
d="M152 1044h256v-143q102 168 321 168q185 0 295.5 -116.5t110.5 -319.5v-633h-267v602q0 110 -58 169.5t-153 59.5q-79 0 -135 -44t-80 -108.5t-24 -139.5v-539h-266v1044zM506 -541q35 143 35 228q0 102 -25 178h236q14 -85 14 -156q0 -112 -64 -250h-196z" />
    <glyph glyph-name="Ncaron" unicode="&#x147;" horiz-adv-x="1585" 
d="M180 0v1454h232l723 -983v983h270v-1454h-231l-723 989v-989h-271zM414 1952h239l133 -228l136 228h239l-260 -402h-227z" />
    <glyph glyph-name="ncaron" unicode="&#x148;" horiz-adv-x="1269" 
d="M418 0h-266v1044h256v-143q102 168 321 168q185 0 295.5 -116.5t110.5 -319.5v-633h-267v602q0 110 -58 169.5t-153 59.5q-79 0 -135 -44t-80 -108.5t-24 -139.5v-539zM528 1141l-260 401h240l133 -227l135 227h240l-260 -401h-228z" />
    <glyph glyph-name="napostrophe" unicode="&#x149;" horiz-adv-x="1312" 
d="M195 0v1044h256v-143q102 168 321 168q185 0 295.5 -116.5t110.5 -319.5v-633h-267v602q0 110 -58 169.5t-153 59.5q-79 0 -135 -44t-80 -108.5t-24 -139.5v-539h-266zM-76 1049q35 143 35 227q0 102 -25 178h236q14 -85 14 -156q0 -113 -63 -249h-197z" />
    <glyph glyph-name="Eng" unicode="&#x14a;" horiz-adv-x="1585" 
d="M180 0v1454h232l723 -983v983h270v-1509q0 -100 -28.5 -175t-79.5 -118.5t-115.5 -64.5t-141.5 -21q-85 0 -145 26v226q50 -19 104 -19q62 0 99 39t37 119v96l-684 936v-989h-271z" />
    <glyph glyph-name="eng" unicode="&#x14b;" horiz-adv-x="1269" 
d="M418 0h-266v1044h256v-143q102 168 321 168q185 0 295.5 -116.5t110.5 -319.5v-688q0 -100 -28 -175t-78.5 -118.5t-114 -64.5t-140.5 -21q-85 0 -145 26v226q47 -19 102 -19q63 0 100 39t37 119v645q0 110 -58 169.5t-153 59.5q-79 0 -135 -44t-80 -108.5t-24 -139.5
v-539z" />
    <glyph glyph-name="Omacron" unicode="&#x14c;" horiz-adv-x="1667" 
d="M834 -25q-159 0 -299 58.5t-239.5 158.5t-157.5 239t-58 296t58 296t157.5 239t239.5 158.5t299 58.5q212 0 384.5 -99t270.5 -271.5t98 -381.5t-98 -381.5t-270.5 -271.5t-384.5 -99zM834 1221q-201 0 -338.5 -142t-137.5 -352t137.5 -352t338.5 -142t338 142t137 352
t-137 352t-338 142zM1133 1659h-601v199h601v-199z" />
    <glyph glyph-name="omacron" unicode="&#x14d;" horiz-adv-x="1249" 
d="M72 522q0 152 71 277t198 197.5t284 72.5t284 -72.5t198 -197.5t71 -277t-71 -277t-198 -197.5t-284 -72.5t-284 72.5t-198 197.5t-71 277zM625 827q-123 0 -203 -87t-80 -218t80 -218t203 -87q122 0 202 87t80 218t-80 218t-202 87zM326 1249v199h600v-199h-600z" />
    <glyph glyph-name="Obreve" unicode="&#x14e;" horiz-adv-x="1667" 
d="M80 727q0 157 58 296t157.5 239t239.5 158.5t299 58.5q212 0 384.5 -99t270.5 -271.5t98 -381.5t-98 -381.5t-270.5 -271.5t-384.5 -99q-159 0 -299 58.5t-239.5 158.5t-157.5 239t-58 296zM834 1221q-201 0 -338.5 -142t-137.5 -352t137.5 -352t338.5 -142t338 142
t137 352t-137 352t-338 142zM834 1593q-127 0 -212.5 81t-84.5 214h204q-1 -51 24.5 -81.5t68.5 -30.5q42 0 66.5 30.5t23.5 81.5h204q1 -133 -83 -214t-211 -81z" />
    <glyph glyph-name="obreve" unicode="&#x14f;" horiz-adv-x="1249" 
d="M72 522q0 152 71 277t198 197.5t284 72.5t284 -72.5t198 -197.5t71 -277t-71 -277t-198 -197.5t-284 -72.5t-284 72.5t-198 197.5t-71 277zM342 522q0 -131 80 -218t203 -87q122 0 202 87t80 218t-80 218t-202 87q-123 0 -203 -87t-80 -218zM625 1184q-127 0 -212.5 81
t-84.5 214h204q-1 -51 24.5 -82t68.5 -31q41 0 66 31t24 82h205q1 -133 -83.5 -214t-211.5 -81z" />
    <glyph glyph-name="Ohungarumlaut" unicode="&#x150;" horiz-adv-x="1667" 
d="M834 -25q-159 0 -299 58.5t-239.5 158.5t-157.5 239t-58 296t58 296t157.5 239t239.5 158.5t299 58.5q212 0 384.5 -99t270.5 -271.5t98 -381.5t-98 -381.5t-270.5 -271.5t-384.5 -99zM834 1221q-201 0 -338.5 -142t-137.5 -352t137.5 -352t338.5 -142t338 142t137 352
t-137 352t-338 142zM924 1581l211 367h270l-272 -367h-209zM772 1581h-207l193 367h262z" />
    <glyph glyph-name="ohungarumlaut" unicode="&#x151;" horiz-adv-x="1253" 
d="M72 522q0 152 71 277t198 197.5t284 72.5t284 -72.5t198 -197.5t71 -277t-71 -277t-198 -197.5t-284 -72.5t-284 72.5t-198 197.5t-71 277zM342 522q0 -131 80 -218t203 -87q122 0 202 87t80 218t-80 218t-202 87q-123 0 -203 -87t-80 -218zM909 1171h-209l211 367h271z
M549 1171h-207l193 367h262z" />
    <glyph glyph-name="OE" unicode="&#x152;" horiz-adv-x="2025" 
d="M80 727q0 209 98.5 381.5t273 271.5t388.5 99q100 0 198 -25h887v-240h-620v-364h505v-238h-505v-372h645v-240h-916q-95 -25 -194 -25q-214 0 -388.5 99t-273 271.5t-98.5 381.5zM840 1223q-134 0 -244.5 -64.5t-174 -178.5t-63.5 -253t63.5 -253t174 -178.5
t244.5 -64.5q96 0 194 31v930q-88 31 -194 31z" />
    <glyph glyph-name="oe" unicode="&#x153;" horiz-adv-x="1994" 
d="M74 522q0 152 70.5 277t197 197.5t283.5 72.5q126 0 229 -50.5t174 -141.5q71 91 172.5 141.5t224.5 50.5q220 0 355 -136.5t135 -346.5q0 -64 -14 -129h-732q13 -118 100 -184t208 -66q160 0 272 117l145 -177q-93 -90 -198 -131t-234 -41q-271 0 -432 195
q-71 -92 -174.5 -143.5t-230.5 -51.5q-157 0 -283.5 72.5t-197 197.5t-70.5 277zM344 522q0 -131 79.5 -218t201.5 -87q125 0 203.5 86.5t78.5 218.5q0 133 -78.5 219t-203.5 86q-123 0 -202 -86.5t-79 -218.5zM1171 637h486v2q-7 94 -73 150.5t-161 56.5q-99 0 -169 -56.5
t-83 -152.5z" />
    <glyph glyph-name="Racute" unicode="&#x154;" horiz-adv-x="1347" 
d="M180 1454h604q206 0 341 -128t135 -329q0 -142 -77.5 -249.5t-207.5 -161.5l287 -586h-299l-250 545h-262v-545h-271v1454zM748 1217h-297v-447h294q100 0 167 63.5t67 165.5q0 97 -65.5 157.5t-165.5 60.5zM543 1581l200 367h322l-301 -367h-221z" />
    <glyph glyph-name="racute" unicode="&#x155;" horiz-adv-x="860" 
d="M152 0v1044h262v-182q39 97 116.5 152t180.5 55q35 0 63 -8v-256q-20 8 -57 8q-138 0 -218.5 -96t-80.5 -258v-459h-266zM586 1171h-221l200 367h322z" />
    <glyph glyph-name="uni0156" unicode="&#x156;" horiz-adv-x="1347" 
d="M180 1454h604q206 0 341 -128t135 -329q0 -142 -77.5 -249.5t-207.5 -161.5l287 -586h-299l-250 545h-262v-545h-271v1454zM451 1217v-447h294q100 0 167 63.5t67 165.5q0 97 -65.5 157.5t-165.5 60.5h-297zM561 -541q35 143 35 228q0 102 -25 178h236q14 -85 14 -156
q0 -114 -63 -250h-197z" />
    <glyph glyph-name="uni0157" unicode="&#x157;" horiz-adv-x="804" 
d="M152 0v1044h262v-182q39 97 116.5 152t180.5 55q35 0 63 -8v-256q-20 8 -57 8q-138 0 -218.5 -96t-80.5 -258v-459h-266zM362 -541h-196q35 144 35 228q0 102 -25 178h236q14 -85 14 -156q0 -112 -64 -250z" />
    <glyph glyph-name="Rcaron" unicode="&#x158;" horiz-adv-x="1347" 
d="M180 0v1454h604q206 0 341 -128t135 -329q0 -142 -77.5 -249.5t-207.5 -161.5l287 -586h-299l-250 545h-262v-545h-271zM451 770h294q100 0 167 63.5t67 165.5q0 97 -65.5 157.5t-165.5 60.5h-297v-447zM301 1952h240l133 -228l135 228h240l-261 -402h-227z" />
    <glyph glyph-name="rcaron" unicode="&#x159;" horiz-adv-x="817" 
d="M154 0v1044h262v-182q39 97 116.5 152t180.5 55q35 0 63 -8v-256q-20 8 -57 8q-138 0 -218.5 -96t-80.5 -258v-459h-266zM348 1141l-260 401h240l133 -227l135 227h240l-261 -401h-227z" />
    <glyph glyph-name="Sacute" unicode="&#x15a;" horiz-adv-x="1161" 
d="M578 -25q-164 0 -304 75.5t-215 211.5l205 156q52 -92 134.5 -143.5t183.5 -51.5q104 0 169.5 46.5t65.5 113.5q0 27 -6 48.5t-23.5 41t-32 32.5t-49.5 31t-56.5 28t-72.5 32t-79 35q-161 72 -225 115q-146 99 -168 252q-5 31 -5 65q0 179 140 297.5t352 118.5
q147 0 272.5 -66t196.5 -192l-201 -150q-102 162 -272 162q-95 0 -156 -44.5t-61 -117.5q0 -22 6.5 -41t16 -34t29 -30.5t35.5 -26t46 -25.5t49.5 -24t58 -25.5t60.5 -26.5q61 -27 98.5 -44.5t87 -44.5t79 -50.5t61.5 -56.5t49 -68.5t28.5 -82t11.5 -100.5
q0 -83 -34.5 -157.5t-97.5 -132.5t-160.5 -92t-216.5 -34zM498 1581l200 367h322l-301 -367h-221z" />
    <glyph glyph-name="sacute" unicode="&#x15b;" horiz-adv-x="970" 
d="M485 -25q-140 0 -256 63t-174 173l181 133q98 -154 249 -154q72 0 115 25.5t43 65.5q0 47 -45 75.5t-180 73.5q-168 55 -248 130t-80 198q0 134 116 222.5t286 88.5q127 0 227.5 -56t152.5 -151l-178 -129q-73 123 -207 123q-64 0 -105.5 -27t-41.5 -69q0 -39 46.5 -68.5
t170.5 -73.5q68 -25 112 -44.5t91 -49t73 -60.5t43 -76t17 -101q0 -134 -114.5 -223t-293.5 -89zM377 1171l201 367h321l-301 -367h-221z" />
    <glyph glyph-name="Scircumflex" unicode="&#x15c;" horiz-adv-x="1161" 
d="M59 262l205 156q52 -92 134.5 -143.5t183.5 -51.5q104 0 169.5 46.5t65.5 113.5q0 27 -6 48.5t-23.5 41t-32 32.5t-49.5 31t-56.5 28t-72.5 32t-79 35q-161 72 -225 115q-146 99 -168 252q-5 31 -5 65q0 179 140 297.5t352 118.5q147 0 272.5 -66t196.5 -192l-201 -150
q-102 162 -272 162q-95 0 -156 -44.5t-61 -117.5q0 -22 6.5 -41t16 -34t29 -30.5t35.5 -26t46 -25.5t49.5 -24t58 -25.5t60.5 -26.5q61 -27 98.5 -44.5t87 -44.5t79 -50.5t61.5 -56.5t49 -68.5t28.5 -82t11.5 -100.5q0 -83 -34.5 -157.5t-97.5 -132.5t-160.5 -92t-216.5 -34
q-164 0 -304 75.5t-215 211.5zM451 1550h-240l260 402h227l260 -402h-239l-135 230z" />
    <glyph glyph-name="scircumflex" unicode="&#x15d;" horiz-adv-x="964" 
d="M55 211l181 133q98 -154 249 -154q72 0 115 25.5t43 65.5q0 47 -45 75.5t-180 73.5q-168 55 -248 130t-80 198q0 134 116 222.5t286 88.5q127 0 227.5 -56t152.5 -151l-178 -129q-73 123 -207 123q-64 0 -105.5 -27t-41.5 -69q0 -39 46.5 -68.5t170.5 -73.5
q68 -25 112 -44.5t91 -49t73 -60.5t43 -76t17 -101q0 -134 -114.5 -223t-293.5 -89q-140 0 -256 63t-174 173zM352 1141h-239l260 401h227l260 -401h-239l-136 229z" />
    <glyph glyph-name="Scedilla" unicode="&#x15e;" horiz-adv-x="1161" 
d="M512 -20q-144 12 -264.5 85.5t-188.5 196.5l205 156q52 -92 134.5 -143.5t183.5 -51.5q104 0 169.5 46.5t65.5 113.5q0 27 -6 48.5t-23.5 41t-32 32.5t-49.5 31t-56.5 28t-72.5 32t-79 35q-161 72 -225 115q-146 99 -168 252q-5 31 -5 65q0 179 140 297.5t352 118.5
q147 0 272.5 -66t196.5 -192l-201 -150q-102 162 -272 162q-95 0 -156 -44.5t-61 -117.5q0 -22 6.5 -41t16 -34t29 -30.5t35.5 -26t46 -25.5t49.5 -24t58 -25.5t60.5 -26.5q61 -27 98.5 -44.5t87 -44.5t79 -50.5t61.5 -56.5t49 -68.5t28.5 -82t11.5 -100.5
q0 -157 -116 -273.5t-316 -137.5l-24 -82q71 -15 121.5 -61t50.5 -120q0 -87 -74 -138.5t-186 -51.5q-75 0 -125 16v158q54 -16 102 -16q94 0 94 53t-100 53q-33 0 -57 -4z" />
    <glyph glyph-name="scedilla" unicode="&#x15f;" horiz-adv-x="964" 
d="M416 -20q-120 15 -215.5 75t-145.5 156l181 133q98 -154 249 -154q72 0 115 25.5t43 65.5q0 47 -45 75.5t-180 73.5q-168 55 -248 130t-80 198q0 134 116 222.5t286 88.5q127 0 227.5 -56t152.5 -151l-178 -129q-73 123 -207 123q-64 0 -105.5 -27t-41.5 -69
q0 -39 46.5 -68.5t170.5 -73.5q68 -25 112 -44.5t91 -49t73 -60.5t43 -76t17 -101q0 -119 -92 -203.5t-244 -103.5l-25 -82q72 -15 122.5 -61t50.5 -120q0 -87 -74.5 -138.5t-186.5 -51.5q-75 0 -125 16v158q54 -16 103 -16q94 0 94 53t-100 53q-34 0 -58 -4z" />
    <glyph glyph-name="Scaron" unicode="&#x160;" horiz-adv-x="1161" 
d="M59 262l205 156q52 -92 134.5 -143.5t183.5 -51.5q104 0 169.5 46.5t65.5 113.5q0 27 -6 48.5t-23.5 41t-32 32.5t-49.5 31t-56.5 28t-72.5 32t-79 35q-161 72 -225 115q-146 99 -168 252q-5 31 -5 65q0 179 140 297.5t352 118.5q147 0 272.5 -66t196.5 -192l-201 -150
q-102 162 -272 162q-95 0 -156 -44.5t-61 -117.5q0 -22 6.5 -41t16 -34t29 -30.5t35.5 -26t46 -25.5t49.5 -24t58 -25.5t60.5 -26.5q61 -27 98.5 -44.5t87 -44.5t79 -50.5t61.5 -56.5t49 -68.5t28.5 -82t11.5 -100.5q0 -83 -34.5 -157.5t-97.5 -132.5t-160.5 -92t-216.5 -34
q-164 0 -304 75.5t-215 211.5zM477 1550l-260 402h240l133 -228l135 228h240l-260 -402h-228z" />
    <glyph glyph-name="scaron" unicode="&#x161;" horiz-adv-x="964" 
d="M55 211l181 133q98 -154 249 -154q72 0 115 25.5t43 65.5q0 47 -45 75.5t-180 73.5q-168 55 -248 130t-80 198q0 134 116 222.5t286 88.5q127 0 227.5 -56t152.5 -151l-178 -129q-73 123 -207 123q-64 0 -105.5 -27t-41.5 -69q0 -39 46.5 -68.5t170.5 -73.5
q68 -25 112 -44.5t91 -49t73 -60.5t43 -76t17 -101q0 -134 -114.5 -223t-293.5 -89q-140 0 -256 63t-174 173zM373 1141l-260 401h239l133 -227l136 227h239l-260 -401h-227z" />
    <glyph glyph-name="uni0162" unicode="&#x162;" horiz-adv-x="1146" 
d="M20 1214v240h1104v-240h-417v-1214h-66l-31 -102q71 -15 121.5 -61t50.5 -120q0 -87 -74 -138.5t-186 -51.5q-75 0 -125 16v158q54 -16 103 -16q94 0 94 53t-100 53q-34 0 -58 -4l62 213h-62v1214h-416z" />
    <glyph glyph-name="uni0163" unicode="&#x163;" horiz-adv-x="763" 
d="M41 1044h156v285h258v-285h247v-213h-247v-464q0 -152 145 -152q76 0 129 35v-234q-77 -41 -199 -41q-22 0 -32 2l-25 -79q71 -15 121.5 -61t50.5 -120q0 -87 -74 -138.5t-186 -51.5q-75 0 -125 16v158q54 -16 102 -16q45 0 70 14t25 39q0 53 -101 53q-33 0 -57 -4
l66 221q-85 39 -131 120.5t-46 199.5v503h-147v213z" />
    <glyph glyph-name="Tcaron" unicode="&#x164;" horiz-adv-x="1146" 
d="M436 1214h-416v240h1104v-240h-417v-1214h-271v1214zM459 1550l-260 402h239l133 -228l136 228h239l-260 -402h-227z" />
    <glyph glyph-name="tcaron" unicode="&#x165;" horiz-adv-x="794" 
d="M41 1044h156v285h258v-285h247v-213h-247v-464q0 -152 145 -152q76 0 129 35v-234q-77 -41 -199 -41q-161 0 -251.5 92.5t-90.5 260.5v503h-147v213zM520 1108q35 116 35 199q0 85 -25 147h234q14 -71 14 -133q0 -57 -14 -103t-45 -110h-199z" />
    <glyph glyph-name="Tbar" unicode="&#x166;" horiz-adv-x="1212" 
d="M469 1214h-416v240h1104v-240h-418v-366h297v-176h-297v-672h-270v672h-293v176h293v366z" />
    <glyph glyph-name="tbar" unicode="&#x167;" horiz-adv-x="778" 
d="M51 1044h156v285h258v-285h248v-213h-248v-159h237v-162h-237v-143q0 -152 145 -152q76 0 129 35v-234q-77 -41 -198 -41q-161 0 -251.5 92.5t-90.5 260.5v182h-138v162h138v159h-148v213z" />
    <glyph glyph-name="Utilde" unicode="&#x168;" horiz-adv-x="1490" 
d="M162 1454h270v-895q0 -140 87.5 -234t225.5 -94t226 94t88 234v895h270v-913q0 -156 -74 -285.5t-208.5 -205t-301.5 -75.5q-126 0 -235 44.5t-185 120.5t-119.5 180t-43.5 221v913zM551 1583l-176 43q0 121 64 193.5t171 72.5q40 0 80 -15.5t66 -33.5t55.5 -33.5
t50.5 -15.5q69 0 76 104l174 -43q0 -120 -65.5 -193t-169.5 -73q-40 0 -79.5 15t-66 33.5t-56 33.5t-50.5 15q-35 0 -53.5 -28.5t-20.5 -74.5z" />
    <glyph glyph-name="utilde" unicode="&#x169;" horiz-adv-x="1269" 
d="M135 1044h266v-602q0 -110 58 -169.5t153 -59.5q79 0 135 44.5t80.5 109t24.5 139.5v538h266v-1044h-256v143q-102 -168 -321 -168q-185 0 -295.5 117t-110.5 320v632zM262 1217q0 121 64.5 193.5t171.5 72.5q40 0 80 -15.5t66 -34t55.5 -34t50.5 -15.5q68 0 75 105
l174 -43q0 -120 -65.5 -193t-169.5 -73q-50 0 -99 24t-88 48t-65 24q-35 0 -53.5 -28.5t-20.5 -73.5z" />
    <glyph glyph-name="Umacron" unicode="&#x16a;" horiz-adv-x="1490" 
d="M162 541v913h270v-895q0 -140 87.5 -234t225.5 -94t226 94t88 234v895h270v-913q0 -156 -74 -285.5t-208.5 -205t-301.5 -75.5q-126 0 -235 44.5t-185 120.5t-119.5 180t-43.5 221zM444 1659v199h600v-199h-600z" />
    <glyph glyph-name="umacron" unicode="&#x16b;" horiz-adv-x="1269" 
d="M135 1044h266v-602q0 -110 58 -169.5t153 -59.5q79 0 135 44.5t80.5 109t24.5 139.5v538h266v-1044h-256v143q-102 -168 -321 -168q-185 0 -295.5 117t-110.5 320v632zM326 1249v199h600v-199h-600z" />
    <glyph glyph-name="Ubreve" unicode="&#x16c;" horiz-adv-x="1490" 
d="M162 1454h270v-895q0 -140 87.5 -234t225.5 -94t226 94t88 234v895h270v-913q0 -156 -74 -285.5t-208.5 -205t-301.5 -75.5q-126 0 -235 44.5t-185 120.5t-119.5 180t-43.5 221v913zM745 1593q-127 0 -212 81t-84 214h204q-1 -51 24 -81.5t68 -30.5q42 0 67 30.5t24 81.5
h204q1 -133 -83.5 -214t-211.5 -81z" />
    <glyph glyph-name="ubreve" unicode="&#x16d;" horiz-adv-x="1269" 
d="M135 1044h266v-602q0 -110 58 -169.5t153 -59.5q79 0 135 44.5t80.5 109t24.5 139.5v538h266v-1044h-256v143q-102 -168 -321 -168q-185 0 -295.5 117t-110.5 320v632zM627 1184q-127 0 -212.5 81t-84.5 214h205q-1 -51 24 -82t68 -31q41 0 66 31t24 82h205
q1 -133 -83.5 -214t-211.5 -81z" />
    <glyph glyph-name="Uring" unicode="&#x16e;" horiz-adv-x="1490" 
d="M745 -25q-126 0 -235 44.5t-185 120.5t-119.5 180t-43.5 221v913h270v-895q0 -140 87.5 -234t225.5 -94t226 94t88 234v895h270v-913q0 -156 -74 -285.5t-208.5 -205t-301.5 -75.5zM504 1769q0 98 67.5 165t173.5 67q105 0 173.5 -67t68.5 -165q0 -97 -69 -164t-173 -67
q-105 0 -173 67t-68 164zM664 1769q0 -33 23 -56t58 -23q33 0 56.5 23t23.5 56q0 34 -23 57t-57 23q-35 0 -58 -23t-23 -57z" />
    <glyph glyph-name="uring" unicode="&#x16f;" horiz-adv-x="1269" 
d="M135 1044h266v-602q0 -110 58 -169.5t153 -59.5q79 0 135 44.5t80.5 109t24.5 139.5v538h266v-1044h-256v143q-102 -168 -321 -168q-185 0 -295.5 117t-110.5 320v632zM389 1360q0 98 68 164.5t174 66.5q105 0 173 -66.5t68 -164.5q0 -97 -68.5 -164.5t-172.5 -67.5
q-105 0 -173.5 67.5t-68.5 164.5zM631 1440q-35 0 -58.5 -23t-23.5 -57q0 -33 23.5 -56.5t58.5 -23.5q33 0 56.5 23.5t23.5 56.5q0 34 -23 57t-57 23z" />
    <glyph glyph-name="Uhungarumlaut" unicode="&#x170;" horiz-adv-x="1490" 
d="M745 -25q-126 0 -235 44.5t-185 120.5t-119.5 180t-43.5 221v913h270v-895q0 -140 87.5 -234t225.5 -94t226 94t88 234v895h270v-913q0 -156 -74 -285.5t-208.5 -205t-301.5 -75.5zM823 1581l211 367h271l-273 -367h-209zM672 1581h-207l192 367h263z" />
    <glyph glyph-name="uhungarumlaut" unicode="&#x171;" horiz-adv-x="1269" 
d="M541 -25q-185 0 -295.5 117t-110.5 320v632h266v-602q0 -110 58 -169.5t153 -59.5q79 0 135 44.5t80.5 109t24.5 139.5v538h266v-1044h-256v143q-102 -168 -321 -168zM717 1171l211 367h270l-272 -367h-209zM358 1171l193 367h262l-248 -367h-207z" />
    <glyph glyph-name="Uogonek" unicode="&#x172;" horiz-adv-x="1490" 
d="M162 1454h270v-895q0 -140 87.5 -234t225.5 -94t226 94t88 234v895h270v-913q0 -195 -112.5 -343.5t-298.5 -199.5q-78 -61 -112 -101t-34 -79q0 -70 135 -86l-76 -197q-115 3 -195.5 59t-80.5 152q0 121 139 231q-234 17 -383 177.5t-149 386.5v913z" />
    <glyph glyph-name="uogonek" unicode="&#x173;" horiz-adv-x="1269" 
d="M135 1044h266v-602q0 -110 58 -169.5t153 -59.5q79 0 135 44.5t80.5 109t24.5 139.5v538h266v-1044q-79 -62 -113 -102t-34 -80q0 -70 135 -86l-76 -197q-115 3 -195.5 59t-80.5 152q0 131 170 254h-62v143q-102 -168 -321 -168q-185 0 -295.5 117t-110.5 320v632z" />
    <glyph glyph-name="Wcircumflex" unicode="&#x174;" horiz-adv-x="2056" 
d="M6 1454h277l299 -1081l319 1081h254l320 -1081l299 1081h276l-432 -1454h-272l-318 1055l-317 -1055h-273zM903 1550h-239l260 402h227l260 -402h-240l-135 230z" />
    <glyph glyph-name="wcircumflex" unicode="&#x175;" horiz-adv-x="1646" 
d="M8 1044h264l213 -716l230 716h217l229 -716l213 716h264l-344 -1044h-245l-226 676l-225 -676h-246zM684 1141h-240l261 401h227l260 -401h-240l-135 229z" />
    <glyph glyph-name="Ycircumflex" unicode="&#x176;" horiz-adv-x="1294" 
d="M512 649l-520 805h303l352 -567l352 567h304l-521 -805v-649h-270v649zM512 1550h-240l260 402h228l260 -402h-240l-135 230z" />
    <glyph glyph-name="ycircumflex" unicode="&#x177;" horiz-adv-x="1093" 
d="M420 29l-420 1015h285l266 -727l264 727h277l-467 -1163q-68 -165 -158.5 -240t-233.5 -75q-96 0 -174 35v225q62 -35 140 -35q69 0 117 38t79 132zM412 1141h-240l260 401h227l261 -401h-240l-135 229z" />
    <glyph glyph-name="Ydieresis" unicode="&#x178;" horiz-adv-x="1294" 
d="M512 649l-520 805h303l352 -567l352 567h304l-521 -805v-649h-270v649zM881 1606q-65 0 -109.5 43.5t-44.5 107.5t44.5 107t109.5 43q64 0 108.5 -43t44.5 -107t-44.5 -107.5t-108.5 -43.5zM262 1757q0 64 44.5 107t109.5 43q64 0 108.5 -43t44.5 -107t-44.5 -107.5
t-108.5 -43.5q-65 0 -109.5 43.5t-44.5 107.5z" />
    <glyph glyph-name="Zacute" unicode="&#x179;" horiz-adv-x="1142" 
d="M57 0v174l676 1043h-647v237h993v-172l-673 -1044h665v-238h-1014zM481 1581l201 367h322l-302 -367h-221z" />
    <glyph glyph-name="zacute" unicode="&#x17a;" horiz-adv-x="968" 
d="M70 0v141l489 686h-483v217h815v-141l-494 -686h512v-217h-839zM371 1171l200 367h322l-301 -367h-221z" />
    <glyph glyph-name="Zdotaccent" unicode="&#x17b;" horiz-adv-x="1142" 
d="M57 0v174l676 1043h-647v237h993v-172l-673 -1044h665v-238h-1014zM436 1757q0 64 44.5 107t109.5 43q64 0 108.5 -43t44.5 -107t-44.5 -107.5t-108.5 -43.5q-65 0 -109.5 43.5t-44.5 107.5z" />
    <glyph glyph-name="zdotaccent" unicode="&#x17c;" horiz-adv-x="968" 
d="M70 0v141l489 686h-483v217h815v-141l-494 -686h512v-217h-839zM481 1196q-65 0 -109 44t-44 108t44 106.5t109 42.5q64 0 109 -42.5t45 -106.5t-45 -108t-109 -44z" />
    <glyph glyph-name="Zcaron" unicode="&#x17d;" horiz-adv-x="1142" 
d="M1071 0h-1014v174l676 1043h-647v237h993v-172l-673 -1044h665v-238zM223 1952h240l133 -228l135 228h240l-260 -402h-228z" />
    <glyph glyph-name="zcaron" unicode="&#x17e;" horiz-adv-x="968" 
d="M909 0h-839v141l489 686h-483v217h815v-141l-494 -686h512v-217zM377 1141l-260 401h239l133 -227l136 227h239l-260 -401h-227z" />
    <glyph glyph-name="uni018F" unicode="&#x18f;" horiz-adv-x="1550" 
d="M760 -25q-119 0 -225.5 33t-195.5 101.5t-150 166t-88.5 235t-12.5 300.5h1102q-23 189 -142.5 300.5t-302.5 111.5q-142 0 -254.5 -63t-185.5 -156l-180 174q42 53 97.5 101.5t133 95.5t180.5 75.5t214 28.5q211 0 375 -99.5t252.5 -272t88.5 -386.5q0 -211 -87 -380.5
t-249 -267.5t-370 -98zM360 598q5 -156 114 -262.5t290 -106.5q168 0 279 101t143 268h-826z" />
    <glyph glyph-name="florin" unicode="&#x192;" horiz-adv-x="1093" 
d="M205 -207q-103 0 -170 31v227q74 -28 143 -28q186 0 199 184l45 498h-164v213h180l17 169q15 184 134 288t304 104q88 0 162 -31v-227q-13 10 -53.5 19t-83.5 9q-86 0 -142 -43t-63 -141l-15 -147h209v-213h-225l-47 -523q-15 -182 -132 -285.5t-298 -103.5z" />
    <glyph glyph-name="uni019D" unicode="&#x19d;" horiz-adv-x="1574" 
d="M-27 -416v226q37 -11 76 -11q121 0 121 146v1509h231l723 -983v983h271v-1454h-232l-723 989v-1055q0 -98 -28 -171t-77 -115t-110.5 -62t-134.5 -20q-72 0 -117 18z" />
    <glyph glyph-name="Gcaron" unicode="&#x1e6;" horiz-adv-x="1560" 
d="M80 727q0 157 58 296t157.5 239t240.5 158.5t300 58.5q203 0 355 -84.5t251 -223.5l-199 -172q-69 98 -173 159t-236 61q-206 0 -341 -141t-135 -351t133 -350.5t336 -140.5q245 0 387 186v139h-331v225h585v-467q-104 -155 -267 -249.5t-372 -94.5q-158 0 -297 58.5
t-238 158.5t-156.5 239t-57.5 296zM451 1952h239l133 -228l135 228h240l-260 -402h-227z" />
    <glyph glyph-name="gcaron" unicode="&#x1e7;" horiz-adv-x="1116" 
d="M545 -434q-225 0 -359.5 77.5t-134.5 209.5q0 71 46 125.5t122 87.5q-76 56 -76 149q0 100 117 172q-82 52 -129 132t-47 175q0 157 124.5 266t305.5 109q72 0 145 -25h412v-204h-162q37 -67 37 -146q0 -160 -125.5 -268.5t-308.5 -108.5q-33 0 -80 7q-51 -26 -51 -66
q0 -29 24.5 -45t57.5 -16h262q159 0 257.5 -84t98.5 -217q0 -141 -148 -235.5t-388 -94.5zM141 1542h240l133 -227l135 227h240l-260 -401h-228zM326 694q0 -71 54.5 -121.5t133.5 -50.5t135 50.5t56 121.5t-56 120.5t-135 49.5t-133.5 -49.5t-54.5 -120.5zM395 -12
q-84 -34 -84 -101q0 -51 65.5 -80.5t172.5 -29.5q132 0 202 31t70 83q0 45 -39 71t-96 26h-291z" />
    <glyph glyph-name="uni01EA" unicode="&#x1ea;" horiz-adv-x="1667" 
d="M80 727q0 157 58 296t157.5 239t239.5 158.5t299 58.5q212 0 384.5 -99t270.5 -271.5t98 -381.5q0 -267 -156 -467t-405 -262q-78 -60 -111.5 -100.5t-33.5 -79.5q0 -70 135 -86l-76 -197q-115 3 -195.5 59t-80.5 152q0 118 137 229q-204 8 -369 108.5t-258.5 270
t-93.5 373.5zM834 1221q-201 0 -338.5 -142t-137.5 -352t137.5 -352t338.5 -142t338 142t137 352t-137 352t-338 142z" />
    <glyph glyph-name="uni01EB" unicode="&#x1eb;" horiz-adv-x="1249" 
d="M72 522q0 152 71 277t198 197.5t284 72.5t284 -72.5t198 -197.5t71 -277q0 -188 -106.5 -330.5t-280.5 -193.5q-78 -61 -112 -101t-34 -79q0 -70 135 -86l-75 -197q-115 3 -196 59t-81 152q0 118 139 231q-216 20 -355.5 174t-139.5 371zM625 827q-123 0 -203 -87
t-80 -218t80 -218t203 -87q122 0 202 87t80 218t-80 218t-202 87z" />
    <glyph glyph-name="Aringacute" unicode="&#x1fa;" horiz-adv-x="1378" 
d="M-6 0l561 1454h270l559 -1454h-274l-137 356h-565l-138 -356h-276zM690 1538q-105 0 -173 67t-68 164q0 98 67.5 165t173.5 67q105 0 173.5 -67t68.5 -165q0 -97 -69 -164t-173 -67zM690 1153l-198 -559h397zM578 2068l184 330h305l-268 -330h-221zM608 1769
q0 -33 23.5 -56t58.5 -23q34 0 57 23t23 56q0 34 -23 57t-57 23q-35 0 -58.5 -23t-23.5 -57z" />
    <glyph glyph-name="aringacute" unicode="&#x1fb;" horiz-adv-x="1097" 
d="M412 -25q-149 0 -246.5 87t-97.5 221q0 118 87 197.5t253 111.5l301 59v13q0 85 -56 129.5t-153 44.5q-82 0 -153.5 -35t-123.5 -94l-139 170q75 90 186.5 140t247.5 50q209 0 329 -109t120 -298v-662h-246v141q-45 -79 -125.5 -122.5t-183.5 -43.5zM287 1360
q0 98 67.5 164.5t173.5 66.5q105 0 173.5 -66.5t68.5 -164.5q0 -97 -69 -164.5t-173 -67.5q-105 0 -173 67.5t-68 164.5zM324 299q0 -53 39 -86t102 -33q106 0 177 72.5t71 173.5v45l-244 -47q-74 -14 -109.5 -44t-35.5 -81zM412 1655l184 330h305l-268 -330h-221zM528 1440
q-35 0 -58.5 -23t-23.5 -57q0 -33 23.5 -56.5t58.5 -23.5q33 0 56.5 23.5t23.5 56.5q0 34 -23 57t-57 23z" />
    <glyph glyph-name="AEacute" unicode="&#x1fc;" horiz-adv-x="1970" 
d="M242 0h-289l735 1454h1184v-237h-623v-367h506v-238h-506v-372h645v-240h-915v446h-514zM590 694h389v523h-127zM1243 1581h-221l201 367h321z" />
    <glyph glyph-name="aeacute" unicode="&#x1fd;" horiz-adv-x="1814" 
d="M463 -25q-168 0 -282.5 94t-114.5 234q0 137 118.5 230.5t292.5 93.5h281v22q0 94 -75 145.5t-179 51.5q-82 0 -156.5 -35t-126.5 -92l-139 166q70 81 181.5 132.5t244.5 51.5q127 0 227.5 -46.5t159.5 -129.5q66 82 162 129t207 47q215 0 348 -138.5t133 -352.5
q0 -77 -14 -123h-717q15 -117 96 -184.5t195 -67.5q83 0 156.5 32t121.5 84l146 -172q-175 -172 -429 -172q-131 0 -238.5 55t-180.5 152q-67 -91 -179.5 -149t-238.5 -58zM508 455q-93 0 -139.5 -38t-46.5 -95q0 -55 45.5 -93.5t124.5 -38.5q101 0 185.5 70t84.5 162v33
h-254zM1026 1171h-221l201 367h321zM1016 627h475v2q-7 98 -72 157.5t-157 59.5q-97 0 -165 -59t-81 -160z" />
    <glyph glyph-name="Oslashacute" unicode="&#x1fe;" horiz-adv-x="1667" 
d="M80 727q0 157 58 296t157.5 239t239.5 158.5t299 58.5q197 0 376 -95l142 197l129 -88l-144 -199q119 -104 184.5 -250.5t65.5 -316.5q0 -209 -98 -381.5t-270.5 -271.5t-384.5 -99q-199 0 -375 95l-142 -197l-131 88l144 199q-119 104 -184.5 250.5t-65.5 316.5z
M358 727q0 -205 131 -346l566 786q-102 54 -221 54q-201 0 -338.5 -142t-137.5 -352zM614 287q102 -54 220 -54q201 0 338 142t137 352q0 207 -131 344zM954 1581h-221l201 367h321z" />
    <glyph glyph-name="oslashacute" unicode="&#x1ff;" horiz-adv-x="1249" 
d="M72 522q0 152 71 277t198 197.5t284 72.5q142 0 260 -59l123 172l122 -84l-124 -172q83 -76 127.5 -180t44.5 -224q0 -152 -71 -277t-198 -197.5t-284 -72.5q-141 0 -258 60l-123 -172l-123 86l123 170q-172 158 -172 403zM342 522q0 -108 55 -188l340 471
q-55 22 -112 22q-123 0 -203 -87t-80 -218zM514 240q54 -23 111 -23q122 0 202 87t80 218q0 110 -55 187zM522 1171l201 367h321l-301 -367h-221z" />
    <glyph glyph-name="uni0218" unicode="&#x218;" horiz-adv-x="1161" 
d="M578 -25q-164 0 -304 75.5t-215 211.5l205 156q52 -92 134.5 -143.5t183.5 -51.5q104 0 169.5 46.5t65.5 113.5q0 27 -6 48.5t-23.5 41t-32 32.5t-49.5 31t-56.5 28t-72.5 32t-79 35q-161 72 -225 115q-146 99 -168 252q-5 31 -5 65q0 179 140 297.5t352 118.5
q147 0 272.5 -66t196.5 -192l-201 -150q-102 162 -272 162q-95 0 -156 -44.5t-61 -117.5q0 -22 6.5 -41t16 -34t29 -30.5t35.5 -26t46 -25.5t49.5 -24t58 -25.5t60.5 -26.5q61 -27 98.5 -44.5t87 -44.5t79 -50.5t61.5 -56.5t49 -68.5t28.5 -82t11.5 -100.5
q0 -83 -34.5 -157.5t-97.5 -132.5t-160.5 -92t-216.5 -34zM463 -541q35 143 35 228q0 102 -25 178h236q14 -85 14 -156q0 -112 -64 -250h-196z" />
    <glyph glyph-name="uni0219" unicode="&#x219;" horiz-adv-x="964" 
d="M485 -25q-140 0 -256 63t-174 173l181 133q98 -154 249 -154q72 0 115 25.5t43 65.5q0 47 -45 75.5t-180 73.5q-168 55 -248 130t-80 198q0 134 116 222.5t286 88.5q127 0 227.5 -56t152.5 -151l-178 -129q-73 123 -207 123q-64 0 -105.5 -27t-41.5 -69q0 -39 46.5 -68.5
t170.5 -73.5q68 -25 112 -44.5t91 -49t73 -60.5t43 -76t17 -101q0 -134 -114.5 -223t-293.5 -89zM354 -541q35 144 35 228q0 105 -24 178h235q14 -85 14 -156q0 -114 -63 -250h-197z" />
    <glyph glyph-name="uni021A" unicode="&#x21a;" horiz-adv-x="1146" 
d="M20 1454h1104v-240h-417v-1214h-271v1214h-416v240zM643 -541h-197q35 143 35 228q0 105 -24 178h235q15 -92 15 -156q0 -112 -64 -250z" />
    <glyph glyph-name="uni021B" unicode="&#x21b;" horiz-adv-x="763" 
d="M188 831h-147v213h156v285h258v-285h247v-213h-247v-464q0 -152 145 -152q76 0 129 35v-234q-77 -41 -199 -41q-161 0 -251.5 92.5t-90.5 260.5v503zM512 -541h-197q35 144 35 228q0 105 -24 178h235q14 -85 14 -156q0 -114 -63 -250z" />
    <glyph glyph-name="uni0232" unicode="&#x232;" horiz-adv-x="1294" 
d="M-8 1454h303l352 -567l352 567h304l-521 -805v-649h-270v649zM346 1659v199h600v-199h-600z" />
    <glyph glyph-name="uni0233" unicode="&#x233;" horiz-adv-x="1093" 
d="M420 29l-420 1015h285l266 -727l264 727h277l-467 -1163q-68 -165 -158.5 -240t-233.5 -75q-96 0 -174 35v225q62 -35 140 -35q69 0 117 38t79 132zM840 1249h-600v199h600v-199z" />
    <glyph glyph-name="uni0237" unicode="&#x237;" horiz-adv-x="567" 
d="M-90 -182q50 -19 104 -19q62 0 99 39t37 119v1087h266v-1099q0 -99 -28.5 -173.5t-78.5 -118.5t-114 -65.5t-140 -21.5q-85 0 -145 26v226z" />
    <glyph glyph-name="uni0259" unicode="&#x259;" horiz-adv-x="1142" 
d="M569 -25q-222 0 -358.5 137t-136.5 347q0 54 14 129h735q-12 119 -92 184.5t-194 65.5q-172 0 -289 -117l-146 176q175 172 449 172q121 0 224.5 -42t174 -115t110.5 -173.5t40 -214.5q0 -153 -67.5 -278.5t-189.5 -198t-274 -72.5zM332 406q7 -95 73.5 -151t165.5 -56
q98 0 166.5 56t83.5 153h-489v-2z" />
    <glyph glyph-name="uni0272" unicode="&#x272;" horiz-adv-x="1261" 
d="M-55 -190q37 -11 78 -11q120 0 120 146v1099h256v-143q102 168 322 168q185 0 295 -116.5t110 -319.5v-633h-266v602q0 110 -58 169.5t-153 59.5q-79 0 -135 -44t-80 -108.5t-24 -139.5v-605q0 -98 -27.5 -171t-76.5 -115t-109.5 -62t-133.5 -20q-66 0 -118 18v226z" />
    <glyph glyph-name="circumflex" unicode="&#x2c6;" horiz-adv-x="915" 
d="M84 1141l260 401h227l260 -401h-239l-135 229l-133 -229h-240z" />
    <glyph glyph-name="caron" unicode="&#x2c7;" horiz-adv-x="915" 
d="M84 1542h240l133 -227l135 227h239l-260 -401h-227z" />
    <glyph glyph-name="breve" unicode="&#x2d8;" horiz-adv-x="759" 
d="M381 1184q-127 0 -212.5 81t-84.5 214h205q-1 -51 24 -82t68 -31q41 0 66 31t24 82h205q1 -133 -83.5 -214t-211.5 -81z" />
    <glyph glyph-name="dotaccent" unicode="&#x2d9;" horiz-adv-x="475" 
d="M84 1348q0 64 44.5 106.5t109.5 42.5q64 0 108.5 -42.5t44.5 -106.5t-45 -108t-108 -44q-65 0 -109.5 44t-44.5 108z" />
    <glyph glyph-name="ring" unicode="&#x2da;" horiz-adv-x="651" 
d="M326 1128q-105 0 -173.5 67.5t-68.5 164.5q0 98 68 164.5t174 66.5q105 0 173 -66.5t68 -164.5q0 -97 -68.5 -164.5t-172.5 -67.5zM326 1440q-35 0 -58.5 -23t-23.5 -57q0 -33 23.5 -56.5t58.5 -23.5q33 0 56.5 23.5t23.5 56.5q0 34 -23 57t-57 23z" />
    <glyph glyph-name="ogonek" unicode="&#x2db;" horiz-adv-x="532" 
d="M84 -254q0 89 68.5 165t195.5 150l101 -61q-80 -62 -114 -102.5t-34 -79.5q0 -70 135 -86l-76 -197q-115 3 -195.5 59t-80.5 152z" />
    <glyph glyph-name="tilde" unicode="&#x2dc;" horiz-adv-x="905" 
d="M260 1174l-176 43q0 121 64 193.5t171 72.5q40 0 80 -15.5t66 -34t55.5 -34t50.5 -15.5q69 0 76 105l174 -43q0 -120 -65.5 -193t-169.5 -73q-50 0 -99 24t-88 48t-65 24q-35 0 -53.5 -28.5t-20.5 -73.5z" />
    <glyph glyph-name="hungarumlaut" unicode="&#x2dd;" horiz-adv-x="1013" 
d="M444 1171l211 367h271l-273 -367h-209zM293 1171h-207l193 367h262z" />
    <glyph glyph-name="acutecomb" unicode="&#x301;" horiz-adv-x="657" 
d="M84 1159l184 330h305l-268 -330h-221z" />
    <glyph glyph-name="pi" unicode="&#x3c0;" horiz-adv-x="1347" 
d="M221 815h-194v229h1294v-229h-193v-815h-262v815h-385v-815h-260v815z" />
    <glyph glyph-name="Wgrave" unicode="&#x1e80;" horiz-adv-x="2056" 
d="M6 1454h277l299 -1081l319 1081h254l320 -1081l299 1081h276l-432 -1454h-272l-318 1055l-317 -1055h-273zM901 1581l-303 367h324l200 -367h-221z" />
    <glyph glyph-name="wgrave" unicode="&#x1e81;" horiz-adv-x="1646" 
d="M8 1044h264l213 -716l230 716h217l229 -716l213 716h264l-344 -1044h-245l-226 676l-225 -676h-246zM682 1171l-303 367h323l201 -367h-221z" />
    <glyph glyph-name="Wacute" unicode="&#x1e82;" horiz-adv-x="2056" 
d="M6 1454h277l299 -1081l319 1081h254l320 -1081l299 1081h276l-432 -1454h-272l-318 1055l-317 -1055h-273zM1167 1581h-221l201 367h321z" />
    <glyph glyph-name="wacute" unicode="&#x1e83;" horiz-adv-x="1646" 
d="M8 1044h264l213 -716l230 716h217l229 -716l213 716h264l-344 -1044h-245l-226 676l-225 -676h-246zM956 1171h-221l201 367h321z" />
    <glyph glyph-name="Wdieresis" unicode="&#x1e84;" horiz-adv-x="2056" 
d="M6 1454h277l299 -1081l319 1081h254l320 -1081l299 1081h276l-432 -1454h-272l-318 1055l-317 -1055h-273zM1262 1606q-65 0 -109.5 43.5t-44.5 107.5t44.5 107t109.5 43q64 0 108.5 -43t44.5 -107t-44.5 -107.5t-108.5 -43.5zM797 1606q-65 0 -109.5 43.5t-44.5 107.5
t44.5 107t109.5 43q64 0 108.5 -43t44.5 -107t-44.5 -107.5t-108.5 -43.5z" />
    <glyph glyph-name="wdieresis" unicode="&#x1e85;" horiz-adv-x="1646" 
d="M352 0l-344 1044h264l213 -716l230 716h217l229 -716l213 716h264l-344 -1044h-245l-226 676l-225 -676h-246zM897 1348q0 64 44.5 106.5t109.5 42.5q64 0 108.5 -42.5t44.5 -106.5t-45 -108t-108 -44q-65 0 -109.5 44t-44.5 108zM432 1348q0 64 44.5 106.5t109.5 42.5
q64 0 108.5 -42.5t44.5 -106.5t-45 -108t-108 -44q-65 0 -109.5 44t-44.5 108z" />
    <glyph glyph-name="Germandbls" unicode="&#x1e9e;" horiz-adv-x="1382" 
d="M133 0v981q0 210 136.5 341.5t359.5 131.5h639v-209l-346 -405h12q174 -9 290.5 -127.5t116.5 -296.5q0 -185 -126.5 -313t-325.5 -128q-132 0 -240 60t-164 168l185 143q83 -127 211 -127q87 0 138.5 60.5t51.5 144.5q0 87 -58 146t-173 59h-215v182l342 401h-334
q-103 0 -167.5 -65.5t-64.5 -163.5v-983h-268z" />
    <glyph glyph-name="uni1EA0" unicode="&#x1ea0;" horiz-adv-x="1378" 
d="M-6 0l561 1454h270l559 -1454h-274l-137 356h-565l-138 -356h-276zM690 1153l-198 -559h397zM690 -434q-65 0 -109 43.5t-44 107.5t44 107t109 43q64 0 109 -43t45 -107t-45 -107.5t-109 -43.5z" />
    <glyph glyph-name="uni1EA1" unicode="&#x1ea1;" horiz-adv-x="1097" 
d="M412 -25q-149 0 -246.5 87t-97.5 221q0 118 87 197.5t253 111.5l301 59v13q0 85 -56 129.5t-153 44.5q-82 0 -153.5 -35t-123.5 -94l-139 170q75 90 186.5 140t247.5 50q209 0 329 -109t120 -298v-662h-246v141q-45 -79 -125.5 -122.5t-183.5 -43.5zM469 424
q-74 -14 -109.5 -44t-35.5 -81q0 -53 39 -86t102 -33q106 0 177 72.5t71 173.5v45zM352 -283q0 64 44.5 107t109.5 43q64 0 108.5 -43t44.5 -107t-44.5 -107.5t-108.5 -43.5q-65 0 -109.5 43.5t-44.5 107.5z" />
    <glyph glyph-name="uni1EB8" unicode="&#x1eb8;" horiz-adv-x="1212" 
d="M180 1454h934v-237h-663v-367h546v-238h-546v-374h686v-238h-957v1454zM694 -434q-65 0 -109 43.5t-44 107.5t44 107t109 43q64 0 109 -43t45 -107t-45 -107.5t-109 -43.5z" />
    <glyph glyph-name="uni1EB9" unicode="&#x1eb9;" horiz-adv-x="1167" 
d="M72 520q0 152 68 277.5t190.5 198.5t275.5 73q220 0 356 -136.5t136 -346.5q0 -50 -17 -129h-733q12 -118 99 -184t208 -66q167 0 275 117l147 -177q-94 -90 -199.5 -131t-234.5 -41q-126 0 -233.5 42t-181 115t-115 173.5t-41.5 214.5zM604 846q-100 0 -170.5 -56
t-85.5 -153h490v2q-7 94 -73 150.5t-161 56.5zM455 -283q0 64 44 107t109 43q64 0 109 -43t45 -107t-45 -107.5t-109 -43.5q-65 0 -109 43.5t-44 107.5z" />
    <glyph glyph-name="uni1EBC" unicode="&#x1ebc;" horiz-adv-x="1212" 
d="M180 0v1454h934v-237h-663v-367h546v-238h-546v-374h686v-238h-957zM442 1583l-176 43q0 121 64.5 193.5t171.5 72.5q40 0 80 -15.5t66 -33.5t55.5 -33.5t50.5 -15.5q68 0 75 104l175 -43q0 -120 -66 -193t-170 -73q-40 0 -79.5 15t-66 33.5t-56 33.5t-50.5 15
q-35 0 -53.5 -28.5t-20.5 -74.5z" />
    <glyph glyph-name="uni1EBD" unicode="&#x1ebd;" horiz-adv-x="1167" 
d="M72 520q0 152 68 277.5t190.5 198.5t275.5 73q220 0 356 -136.5t136 -346.5q0 -50 -17 -129h-733q12 -118 99 -184t208 -66q167 0 275 117l147 -177q-94 -90 -199.5 -131t-234.5 -41q-126 0 -233.5 42t-181 115t-115 173.5t-41.5 214.5zM217 1217q0 121 64.5 193.5
t171.5 72.5q40 0 80 -15.5t66 -34t55.5 -34t50.5 -15.5q68 0 75 105l174 -43q0 -120 -65.5 -193t-169.5 -73q-50 0 -99 24t-88 48t-65 24q-35 0 -53.5 -28.5t-20.5 -73.5zM604 846q-100 0 -170.5 -56t-85.5 -153h490v2q-7 94 -73 150.5t-161 56.5z" />
    <glyph glyph-name="uni1ECA" unicode="&#x1eca;" horiz-adv-x="630" 
d="M180 0v1454h271v-1454h-271zM162 -283q0 64 44 107t109 43q64 0 109 -43t45 -107t-45 -107.5t-109 -43.5q-65 0 -109 43.5t-44 107.5z" />
    <glyph glyph-name="uni1ECB" unicode="&#x1ecb;" horiz-adv-x="569" 
d="M152 1044h266v-1044h-266v1044zM285 -434q-65 0 -109.5 43.5t-44.5 107.5t44.5 107t109.5 43q64 0 108.5 -43t44.5 -107t-44.5 -107.5t-108.5 -43.5zM129 1348q0 64 44.5 106.5t109.5 42.5q64 0 108.5 -42.5t44.5 -106.5t-45 -108t-108 -44q-65 0 -109.5 44t-44.5 108z
" />
    <glyph glyph-name="uni1ECC" unicode="&#x1ecc;" horiz-adv-x="1667" 
d="M834 -25q-159 0 -299 58.5t-239.5 158.5t-157.5 239t-58 296t58 296t157.5 239t239.5 158.5t299 58.5q212 0 384.5 -99t270.5 -271.5t98 -381.5t-98 -381.5t-270.5 -271.5t-384.5 -99zM834 1221q-201 0 -338.5 -142t-137.5 -352t137.5 -352t338.5 -142t338 142t137 352
t-137 352t-338 142zM678 -283q0 64 44 107t109 43q64 0 109 -43t45 -107t-45 -107.5t-109 -43.5q-65 0 -109 43.5t-44 107.5z" />
    <glyph glyph-name="uni1ECD" unicode="&#x1ecd;" horiz-adv-x="1249" 
d="M625 -25q-157 0 -284 72.5t-198 197.5t-71 277t71 277t198 197.5t284 72.5t284 -72.5t198 -197.5t71 -277t-71 -277t-198 -197.5t-284 -72.5zM625 827q-123 0 -203 -87t-80 -218t80 -218t203 -87q122 0 202 87t80 218t-80 218t-202 87zM471 -283q0 64 44.5 107t109.5 43
q64 0 108.5 -43t44.5 -107t-44.5 -107.5t-108.5 -43.5q-65 0 -109.5 43.5t-44.5 107.5z" />
    <glyph glyph-name="uni1EE4" unicode="&#x1ee4;" horiz-adv-x="1490" 
d="M745 -25q-126 0 -235 44.5t-185 120.5t-119.5 180t-43.5 221v913h270v-895q0 -140 87.5 -234t225.5 -94t226 94t88 234v895h270v-913q0 -156 -74 -285.5t-208.5 -205t-301.5 -75.5zM590 -283q0 64 44 107t109 43q64 0 109 -43t45 -107t-45 -107.5t-109 -43.5
q-65 0 -109 43.5t-44 107.5z" />
    <glyph glyph-name="uni1EE5" unicode="&#x1ee5;" horiz-adv-x="1269" 
d="M135 1044h266v-602q0 -110 58 -169.5t153 -59.5q79 0 135 44.5t80.5 109t24.5 139.5v538h266v-1044h-256v143q-102 -168 -321 -168q-185 0 -295.5 117t-110.5 320v632zM469 -283q0 64 44.5 107t109.5 43q64 0 108.5 -43t44.5 -107t-44.5 -107.5t-108.5 -43.5
q-65 0 -109.5 43.5t-44.5 107.5z" />
    <glyph glyph-name="Ygrave" unicode="&#x1ef2;" horiz-adv-x="1294" 
d="M512 649l-520 805h303l352 -567l352 567h304l-521 -805v-649h-270v649zM207 1948h323l201 -367h-221z" />
    <glyph glyph-name="ygrave" unicode="&#x1ef3;" horiz-adv-x="1093" 
d="M420 29l-420 1015h285l266 -727l264 727h277l-467 -1163q-68 -165 -158.5 -240t-233.5 -75q-96 0 -174 35v225q62 -35 140 -35q69 0 117 38t79 132zM416 1171l-303 367h323l201 -367h-221z" />
    <glyph glyph-name="uni1EF8" unicode="&#x1ef8;" horiz-adv-x="1294" 
d="M-8 1454h303l352 -567l352 567h304l-521 -805v-649h-270v649zM276 1626q0 121 64.5 193.5t171.5 72.5q40 0 80 -15.5t66 -33.5t55.5 -33.5t50.5 -15.5q69 0 76 104l174 -43q0 -120 -66 -193t-170 -73q-40 0 -79.5 15t-66 33.5t-56 33.5t-50.5 15q-35 0 -53 -28.5
t-20 -74.5z" />
    <glyph glyph-name="uni1EF9" unicode="&#x1ef9;" horiz-adv-x="1093" 
d="M0 1044h285l266 -727l264 727h277l-467 -1163q-68 -165 -158.5 -240t-233.5 -75q-96 0 -174 35v225q62 -35 140 -35q69 0 117 38t79 132l25 68zM172 1217q0 121 64.5 193.5t171.5 72.5q40 0 80 -15.5t65.5 -34t55 -34t50.5 -15.5q69 0 76 105l174 -43q0 -120 -65.5 -193
t-169.5 -73q-50 0 -99 24t-88 48t-65 24q-35 0 -53.5 -28.5t-20.5 -73.5z" />
    <glyph glyph-name="endash" unicode="&#x2013;" horiz-adv-x="1316" 
d="M1233 449h-1149v219h1149v-219z" />
    <glyph glyph-name="emdash" unicode="&#x2014;" horiz-adv-x="1685" 
d="M1602 451h-1518v215h1518v-215z" />
    <glyph glyph-name="quoteleft" unicode="&#x2018;" horiz-adv-x="452" 
d="M66 1196q0 30 16 70l147 327h123l-88 -252q46 -14 77.5 -54t31.5 -91q0 -64 -44 -106.5t-110 -42.5q-65 0 -109 42.5t-44 106.5z" />
    <glyph glyph-name="quoteright" unicode="&#x2019;" horiz-adv-x="454" 
d="M92 1444q0 64 44 106.5t110 42.5q65 0 109 -42.5t44 -106.5q0 -30 -16 -70l-147 -327h-123l88 251q-46 14 -77.5 54.5t-31.5 91.5z" />
    <glyph glyph-name="quotesinglbase" unicode="&#x201a;" horiz-adv-x="495" 
d="M94 127q0 64 44 106.5t110 42.5q65 0 109 -42.5t44 -106.5q0 -30 -16 -70l-147 -327h-123l88 252q-46 14 -77.5 54t-31.5 91z" />
    <glyph glyph-name="quotedblleft" unicode="&#x201c;" horiz-adv-x="856" 
d="M469 1196q0 30 16 70l148 327h123l-88 -252q46 -14 77 -54t31 -91q0 -64 -43.5 -106.5t-109.5 -42.5q-65 0 -109.5 42.5t-44.5 106.5zM66 1196q0 30 16 70l147 327h123l-88 -252q46 -14 77.5 -54t31.5 -91q0 -64 -44 -106.5t-110 -42.5q-65 0 -109 42.5t-44 106.5z" />
    <glyph glyph-name="quotedblright" unicode="&#x201d;" horiz-adv-x="856" 
d="M602 1298q-46 14 -77 54.5t-31 91.5q0 64 43.5 106.5t109.5 42.5q65 0 109.5 -42.5t44.5 -106.5q0 -28 -17 -70l-147 -327h-123zM201 1298q-46 14 -77.5 54.5t-31.5 91.5q0 64 44 106.5t110 42.5q65 0 109 -42.5t44 -106.5q0 -30 -16 -70l-147 -327h-123z" />
    <glyph glyph-name="quotedblbase" unicode="&#x201e;" horiz-adv-x="892" 
d="M600 -18q-46 14 -77 54t-31 91q0 64 43.5 106.5t109.5 42.5q65 0 109.5 -42.5t44.5 -106.5q0 -28 -17 -70l-147 -327h-123zM203 -18q-46 14 -77.5 54t-31.5 91q0 64 44 106.5t110 42.5q65 0 109 -42.5t44 -106.5q0 -30 -16 -70l-147 -327h-123z" />
    <glyph glyph-name="dagger" unicode="&#x2020;" horiz-adv-x="1052" 
d="M403 846h-319v223h319v385h248v-385h318v-223h-318v-1051h-248v1051z" />
    <glyph glyph-name="daggerdbl" unicode="&#x2021;" horiz-adv-x="1052" 
d="M403 889h-319v225h319v340h248v-340h318v-225h-318v-481h312v-226h-312v-387h-248v387h-313v226h313v481z" />
    <glyph glyph-name="bullet" unicode="&#x2022;" horiz-adv-x="802" 
d="M145 627q0 108 74.5 180t183.5 72q106 0 181 -72.5t75 -179.5q0 -106 -75.5 -180t-180.5 -74q-109 0 -183.5 73.5t-74.5 180.5z" />
    <glyph glyph-name="ellipsis" unicode="&#x2026;" horiz-adv-x="1390" 
d="M1149 -25q-65 0 -109.5 44t-44.5 108t44.5 106.5t109.5 42.5q64 0 109 -42.5t45 -106.5t-45 -108t-109 -44zM696 -25q-65 0 -109 44t-44 108t44 106.5t109 42.5q64 0 109 -42.5t45 -106.5t-45 -108t-109 -44zM88 127q0 64 44.5 106.5t109.5 42.5q64 0 108.5 -42.5
t44.5 -106.5t-45 -108t-108 -44q-65 0 -109.5 44t-44.5 108z" />
    <glyph glyph-name="perthousand" unicode="&#x2030;" horiz-adv-x="2371" 
d="M395 782q-146 0 -247 98t-101 244t101.5 245t246.5 99q144 0 245 -99.5t101 -244.5q0 -146 -101 -244t-245 -98zM1196 -25q-146 0 -247 98t-101 244t101.5 245.5t246.5 99.5q143 0 244.5 -100t101.5 -245q0 -146 -101 -244t-245 -98zM1985 -25q-144 0 -245.5 98
t-101.5 244q0 145 101.5 245t245.5 100q145 0 245.5 -99.5t100.5 -245.5q0 -147 -100 -244.5t-246 -97.5zM362 0h-192l1063 1454h192zM240 1124q0 -66 44 -109.5t111 -43.5q66 0 109 43.5t43 109.5q0 67 -43 110.5t-109 43.5q-68 0 -111.5 -43.5t-43.5 -110.5zM1196 471
q-68 0 -112 -43.5t-44 -110.5q0 -66 44.5 -109.5t111.5 -43.5q66 0 109 43.5t43 109.5q0 67 -43 110.5t-109 43.5zM1985 471q-66 0 -110 -43.5t-44 -110.5q0 -66 44 -109.5t110 -43.5t109.5 43.5t43.5 109.5q0 67 -43.5 110.5t-109.5 43.5z" />
    <glyph glyph-name="guilsinglleft" unicode="&#x2039;" horiz-adv-x="655" 
d="M315 936h258l-256 -414l256 -409h-258l-254 409z" />
    <glyph glyph-name="guilsinglright" unicode="&#x203a;" horiz-adv-x="659" 
d="M342 111h-258l256 413l-256 410h258l254 -410z" />
    <glyph glyph-name="fraction" unicode="&#x2044;" horiz-adv-x="350" 
d="M-451 0l1063 1454h193l-1063 -1454h-193z" />
    <glyph glyph-name="uni2070" unicode="&#x2070;" horiz-adv-x="811" 
d="M63 1053q0 59 9 114.5t33 113.5t61 100.5t99 70t141 27.5t141 -27.5t99 -70t61 -100.5t32.5 -113.5t8.5 -114.5t-9 -114.5t-33 -113.5t-61 -101t-98.5 -70t-140.5 -27t-140.5 27t-99 70t-61.5 101t-33 113.5t-9 114.5zM406 1300q-36 0 -64 -17t-43.5 -42t-25 -60
t-12.5 -65t-3 -63q0 -42 6 -80.5t20.5 -78.5t46 -64.5t75.5 -24.5t75 24.5t45.5 64.5t20.5 78.5t6 80.5t-5.5 79.5t-20 78t-45.5 65t-76 24.5z" />
    <glyph glyph-name="uni2074" unicode="&#x2074;" horiz-adv-x="745" 
d="M35 819v117l375 518h180v-473h110v-164h-110v-166h-184v168h-371zM412 1174l-144 -199h144v199z" />
    <glyph glyph-name="uni2075" unicode="&#x2075;" horiz-adv-x="714" 
d="M43 803l156 104q59 -102 147 -102q53 0 84 31.5t31 81.5t-32.5 81t-86.5 31q-73 0 -117 -55l-135 57l41 422h481v-176h-315l-12 -102q36 12 88 12q130 0 208 -78t78 -195q0 -124 -85.5 -206t-225.5 -82q-192 0 -305 176z" />
    <glyph glyph-name="uni2076" unicode="&#x2076;" horiz-adv-x="708" 
d="M358 627q-134 0 -221.5 85.5t-87.5 205.5q0 44 15 89t32 75t49 77l205 295h230l-187 -266q122 -3 197.5 -83.5t75.5 -189.5q0 -119 -87.5 -203.5t-220.5 -84.5zM242 913q0 -48 33.5 -81t82.5 -33t82 33.5t33 80.5q0 51 -32.5 84t-82.5 33q-52 0 -84 -32t-32 -85z" />
    <glyph glyph-name="uni2077" unicode="&#x2077;" horiz-adv-x="663" 
d="M78 651l323 625h-354v178h586v-127l-344 -676h-211z" />
    <glyph glyph-name="uni2078" unicode="&#x2078;" horiz-adv-x="733" 
d="M367 627q-128 0 -217 71t-89 183q0 55 30.5 105.5t78.5 84.5q-84 70 -84 162q0 106 82 176t199 70t199.5 -70t82.5 -176q0 -93 -82 -162q47 -35 76 -85.5t29 -104.5q0 -112 -89 -183t-216 -71zM367 985q-48 0 -81.5 -26.5t-33.5 -67.5t34 -68.5t81 -27.5q48 0 79 27
t31 69q0 41 -31.5 67.5t-78.5 26.5zM367 1309q-37 0 -65 -23.5t-28 -56.5q0 -35 27 -57.5t66 -22.5t65.5 22.5t26.5 57.5q0 34 -27 57t-65 23z" />
    <glyph glyph-name="uni2079" unicode="&#x2079;" horiz-adv-x="706" 
d="M41 1190q0 120 86.5 204.5t218.5 84.5q134 0 222.5 -85.5t88.5 -205.5q0 -64 -25 -120t-73 -122l-205 -295h-227l184 264q-121 4 -195.5 84.5t-74.5 190.5zM346 1307q-47 0 -80 -34.5t-33 -82.5q0 -50 32 -82.5t81 -32.5q53 0 86 31.5t33 83.5q0 49 -34.5 83t-84.5 34z
" />
    <glyph glyph-name="uni2080" unicode="&#x2080;" horiz-adv-x="811" 
d="M63 401q0 59 9 114.5t33 113.5t61 100.5t99 70t141 27.5t141 -27.5t99 -70t61 -100.5t32.5 -113.5t8.5 -114.5t-9 -114.5t-33 -113.5t-61 -101t-98.5 -70t-140.5 -27t-140.5 27t-99 70t-61.5 101t-33 113.5t-9 114.5zM406 649q-36 0 -64 -17t-43.5 -42.5t-25 -60.5
t-12.5 -65t-3 -63q0 -32 3 -62.5t13 -65.5t25.5 -60t43 -42t63.5 -17q44 0 75 24t45.5 64.5t20.5 78.5t6 80t-5.5 79.5t-20 78.5t-45.5 65.5t-76 24.5z" />
    <glyph glyph-name="uni2081" unicode="&#x2081;" horiz-adv-x="651" 
d="M252 557q-65 -29 -184 -33v176q88 5 139.5 27.5t89.5 75.5h149v-623h172v-180h-540v180h174v377z" />
    <glyph glyph-name="uni2082" unicode="&#x2082;" horiz-adv-x="718" 
d="M53 647q39 78 119 129t182 51q128 0 209.5 -70t81.5 -184q0 -52 -16.5 -94t-56.5 -80t-64 -55.5t-81 -54.5q-10 -7 -15 -10q-9 -6 -27 -17.5t-26.5 -17t-22.5 -15t-21 -15.5t-15 -13t-12 -13t-5 -12h376v-176h-585q-13 57 -13 111q0 90 51.5 157t157.5 133q17 11 47.5 30
t44.5 28t33.5 24t28 26t15.5 26t7 32q0 37 -26 57.5t-70 20.5q-95 0 -149 -102z" />
    <glyph glyph-name="uni2083" unicode="&#x2083;" horiz-adv-x="718" 
d="M41 154l145 104q52 -106 156 -106q48 0 82.5 29t34.5 71q0 51 -37.5 78.5t-99.5 27.5q-61 0 -109 -10v119l164 160h-289v176h547v-129l-191 -178q96 -20 153.5 -86t57.5 -158q0 -123 -88.5 -200t-222.5 -77q-105 0 -184.5 50.5t-118.5 128.5z" />
    <glyph glyph-name="uni2084" unicode="&#x2084;" horiz-adv-x="745" 
d="M35 168v117l375 518h180v-473h110v-164h-110v-166h-184v168h-371zM412 522l-144 -198h144v198z" />
    <glyph glyph-name="uni2085" unicode="&#x2085;" horiz-adv-x="714" 
d="M41 152l156 104q59 -102 147 -102q53 0 84 31t31 81t-32.5 81.5t-86.5 31.5q-73 0 -117 -55l-135 57l41 422h481v-176h-315l-12 -103q39 13 88 13q130 0 208 -78t78 -195q0 -124 -85.5 -206.5t-225.5 -82.5q-191 0 -305 177z" />
    <glyph glyph-name="uni2086" unicode="&#x2086;" horiz-adv-x="708" 
d="M358 -25q-134 0 -221.5 85.5t-87.5 205.5q0 63 24 117t72 125l205 295h230l-187 -266q122 -3 197.5 -83.5t75.5 -189.5q0 -119 -87.5 -204t-220.5 -85zM242 262q0 -48 33.5 -81.5t82.5 -33.5t82 34t33 81q0 51 -32.5 84t-82.5 33q-52 0 -84 -32t-32 -85z" />
    <glyph glyph-name="uni2087" unicode="&#x2087;" horiz-adv-x="663" 
d="M78 0l323 625h-354v178h586v-127l-344 -676h-211z" />
    <glyph glyph-name="uni2088" unicode="&#x2088;" horiz-adv-x="733" 
d="M367 -25q-128 0 -217 71t-89 183q0 55 30.5 106t78.5 85q-84 70 -84 162q0 106 82 175.5t199 69.5t199.5 -69.5t82.5 -175.5q0 -93 -82 -162q47 -35 76 -86t29 -105q0 -112 -89 -183t-216 -71zM367 334q-48 0 -81.5 -26.5t-33.5 -67.5t34.5 -69t80.5 -28q48 0 79 27.5
t31 69.5q0 41 -31.5 67.5t-78.5 26.5zM367 657q-37 0 -65 -23t-28 -56q0 -35 27 -57.5t66 -22.5t65.5 22.5t26.5 57.5q0 34 -27 56.5t-65 22.5z" />
    <glyph glyph-name="uni2089" unicode="&#x2089;" horiz-adv-x="706" 
d="M41 539q0 119 86.5 203.5t218.5 84.5q134 0 222.5 -85.5t88.5 -204.5q0 -64 -25 -120t-73 -122l-205 -295h-227l184 264q-121 4 -195.5 84.5t-74.5 190.5zM346 655q-47 0 -80 -34t-33 -82q0 -50 32 -82.5t81 -32.5q53 0 86 31.5t33 83.5q0 49 -34.5 82.5t-84.5 33.5z" />
    <glyph glyph-name="Euro" unicode="&#x20ac;" horiz-adv-x="1404" 
d="M221 496h-162v172h138q-2 20 -2 59q0 37 2 55h-138v172h162q57 240 227.5 382.5t403.5 142.5q94 0 175.5 -24t141 -65.5t99 -81t71.5 -85.5l-184 -160q-49 68 -126.5 118t-180.5 50q-124 0 -213 -73t-129 -204h483l-22 -172h-492q-2 -18 -2 -55q0 -41 2 -59h492l-21 -172
h-440q42 -129 131 -201t213 -72q196 0 317 178l189 -147q-33 -54 -78.5 -101t-107.5 -88.5t-144 -65.5t-172 -24q-232 0 -402.5 141t-230.5 380z" />
    <glyph glyph-name="trademark" unicode="&#x2122;" horiz-adv-x="1161" 
d="M510 1454h176l107 -213l106 213h178v-510h-135v342l-108 -215h-82l-113 215v-342h-129v510zM23 1331v123h421v-123h-147v-387h-127v387h-147z" />
    <glyph glyph-name="estimated" unicode="&#x212e;" horiz-adv-x="1906" 
d="M954 -25q-169 0 -319.5 57.5t-257.5 154.5t-169.5 231.5t-62.5 283.5q0 150 64 286t172.5 233.5t258 155t314.5 57.5q219 0 405 -101t294 -271.5t108 -369.5v-22h-1310q-11 0 -11 -8v-377q0 -18 17 -49q195 -183 499 -183q157 0 292.5 53.5t226.5 153.5h120
q-109 -131 -277 -208t-364 -77zM461 1176q-21 -27 -21 -56v-368q0 -13 11 -13h1007q6 0 6 13v374q0 24 -16 50q-93 88 -221 135t-271 47q-304 0 -495 -182z" />
    <glyph glyph-name="onethird" unicode="&#x2153;" horiz-adv-x="1748" 
d="M1067 154l145 104q52 -106 156 -106q48 0 82.5 29t34.5 71q0 51 -37.5 78.5t-99.5 27.5q-61 0 -109 -10v119l164 160h-289v176h547v-129l-191 -178q96 -20 153.5 -86t57.5 -158q0 -123 -88.5 -200t-222.5 -77q-105 0 -184.5 50.5t-118.5 128.5zM440 0h-192l1063 1454h192
zM76 1352q88 5 140 27t89 75h150v-623h172v-180h-541v180h174v377q-62 -28 -184 -32v176z" />
    <glyph glyph-name="twothirds" unicode="&#x2154;" horiz-adv-x="1775" 
d="M59 1298q39 78 119 129.5t182 51.5q128 0 209.5 -70t81.5 -184q0 -52 -18 -95.5t-54 -79t-67 -58t-81 -54.5q-9 -5 -13 -8q-9 -6 -27 -17.5t-26.5 -17t-22.5 -15t-21 -15.5t-15 -13t-12 -13t-5 -12h377v-176h-586q-12 53 -12 111q0 91 51.5 158t156.5 133q17 11 56 35
t52 33.5t34 27.5t28 34t7 36q0 36 -26 56.5t-71 20.5q-95 0 -149 -102zM1092 154l145 104q52 -106 156 -106q48 0 82 29t34 71q0 51 -37.5 78.5t-99.5 27.5q-60 0 -108 -10v119l163 160h-288v176h547v-129l-191 -178q96 -20 153.5 -86t57.5 -158q0 -123 -88.5 -200
t-222.5 -77q-105 0 -184.5 50.5t-118.5 128.5zM276 0l1063 1454h193l-1063 -1454h-193z" />
    <glyph glyph-name="minus" unicode="&#x2212;" horiz-adv-x="1128" 
d="M127 844h874v-232h-874v232z" />
    <glyph glyph-name="uni2215" unicode="&#x2215;" horiz-adv-x="350" 
d="M-451 0l1063 1454h193l-1063 -1454h-193z" />
    <glyph glyph-name="uni2219" unicode="&#x2219;" horiz-adv-x="720" 
d="M207 623q0 64 44 106.5t109 42.5q64 0 109 -42.5t45 -106.5t-45 -108t-109 -44q-65 0 -109 44t-44 108z" />
    <glyph glyph-name="approxequal" unicode="&#x2248;" horiz-adv-x="1183" 
d="M121 399q0 126 76 209.5t202 83.5q51 0 110.5 -18.5t103.5 -40t92.5 -40t80.5 -18.5q96 0 113 123l178 -43q0 -129 -73.5 -213t-202.5 -84q-52 0 -112 18.5t-103.5 40t-92 40t-79.5 18.5q-52 0 -79 -34.5t-34 -84.5zM301 760l-180 43q0 125 76 208t202 83
q51 0 110.5 -18.5t103.5 -40t92.5 -40t80.5 -18.5q97 0 113 125l178 -43q0 -129 -73.5 -214t-202.5 -85q-52 0 -112 18.5t-103.5 40t-92 40t-79.5 18.5q-52 0 -79 -33.5t-34 -83.5z" />
    <glyph glyph-name="notequal" unicode="&#x2260;" horiz-adv-x="1132" 
d="M125 1051h541l151 272l121 -70l-113 -202h183v-228h-308l-106 -190h414v-227h-539l-152 -273l-122 70l112 203h-182v227h309l105 190h-414v228z" />
    <glyph glyph-name="lessequal" unicode="&#x2264;" horiz-adv-x="1146" 
d="M1022 367l-918 409v205l918 408v-240l-619 -270l619 -271v-241zM92 287h942v-224h-942v224z" />
    <glyph glyph-name="greaterequal" unicode="&#x2265;" horiz-adv-x="1146" 
d="M1042 776l-917 -409v241l618 271l-618 270v240l917 -408v-205zM113 287h942v-224h-942v224z" />
    <glyph glyph-name="f_f" unicode="&#xfb00;" horiz-adv-x="1355" 
d="M207 831h-146v213h146v70q0 166 103.5 265.5t279.5 99.5q98 0 153 -31v-221q-49 22 -108 22q-72 0 -117 -34.5t-45 -106.5v-64h379v70q0 166 103.5 265.5t279.5 99.5q99 0 154 -31v-221q-49 22 -109 22q-72 0 -117 -34.5t-45 -106.5v-64h225v-213h-225v-831h-266v831
h-379v-831h-266v831z" />
    <glyph glyph-name="CR" horiz-adv-x="512" 
 />
    <glyph glyph-name="Euro.onum" horiz-adv-x="1161" 
d="M61 512h117q-2 14 -2 41v37h-115v145h140q51 179 190.5 287t323.5 108q124 0 222 -54.5t157 -139.5l-162 -152q-38 51 -95.5 84t-125.5 33q-81 0 -142 -44.5t-94 -121.5h334l-23 -145h-344q-2 -12 -2 -37q0 -27 2 -41h346l-18 -147h-293q34 -76 96 -118t144 -42
q73 0 132.5 35t98.5 86l166 -148q-64 -90 -167 -146.5t-230 -56.5q-186 0 -324.5 105.5t-189.5 284.5h-142v147z" />
    <glyph glyph-name="Euro.onum.tnum" 
d="M145 512h117q-2 14 -2 41v37h-115v145h140q51 179 190.5 287t323.5 108q124 0 222 -54.5t157 -139.5l-162 -152q-38 51 -95.5 84t-125.5 33q-81 0 -142 -44.5t-94 -121.5h334l-23 -145h-344q-2 -12 -2 -37q0 -27 2 -41h346l-18 -147h-293q34 -76 96 -118t144 -42
q73 0 132.5 35t98.5 86l166 -148q-64 -90 -167 -146.5t-230 -56.5q-186 0 -324.5 105.5t-189.5 284.5h-142v147z" />
    <glyph glyph-name="Euro.tnum" 
d="M186 496h-161v172h137q-2 20 -2 59q0 37 2 55h-137v172h161q57 240 227.5 382.5t403.5 142.5q94 0 176 -24t141 -65t99 -81t72 -86l-185 -160q-49 68 -126.5 118t-180.5 50q-124 0 -213 -73t-129 -204h483l-22 -172h-492q-2 -18 -2 -55q0 -41 2 -59h492l-21 -172h-440
q42 -129 131 -201t213 -72q197 0 318 178l188 -147q-33 -54 -78.5 -101t-107.5 -88.5t-144 -65.5t-172 -24q-232 0 -402.5 141t-230.5 380z" />
    <glyph glyph-name="G.alt" horiz-adv-x="1574" 
d="M80 727q0 157 58 296t157.5 239t240.5 158.5t300 58.5q203 0 355 -84.5t251 -223.5l-199 -172q-69 98 -173 159t-236 61q-206 0 -341 -141t-135 -351q0 -211 134 -353.5t333 -142.5q166 0 276.5 86.5t121.5 221.5v22h-340v225h585v-786h-245v176q-137 -201 -424 -201
q-149 0 -282 58.5t-229 158t-152 239.5t-56 296z" />
    <glyph glyph-name="Gbreve.alt" horiz-adv-x="1574" 
d="M799 -25q-149 0 -282 58.5t-229 158t-152 239.5t-56 296q0 157 58 296t157.5 239t240.5 158.5t300 58.5q203 0 355 -84.5t251 -223.5l-199 -172q-69 98 -173 159t-236 61q-206 0 -341 -141t-135 -351q0 -211 134 -353.5t333 -142.5q166 0 276.5 86.5t121.5 221.5v22h-340
v225h585v-786h-245v176q-137 -201 -424 -201zM811 1593q-127 0 -212.5 81t-84.5 214h205q-1 -51 24 -81.5t68 -30.5q42 0 66.5 30.5t23.5 81.5h205q1 -133 -83.5 -214t-211.5 -81z" />
    <glyph glyph-name="Gcaron.alt" horiz-adv-x="1574" 
d="M799 -25q-149 0 -282 58.5t-229 158t-152 239.5t-56 296q0 157 58 296t157.5 239t240.5 158.5t300 58.5q203 0 355 -84.5t251 -223.5l-199 -172q-69 98 -173 159t-236 61q-206 0 -341 -141t-135 -351q0 -211 134 -353.5t333 -142.5q166 0 276.5 86.5t121.5 221.5v22h-340
v225h585v-786h-245v176q-137 -201 -424 -201zM451 1952h239l133 -228l135 228h240l-260 -402h-227z" />
    <glyph glyph-name="Gcircumflex.alt" horiz-adv-x="1574" 
d="M799 -25q-149 0 -282 58.5t-229 158t-152 239.5t-56 296q0 157 58 296t157.5 239t240.5 158.5t300 58.5q203 0 355 -84.5t251 -223.5l-199 -172q-69 98 -173 159t-236 61q-206 0 -341 -141t-135 -351q0 -211 134 -353.5t333 -142.5q166 0 276.5 86.5t121.5 221.5v22h-340
v225h585v-786h-245v176q-137 -201 -424 -201zM682 1550h-240l260 402h228l260 -402h-240l-135 230z" />
    <glyph glyph-name="Gcommaaccent.alt" horiz-adv-x="1574" 
d="M80 727q0 157 58 296t157.5 239t240.5 158.5t300 58.5q203 0 355 -84.5t251 -223.5l-199 -172q-69 98 -173 159t-236 61q-206 0 -341 -141t-135 -351q0 -211 134 -353.5t333 -142.5q166 0 276.5 86.5t121.5 221.5v22h-340v225h585v-786h-245v176q-137 -201 -424 -201
q-149 0 -282 58.5t-229 158t-152 239.5t-56 296zM692 -541q35 143 35 228q0 102 -25 178h236q14 -85 14 -156q0 -114 -63 -250h-197z" />
    <glyph glyph-name="Gdotaccent.alt" horiz-adv-x="1574" 
d="M80 727q0 157 58 296t157.5 239t240.5 158.5t300 58.5q203 0 355 -84.5t251 -223.5l-199 -172q-69 98 -173 159t-236 61q-206 0 -341 -141t-135 -351q0 -211 134 -353.5t333 -142.5q166 0 276.5 86.5t121.5 221.5v22h-340v225h585v-786h-245v176q-137 -201 -424 -201
q-149 0 -282 58.5t-229 158t-152 239.5t-56 296zM811 1606q-65 0 -109.5 43.5t-44.5 107.5t44.5 107t109.5 43q64 0 109 -43t45 -107t-45 -107.5t-109 -43.5z" />
    <glyph glyph-name="I.alt" horiz-adv-x="892" 
d="M311 1214h-241v240h753v-240h-241v-974h241v-240h-753v240h241v974z" />
    <glyph glyph-name="IJ.alt" horiz-adv-x="2052" 
d="M1378 -25q-154 0 -283 81.5t-194 224.5l211 129q47 -94 109.5 -140.5t160.5 -46.5q112 0 173 61t61 158v775h-510v237h780v-1018q0 -203 -141.5 -332t-366.5 -129zM311 1214h-241v240h753v-240h-241v-974h241v-240h-753v240h241v974z" />
    <glyph glyph-name="IJacute" horiz-adv-x="1703" 
d="M1075 -25q-155 0 -268.5 80t-167.5 226l213 129q40 -93 92 -140t135 -47q91 0 140 59.5t49 153.5v1018h270v-1022q0 -202 -128.5 -329.5t-334.5 -127.5zM180 1454h271v-1454h-271v1454zM1530 1581h-221l200 367h322zM440 1581h-221l201 367h321z" />
    <glyph glyph-name="IJacute.alt" horiz-adv-x="2052" 
d="M901 281l211 129q47 -94 109.5 -140.5t160.5 -46.5q112 0 173 61t61 158v775h-510v237h780v-1018q0 -203 -141.5 -332t-366.5 -129q-154 0 -283 81.5t-194 224.5zM311 1214h-241v240h753v-240h-241v-974h241v-240h-753v240h241v974zM1599 1581h-221l201 367h322z
M575 1581h-221l201 367h322z" />
    <glyph glyph-name="Iacute.alt" horiz-adv-x="935" 
d="M311 1214h-241v240h753v-240h-241v-974h241v-240h-753v240h241v974zM350 1581l201 367h321l-301 -367h-221z" />
    <glyph glyph-name="Ibreve.alt" horiz-adv-x="892" 
d="M311 1214h-241v240h753v-240h-241v-974h241v-240h-753v240h241v974zM446 1593q-127 0 -212 81t-84 214h204q-1 -51 24 -81.5t68 -30.5q42 0 67 30.5t24 81.5h204q1 -133 -83.5 -214t-211.5 -81z" />
    <glyph glyph-name="Icircumflex.alt" horiz-adv-x="892" 
d="M70 1214v240h753v-240h-241v-974h241v-240h-753v240h241v974h-241zM313 1550h-239l260 402h227l260 -402h-239l-136 230z" />
    <glyph glyph-name="Idieresis.alt" horiz-adv-x="905" 
d="M317 1214h-241v240h753v-240h-241v-974h241v-240h-753v240h241v974zM532 1757q0 64 44.5 107t109.5 43q64 0 109 -43t45 -107t-45 -107.5t-109 -43.5q-65 0 -109.5 43.5t-44.5 107.5zM70 1757q0 64 44 107t109 43q64 0 109 -43t45 -107t-45 -107.5t-109 -43.5
q-65 0 -109 43.5t-44 107.5z" />
    <glyph glyph-name="Idotaccent.alt" horiz-adv-x="892" 
d="M311 1214h-241v240h753v-240h-241v-974h241v-240h-753v240h241v974zM446 1606q-65 0 -109 43.5t-44 107.5t44 107t109 43q64 0 109 -43t45 -107t-45 -107.5t-109 -43.5z" />
    <glyph glyph-name="Idotbelow.alt" horiz-adv-x="892" 
d="M311 1214h-241v240h753v-240h-241v-974h241v-240h-753v240h241v974zM444 -434q-65 0 -109 43.5t-44 107.5t44 107t109 43q64 0 109 -43t45 -107t-45 -107.5t-109 -43.5z" />
    <glyph glyph-name="Igrave.alt" horiz-adv-x="933" 
d="M352 1214h-241v240h753v-240h-241v-974h241v-240h-753v240h241v974zM358 1581l-303 367h324l201 -367h-222z" />
    <glyph glyph-name="Imacron.alt" horiz-adv-x="892" 
d="M311 1214h-241v240h753v-240h-241v-974h241v-240h-753v240h241v974zM145 1858h600v-199h-600v199z" />
    <glyph glyph-name="Iogonek.alt" horiz-adv-x="892" 
d="M311 1214h-241v240h753v-240h-241v-974h241v-240h-243q-80 -62 -114 -102.5t-34 -79.5q0 -70 135 -86l-75 -197q-115 3 -196 59t-81 152q0 131 170 254h-315v240h241v974z" />
    <glyph glyph-name="Itilde.alt" horiz-adv-x="892" 
d="M70 1214v240h753v-240h-241v-974h241v-240h-753v240h241v974h-241zM254 1583l-176 43q0 121 64 193.5t171 72.5q40 0 80 -15.5t66 -33.5t55.5 -33.5t50.5 -15.5q69 0 76 104l174 -43q0 -120 -65.5 -193t-169.5 -73q-40 0 -79.5 15t-66 33.5t-56 33.5t-50.5 15
q-35 0 -53.5 -28.5t-20.5 -74.5z" />
    <glyph glyph-name="J.alt" horiz-adv-x="1159" 
d="M8 281l211 129q47 -94 109.5 -140.5t160.5 -46.5q112 0 173 61t61 158v775h-510v237h780v-1018q0 -203 -141.5 -332t-366.5 -129q-154 0 -283 81.5t-194 224.5z" />
    <glyph glyph-name="Jcircumflex.alt" horiz-adv-x="1159" 
d="M8 281l211 129q47 -94 109.5 -140.5t160.5 -46.5q112 0 173 61t61 158v775h-510v237h780v-1018q0 -203 -141.5 -332t-366.5 -129q-154 0 -283 81.5t-194 224.5zM471 1550h-240l261 402h227l260 -402h-240l-135 230z" />
    <glyph glyph-name="K.alt" horiz-adv-x="1363" 
d="M1079 0l-594 743l535 711h315l-530 -698l604 -756h-330zM180 0v1454h271v-1454h-271z" />
    <glyph glyph-name="Kcommaaccent.alt" horiz-adv-x="1363" 
d="M485 743l535 711h315l-530 -698l604 -756h-330zM451 0h-271v1454h271v-1454zM600 -541q35 143 35 228q0 102 -25 178h236q14 -85 14 -156q0 -114 -63 -250h-197z" />
    <glyph glyph-name="Q.alt" horiz-adv-x="1667" 
d="M834 -25q-159 0 -299 58.5t-239.5 158.5t-157.5 239t-58 296t58 296t157.5 239t239.5 158.5t299 58.5q212 0 384.5 -99t270.5 -271.5t98 -381.5q0 -163 -61 -304.5t-170 -246.5l149 -186l-190 -148l-162 201q-152 -68 -319 -68zM358 727q0 -210 137.5 -352t338.5 -142
q73 0 147 23l-193 240q-1 0 47.5 37t96.5 73l49 37l205 -254q123 142 123 338q0 210 -137 352t-338 142t-338.5 -142t-137.5 -352z" />
    <glyph glyph-name="W.alt" horiz-adv-x="2031" 
d="M-4 1454h280l363 -1116l244 768l-121 348h278l361 -1116l356 1116h279l-498 -1454h-274l-250 727l-248 -727h-268z" />
    <glyph glyph-name="Wacute.alt" horiz-adv-x="2031" 
d="M-4 1454h280l363 -1116l244 768l-121 348h278l361 -1116l356 1116h279l-498 -1454h-274l-250 727l-248 -727h-268zM815 1581l201 367h321l-301 -367h-221z" />
    <glyph glyph-name="Wcircumflex.alt" horiz-adv-x="2031" 
d="M-4 1454h280l363 -1116l244 768l-121 348h278l361 -1116l356 1116h279l-498 -1454h-274l-250 727l-248 -727h-268zM774 1550h-239l260 402h227l260 -402h-240l-135 230z" />
    <glyph glyph-name="Wdieresis.alt" horiz-adv-x="2031" 
d="M-4 1454h280l363 -1116l244 768l-121 348h278l361 -1116l356 1116h279l-498 -1454h-274l-250 727l-248 -727h-268zM985 1757q0 64 44.5 107t109.5 43q64 0 108.5 -43t44.5 -107t-44.5 -107.5t-108.5 -43.5q-65 0 -109.5 43.5t-44.5 107.5zM520 1757q0 64 44.5 107
t109.5 43q64 0 108.5 -43t44.5 -107t-44.5 -107.5t-108.5 -43.5q-65 0 -109.5 43.5t-44.5 107.5z" />
    <glyph glyph-name="Wgrave.alt" horiz-adv-x="2031" 
d="M-4 1454h280l363 -1116l244 768l-121 348h278l361 -1116l356 1116h279l-498 -1454h-274l-250 727l-248 -727h-268zM457 1948h323l201 -367h-221z" />
    <glyph glyph-name="a.alt" horiz-adv-x="1302" 
d="M561 -25q-205 0 -346 154.5t-141 392.5q0 235 140 391t353 156q95 0 183.5 -43t134.5 -115v133h266v-1044h-250v150q-48 -82 -145.5 -128.5t-194.5 -46.5zM618 831q-115 0 -195.5 -86t-80.5 -221q0 -137 80.5 -224t195.5 -87q117 0 197 86.5t80 224.5q0 136 -80 221.5
t-197 85.5z" />
    <glyph glyph-name="aacute.alt" horiz-adv-x="1302" 
d="M561 -25q-205 0 -346 154.5t-141 392.5q0 235 140 391t353 156q95 0 183.5 -43t134.5 -115v133h266v-1044h-250v150q-48 -82 -145.5 -128.5t-194.5 -46.5zM342 524q0 -137 80.5 -224t195.5 -87q117 0 197 86.5t80 224.5q0 136 -80 221.5t-197 85.5q-115 0 -195.5 -86
t-80.5 -221zM700 1171h-221l201 367h321z" />
    <glyph glyph-name="abreve.alt" horiz-adv-x="1302" 
d="M561 -25q-205 0 -346 154.5t-141 392.5q0 235 140 391t353 156q95 0 183.5 -43t134.5 -115v133h266v-1044h-250v150q-48 -82 -145.5 -128.5t-194.5 -46.5zM618 831q-115 0 -195.5 -86t-80.5 -221q0 -137 80.5 -224t195.5 -87q117 0 197 86.5t80 224.5q0 136 -80 221.5
t-197 85.5zM618 1184q-127 0 -212 81t-84 214h204q-1 -51 24 -82t68 -31q42 0 67 31t24 82h204q1 -133 -83.5 -214t-211.5 -81z" />
    <glyph glyph-name="acircumflex.alt" horiz-adv-x="1302" 
d="M561 -25q-205 0 -346 154.5t-141 392.5q0 235 140 391t353 156q95 0 183.5 -43t134.5 -115v133h266v-1044h-250v150q-48 -82 -145.5 -128.5t-194.5 -46.5zM342 524q0 -137 80.5 -224t195.5 -87q117 0 197 86.5t80 224.5q0 136 -80 221.5t-197 85.5q-115 0 -195.5 -86
t-80.5 -221zM498 1141h-240l260 401h227l261 -401h-240l-135 229z" />
    <glyph glyph-name="adieresis.alt" horiz-adv-x="1302" 
d="M74 522q0 235 140 391t353 156q95 0 183.5 -43t134.5 -115v133h266v-1044h-250v150q-48 -82 -145.5 -128.5t-194.5 -46.5q-205 0 -346 154.5t-141 392.5zM618 831q-115 0 -195.5 -86t-80.5 -221q0 -137 80.5 -224t195.5 -87q117 0 197 86.5t80 224.5q0 136 -80 221.5
t-197 85.5zM686 1348q0 64 44.5 106.5t109.5 42.5q64 0 108.5 -42.5t44.5 -106.5t-45 -108t-108 -44q-65 0 -109.5 44t-44.5 108zM375 1196q-65 0 -109.5 44t-44.5 108t44.5 106.5t109.5 42.5q64 0 108.5 -42.5t44.5 -106.5t-45 -108t-108 -44z" />
    <glyph glyph-name="adotbelow.alt" horiz-adv-x="1302" 
d="M561 -25q-205 0 -346 154.5t-141 392.5q0 235 140 391t353 156q95 0 183.5 -43t134.5 -115v133h266v-1044h-250v150q-48 -82 -145.5 -128.5t-194.5 -46.5zM618 831q-115 0 -195.5 -86t-80.5 -221q0 -137 80.5 -224t195.5 -87q117 0 197 86.5t80 224.5q0 136 -80 221.5
t-197 85.5zM471 -283q0 64 44.5 107t109.5 43q64 0 108.5 -43t44.5 -107t-44.5 -107.5t-108.5 -43.5q-65 0 -109.5 43.5t-44.5 107.5z" />
    <glyph glyph-name="agrave.alt" horiz-adv-x="1302" 
d="M74 522q0 235 140 391t353 156q95 0 183.5 -43t134.5 -115v133h266v-1044h-250v150q-48 -82 -145.5 -128.5t-194.5 -46.5q-205 0 -346 154.5t-141 392.5zM618 831q-115 0 -195.5 -86t-80.5 -221q0 -137 80.5 -224t195.5 -87q117 0 197 86.5t80 224.5q0 136 -80 221.5
t-197 85.5zM180 1538h324l201 -367h-222z" />
    <glyph glyph-name="amacron.alt" horiz-adv-x="1302" 
d="M74 522q0 235 140 391t353 156q95 0 183.5 -43t134.5 -115v133h266v-1044h-250v150q-48 -82 -145.5 -128.5t-194.5 -46.5q-205 0 -346 154.5t-141 392.5zM342 524q0 -137 80.5 -224t195.5 -87q117 0 197 86.5t80 224.5q0 136 -80 221.5t-197 85.5q-115 0 -195.5 -86
t-80.5 -221zM332 1249v199h600v-199h-600z" />
    <glyph glyph-name="aogonek.alt" horiz-adv-x="1302" 
d="M74 522q0 235 140 391t353 156q95 0 183.5 -43t134.5 -115v133h266v-1044h-10q-80 -62 -114 -102.5t-34 -79.5q0 -70 135 -86l-75 -197q-115 3 -196 59t-81 152q0 131 170 254h-45v150q-48 -82 -145.5 -128.5t-194.5 -46.5q-205 0 -346 154.5t-141 392.5zM618 831
q-115 0 -195.5 -86t-80.5 -221q0 -137 80.5 -224t195.5 -87q117 0 197 86.5t80 224.5q0 136 -80 221.5t-197 85.5z" />
    <glyph glyph-name="approxequal.onum" horiz-adv-x="1175" 
d="M111 225q0 126 76 209.5t202 83.5q51 0 110.5 -18.5t103.5 -40t92.5 -40t80.5 -18.5q96 0 113 123l178 -43q0 -129 -73.5 -213t-202.5 -84q-52 0 -112 18.5t-104 40t-92.5 40t-79.5 18.5q-95 0 -112 -119zM291 586l-180 43q0 125 76 208t202 83q51 0 110.5 -18.5
t103.5 -40t92.5 -40t80.5 -18.5q97 0 113 125l178 -43q0 -129 -73.5 -214t-202.5 -85q-66 0 -142.5 29t-142 58t-103.5 29q-96 0 -112 -116z" />
    <glyph glyph-name="approxequal.onum.tnum" 
d="M190 225q0 126 76.5 209.5t202.5 83.5q51 0 110.5 -18.5t103.5 -40t92.5 -40t80.5 -18.5q96 0 113 123l178 -43q0 -129 -74 -213t-203 -84q-52 0 -112 18.5t-103.5 40t-92 40t-79.5 18.5q-95 0 -112 -119zM371 586l-181 43q0 125 76.5 208t202.5 83q51 0 110.5 -18.5
t103.5 -40t92.5 -40t80.5 -18.5q97 0 113 125l178 -43q0 -129 -74 -214t-203 -85q-66 0 -142 29t-141.5 58t-103.5 29q-96 0 -112 -116z" />
    <glyph glyph-name="approxequal.tnum" 
d="M195 399q0 126 76 209.5t202 83.5q51 0 110.5 -18.5t103.5 -40t92.5 -40t80.5 -18.5q96 0 113 123l178 -43q0 -129 -74 -213t-203 -84q-52 0 -112 18.5t-103.5 40t-92 40t-79.5 18.5q-95 0 -112 -119zM375 760l-180 43q0 125 76 208t202 83q51 0 110.5 -18.5t103.5 -40
t92.5 -40t80.5 -18.5q97 0 113 125l178 -43q0 -129 -74 -214t-203 -85q-52 0 -112 18.5t-103.5 40t-92 40t-79.5 18.5q-96 0 -112 -117z" />
    <glyph glyph-name="aring.alt" horiz-adv-x="1302" 
d="M561 -25q-205 0 -346 154.5t-141 392.5q0 235 140 391t353 156q95 0 183.5 -43t134.5 -115v133h266v-1044h-250v150q-48 -82 -145.5 -128.5t-194.5 -46.5zM618 831q-115 0 -195.5 -86t-80.5 -221q0 -137 80.5 -224t195.5 -87q117 0 197 86.5t80 224.5q0 136 -80 221.5
t-197 85.5zM389 1360q0 98 68 164.5t174 66.5q105 0 173 -66.5t68 -164.5q0 -97 -68.5 -164.5t-172.5 -67.5q-105 0 -173.5 67.5t-68.5 164.5zM631 1440q-35 0 -58.5 -23t-23.5 -57q0 -33 23.5 -56.5t58.5 -23.5q33 0 56.5 23.5t23.5 56.5q0 34 -23 57t-57 23z" />
    <glyph glyph-name="aringacute.alt" horiz-adv-x="1302" 
d="M561 -25q-205 0 -346 154.5t-141 392.5q0 235 140 391t353 156q95 0 183.5 -43t134.5 -115v133h266v-1044h-250v150q-48 -82 -145.5 -128.5t-194.5 -46.5zM618 831q-115 0 -195.5 -86t-80.5 -221q0 -137 80.5 -224t195.5 -87q117 0 197 86.5t80 224.5q0 136 -80 221.5
t-197 85.5zM631 1128q-105 0 -173.5 67.5t-68.5 164.5q0 98 68 164.5t174 66.5q105 0 173 -66.5t68 -164.5q0 -97 -68.5 -164.5t-172.5 -67.5zM731 1655h-221l184 330h305zM631 1440q-35 0 -58.5 -23t-23.5 -57q0 -33 23.5 -56.5t58.5 -23.5q33 0 56.5 23.5t23.5 56.5
q0 34 -23 57t-57 23z" />
    <glyph glyph-name="atilde.alt" horiz-adv-x="1302" 
d="M561 -25q-205 0 -346 154.5t-141 392.5q0 235 140 391t353 156q95 0 183.5 -43t134.5 -115v133h266v-1044h-250v150q-48 -82 -145.5 -128.5t-194.5 -46.5zM342 524q0 -137 80.5 -224t195.5 -87q117 0 197 86.5t80 224.5q0 136 -80 221.5t-197 85.5q-115 0 -195.5 -86
t-80.5 -221zM406 1174l-177 43q0 121 64.5 193.5t171.5 72.5q40 0 80 -15.5t66 -34t55.5 -34t50.5 -15.5q69 0 76 105l174 -43q0 -120 -66 -193t-170 -73q-50 0 -99 24t-88 48t-65 24q-35 0 -53 -28t-20 -74z" />
    <glyph glyph-name="cent.onum" horiz-adv-x="1099" 
d="M70 555q0 204 127 353.5t325 183.5v237h195v-237q208 -33 336 -222l-176 -159q-62 100 -160 137q-51 14 -90 14q-128 0 -207.5 -88.5t-79.5 -220.5q0 -130 80 -218.5t207 -88.5q156 0 262 141l172 -160q-59 -84 -147.5 -139t-196.5 -74v-237h-195v237q-197 34 -324.5 185
t-127.5 356z" />
    <glyph glyph-name="cent.onum.tnum" 
d="M184 555q0 204 127.5 353.5t325.5 183.5v237h194v-237q208 -33 336 -222l-176 -159q-62 100 -160 137q-51 14 -90 14q-128 0 -207 -88.5t-79 -220.5q0 -130 79.5 -218.5t206.5 -88.5q157 0 263 141l172 -160q-59 -84 -148 -139t-197 -74v-237h-194v237
q-198 34 -325.5 185.5t-127.5 355.5z" />
    <glyph glyph-name="cent.tnum" 
d="M182 725q0 204 127.5 353.5t325.5 183.5v237h194v-237q208 -33 336 -222l-176 -159q-62 100 -160 137q-51 14 -90 14q-128 0 -207 -88.5t-79 -220.5q0 -130 79.5 -218.5t206.5 -88.5q156 0 262 141l173 -160q-59 -84 -148 -139t-197 -74v-237h-194v237
q-198 34 -325.5 185.5t-127.5 355.5z" />
    <glyph glyph-name="commaaccent" horiz-adv-x="428" 
d="M84 -541q35 144 35 228q0 102 -25 178h236q14 -85 14 -156q0 -114 -63 -250h-197z" />
    <glyph glyph-name="currency.onum" horiz-adv-x="1406" 
d="M76 90l213 213q-72 118 -72 256q0 136 72 254l-213 213l157 160l216 -215q114 71 251 71q139 0 256 -71l215 215l160 -160l-215 -215q70 -120 70 -252q0 -136 -72 -254l215 -215l-160 -158l-215 213q-119 -69 -254 -69q-139 0 -249 69l-215 -213zM700 793
q-100 0 -165.5 -66.5t-65.5 -167.5t65.5 -170t165.5 -72q109 0 175.5 66t66.5 176q-3 81 -50.5 142t-121.5 83q-52 9 -70 9z" />
    <glyph glyph-name="currency.onum.tnum" 
d="M39 90l213 213q-72 118 -72 256q0 136 72 254l-213 213l158 160l215 -215q114 71 252 71q139 0 256 -71l215 215l159 -160l-215 -215q70 -120 70 -252q0 -136 -72 -254l215 -215l-159 -158l-215 213q-119 -69 -254 -69q-140 0 -250 69l-215 -213zM664 793
q-100 0 -166 -66.5t-66 -167.5q0 -100 65.5 -169.5t166.5 -72.5q109 0 175 66t66 176q-3 81 -50.5 142t-121.5 83q-52 9 -69 9z" />
    <glyph glyph-name="currency.tnum" 
d="M39 260l213 213q-72 118 -72 256q0 136 72 254l-213 213l158 160l215 -215q114 71 252 71q139 0 256 -71l215 215l159 -160l-215 -215q70 -120 70 -252q0 -136 -72 -254l215 -215l-159 -158l-215 213q-119 -69 -254 -69q-140 0 -250 69l-215 -213zM664 963
q-100 0 -166 -66.5t-66 -167.5q0 -100 65.5 -169.5t166.5 -72.5q109 0 175 66t66 176q-3 81 -50.5 142t-121.5 83q-52 9 -69 9z" />
    <glyph glyph-name="degree.onum" horiz-adv-x="794" 
d="M397 465q-135 0 -229 93t-94 228q0 136 94 230t229 94t229.5 -94t94.5 -230q0 -135 -94.5 -228t-229.5 -93zM268 786q0 -56 37 -92.5t92 -36.5q56 0 94.5 37t38.5 92q0 58 -38.5 96t-94.5 38t-92.5 -38t-36.5 -96z" />
    <glyph glyph-name="degree.onum.tnum" 
d="M666 481q-135 0 -229.5 93.5t-94.5 228.5q0 136 94.5 229.5t229.5 93.5t229 -93.5t94 -229.5q0 -135 -94 -228.5t-229 -93.5zM537 803q0 -55 36.5 -92t92.5 -37t94.5 37t38.5 92q0 58 -38.5 95.5t-94.5 37.5t-92.5 -37.5t-36.5 -95.5z" />
    <glyph glyph-name="degree.tnum" 
d="M666 834q-135 0 -229.5 93t-94.5 228q0 136 94.5 230t229.5 94t229 -94t94 -230q0 -135 -94 -228t-229 -93zM537 1155q0 -55 36.5 -92t92.5 -37t94.5 37t38.5 92q0 58 -38.5 95.5t-94.5 37.5t-92.5 -37.5t-36.5 -95.5z" />
    <glyph glyph-name="divide.onum" horiz-adv-x="1079" 
d="M76 424v231h928v-231h-928zM539 -23q-65 0 -109.5 44t-44.5 108q0 63 44.5 106.5t109.5 43.5q64 0 108.5 -43.5t44.5 -106.5q0 -64 -44 -108t-109 -44zM539 801q-65 0 -109.5 43.5t-44.5 107.5q0 63 44.5 106.5t109.5 43.5q64 0 108.5 -43.5t44.5 -106.5
q0 -64 -44 -107.5t-109 -43.5z" />
    <glyph glyph-name="divide.onum.tnum" 
d="M203 424v231h927v-231h-927zM666 -23q-65 0 -109.5 44t-44.5 108q0 63 44.5 106.5t109.5 43.5q64 0 108.5 -43.5t44.5 -106.5q0 -64 -44 -108t-109 -44zM666 801q-65 0 -109.5 43.5t-44.5 107.5q0 63 44.5 106.5t109.5 43.5q64 0 108.5 -43.5t44.5 -106.5
q0 -64 -44 -107.5t-109 -43.5z" />
    <glyph glyph-name="divide.tnum" 
d="M203 598v231h927v-231h-927zM666 152q-65 0 -109.5 43.5t-44.5 107.5q0 63 44.5 106.5t109.5 43.5q64 0 108.5 -43.5t44.5 -106.5q0 -64 -44 -107.5t-109 -43.5zM666 975q-65 0 -109.5 43.5t-44.5 107.5q0 63 44.5 106.5t109.5 43.5q64 0 108.5 -43.5t44.5 -106.5
q0 -64 -44 -107.5t-109 -43.5z" />
    <glyph glyph-name="dollar.onum" horiz-adv-x="966" 
d="M53 215l185 143q44 -69 110 -109t146 -40q72 0 117.5 27t45.5 69q0 47 -48.5 76.5t-186.5 79.5q-185 69 -263.5 145t-78.5 197q0 118 88.5 200.5t230.5 104.5v225h193v-225q95 -18 174 -67t123 -123l-174 -134q-86 113 -226 113q-67 0 -110 -25.5t-43 -66.5
q0 -39 47.5 -68t187.5 -84q93 -37 150 -67t104 -70t67.5 -90.5t20.5 -118.5q0 -116 -88.5 -202t-242.5 -109v-229h-191v231q-110 18 -198.5 73t-139.5 144z" />
    <glyph glyph-name="dollar.onum.tnum" 
d="M236 215l184 143q44 -69 110 -109t146 -40q72 0 118 27.5t46 68.5q0 47 -48.5 76.5t-187.5 79.5q-185 69 -263.5 145t-78.5 197q0 118 89 200.5t231 104.5v225h192v-225q95 -18 174 -67t123 -123l-174 -134q-86 113 -225 113q-67 0 -110.5 -25.5t-43.5 -66.5
q0 -39 48 -68t188 -84q93 -37 150 -67t104 -70t67.5 -90.5t20.5 -118.5q0 -116 -89 -202t-243 -109v-229h-191v231q-110 18 -198 73t-139 144z" />
    <glyph glyph-name="dollar.tnum" 
d="M147 262l205 156q52 -92 134.5 -143.5t183.5 -51.5q104 0 169.5 46.5t65.5 113.5q0 27 -6 48.5t-23.5 41t-32 32.5t-49.5 31t-56.5 28t-72.5 32t-79 35q-161 72 -225 115q-146 99 -168 252q-5 31 -5 65q0 154 108.5 266.5t281.5 140.5v246h196v-243q120 -19 217.5 -83
t157.5 -169l-201 -150q-102 162 -272 162q-95 0 -156 -44.5t-61 -117.5q0 -22 6.5 -41t16 -34t29 -30.5t35.5 -26t46 -25.5t49.5 -24t58 -25.5t60.5 -26.5q61 -27 98.5 -44.5t87 -44.5t79 -50.5t62 -56.5t49.5 -68.5t28.5 -82t11.5 -100.5q0 -153 -110.5 -268.5
t-303.5 -140.5v-252h-197v254q-135 21 -245 92t-173 186z" />
    <glyph glyph-name="dotbelow" horiz-adv-x="475" 
d="M84 -283q0 64 44.5 107t109.5 43q64 0 108.5 -43t44.5 -107t-44.5 -107.5t-108.5 -43.5q-65 0 -109.5 43.5t-44.5 107.5z" />
    <glyph glyph-name="eight.onum" horiz-adv-x="1193" 
d="M598 -25q-219 0 -365.5 123t-146.5 308q0 125 71 213.5t167 125.5q-79 36 -137 124.5t-58 195.5q0 182 136.5 298t332.5 116t332.5 -116t136.5 -298q0 -106 -58.5 -194.5t-136.5 -125.5q95 -37 165.5 -125.5t70.5 -213.5q0 -122 -66.5 -221t-183 -154.5t-260.5 -55.5z
M598 629q-105 0 -173.5 -58.5t-68.5 -152.5q0 -89 68.5 -147t173.5 -58q103 0 172.5 58t69.5 147q0 94 -69 152.5t-173 58.5zM598 1241q-86 0 -147.5 -51t-61.5 -133q0 -85 61 -138t148 -53q86 0 146.5 53t60.5 138q0 82 -60.5 133t-146.5 51z" />
    <glyph glyph-name="eight.onum.tnum" 
d="M668 -25q-219 0 -365.5 123t-146.5 308q0 125 70.5 213.5t166.5 125.5q-79 36 -136.5 124.5t-57.5 195.5q0 182 136.5 298t332.5 116t332.5 -116t136.5 -298q0 -106 -58.5 -194.5t-136.5 -125.5q95 -37 165.5 -125.5t70.5 -213.5q0 -122 -66.5 -221t-183 -154.5
t-260.5 -55.5zM668 629q-105 0 -173.5 -58.5t-68.5 -152.5q0 -89 68.5 -147t173.5 -58q103 0 172 58t69 147q0 94 -68.5 152.5t-172.5 58.5zM668 1241q-86 0 -147.5 -51t-61.5 -133q0 -85 61 -138t148 -53q86 0 146 53t60 138q0 82 -60 133t-146 51z" />
    <glyph glyph-name="eight.tnum" 
d="M666 -25q-219 0 -365.5 123t-146.5 308q0 125 70.5 213.5t166.5 125.5q-79 36 -136.5 124.5t-57.5 195.5q0 182 136.5 298t332.5 116t332.5 -116t136.5 -298q0 -106 -58.5 -194.5t-136.5 -125.5q95 -37 165.5 -125.5t70.5 -213.5q0 -122 -66.5 -221t-183 -154.5
t-260.5 -55.5zM666 629q-105 0 -173.5 -58.5t-68.5 -152.5q0 -89 68.5 -147t173.5 -58q103 0 172 58t69 147q0 94 -68.5 152.5t-172.5 58.5zM666 1241q-86 0 -147.5 -51t-61.5 -133q0 -85 61 -138t148 -53q86 0 146 53t60 138q0 82 -60 133t-146 51z" />
    <glyph glyph-name="equal.onum" horiz-adv-x="1120" 
d="M119 881h882v-232h-882v232zM1001 227h-882v232h882v-232z" />
    <glyph glyph-name="equal.onum.tnum" 
d="M225 881h883v-232h-883v232zM1108 227h-883v232h883v-232z" />
    <glyph glyph-name="equal.tnum" 
d="M225 1055h883v-232h-883v232zM1108 401h-883v232h883v-232z" />
    <glyph glyph-name="f_f_t" horiz-adv-x="2039" 
d="M61 1044h146v70q0 166 103.5 265.5t279.5 99.5q98 0 153 -31v-221q-49 22 -108 22q-72 0 -117 -34.5t-45 -106.5v-64h379v70q0 166 103.5 265.5t279.5 99.5q99 0 154 -31v-221q-49 22 -109 22q-72 0 -117 -34.5t-45 -106.5v-64h355v285h258v-285h247v-213h-247v-464
q0 -152 145 -152q76 0 129 35v-234q-77 -41 -199 -41q-161 0 -251.5 92.5t-90.5 260.5v503h-346v-831h-266v831h-379v-831h-266v831h-146v213z" />
    <glyph glyph-name="five.onum" horiz-adv-x="1124" 
d="M39 -74l211 146q46 -89 118 -140t164 -51q118 0 188.5 66.5t70.5 175.5q0 111 -72 181.5t-191 70.5q-144 0 -245 -90l-162 67l72 754h778v-242h-551l-31 -301q68 37 186 37q221 0 355.5 -128t134.5 -341q0 -221 -143.5 -361.5t-378.5 -140.5q-168 0 -300 78.5t-204 218.5
z" />
    <glyph glyph-name="five.onum.tnum" 
d="M141 -74l211 146q46 -89 118.5 -140t164.5 -51q118 0 188 66.5t70 175.5q0 111 -71.5 181.5t-190.5 70.5q-145 0 -246 -90l-162 67l72 754h778v-242h-551l-30 -301q68 37 186 37q220 0 354.5 -128t134.5 -341q0 -221 -143.5 -361.5t-378.5 -140.5q-168 0 -300 78.5
t-204 218.5z" />
    <glyph glyph-name="five.tnum" 
d="M143 272l211 146q46 -89 118.5 -140t164.5 -51q118 0 188 66.5t70 175.5q0 111 -71.5 181.5t-190.5 70.5q-145 0 -246 -90l-162 67l72 754h778v-242h-551l-30 -301q68 37 186 37q220 0 354.5 -128t134.5 -341q0 -221 -143.5 -361.5t-378.5 -140.5q-168 0 -300 78.5
t-204 218.5z" />
    <glyph glyph-name="florin.onum" horiz-adv-x="1089" 
d="M201 -283q-103 0 -170 31v227q74 -28 143 -28q186 0 199 184l45 498h-164v213h180l17 170q15 184 133.5 287.5t304.5 103.5q88 0 162 -31v-227q-13 10 -54 19.5t-84 9.5q-85 0 -141 -43t-63 -142l-15 -147h209v-213h-225l-47 -523q-15 -182 -132 -285.5t-298 -103.5z" />
    <glyph glyph-name="florin.onum.tnum" 
d="M322 -283q-103 0 -170 31v227q74 -28 143 -28q186 0 199 184l45 498h-164v213h180l16 170q15 184 134 287.5t305 103.5q87 0 161 -31v-227q-13 10 -53.5 19.5t-83.5 9.5q-85 0 -141.5 -43.5t-63.5 -141.5l-14 -147h209v-213h-225l-47 -523q-15 -182 -132 -285.5
t-298 -103.5z" />
    <glyph glyph-name="florin.tnum" 
d="M324 -207q-103 0 -170 31v227q74 -28 143 -28q186 0 199 184l45 498h-164v213h180l16 169q15 184 134 288t305 104q88 0 162 -31v-227q-13 10 -54 19t-84 9q-86 0 -142 -43t-63 -141l-14 -147h209v-213h-225l-47 -523q-15 -182 -132 -285.5t-298 -103.5z" />
    <glyph glyph-name="foundryicon" horiz-adv-x="2109" 
d="M1497 836h66l8 -23l6 6q23 23 61 23q47 0 75 -35.5t28 -93.5q0 -60 -33 -96.5t-88 -36.5q-23 0 -43 10v-103h-80v349zM580 487h-82v349h65l8 -23l9 6q14 13 24 17q15 6 33 6q51 0 77.5 -37t26.5 -92q0 -51 -23.5 -84.5t-64.5 -44.5q-20 -4 -32 -4q-11 0 -27 4q-6 2 -14 6
v-103zM866 584q-42 10 -65 42.5t-23 80.5q0 61 34 98t93 37t94 -34.5t35 -94.5q0 -61 -35.5 -97t-95.5 -36q-13 0 -37 4zM1200 836h90l51 -172h2l41 172h89l-80 -256q-27 -74 -70 -93q-27 -10 -55 -10q-26 0 -56 10q-1 0 -3 1t-3 1l11 60q1 0 7.5 -1.5t17 -3t20.5 -1.5
q31 0 36 30l-8 27zM1905 580q-59 0 -94 35t-35 92q0 62 34.5 98.5t94.5 36.5q46 0 73 -27.5t27 -69.5q0 -27 -8 -51h-139q6 -49 55 -49q32 0 69 14l17 -59q-35 -20 -94 -20zM104 956h295v-71h-112v-301h-80v301h-103v71zM1083 885h-102v71h285v-71h-103v-301h-80v301z
M434 584h-82v252h82v-252zM860 713q0 -76 45 -76t45 72q0 75 -45 75t-45 -71zM1610 778q-17 0 -33 -12v-117q16 -8 33 -8q23 0 35 19t12 49q0 69 -47 69zM612 778q-20 0 -32 -12v-117q8 -8 30 -8q47 0 47 68q0 69 -45 69zM1898 784q-19 0 -28 -11t-12 -36h69q5 20 -3.5 33.5
t-25.5 13.5z" />
    <glyph glyph-name="four.alt" horiz-adv-x="1193" 
d="M31 338v174l532 942h275l-486 -881h359l-2 412h258v-407h188v-240h-188v-338h-260v338h-676z" />
    <glyph glyph-name="four.onum" horiz-adv-x="1200" 
d="M31 178l608 930h328v-864h188v-240h-188v-350h-260v350h-676v174zM352 240h359l-2 548z" />
    <glyph glyph-name="four.onum.alt" horiz-adv-x="1185" 
d="M31 -8v174l532 942h275l-486 -881h359l-2 412h258v-408h188v-239h-188v-338h-260v338h-676z" />
    <glyph glyph-name="four.onum.tnum" 
d="M96 178l609 930h327v-864h189v-240h-189v-350h-260v350h-676v174zM418 240h358l-2 548z" />
    <glyph glyph-name="four.tnum" 
d="M82 524l608 930h328v-864h188v-240h-188v-350h-260v350h-676v174zM403 586h359l-2 549z" />
    <glyph glyph-name="ft" horiz-adv-x="1396" 
d="M63 1044h146v70q0 166 103.5 265.5t279.5 99.5q98 0 153 -31v-221q-49 22 -108 22q-72 0 -117 -34.5t-45 -106.5v-64h354v285h258v-285h248v-213h-248v-464q0 -152 146 -152q76 0 129 35v-234q-77 -41 -199 -41q-161 0 -251.5 92.5t-90.5 260.5v503h-346v-831h-266v831
h-146v213z" />
    <glyph glyph-name="g.alt" horiz-adv-x="1300" 
d="M74 526q0 234 140 388.5t353 154.5q96 0 184 -42.5t134 -115.5v133h266v-968q0 -224 -152 -367t-395 -143q-154 0 -279 57.5t-212 165.5l174 162q117 -152 315 -152q137 0 219 80.5t82 216.5v58q-39 -72 -128.5 -121t-190.5 -49q-104 0 -198 40.5t-162.5 111t-109 172.5
t-40.5 218zM342 528q0 -135 80.5 -221t195.5 -86q117 0 197 86t80 221t-80 219t-197 84q-115 0 -195.5 -84.5t-80.5 -218.5z" />
    <glyph glyph-name="gbreve.alt" horiz-adv-x="1300" 
d="M74 526q0 234 140 388.5t353 154.5q96 0 184 -42.5t134 -115.5v133h266v-968q0 -224 -152 -367t-395 -143q-154 0 -279 57.5t-212 165.5l174 162q117 -152 315 -152q137 0 219 80.5t82 216.5v58q-39 -72 -128.5 -121t-190.5 -49q-104 0 -198 40.5t-162.5 111t-109 172.5
t-40.5 218zM342 528q0 -135 80.5 -221t195.5 -86q117 0 197 86t80 221t-80 219t-197 84q-115 0 -195.5 -84.5t-80.5 -218.5zM621 1184q-127 0 -212.5 81t-84.5 214h204q-1 -51 24.5 -82t68.5 -31q41 0 66 31t24 82h204q1 -133 -83 -214t-211 -81z" />
    <glyph glyph-name="gcaron.alt" horiz-adv-x="1300" 
d="M584 -16q-104 0 -198 40.5t-162.5 111t-109 172.5t-40.5 218q0 234 140 388.5t353 154.5q96 0 184 -42.5t134 -115.5v133h266v-968q0 -224 -152 -367t-395 -143q-154 0 -279 57.5t-212 165.5l174 162q117 -152 315 -152q137 0 219 80.5t82 216.5v58q-39 -72 -128.5 -121
t-190.5 -49zM342 528q0 -135 80.5 -221t195.5 -86q117 0 197 86t80 221t-80 219t-197 84q-115 0 -195.5 -84.5t-80.5 -218.5zM500 1141l-260 401h239l133 -227l136 227h239l-260 -401h-227z" />
    <glyph glyph-name="gcircumflex.alt" horiz-adv-x="1300" 
d="M584 -16q-104 0 -198 40.5t-162.5 111t-109 172.5t-40.5 218q0 234 140 388.5t353 154.5q96 0 184 -42.5t134 -115.5v133h266v-968q0 -224 -152 -367t-395 -143q-154 0 -279 57.5t-212 165.5l174 162q117 -152 315 -152q137 0 219 80.5t82 216.5v58q-39 -72 -128.5 -121
t-190.5 -49zM342 528q0 -135 80.5 -221t195.5 -86q117 0 197 86t80 221t-80 219t-197 84q-115 0 -195.5 -84.5t-80.5 -218.5zM258 1141l260 401h227l261 -401h-240l-135 229l-133 -229h-240z" />
    <glyph glyph-name="gcommaaccent.alt" horiz-adv-x="1300" 
d="M74 526q0 234 140 388.5t353 154.5q96 0 184 -42.5t134 -115.5v133h266v-968q0 -224 -152 -367t-395 -143q-154 0 -279 57.5t-212 165.5l174 162q117 -152 315 -152q137 0 219 80.5t82 216.5v58q-39 -72 -128.5 -121t-190.5 -49q-104 0 -198 40.5t-162.5 111t-109 172.5
t-40.5 218zM342 528q0 -135 80.5 -221t195.5 -86q117 0 197 86t80 221t-80 219t-197 84q-115 0 -195.5 -84.5t-80.5 -218.5zM471 1327q0 112 64 250h196q-35 -143 -35 -227q0 -103 25 -179h-236q-14 85 -14 156z" />
    <glyph glyph-name="gdotaccent.alt" horiz-adv-x="1300" 
d="M74 526q0 234 140 388.5t353 154.5q96 0 184 -42.5t134 -115.5v133h266v-968q0 -224 -152 -367t-395 -143q-154 0 -279 57.5t-212 165.5l174 162q117 -152 315 -152q137 0 219 80.5t82 216.5v58q-39 -72 -128.5 -121t-190.5 -49q-104 0 -198 40.5t-162.5 111t-109 172.5
t-40.5 218zM618 831q-115 0 -195.5 -84.5t-80.5 -218.5q0 -135 80.5 -221t195.5 -86q117 0 197 86t80 221t-80 219t-197 84zM473 1348q0 64 44.5 106.5t109.5 42.5q64 0 108.5 -42.5t44.5 -106.5t-45 -108t-108 -44q-65 0 -109.5 44t-44.5 108z" />
    <glyph glyph-name="greater.onum" horiz-adv-x="1054" 
d="M92 1069l920 -407v-224l-920 -409v250l621 270l-621 270v250z" />
    <glyph glyph-name="greater.onum.tnum" 
d="M231 1069l920 -407v-224l-920 -409v250l621 270l-621 270v250z" />
    <glyph glyph-name="greater.tnum" 
d="M248 1245l919 -407v-224l-919 -409v250l620 270l-620 270v250z" />
    <glyph glyph-name="greaterequal.onum" horiz-adv-x="1116" 
d="M1032 602l-917 -409v241l618 271l-618 270v239l917 -407v-205zM102 113h942v-224h-942v224z" />
    <glyph glyph-name="greaterequal.onum.tnum" 
d="M1141 602l-918 -409v241l619 271l-619 270v239l918 -407v-205zM211 113h942v-224h-942v224z" />
    <glyph glyph-name="greaterequal.tnum" 
d="M1135 776l-918 -409v241l619 271l-619 270v240l918 -408v-205zM205 287h942v-224h-942v224z" />
    <glyph glyph-name="i.TRK" horiz-adv-x="569" 
d="M152 1044h266v-1044h-266v1044zM129 1348q0 64 44.5 106.5t109.5 42.5q64 0 108.5 -42.5t44.5 -106.5t-45 -108t-108 -44q-65 0 -109.5 44t-44.5 108z" />
    <glyph glyph-name="ijacute" horiz-adv-x="1130" 
d="M479 -182q50 -19 105 -19q62 0 98.5 39t36.5 119v1087h266v-1099q0 -99 -28 -173.5t-78.5 -118.5t-114 -65.5t-139.5 -21.5q-86 0 -146 26v226zM152 1044h266v-1044h-266v1044zM965 1171h-222l201 367h322zM414 1171h-221l200 367h322z" />
    <glyph glyph-name="k.alt" horiz-adv-x="1124" 
d="M152 0v1454h266v-1454h-266zM451 522l348 522h288l-337 -505l399 -539h-311z" />
    <glyph glyph-name="kcommaaccent.alt" horiz-adv-x="1124" 
d="M152 0v1454h266v-1454h-266zM838 0l-387 522l348 522h288l-337 -505l399 -539h-311zM655 -541h-196q35 143 35 228q0 102 -25 178h236q14 -85 14 -156q0 -112 -64 -250z" />
    <glyph glyph-name="l.alt" horiz-adv-x="569" 
d="M152 0v1454h266v-1454h-266z" />
    <glyph glyph-name="lacute.alt" horiz-adv-x="602" 
d="M152 0v1454h266v-1454h-266zM193 1581l200 367h322l-301 -367h-221z" />
    <glyph glyph-name="lcaron.alt" horiz-adv-x="653" 
d="M152 1454h266v-1454h-266v1454zM727 1047h-197q35 143 35 227q0 105 -24 178h235q15 -92 15 -156q0 -68 -16 -123.5t-48 -125.5z" />
    <glyph glyph-name="lcommaaccent.alt" horiz-adv-x="561" 
d="M152 1454h266v-1454h-266v1454zM352 -541h-196q34 139 34 228q0 105 -24 178h235q15 -91 15 -156q0 -112 -64 -250z" />
    <glyph glyph-name="ldot.alt" horiz-adv-x="858" 
d="M418 0h-266v1454h266v-1454zM489 633q0 64 44.5 106.5t109.5 42.5q64 0 109 -42.5t45 -106.5t-45 -108t-109 -44q-65 0 -109.5 44t-44.5 108z" />
    <glyph glyph-name="less.onum" horiz-adv-x="1054" 
d="M963 33l-920 407v224l920 409v-250l-621 -270l621 -270v-250z" />
    <glyph glyph-name="less.onum.tnum" 
d="M1102 33l-920 407v224l920 409v-250l-621 -270l621 -270v-250z" />
    <glyph glyph-name="less.tnum" 
d="M1085 207l-919 407v224l919 409v-250l-620 -270l620 -270v-250z" />
    <glyph glyph-name="lessequal.onum" horiz-adv-x="1116" 
d="M1001 193l-917 409v205l917 407v-239l-618 -270l618 -271v-241zM72 113h942v-224h-942v224z" />
    <glyph glyph-name="lessequal.onum.tnum" 
d="M1108 193l-918 409v205l918 407v-239l-619 -270l619 -271v-241zM178 113h942v-224h-942v224z" />
    <glyph glyph-name="lessequal.tnum" 
d="M1114 367l-917 409v205l917 408v-240l-618 -270l618 -271v-241zM184 287h942v-224h-942v224z" />
    <glyph glyph-name="logicalnot.onum" horiz-adv-x="1181" 
d="M115 438v232h940v-486h-236v254h-704z" />
    <glyph glyph-name="logicalnot.onum.tnum" 
d="M193 438v232h940v-486h-236v254h-704z" />
    <glyph glyph-name="logicalnot.tnum" 
d="M188 612v232h940v-486h-235v254h-705z" />
    <glyph glyph-name="lslash.alt" horiz-adv-x="702" 
d="M86 532l-86 150l219 127v645h266v-491l129 73l88 -149l-217 -125v-762h-266v608z" />
    <glyph glyph-name="minus.onum" horiz-adv-x="1112" 
d="M119 670h874v-232h-874v232z" />
    <glyph glyph-name="minus.onum.tnum" 
d="M229 670h875v-232h-875v232z" />
    <glyph glyph-name="minus.tnum" 
d="M229 844h875v-232h-875v232z" />
    <glyph glyph-name="mu.onum" horiz-adv-x="1286" 
d="M152 1044h266v-602q0 -110 58 -169.5t153 -59.5q79 0 135 44.5t80 109t24 139.5v538h267v-1044h-256v143q-102 -168 -322 -168q-77 0 -141 21v-406h-262v768q-2 18 -2 54v632z" />
    <glyph glyph-name="mu.onum.tnum" 
d="M174 1044h266v-602q0 -110 58 -169.5t153 -59.5q79 0 135 44.5t80.5 109t24.5 139.5v538h266v-1044h-256v143q-102 -168 -321 -168q-78 0 -142 21v-406h-262v768q-2 18 -2 54v632z" />
    <glyph glyph-name="mu.tnum" 
d="M174 1044h266v-602q0 -110 58 -169.5t153 -59.5q79 0 135 44.5t80.5 109t24.5 139.5v538h266v-1044h-256v143q-102 -168 -321 -168q-78 0 -142 21v-406h-262v768q-2 18 -2 54v632z" />
    <glyph glyph-name="multiply.onum" horiz-adv-x="1091" 
d="M231 80l-159 160l313 313l-313 313l159 160l316 -311l311 311l162 -160l-313 -313l313 -313l-162 -160l-311 313z" />
    <glyph glyph-name="multiply.onum.tnum" 
d="M350 80l-160 160l314 313l-314 313l160 160l316 -311l311 311l162 -160l-314 -313l314 -313l-162 -160l-311 313z" />
    <glyph glyph-name="multiply.tnum" 
d="M350 254l-160 160l314 313l-314 313l160 160l316 -311l311 311l162 -160l-314 -313l314 -313l-162 -160l-311 313z" />
    <glyph glyph-name="nine.onum" horiz-adv-x="1134" 
d="M510 162q-198 0 -334.5 137t-136.5 338q0 139 69 253t187.5 178.5t261.5 64.5q142 0 261.5 -66.5t189 -182.5t69.5 -255q0 -110 -41.5 -202t-128.5 -220l-370 -553h-314l357 516q-28 -8 -70 -8zM301 641q0 -109 73.5 -181.5t178.5 -72.5q113 0 184.5 71t71.5 177
q0 115 -71 186.5t-181 71.5q-111 0 -183.5 -71t-72.5 -181z" />
    <glyph glyph-name="nine.onum.tnum" 
d="M608 162q-198 0 -334.5 137t-136.5 338q0 139 69 253t187.5 178.5t261.5 64.5q142 0 262 -66.5t189.5 -182.5t69.5 -255q0 -110 -41.5 -202t-128.5 -220l-371 -553h-313l356 516q-28 -8 -70 -8zM399 641q0 -109 73.5 -181.5t178.5 -72.5q113 0 184.5 71t71.5 177
q0 115 -71 186.5t-181 71.5q-111 0 -183.5 -71t-72.5 -181z" />
    <glyph glyph-name="nine.tnum" 
d="M602 508q-198 0 -334.5 137t-136.5 338q0 139 69 253t187.5 178.5t261.5 64.5q142 0 261.5 -66.5t189 -182.5t69.5 -255q0 -110 -41.5 -202t-128.5 -220l-370 -553h-314l357 516q-28 -8 -70 -8zM393 987q0 -109 73.5 -181.5t178.5 -72.5q113 0 184.5 71t71.5 177
q0 115 -71 186.5t-181 71.5q-111 0 -183.5 -71t-72.5 -181z" />
    <glyph glyph-name="notequal.onum" horiz-adv-x="1056" 
d="M88 877h541l151 272l121 -70l-113 -202h183v-228h-307l-107 -190h414v-228h-539l-151 -272l-123 70l112 202h-182v228h309l105 190h-414v228z" />
    <glyph glyph-name="notequal.onum.tnum" 
d="M225 877h541l152 272l120 -70l-112 -202h182v-228h-307l-107 -190h414v-228h-539l-151 -272l-123 70l113 202h-183v228h310l104 190h-414v228z" />
    <glyph glyph-name="notequal.tnum" 
d="M225 1051h541l152 272l120 -70l-112 -202h182v-228h-307l-107 -190h414v-227h-539l-151 -273l-123 70l113 203h-183v227h310l104 190h-414v228z" />
    <glyph glyph-name="numbersign.onum" horiz-adv-x="1427" 
d="M328 254h-287l37 205h284l35 190h-288l36 205h287l68 383h223l-66 -383h215l68 383h225l-67 -383h286l-34 -205h-287l-35 -190h289l-35 -205h-289l-67 -385h-226l68 385h-215l-68 -385h-225zM621 649l-33 -190h215l35 190h-217z" />
    <glyph glyph-name="numbersign.onum.tnum" 
d="M283 254h-289l39 205h284l35 190h-289l37 205h287l68 383h223l-66 -383h215l68 383h225l-67 -383h286l-34 -205h-287l-35 -190h289l-35 -205h-289l-67 -385h-226l68 385h-215l-68 -385h-225zM575 649l-32 -190h215l35 190h-218z" />
    <glyph glyph-name="numbersign.tnum" 
d="M295 424h-287l37 205h285l35 190h-289l37 205h286l68 383h223l-65 -383h215l67 383h226l-68 -383h287l-35 -205h-287l-35 -190h289l-35 -205h-288l-68 -385h-225l67 385h-215l-67 -385h-226zM588 819l-33 -190h215l35 190h-217z" />
    <glyph glyph-name="one.alt" horiz-adv-x="864" 
d="M356 1212h-305v242h576v-1454h-271v1212z" />
    <glyph glyph-name="one.onum" horiz-adv-x="1048" 
d="M434 760q-113 -104 -346 -107v242q278 12 404 211h213v-862h319v-244h-918v244h328v516z" />
    <glyph glyph-name="one.onum.alt" horiz-adv-x="802" 
d="M362 864h-288v242h559v-1106h-271v864z" />
    <glyph glyph-name="one.onum.tnum" 
d="M573 760q-113 -104 -346 -107v242q278 12 404 211h213v-862h319v-244h-917v244h327v516z" />
    <glyph glyph-name="one.tnum" 
d="M580 1108q-119 -107 -351 -107v242q281 12 408 211h213v-1210h319v-244h-917v244h328v864z" />
    <glyph glyph-name="onehalf.onum" horiz-adv-x="1714" 
d="M1202 373l-147 104q39 78 119 129t182 51q128 0 209.5 -70t81.5 -184q0 -52 -17.5 -94.5t-54 -78t-66.5 -57.5t-80 -54q-11 -7 -16 -10q-9 -6 -27 -17.5t-26.5 -17t-22.5 -15t-21 -15.5t-15 -13t-12 -13t-5 -12h377v-176h-586q-12 52 -12 111q0 90 51.5 157t157.5 133
q17 11 47.5 30t44.5 28t33.5 24t28 26t15.5 26t7 32q0 37 -26 57.5t-70 20.5q-52 0 -90 -30t-60 -72zM254 -170l1063 1454h192l-1063 -1454h-192zM72 1182q88 5 140 27t89 75h150v-622h172v-181h-541v181h174v376q-62 -28 -184 -32v176z" />
    <glyph glyph-name="onequarter.onum" horiz-adv-x="1583" 
d="M856 -2v117l375 518h180v-473h111v-164h-111v-166h-184v168h-371zM436 -170h-192l1063 1454h192zM256 1038q-62 -28 -184 -32v176q88 5 140 27t89 75h150v-622h172v-181h-541v181h174v376zM1233 352l-143 -198h143v198z" />
    <glyph glyph-name="onethird.onum" horiz-adv-x="1740" 
d="M1063 -16l145 104q52 -106 156 -106q48 0 82.5 29t34.5 71q0 51 -38 78.5t-100 27.5q-60 0 -108 -10v119l164 160h-289v176h547v-129l-191 -178q96 -20 153.5 -86t57.5 -158q0 -123 -88.5 -200t-222.5 -77q-105 0 -184.5 50.5t-118.5 128.5zM436 -170h-192l1063 1454h192
zM72 1182q88 5 140 27t89 75h150v-622h172v-181h-541v181h174v376q-62 -28 -184 -32v176z" />
    <glyph glyph-name="ordfeminine.onum" horiz-adv-x="802" 
d="M131 653q0 69 50 116t143 69l159 36v3q0 32 -24.5 49.5t-65.5 17.5q-92 0 -178 -72l-80 138q33 35 105 67.5t159 32.5q124 0 196.5 -61t72.5 -162v-389h-176v69q-19 -35 -63 -60.5t-99 -25.5q-90 0 -144.5 48t-54.5 124zM694 207h-590v184h590v-184zM373 729
q-62 -16 -62 -53q0 -22 15.5 -33.5t38.5 -11.5q47 0 82.5 35t35.5 84v8z" />
    <glyph glyph-name="ordfeminine.onum.tnum" 
d="M395 670q0 69 50 115.5t143 68.5l160 37v2q0 32 -25 50t-66 18q-92 0 -178 -72l-80 137q33 35 105.5 67.5t159.5 32.5q123 0 195.5 -61t72.5 -162v-389h-176v70q-19 -35 -63 -60.5t-99 -25.5q-90 0 -144.5 48t-54.5 124zM958 223h-589v185h589v-185zM637 745
q-62 -16 -62 -53q0 -22 15.5 -33.5t38.5 -11.5q47 0 83 35t36 84v8z" />
    <glyph glyph-name="ordfeminine.tnum" 
d="M393 1022q0 69 50 115.5t143 68.5l159 37v2q0 32 -25 50t-65 18q-92 0 -178 -72l-80 137q33 35 105.5 68t159.5 33q123 0 195.5 -61.5t72.5 -162.5v-389h-176v70q-19 -35 -63 -60.5t-99 -25.5q-90 0 -144.5 48t-54.5 124zM956 575h-589v185h589v-185zM635 1098
q-62 -16 -62 -54q0 -22 15.5 -33.5t38.5 -11.5q47 0 82.5 35t35.5 84v8z" />
    <glyph glyph-name="ordmasculine.onum" horiz-adv-x="854" 
d="M428 481q-134 0 -228 92t-94 222q0 132 94 223.5t228 91.5q132 0 226 -91.5t94 -223.5q0 -130 -94 -222t-226 -92zM129 397h596v-184h-596v184zM428 926q-54 0 -91.5 -37t-37.5 -94q0 -55 37 -91t92 -36t92 36t37 91q0 57 -37.5 94t-91.5 37z" />
    <glyph glyph-name="ordmasculine.onum.tnum" 
d="M668 498q-134 0 -228 91.5t-94 221.5q0 132 94 223.5t228 91.5q132 0 225.5 -91.5t93.5 -223.5q0 -130 -93.5 -221.5t-225.5 -91.5zM369 414h596v-185h-596v185zM668 942q-54 0 -91.5 -37t-37.5 -94q0 -55 37 -91t92 -36t92 36t37 91q0 57 -37.5 94t-91.5 37z" />
    <glyph glyph-name="ordmasculine.tnum" 
d="M668 850q-134 0 -228 91.5t-94 221.5q0 132 94 224t228 92q132 0 225.5 -92t93.5 -224q0 -130 -93.5 -221.5t-225.5 -91.5zM369 766h596v-184h-596v184zM668 1294q-54 0 -91.5 -37t-37.5 -94q0 -55 37 -91t92 -36t92 36t37 91q0 57 -37.5 94t-91.5 37z" />
    <glyph glyph-name="percent.onum" horiz-adv-x="1589" 
d="M395 612q-146 0 -247 98t-101 244t101.5 245t246.5 99q144 0 245 -99.5t101 -244.5q0 -146 -101 -244t-245 -98zM848 147q0 146 101.5 245.5t246.5 99.5q143 0 244.5 -100t101.5 -245q0 -146 -101 -244t-245 -98q-146 0 -247 98t-101 244zM362 -170h-192l1063 1454h192z
M1196 301q-68 0 -112 -43.5t-44 -110.5q0 -66 44.5 -109.5t111.5 -43.5q66 0 109 43.5t43 109.5q0 67 -43 110.5t-109 43.5zM240 954q0 -66 44 -109.5t111 -43.5q66 0 109 43.5t43 109.5q0 67 -43 110.5t-109 43.5q-68 0 -111.5 -43.5t-43.5 -110.5z" />
    <glyph glyph-name="perthousand.onum" horiz-adv-x="2371" 
d="M395 612q-146 0 -247 98t-101 244t101.5 245t246.5 99q144 0 245 -99.5t101 -244.5q0 -146 -101 -244t-245 -98zM1196 -195q-146 0 -247 98t-101 244t101.5 245.5t246.5 99.5q143 0 244.5 -100t101.5 -245q0 -146 -101 -244t-245 -98zM1985 -195q-144 0 -245.5 98
t-101.5 244q0 145 101.5 245t245.5 100q145 0 245.5 -99.5t100.5 -245.5q0 -147 -100 -244.5t-246 -97.5zM362 -170h-192l1063 1454h192zM240 954q0 -66 44 -109.5t111 -43.5q66 0 109 43.5t43 109.5q0 67 -43 110.5t-109 43.5q-68 0 -111.5 -43.5t-43.5 -110.5zM1196 301
q-68 0 -112 -43.5t-44 -110.5q0 -66 44.5 -109.5t111.5 -43.5q66 0 109 43.5t43 109.5q0 67 -43 110.5t-109 43.5zM1985 301q-66 0 -110 -43.5t-44 -110.5q0 -66 44 -109.5t110 -43.5t109.5 43.5t43.5 109.5q0 67 -43.5 110.5t-109.5 43.5z" />
    <glyph glyph-name="pi.onum" horiz-adv-x="1347" 
d="M221 815h-194v229h1294v-229h-193v-815h-262v815h-385v-815h-260v815z" />
    <glyph glyph-name="pi.onum.tnum" 
d="M215 815h-195v229h1295v-229h-193v-815h-262v815h-385v-815h-260v815z" />
    <glyph glyph-name="pi.tnum" 
d="M215 815h-195v229h1295v-229h-193v-815h-262v815h-385v-815h-260v815z" />
    <glyph glyph-name="plus.onum" horiz-adv-x="1124" 
d="M444 438h-397v232h397v397h236v-397h397v-232h-397v-397h-236v397z" />
    <glyph glyph-name="plus.onum.tnum" 
d="M549 438h-397v232h397v397h235v-397h398v-232h-398v-397h-235v397z" />
    <glyph glyph-name="plus.tnum" 
d="M549 612h-397v232h397v397h235v-397h398v-232h-398v-397h-235v397z" />
    <glyph glyph-name="plusminus.onum" horiz-adv-x="1159" 
d="M98 854h365v346h235v-346h363v-233h-363v-347h-235v347h-365v233zM94 137h971v-233h-971v233z" />
    <glyph glyph-name="plusminus.onum.tnum" 
d="M184 854h365v346h235v-346h363v-233h-363v-347h-235v347h-365v233zM180 137h971v-233h-971v233z" />
    <glyph glyph-name="plusminus.tnum" 
d="M184 1028h365v346h235v-346h363v-233h-363v-346h-235v346h-365v233zM180 311h971v-233h-971v233z" />
    <glyph glyph-name="seven.alt" horiz-adv-x="1015" 
d="M29 1208v246h968v-197q-463 -650 -487 -1257h-283q12 295 125 591t334 617h-657z" />
    <glyph glyph-name="seven.onum" horiz-adv-x="1007" 
d="M80 -346l594 1208h-645v246h960v-197l-620 -1257h-289z" />
    <glyph glyph-name="seven.onum.alt" horiz-adv-x="999" 
d="M16 862v246h969v-197q-463 -650 -487 -1257h-283q12 295 125 591t334 617h-658z" />
    <glyph glyph-name="seven.onum.tnum" 
d="M242 -346l594 1208h-646v246h961v-197l-621 -1257h-288z" />
    <glyph glyph-name="seven.tnum" 
d="M246 0l594 1208h-645v246h960v-197l-620 -1257h-289z" />
    <glyph glyph-name="six.onum" horiz-adv-x="1159" 
d="M74 477q0 110 41.5 202t128.5 220l370 553h314l-357 -516q28 8 70 8q198 0 334.5 -137t136.5 -338q0 -139 -69 -253t-187.5 -178.5t-261.5 -64.5q-142 0 -261.5 66.5t-189 182.5t-69.5 255zM598 719q-113 0 -184.5 -71t-71.5 -177q0 -115 71 -186.5t181 -71.5
q111 0 183.5 71t72.5 181q0 109 -73.5 181.5t-178.5 72.5z" />
    <glyph glyph-name="six.onum.tnum" 
d="M160 477q0 110 41.5 202t128.5 220l370 553h314l-357 -516q28 8 70 8q198 0 334.5 -137t136.5 -338q0 -139 -69 -253t-187.5 -178.5t-261.5 -64.5q-142 0 -261.5 66.5t-189 182.5t-69.5 255zM684 719q-113 0 -184.5 -71t-71.5 -177q0 -115 71 -186.5t181 -71.5
q111 0 183.5 71t72.5 181q0 109 -73.5 181.5t-178.5 72.5z" />
    <glyph glyph-name="six.tnum" 
d="M162 477q0 110 41.5 202t128.5 220l370 553h314l-357 -516q28 8 70 8q198 0 334.5 -137t136.5 -338q0 -139 -69 -253t-187.5 -178.5t-261.5 -64.5q-142 0 -261.5 66.5t-189 182.5t-69.5 255zM686 719q-113 0 -184.5 -71t-71.5 -177q0 -115 71 -186.5t181 -71.5
q111 0 183.5 71t72.5 181q0 109 -73.5 181.5t-178.5 72.5z" />
    <glyph glyph-name="sterling.onum" horiz-adv-x="1089" 
d="M84 231h33q41 0 64.5 29.5t23.5 83.5v121h-119v158h119v98q0 179 120.5 294t319.5 115q252 0 379 -208l-166 -158q-32 53 -87.5 90t-125.5 37q-80 0 -128 -47.5t-48 -122.5v-98h315v-158h-315v-119q0 -40 -15 -70t-34 -45h602v-231h-938v231z" />
    <glyph glyph-name="sterling.onum.tnum" 
d="M203 231h33q41 0 64.5 29.5t23.5 83.5v121h-119v158h119v98q0 179 120.5 294t319.5 115q252 0 379 -208l-166 -158q-32 53 -87.5 90t-125.5 37q-80 0 -128 -47.5t-48 -122.5v-98h315v-158h-315v-119q0 -40 -15 -70t-34 -45h602v-231h-938v231z" />
    <glyph glyph-name="sterling.tnum" 
d="M170 246h33q41 0 64.5 29.5t23.5 80.5v269h-119v172h119v229q0 197 130 325t339 128q143 0 252.5 -63.5t173.5 -162.5l-172 -168q-38 58 -103 99t-151 41q-91 0 -148 -55.5t-57 -143.5v-229h389v-172h-389v-254q0 -81 -49 -125h684v-246h-1020v246z" />
    <glyph glyph-name="three.alt" horiz-adv-x="1179" 
d="M61 260l201 148q46 -88 125.5 -137.5t173.5 -49.5q100 0 169 56t69 139q0 98 -69 151.5t-189 53.5h-133v227h133q115 0 178 49.5t63 140.5q0 83 -63 139t-158 56q-87 0 -161 -49.5t-117 -136.5l-201 147q67 135 191 210t288 75q217 0 358.5 -121.5t141.5 -310.5
q0 -93 -49.5 -174.5t-139.5 -135.5q97 -54 150 -139.5t53 -189.5q0 -189 -145.5 -311t-368.5 -122q-168 0 -297.5 75t-202.5 210z" />
    <glyph glyph-name="three.onum" horiz-adv-x="1120" 
d="M31 -86l207 154q44 -89 118 -138t164 -49q109 0 181.5 61t72.5 154q0 114 -82 178t-227 64q-107 0 -164 -14v157l346 383h-541v242h893v-178l-362 -393q176 -15 293 -135.5t117 -293.5q0 -210 -148.5 -343.5t-378.5 -133.5q-162 0 -288.5 76t-200.5 209z" />
    <glyph glyph-name="three.onum.alt" horiz-adv-x="1144" 
d="M43 -86l201 147q46 -87 125.5 -136.5t173.5 -49.5q100 0 168.5 56t68.5 139q0 98 -69 151t-189 53h-133v228h133q116 0 179 49.5t63 140.5q0 83 -63 139t-158 56q-87 0 -161.5 -50t-117.5 -137l-201 148q67 135 191.5 210t288.5 75q217 0 358 -122t141 -311
q0 -93 -49 -174t-139 -135q97 -54 150 -140t53 -190q0 -189 -145.5 -310.5t-368.5 -121.5q-168 0 -297.5 75t-202.5 210z" />
    <glyph glyph-name="three.onum.tnum" 
d="M135 -86l207 154q44 -89 118.5 -138t164.5 -49q109 0 181.5 61t72.5 154q0 114 -82.5 178t-227.5 64q-106 0 -163 -14v157l346 383h-541v242h893v-178l-363 -393q176 -15 293 -135.5t117 -293.5q0 -210 -148 -343.5t-378 -133.5q-163 0 -289.5 76t-200.5 209z" />
    <glyph glyph-name="three.tnum" 
d="M135 260l207 154q44 -89 118.5 -138t164.5 -49q109 0 181.5 61t72.5 154q0 114 -82.5 178t-227.5 64q-106 0 -163 -14v157l346 383h-541v242h893v-178l-363 -393q177 -15 293.5 -135t116.5 -293q0 -210 -148.5 -344t-377.5 -134q-163 0 -289.5 76t-200.5 209z" />
    <glyph glyph-name="threequarters.onum" horiz-adv-x="1574" 
d="M344 457q-105 0 -184.5 50t-118.5 128l145 104q52 -106 156 -106q48 0 82.5 29t34.5 71q0 51 -37.5 79t-99.5 28q-56 0 -109 -11v119l164 160h-289v176h547v-129l-191 -178q96 -20 153.5 -86t57.5 -158q0 -123 -88.5 -199.5t-222.5 -76.5zM848 -2v117l375 518h180v-473
h110v-164h-110v-166h-184v168h-371zM428 -170h-192l1062 1454h193zM1225 352l-144 -198h144v198z" />
    <glyph glyph-name="two.onum" horiz-adv-x="1140" 
d="M80 862q71 128 205 198t301 70q126 0 227 -41t164 -127.5t63 -205.5q0 -79 -30 -140.5t-79 -101t-109 -70t-123.5 -53.5t-118.5 -44.5t-97 -50t-57 -63.5h639v-233h-965q-12 64 -12 154q0 70 23 127.5t62 97.5t89.5 72.5t106.5 55.5t112 43.5t106.5 40.5t89.5 42t62 52
t23 67q0 57 -51 93t-133 36q-95 0 -177 -44t-125 -116z" />
    <glyph glyph-name="two.onum.tnum" 
d="M176 862q71 128 205 198t301 70q93 0 175 -24.5t144.5 -70t99 -117.5t36.5 -162q0 -79 -30 -140.5t-79 -101t-109.5 -70t-124 -53.5t-118 -44.5t-97 -50t-57.5 -63.5h639v-233h-964q-13 70 -13 154q0 70 23 127.5t62 97.5t89.5 72.5t106.5 55.5t112 43.5t106.5 40.5
t89.5 42t62 52t23 67q0 57 -51 93t-133 36q-95 0 -176.5 -44t-124.5 -116z" />
    <glyph glyph-name="two.tnum" 
d="M182 0q-12 82 -12 147q0 102 39 191.5t101.5 154.5t137.5 122t150.5 106t138 95.5t101.5 101t39 112.5q0 86 -61 139.5t-157 53.5q-91 0 -165.5 -49t-116.5 -132l-207 142q69 138 203 216.5t297 78.5q129 0 237 -49.5t176 -149.5t68 -231q0 -73 -23 -138.5t-61.5 -117
t-88.5 -98t-105.5 -85t-111 -74.5t-106 -71t-89.5 -69.5t-62.5 -74t-24.5 -81.5h664v-240h-961z" />
    <glyph glyph-name="twothirds.onum" horiz-adv-x="1765" 
d="M55 1128q39 78 119 129.5t182 51.5q128 0 209.5 -70t81.5 -184q0 -52 -18 -95.5t-54 -79t-67 -58t-81 -54.5q-9 -5 -13 -8q-9 -6 -27 -17.5t-26.5 -17t-22.5 -15t-21 -15.5t-15 -13t-12 -13t-5 -12h377v-176h-586q-13 57 -13 111q0 90 52 157.5t157 133.5q17 11 56 35
t52 33.5t34 27.5t28 34t7 36q0 36 -26 56.5t-71 20.5q-95 0 -149 -102zM1087 -16l146 104q52 -106 156 -106q48 0 82 29t34 71q0 51 -37.5 78.5t-99.5 27.5q-60 0 -108 -10v119l163 160h-288v176h546v-129l-190 -178q96 -20 153.5 -86t57.5 -158q0 -123 -88.5 -200
t-222.5 -77q-105 0 -185 50.5t-119 128.5zM272 -170l1063 1454h193l-1063 -1454h-193z" />
    <glyph glyph-name="u.alt" horiz-adv-x="1241" 
d="M621 -25q-226 0 -357 119.5t-131 323.5v626h266v-595q0 -112 57.5 -174t161.5 -62q106 0 165 63t59 175v593h266v-626q0 -204 -131.5 -323.5t-355.5 -119.5z" />
    <glyph glyph-name="uacute.alt" horiz-adv-x="1241" 
d="M133 418v626h266v-595q0 -112 57.5 -174t161.5 -62q106 0 165 63t59 175v593h266v-626q0 -204 -131.5 -323.5t-355.5 -119.5q-226 0 -357 119.5t-131 323.5zM526 1171l201 367h322l-301 -367h-222z" />
    <glyph glyph-name="ubreve.alt" horiz-adv-x="1241" 
d="M621 -25q-226 0 -357 119.5t-131 323.5v626h266v-595q0 -112 57.5 -174t161.5 -62q106 0 165 63t59 175v593h266v-626q0 -204 -131.5 -323.5t-355.5 -119.5zM625 1184q-127 0 -212.5 81t-84.5 214h204q-1 -51 24.5 -82t68.5 -31q41 0 66 31t24 82h205q1 -133 -83.5 -214
t-211.5 -81z" />
    <glyph glyph-name="ucircumflex.alt" horiz-adv-x="1241" 
d="M621 -25q-226 0 -357 119.5t-131 323.5v626h266v-595q0 -112 57.5 -174t161.5 -62q106 0 165 63t59 175v593h266v-626q0 -204 -131.5 -323.5t-355.5 -119.5zM246 1141l260 401h227l260 -401h-239l-136 229l-133 -229h-239z" />
    <glyph glyph-name="udieresis.alt" horiz-adv-x="1241" 
d="M621 -25q-226 0 -357 119.5t-131 323.5v626h266v-595q0 -112 57.5 -174t161.5 -62q106 0 165 63t59 175v593h266v-626q0 -204 -131.5 -323.5t-355.5 -119.5zM688 1348q0 64 44.5 106.5t109.5 42.5q64 0 108.5 -42.5t44.5 -106.5t-45 -108t-108 -44q-65 0 -109.5 44
t-44.5 108zM223 1348q0 64 44.5 106.5t109.5 42.5q64 0 108.5 -42.5t44.5 -106.5t-45 -108t-108 -44q-65 0 -109.5 44t-44.5 108z" />
    <glyph glyph-name="udotbelow.alt" horiz-adv-x="1241" 
d="M621 -25q-226 0 -357 119.5t-131 323.5v626h266v-595q0 -112 57.5 -174t161.5 -62q106 0 165 63t59 175v593h266v-626q0 -204 -131.5 -323.5t-355.5 -119.5zM471 -283q0 64 44.5 107t109.5 43q64 0 108.5 -43t44.5 -107t-44.5 -107.5t-108.5 -43.5q-65 0 -109.5 43.5
t-44.5 107.5z" />
    <glyph glyph-name="ugrave.alt" horiz-adv-x="1241" 
d="M133 418v626h266v-595q0 -112 57.5 -174t161.5 -62q106 0 165 63t59 175v593h266v-626q0 -204 -131.5 -323.5t-355.5 -119.5q-226 0 -357 119.5t-131 323.5zM195 1538h323l201 -367h-221z" />
    <glyph glyph-name="uhungarumlaut.alt" horiz-adv-x="1275" 
d="M133 1044h266v-595q0 -112 57.5 -174t161.5 -62q106 0 165 63t59 175v593h266v-626q0 -204 -131.5 -323.5t-355.5 -119.5q-226 0 -357 119.5t-131 323.5v626zM715 1171l211 367h270l-272 -367h-209zM356 1171l193 367h262l-248 -367h-207z" />
    <glyph glyph-name="umacron.alt" horiz-adv-x="1241" 
d="M133 418v626h266v-595q0 -112 57.5 -174t161.5 -62q106 0 165 63t59 175v593h266v-626q0 -204 -131.5 -323.5t-355.5 -119.5q-226 0 -357 119.5t-131 323.5zM924 1249h-600v199h600v-199z" />
    <glyph glyph-name="uogonek.alt" horiz-adv-x="1241" 
d="M133 1044h266v-595q0 -112 57.5 -174t161.5 -62q106 0 165 63t59 175v593h266v-626q0 -159 -81 -268t-228 -152q-78 -61 -112 -101t-34 -79q0 -70 135 -86l-75 -197q-115 3 -196 59t-81 152q0 121 139 231q-206 12 -324 130t-118 311v626z" />
    <glyph glyph-name="uring.alt" horiz-adv-x="1241" 
d="M133 1044h266v-595q0 -112 57.5 -174t161.5 -62q106 0 165 63t59 175v593h266v-626q0 -204 -131.5 -323.5t-355.5 -119.5q-226 0 -357 119.5t-131 323.5v626zM629 1128q-105 0 -173.5 67.5t-68.5 164.5q0 98 68 164.5t174 66.5q105 0 173 -66.5t68 -164.5
q0 -97 -68.5 -164.5t-172.5 -67.5zM547 1360q0 -33 23.5 -56.5t58.5 -23.5q33 0 56.5 23.5t23.5 56.5q0 34 -23 57t-57 23q-35 0 -58.5 -23t-23.5 -57z" />
    <glyph glyph-name="utilde.alt" horiz-adv-x="1241" 
d="M133 418v626h266v-595q0 -112 57.5 -174t161.5 -62q106 0 165 63t59 175v593h266v-626q0 -204 -131.5 -323.5t-355.5 -119.5q-226 0 -357 119.5t-131 323.5zM436 1174l-176 43q0 121 64.5 193.5t171.5 72.5q40 0 80 -15.5t66 -34t55.5 -34t50.5 -15.5q68 0 75 105
l174 -43q0 -120 -65.5 -193t-169.5 -73q-50 0 -99 24t-88 48t-65 24q-35 0 -53.5 -28.5t-20.5 -73.5z" />
    <glyph glyph-name="y.alt" horiz-adv-x="1093" 
d="M0 1044h285l266 -727l264 727h277l-584 -1454h-262l174 439z" />
    <glyph glyph-name="yacute.alt" horiz-adv-x="1093" 
d="M0 1044h285l266 -727l264 727h277l-584 -1454h-262l174 439zM672 1171h-221l200 367h322z" />
    <glyph glyph-name="ycircumflex.alt" horiz-adv-x="1093" 
d="M420 29l-420 1015h285l266 -727l264 727h277l-584 -1454h-262zM412 1141h-240l260 401h227l261 -401h-240l-135 229z" />
    <glyph glyph-name="ydieresis.alt" horiz-adv-x="1093" 
d="M420 29l-420 1015h285l266 -727l264 727h277l-584 -1454h-262zM623 1348q0 64 44 106.5t109 42.5q64 0 109 -42.5t45 -106.5t-45 -108t-109 -44q-65 0 -109 44t-44 108zM311 1196q-65 0 -109 44t-44 108t44 106.5t109 42.5q64 0 109 -42.5t45 -106.5t-45 -108t-109 -44z
" />
    <glyph glyph-name="yen.onum" horiz-adv-x="1177" 
d="M377 610l-346 496h299l262 -393l256 393h299l-344 -496h192v-159h-270v-86h270v-160h-270v-205h-270v205h-273v160h273v86h-273v159h195z" />
    <glyph glyph-name="yen.onum.tnum" 
d="M455 610l-346 496h299l262 -393l256 393h299l-344 -496h192v-159h-270v-86h270v-160h-270v-205h-271v205h-272v160h272v86h-272v159h195z" />
    <glyph glyph-name="yen.tnum" 
d="M438 791l-428 663h303l353 -567l352 567h303l-428 -663h244v-168h-336v-131h336v-168h-336v-324h-271v324h-331v168h331v131h-331v168h239z" />
    <glyph glyph-name="ygrave.alt" horiz-adv-x="1093" 
d="M420 29l-420 1015h285l266 -727l264 727h277l-584 -1454h-262zM416 1171l-303 367h323l201 -367h-221z" />
    <glyph glyph-name="ymacron.alt" horiz-adv-x="1093" 
d="M0 1044h285l266 -727l264 727h277l-584 -1454h-262l174 439zM240 1249v199h600v-199h-600z" />
    <glyph glyph-name="ytilde.alt" horiz-adv-x="1093" 
d="M0 1044h285l266 -727l264 727h277l-584 -1454h-262l174 439zM172 1217q0 121 64.5 193.5t171.5 72.5q40 0 80 -15.5t65.5 -34t55 -34t50.5 -15.5q69 0 76 105l174 -43q0 -120 -65.5 -193t-169.5 -73q-50 0 -99 24t-88 48t-65 24q-35 0 -53.5 -28.5t-20.5 -73.5z" />
    <glyph glyph-name="zero.onum" horiz-adv-x="1337" 
d="M80 553q0 121 44 227.5t121 183.5t187.5 121.5t237.5 44.5q169 0 303.5 -76t209 -207.5t74.5 -293.5t-74.5 -293.5t-209 -208t-303.5 -76.5q-127 0 -237.5 44.5t-187.5 122t-121 184t-44 227.5zM670 883q-140 0 -230 -96t-90 -234t90 -234t230 -96t228.5 96t88.5 234
t-88.5 234t-228.5 96z" />
    <glyph glyph-name="zero.onum.tnum" 
d="M109 553q0 252 156.5 414.5t402.5 162.5q244 0 400.5 -162.5t156.5 -414.5t-156.5 -415t-400.5 -163q-245 0 -402 162.5t-157 415.5zM668 883q-128 0 -208.5 -93t-80.5 -237t80.5 -237t208.5 -93t207 93t79 237t-79 237t-207 93z" />
    <glyph glyph-name="zero.slash" horiz-adv-x="1357" 
d="M678 -25q-124 0 -223 40.5t-165.5 109.5t-110.5 166t-63.5 205t-19.5 231q0 122 19.5 230t63.5 205t110.5 166.5t165.5 110t223 40.5t224 -40.5t166 -110t110.5 -166.5t64 -205t19.5 -230q0 -123 -19.5 -231t-64 -205t-110.5 -166t-166 -109.5t-224 -40.5zM369 727
q0 -189 49 -311l432 753q-69 60 -172 60q-154 0 -231.5 -132t-77.5 -370zM512 281q68 -56 166 -56q156 0 232.5 131.5t76.5 370.5q0 187 -45 303z" />
    <glyph glyph-name="zero.slash.onum" horiz-adv-x="1337" 
d="M670 -25q-127 0 -237.5 44.5t-187.5 122t-121 184t-44 227.5t44 227.5t121 183.5t187.5 121.5t237.5 44.5q169 0 303.5 -76t209 -207.5t74.5 -293.5t-74.5 -293.5t-209 -208t-303.5 -76.5zM670 883q-140 0 -230 -96t-90 -234q0 -133 84 -227l350 536q-52 21 -114 21z
M905 780l-350 -536q53 -21 115 -21q140 0 228.5 96t88.5 234q0 132 -82 227z" />
    <glyph glyph-name="zero.slash.onum.tnum" 
d="M109 553q0 252 156.5 414.5t402.5 162.5q244 0 400.5 -162.5t156.5 -414.5t-156.5 -415t-400.5 -163q-245 0 -402 162.5t-157 415.5zM874 791l-346 -531q58 -37 140 -37q128 0 207 93t79 237q0 145 -80 238zM668 883q-128 0 -208.5 -93t-80.5 -237q0 -104 45 -186
l330 503q-44 13 -86 13z" />
    <glyph glyph-name="zero.slash.tnum" 
d="M666 -25q-116 0 -210 40.5t-156.5 109.5t-105 166t-61 205t-18.5 231q0 122 18.5 230t61 205t105 166.5t156.5 110t210 40.5q117 0 211 -40.5t156.5 -110t104.5 -166.5t60.5 -205t18.5 -230q0 -123 -18.5 -231t-60.5 -205t-104.5 -166t-156.5 -109.5t-211 -40.5zM389 727
q0 -169 33 -281l409 713q-67 70 -165 70q-139 0 -208 -132t-69 -370zM506 291q63 -66 160 -66q139 0 208.5 132t69.5 370q0 157 -31 272z" />
    <glyph glyph-name="zero.tnum" 
d="M115 727q0 122 18.5 230t61 205t105 166.5t156.5 110t210 40.5q117 0 211 -40.5t156.5 -110t104.5 -166.5t60.5 -205t18.5 -230q0 -123 -18.5 -231t-60.5 -205t-104.5 -166t-156.5 -109.5t-211 -40.5q-116 0 -210 40.5t-156.5 109.5t-105 166t-61 205t-18.5 231z
M666 1229q-139 0 -208 -132t-69 -370t69 -370t208 -132t208.5 132t69.5 370t-69.5 370t-208.5 132z" />
    </font>
</defs>
</svg>
