<svg width="44" height="44" viewBox="0 0 44 44" fill="none" xmlns="http://www.w3.org/2000/svg">
<path d="M22.5654 22.5654L31.4346 22.5654C31.7469 22.5654 32 22.3122 32 22C32 21.6877 31.7469 21.4346 31.4346 21.4346L22.5654 21.4346L22.5654 12.5654C22.5654 12.2531 22.3123 12 22 12C21.6878 12 21.4346 12.2531 21.4346 12.5654L21.4346 21.4346L12.5654 21.4346C12.2531 21.4346 12 21.6878 12 22C12 22.1561 12.0633 22.2975 12.1656 22.3998C12.2679 22.5021 12.4093 22.5654 12.5654 22.5654L21.4346 22.5654L21.4346 31.4346C21.4346 31.5907 21.4979 31.7321 21.6002 31.8344C21.7025 31.9367 21.8439 32 22 32C22.3122 32 22.5654 31.7469 22.5654 31.4346L22.5654 22.5654Z" fill="white"/>
</svg>
