<svg width="20" height="21" viewBox="0 0 20 21" fill="none" xmlns="http://www.w3.org/2000/svg">
<path d="M13.5349 6.96447C15.4875 8.9171 15.4875 12.0829 13.5349 14.0355M6.46382 14.0355C4.51119 12.0829 4.51119 8.91707 6.46382 6.96445M4.10679 16.3926C0.852423 13.1382 0.852423 7.86182 4.10679 4.60745M15.8919 4.60749C19.1463 7.86186 19.1463 13.1382 15.8919 16.3926M11.666 10.5C11.666 11.4205 10.9198 12.1667 9.99935 12.1667C9.07887 12.1667 8.33268 11.4205 8.33268 10.5C8.33268 9.57953 9.07887 8.83334 9.99935 8.83334C10.9198 8.83334 11.666 9.57953 11.666 10.5Z" stroke="white" stroke-linecap="round" stroke-linejoin="round"/>
</svg>
