<svg width="90" height="90" viewBox="0 0 90 90" fill="none" xmlns="http://www.w3.org/2000/svg">
<rect width="90" height="90" rx="5" fill="white"/>
<path d="M54.193 35.8076C59.2699 40.8844 59.2699 49.1156 54.193 54.1924M35.8083 54.1923C30.7314 49.1155 30.7314 40.8844 35.8083 35.8075M29.68 60.3206C21.2186 51.8593 21.2186 38.1407 29.68 29.6794M60.3213 29.6795C68.7827 38.1408 68.7827 51.8594 60.3213 60.3207M49.334 45C49.334 47.3932 47.3939 49.3333 45.0007 49.3333C42.6074 49.3333 40.6673 47.3932 40.6673 45C40.6673 42.6068 42.6074 40.6667 45.0007 40.6667C47.3939 40.6667 49.334 42.6068 49.334 45Z" stroke="#557278" stroke-width="4" stroke-linecap="round" stroke-linejoin="round"/>
</svg>
