<svg width="21" height="21" viewBox="0 0 21 21" fill="none" xmlns="http://www.w3.org/2000/svg">
<path fill-rule="evenodd" clip-rule="evenodd" d="M13.6444 12.8345H14.5478L20.2539 18.552L18.5501 20.2559L12.8325 14.5497V13.6464L12.5238 13.3262C11.2202 14.4468 9.52778 15.1215 7.68673 15.1215C3.58152 15.1215 0.253906 11.7939 0.253906 7.68868C0.253906 3.58348 3.58152 0.255859 7.68673 0.255859C11.7919 0.255859 15.1195 3.58348 15.1195 7.68868C15.1195 9.52973 14.4449 11.2221 13.3242 12.5257L13.6444 12.8345ZM2.54093 7.68868C2.54093 10.536 4.83938 12.8345 7.68673 12.8345C10.5341 12.8345 12.8325 10.536 12.8325 7.68868C12.8325 4.84134 10.5341 2.54288 7.68673 2.54288C4.83938 2.54288 2.54093 4.84134 2.54093 7.68868Z" fill="#94A6AA"/>
</svg>
