<svg width="24" height="24" viewBox="0 0 24 24" fill="none" xmlns="http://www.w3.org/2000/svg">
<path d="M12 21C16.9706 21 21 16.9706 21 12C21 7.02944 16.9706 3 12 3C7.02944 3 3 7.02944 3 12C3 16.9706 7.02944 21 12 21Z" stroke="white" stroke-width="1.5" stroke-miterlimit="10" stroke-linecap="round"/>
<path d="M15.5667 11.2022L18.045 10.1522L19.2534 6.71811M20.9531 12.6548L18.045 10.1522M8.43328 11.2022L5.955 10.1522L4.74656 6.71811M3.04688 12.6548L5.955 10.1522M12 8.21014V5.51155L15 3.5128M9 3.51233L12 5.51155M14.625 15L15.9375 17.25L14.625 20.5781M19.2534 17.25H16.0312M9.375 15L8.0625 17.25L9.39234 20.6015M4.76391 17.25H8.0625M12 8.21014L8.43328 11.2022L9.375 15H14.625L15.5667 11.2022L12 8.21014Z" stroke="white" stroke-width="1.5" stroke-linecap="round" stroke-linejoin="round"/>
</svg>
