<svg width="24" height="24" viewBox="0 0 24 24" fill="none" xmlns="http://www.w3.org/2000/svg">
<g clip-path="url(#clip0_5010_5450)">
<path fill-rule="evenodd" clip-rule="evenodd" d="M19.7773 4.43057C20.8652 3.9725 22.0315 4.89243 21.8394 6.05712L19.5705 19.8138C19.3517 21.1402 17.8949 21.9013 16.678 21.2403C15.6597 20.6872 14.1489 19.8359 12.7873 18.9462C12.1074 18.5019 10.0255 17.0773 10.2814 16.0632C10.5002 15.1961 14.0001 11.9382 16.0001 10.0007C16.7857 9.23966 16.4279 8.79999 15.5001 9.50073C13.1985 11.239 9.50332 13.8819 8.28136 14.6257C7.20323 15.2819 6.64031 15.3939 5.96886 15.2819C4.74273 15.0776 3.60596 14.7612 2.67788 14.3765C1.42351 13.8565 1.48461 12.1327 2.67703 11.6307L19.7773 4.43057Z" fill="white"/>
</g>
<defs>
<clipPath id="clip0_5010_5450">
<rect width="24" height="24" fill="white"/>
</clipPath>
</defs>
</svg>
