<svg xmlns="http://www.w3.org/2000/svg" width="24" height="24" fill="none">
<path stroke="#fff" stroke-linecap="round" stroke-linejoin="round" stroke-miterlimit="10" stroke-width="1.5" d="M8.5 19H8c-4 0-6-1-6-6V8c0-4 2-6 6-6h8c4 0 6 2 6 6v5c0 4-2 6-6 6h-.5c-.31 0-.61.15-.8.4l-1.5 2c-.66.88-1.74.88-2.4 0l-1.5-2c-.16-.22-.53-.4-.8-.4Z"/>
<path fill="#fff" d="M11.41 6c.626 0 1.227.237 1.67.659.444.422.693.994.693 1.591v4.5c0 .597-.25 1.169-.693 1.591a2.426 2.426 0 0 1-1.67.659H7.863a2.426 2.426 0 0 1-1.672-.659A2.197 2.197 0 0 1 5.5 12.75v-4.5c0-.597.249-1.169.692-1.591A2.426 2.426 0 0 1 7.864 6h3.545Zm3.544 5.807V9.193l2.05-1.847a.928.928 0 0 1 .96-.163c.16.065.295.173.39.311.096.138.146.3.146.465v5.082c0 .165-.05.327-.146.465a.877.877 0 0 1-.39.311.928.928 0 0 1-.96-.162l-2.05-1.848Z"/>
</svg>