<svg width="18" height="18" viewBox="0 0 18 18" fill="none" xmlns="http://www.w3.org/2000/svg">
<path fill-rule="evenodd" clip-rule="evenodd" d="M8.99984 0.666504C4.39984 0.666504 0.666504 4.39984 0.666504 8.99984C0.666504 13.5998 4.39984 17.3332 8.99984 17.3332C13.5998 17.3332 17.3332 13.5998 17.3332 8.99984C17.3332 4.39984 13.5998 0.666504 8.99984 0.666504ZM8.99984 15.6665C5.32484 15.6665 2.33317 12.6748 2.33317 8.99984C2.33317 5.32484 5.32484 2.33317 8.99984 2.33317C12.6748 2.33317 15.6665 5.32484 15.6665 8.99984C15.6665 12.6748 12.6748 15.6665 8.99984 15.6665ZM7.33317 10.8082L12.8248 5.3165L13.9998 6.49984L7.33317 13.1665L3.99984 9.83317L5.17484 8.65817L7.33317 10.8082Z" fill="white"/>
</svg>
