<svg width="16" height="16" viewBox="0 0 16 16" fill="none" xmlns="http://www.w3.org/2000/svg">
<path d="M16 15.6441V9.72806C16 6.55806 14.308 5.08306 12.052 5.08306C10.2315 5.08306 9.4155 6.08456 8.961 6.78756V5.32556H5.531C5.5765 6.29406 5.531 15.6441 5.531 15.6441H8.961V9.88156C8.961 9.57406 8.983 9.26556 9.074 9.04556C9.3215 8.42906 9.886 7.79106 10.833 7.79106C12.0745 7.79106 12.5705 8.73706 12.5705 10.1241V15.6446H16V15.6441ZM1.9175 3.91706C3.113 3.91706 3.8585 3.12406 3.8585 2.13356C3.8365 1.12156 3.1135 0.351562 1.9405 0.351562C0.7675 0.351562 0 1.12106 0 2.13356C0 3.12406 0.7445 3.91706 1.896 3.91706H1.9175ZM3.6325 15.6441V5.32556H0.203V15.6441H3.6325Z" fill="white"/>
</svg>
