<svg width="36" height="22" viewBox="0 0 36 22" fill="none" xmlns="http://www.w3.org/2000/svg">
<path d="M20.3062 11C20.3062 16.5913 15.7613 21.125 10.152 21.125C8.82059 21.1268 7.50187 20.8663 6.27113 20.3584C5.0404 19.8506 3.92174 19.1053 2.97904 18.1651C2.03634 17.2249 1.28806 16.1082 0.776911 14.8788C0.265766 13.6494 0.00177167 12.3314 0 11C0 5.40651 4.545 0.875012 10.152 0.875012C11.4836 0.872942 12.8026 1.13321 14.0336 1.64094C15.2646 2.14868 16.3835 2.89394 17.3264 3.83417C18.2694 4.77439 19.0178 5.89115 19.5291 7.12068C20.0404 8.35021 20.3045 9.66842 20.3062 11ZM31.4438 11C31.4438 16.265 29.1712 20.531 26.3678 20.531C23.5642 20.531 21.2917 16.2628 21.2917 11C21.2917 5.73501 23.5642 1.46901 26.3678 1.46901C29.1712 1.46901 31.4438 5.73726 31.4438 11ZM36 11C36 15.716 35.2013 19.5388 34.2135 19.5388C33.228 19.5388 32.4292 15.7138 32.4292 11C32.4292 6.28401 33.228 2.46126 34.2157 2.46126C35.2012 2.46126 36 6.28401 36 11Z" fill="white"/>
</svg>
