<svg width="16" height="16" viewBox="0 0 16 16" fill="none" xmlns="http://www.w3.org/2000/svg">
<path fill-rule="evenodd" clip-rule="evenodd" d="M13.1855 2.95306C13.9108 2.64768 14.6883 3.26097 14.5602 4.03743L13.0476 13.2086C12.9018 14.0928 11.9306 14.6002 11.1193 14.1596C10.4404 13.7908 9.43325 13.2233 8.52551 12.6302C8.07225 12.334 6.68431 11.3842 6.85491 10.7082C7.00078 10.1301 9.33405 7.95817 10.6674 6.6665C11.1911 6.15912 10.9526 5.86601 10.334 6.33317C8.79965 7.49204 6.33619 9.25397 5.52155 9.74984C4.8028 10.1873 4.42752 10.262 3.97989 10.1873C3.16247 10.0511 2.40462 9.84017 1.7859 9.5837C0.949655 9.23704 0.990388 8.08784 1.78533 7.75317L13.1855 2.95306Z" fill="white"/>
</svg>
