<svg width="32" height="27" viewBox="0 0 32 27" fill="none" xmlns="http://www.w3.org/2000/svg">
<path d="M29.065 0.481763C29.065 0.481763 31.9787 -0.654487 31.735 2.10476C31.6547 3.24101 30.9265 7.21826 30.3595 11.5195L28.417 24.262C28.417 24.262 28.255 26.1288 26.7977 26.4535C25.3412 26.7775 23.1557 25.3173 22.7507 24.9925C22.4267 24.7488 16.6802 21.0963 14.6567 19.3113C14.0897 18.8238 13.4417 17.8503 14.7377 16.714L23.236 8.59751C24.2072 7.62401 25.1785 5.35151 21.1315 8.11076L9.799 15.8208C9.799 15.8208 8.50375 16.633 6.07599 15.9025L0.813994 14.2788C0.813994 14.2788 -1.12851 13.0615 2.19024 11.8443C10.285 8.02976 20.2412 4.13426 29.0635 0.481763H29.065Z" fill="white"/>
</svg>
