<svg width="33" height="26" viewBox="0 0 33 26" fill="none" xmlns="http://www.w3.org/2000/svg">
<path d="M32.1901 3C31.0351 3.525 29.7901 3.87 28.5001 4.035C29.8201 3.24 30.8401 1.98 31.3201 0.465C30.0751 1.215 28.6951 1.74 27.2401 2.04C26.0551 0.75 24.3901 0 22.5001 0C18.9751 0 16.0951 2.88 16.0951 6.435C16.0951 6.945 16.1551 7.44 16.2601 7.905C10.9201 7.635 6.16506 5.07 3.00006 1.185C2.44506 2.13 2.13006 3.24 2.13006 4.41C2.13006 6.645 3.25506 8.625 4.99506 9.75C3.93006 9.75 2.94006 9.45 2.07006 9V9.045C2.07006 12.165 4.29006 14.775 7.23006 15.36C6.28615 15.6183 5.2952 15.6543 4.33506 15.465C4.74247 16.7437 5.54036 17.8626 6.61658 18.6644C7.6928 19.4662 8.99323 19.9105 10.3351 19.935C8.0605 21.7357 5.24105 22.709 2.34006 22.695C1.83006 22.695 1.32006 22.665 0.810059 22.605C3.66006 24.435 7.05006 25.5 10.6801 25.5C22.5001 25.5 28.9951 15.69 28.9951 7.185C28.9951 6.9 28.9951 6.63 28.9801 6.345C30.2401 5.445 31.3201 4.305 32.1901 3Z" fill="white"/>
</svg>
