<svg id="Layer_1" data-name="Layer 1" xmlns="http://www.w3.org/2000/svg" viewBox="0 0 2478 1080"><defs><style>.cls-1{fill:#f75454;}.cls-2{fill:#fff;}</style></defs><polygon class="cls-1" points="1830.01 323.42 1985.04 323.42 1856.92 992.56 2154.15 992.56 2328.39 87.02 1874.85 87.02 1830.01 323.42"/><path class="cls-2" d="M1711.86,993.85H1316.8L1222.87,798,1067,993.85H669.86l392-463.84L975.36,356.17h-353l-18,92H934L881.3,716.92H551.61l-55.1,276.93h-334L341.1,87.39h886.22l78.33,174.72L1440.39,87.39h399.39L1474.63,524.33Zm-360.44-55h271l-213.23-422,312.92-374.44H1467.43L1293.07,368.5,1191.7,142.39H386.32L229.45,938.85H451.37l55.11-276.93H836l31.14-158.78H537.58l39.51-202h432.34l117.75,236.72-338.83,401h252.16L1234.5,695Z"/></svg>