<svg width="40" height="17" viewBox="0 0 40 17" fill="none" xmlns="http://www.w3.org/2000/svg">
<path d="M7.248 7.352H14.64L13.776 11.624H6.408L7.248 7.352ZM5.712 17H0.048L3.408 0.199999H17.064L16.2 4.472H8.208L5.712 17ZM9.67494 17L19.1549 6.608L18.4109 9.896L13.3469 0.199999H19.3949L22.3229 6.176L19.8749 6.224L25.0589 0.199999H31.4429L22.5869 9.968L22.7789 6.776L28.2989 17H22.1789L19.1309 10.712L21.6989 10.76L16.4429 17H9.67494Z" fill="#0C353E" fill-opacity="0.8"/>
<path d="M30.3675 17L33.3195 2.24L35.2875 4.472H29.9835L30.8475 0.199999H39.3915L36.0315 17H30.3675Z" fill="#F85454"/>
</svg>
