<svg width="16" height="12" viewBox="0 0 16 12" fill="none" xmlns="http://www.w3.org/2000/svg">
<path fill-rule="evenodd" clip-rule="evenodd" d="M0 5.76C0 5.40654 0.286538 5.12 0.64 5.12H15.36C15.7135 5.12 16 5.40654 16 5.76C16 6.11346 15.7135 6.4 15.36 6.4H0.64C0.286538 6.4 0 6.11346 0 5.76Z" fill="white"/>
<path fill-rule="evenodd" clip-rule="evenodd" d="M15.8125 5.30745C16.0625 5.55739 16.0625 5.96261 15.8125 6.21255L10.6925 11.3326C10.4426 11.5825 10.0374 11.5825 9.78745 11.3326C9.53752 11.0826 9.53752 10.6774 9.78745 10.4275L14.9075 5.30745C15.1574 5.05752 15.5626 5.05752 15.8125 5.30745Z" fill="white"/>
<path fill-rule="evenodd" clip-rule="evenodd" d="M9.78745 0.187452C10.0374 -0.0624839 10.4426 -0.0624839 10.6925 0.187452L15.8125 5.30745C16.0625 5.55739 16.0625 5.96261 15.8125 6.21255C15.5626 6.46249 15.1574 6.46249 14.9075 6.21255L9.78745 1.09255C9.53752 0.842613 9.53752 0.437387 9.78745 0.187452Z" fill="white"/>
</svg>
