<svg width="494" height="189" viewBox="0 0 494 189" fill="none" xmlns="http://www.w3.org/2000/svg">
<g opacity="0.08">
<path d="M429.809 75.7641H466.22L436.129 232.516H505.938L546.862 20.3853H440.34L429.809 75.7641Z" fill="#F75454"/>
<path d="M402.059 232.819H309.272L287.211 186.939L250.603 232.819H157.328L249.395 124.16L229.079 83.4361H146.171L141.944 104.988H219.365L206.988 167.945H129.555L116.613 232.819H38.168L80.1128 20.4719H288.257L306.654 61.4017L338.3 20.4719H432.103L346.341 122.829L402.059 232.819ZM317.404 219.934H381.052L330.972 121.077L404.466 33.3609H344.65L303.699 86.3245L279.891 33.3562H90.7335L53.89 219.934H106.012L118.955 155.061H196.348L203.662 117.865H126.259L135.539 70.5448H237.081L264.737 125.999L185.157 219.937H244.381L289.943 162.81L317.404 219.934Z" fill="white"/>
</g>
</svg>
