<svg width="32" height="32" viewBox="0 0 32 32" fill="none" xmlns="http://www.w3.org/2000/svg">
<path d="M21.6568 10.3431C24.781 13.4673 24.781 18.5326 21.6568 21.6568M10.3431 21.6568C7.21891 18.5326 7.21891 13.4673 10.3431 10.3431M6.57187 25.4281C1.36488 20.2211 1.36488 11.7789 6.57187 6.5719M25.4281 6.57196C30.635 11.779 30.635 20.2212 25.4281 25.4281M18.6666 16C18.6666 17.4727 17.4727 18.6667 16 18.6667C14.5272 18.6667 13.3333 17.4727 13.3333 16C13.3333 14.5272 14.5272 13.3333 16 13.3333C17.4727 13.3333 18.6666 14.5272 18.6666 16Z" stroke="#08252C" stroke-width="2" stroke-linecap="round" stroke-linejoin="round"/>
</svg>
