<svg width="22" height="22" viewBox="0 0 22 22" fill="none" xmlns="http://www.w3.org/2000/svg">
<path d="M12.1601 11L21.2597 1.90041C21.5801 1.58003 21.5801 1.06061 21.2597 0.74028C20.9393 0.419948 20.4199 0.419907 20.0996 0.74028L11 9.83992L1.9004 0.74028C1.58003 0.419907 1.06061 0.419907 0.740279 0.74028C0.419948 1.06065 0.419907 1.58007 0.740279 1.90041L9.83985 11L0.740279 20.0996C0.419907 20.42 0.419907 20.9394 0.740279 21.2598C0.900445 21.4199 1.1104 21.5 1.32036 21.5C1.53032 21.5 1.74024 21.4199 1.90044 21.2598L11 12.1602L20.0996 21.2598C20.2597 21.4199 20.4697 21.5 20.6796 21.5C20.8896 21.5 21.0995 21.4199 21.2597 21.2598C21.5801 20.9394 21.5801 20.42 21.2597 20.0996L12.1601 11Z" fill="#0C353E"/>
</svg>
