<svg width="18" height="22" viewBox="0 0 18 22" fill="none" xmlns="http://www.w3.org/2000/svg">
<path fill-rule="evenodd" clip-rule="evenodd" d="M13 4.2251C13 6.4351 11.21 8.2251 9 8.2251C6.79 8.2251 5 6.4351 5 4.2251C5 2.0151 6.79 0.225098 9 0.225098C11.21 0.225098 13 2.0151 13 4.2251ZM11 4.2251C11 3.1251 10.1 2.2251 9 2.2251C7.9 2.2251 7 3.1251 7 4.2251C7 5.3251 7.9 6.2251 9 6.2251C10.1 6.2251 11 5.3251 11 4.2251ZM9 10.7751C6.64 8.5751 3.48 7.2251 0 7.2251V18.2251C3.48 18.2251 6.64 19.5751 9 21.7751C11.36 19.5851 14.52 18.2251 18 18.2251V7.2251C14.52 7.2251 11.36 8.5751 9 10.7751ZM9 19.1751C11.07 17.6551 13.47 16.6951 16 16.3551V9.4051C13.9 9.7851 11.95 10.7551 10.36 12.2351L9 13.5051L7.64 12.2251C6.05 10.7451 4.1 9.7751 2 9.3951V16.3451C4.53 16.6851 6.94 17.6551 9 19.1751Z" fill="white"/>
</svg>
