<svg width="14" height="19" viewBox="0 0 14 19" fill="none" xmlns="http://www.w3.org/2000/svg">
<path fill-rule="evenodd" clip-rule="evenodd" d="M11.9987 6.66658H11.1654V4.99992C11.1654 2.69992 9.2987 0.833252 6.9987 0.833252C4.6987 0.833252 2.83203 2.69992 2.83203 4.99992V6.66658H1.9987C1.08203 6.66658 0.332031 7.41658 0.332031 8.33325V16.6666C0.332031 17.5833 1.08203 18.3333 1.9987 18.3333H11.9987C12.9154 18.3333 13.6654 17.5833 13.6654 16.6666V8.33325C13.6654 7.41658 12.9154 6.66658 11.9987 6.66658ZM6.9987 14.1666C6.08203 14.1666 5.33203 13.4166 5.33203 12.4999C5.33203 11.5833 6.08203 10.8333 6.9987 10.8333C7.91536 10.8333 8.66536 11.5833 8.66536 12.4999C8.66536 13.4166 7.91536 14.1666 6.9987 14.1666ZM4.4987 4.99992V6.66659H9.4987V4.99992C9.4987 3.61659 8.38203 2.49992 6.9987 2.49992C5.61536 2.49992 4.4987 3.61659 4.4987 4.99992Z" fill="white"/>
</svg>
