<svg width="18" height="18" viewBox="0 0 18 18" fill="none" xmlns="http://www.w3.org/2000/svg">
<path fill-rule="evenodd" clip-rule="evenodd" d="M11.9639 11.2549H12.7539L17.7439 16.2549L16.2539 17.7449L11.2539 12.7549V11.9649L10.9839 11.6849C9.84391 12.6649 8.36391 13.2549 6.75391 13.2549C3.16391 13.2549 0.253906 10.3449 0.253906 6.75488C0.253906 3.16488 3.16391 0.254883 6.75391 0.254883C10.3439 0.254883 13.2539 3.16488 13.2539 6.75488C13.2539 8.36488 12.6639 9.84488 11.6839 10.9849L11.9639 11.2549ZM2.25391 6.75488C2.25391 9.24488 4.26391 11.2549 6.75391 11.2549C9.24391 11.2549 11.2539 9.24488 11.2539 6.75488C11.2539 4.26488 9.24391 2.25488 6.75391 2.25488C4.26391 2.25488 2.25391 4.26488 2.25391 6.75488Z" fill="white"/>
</svg>
