<svg width="516" height="336" viewBox="0 0 516 336" fill="none" xmlns="http://www.w3.org/2000/svg">
<g clip-path="url(#clip0_269_112)">
<rect width="516" height="336" rx="10" fill="#0C353E"/>
<g style="mix-blend-mode:overlay">
<path d="M353.35 318.85C374.5 357.1 412.3 381.4 460.901 381.4C527.951 381.4 576.551 338.2 576.551 276.55C576.551 224.799 538.301 187.449 486.551 182.499L566.201 96.0987V56.9485H370V110.049H488.801L412.75 194.199V228.849C421.75 226.599 434.35 225.699 448.751 225.699C491.501 225.699 516.701 245.049 516.701 278.8C516.701 306.25 493.301 326.05 460.901 326.05C434.35 326.05 411.85 311.65 398.8 285.1L353.35 318.85Z" fill="white"/>
</g>
</g>
<defs>
<clipPath id="clip0_269_112">
<rect width="516" height="336" fill="white"/>
</clipPath>
</defs>
</svg>
